<svg width="20" height="20" viewBox="0 0 20 20" fill="none" xmlns="http://www.w3.org/2000/svg">
<path fill-rule="evenodd" clip-rule="evenodd" d="M10.0567 7.05175C10.0199 7.05627 9.98264 7.05627 9.94583 7.05175C8.3553 7.08033 7.08183 8.35292 7.05185 9.94313C7.05638 9.97993 7.05638 10.0172 7.05185 10.054C7.08045 11.6453 8.35418 12.9192 9.94539 12.948C9.96128 12.946 9.97726 12.9448 9.99327 12.9445C10.013 12.9444 10.0327 12.9455 10.0522 12.948C11.6436 12.9203 12.918 11.6474 12.948 10.0566C12.9435 10.0198 12.9435 9.98259 12.948 9.94579C12.9194 8.35523 11.6468 7.08173 10.0567 7.05175ZM9.092 9.99988C9.092 9.49938 9.49943 9.09194 9.99992 9.09194C10.5004 9.09194 10.9078 9.49938 10.9078 9.99988C10.9078 10.5004 10.5004 10.9078 9.99992 10.9078C9.49943 10.9078 9.092 10.5004 9.092 9.99988Z" fill="#5B678A"/>
<path fill-rule="evenodd" clip-rule="evenodd" d="M9.58244 0.993631C9.70224 0.885723 9.85911 0.828283 10.0203 0.833312C10.1674 0.838319 10.308 0.895093 10.4174 0.993631C10.4174 0.993631 13.5457 3.74998 17.2916 3.74998C17.4573 3.75 17.6163 3.81585 17.7335 3.93306C17.8507 4.05026 17.9166 4.20922 17.9166 4.37498V9.48321C17.9166 12.2657 16.6293 16.8443 10.2424 19.5345C10.1657 19.5668 10.0832 19.5834 9.99992 19.5834C9.91663 19.5834 9.83417 19.5668 9.75741 19.5345C3.37051 16.8443 2.08325 12.2657 2.08325 9.48321V4.37498C2.08327 4.20922 2.14912 4.05026 2.26633 3.93306C2.38354 3.81585 2.5425 3.75 2.70825 3.74998C6.45416 3.74998 9.58244 0.993631 9.58244 0.993631ZM9.67438 5.13754C9.75825 5.05125 9.87295 5.00179 9.99327 5.00003C10.054 4.99914 10.1142 5.01043 10.1705 5.03324C10.2267 5.05604 10.2778 5.0899 10.3208 5.1328C10.3637 5.17571 10.3976 5.22679 10.4205 5.28302C10.4434 5.33926 10.4547 5.3995 10.4539 5.4602V6.17041C12.2174 6.37889 13.6208 7.78238 13.8293 9.54591H14.5395C14.5997 9.54506 14.6594 9.55617 14.7152 9.5786C14.771 9.60104 14.8218 9.63434 14.8647 9.67658C14.9075 9.71882 14.9415 9.76915 14.9647 9.82465C14.988 9.88015 14.9999 9.93971 14.9999 9.99988C14.9999 10.06 14.988 10.1196 14.9647 10.1751C14.9415 10.2306 14.9075 10.2809 14.8647 10.3232C14.8218 10.3654 14.771 10.3987 14.7152 10.4211C14.6594 10.4436 14.5997 10.4547 14.5395 10.4538H13.8293C13.6208 12.2174 12.2174 13.6209 10.4539 13.8293V14.5395C10.4547 14.5997 10.4436 14.6594 10.4212 14.7153C10.3988 14.7711 10.3654 14.8219 10.3232 14.8647C10.281 14.9076 10.2306 14.9416 10.1751 14.9648C10.1196 14.988 10.0601 15 9.99992 15C9.93976 15 9.8802 14.988 9.8247 14.9648C9.7692 14.9416 9.71887 14.9076 9.67663 14.8647C9.63439 14.8219 9.60109 14.7711 9.57866 14.7153C9.55622 14.6594 9.54511 14.5997 9.54596 14.5395V13.8293C7.78247 13.6209 6.37901 12.2174 6.17054 10.4538H5.46034C5.40019 10.4547 5.34046 10.4436 5.28464 10.4211C5.22882 10.3987 5.17801 10.3654 5.13517 10.3232C5.09233 10.2809 5.05831 10.2306 5.03509 10.1751C5.01188 10.1196 4.99992 10.06 4.99992 9.99988C4.99992 9.93971 5.01188 9.88015 5.03509 9.82465C5.05831 9.76915 5.09233 9.71882 5.13517 9.67658C5.17801 9.63434 5.22882 9.60104 5.28464 9.5786C5.34046 9.55617 5.40019 9.54506 5.46034 9.54591H6.17054C6.37901 7.78238 7.78247 6.37889 9.54596 6.17041V5.4602C9.54431 5.33988 9.5905 5.22382 9.67438 5.13754Z" fill="#5B678A"/>
</svg>
