<svg width="20" height="20" viewBox="0 0 20 20" fill="none" xmlns="http://www.w3.org/2000/svg">
<path d="M10.0204 0.833312C9.85923 0.828283 9.70236 0.885723 9.58256 0.993631C9.58256 0.993631 6.45428 3.74998 2.70837 3.74998C2.54262 3.75 2.38366 3.81585 2.26645 3.93306C2.14924 4.05026 2.08339 4.20922 2.08337 4.37498V9.48322C2.08337 12.2657 3.37063 16.8443 9.75753 19.5345C9.83429 19.5668 9.91675 19.5835 10 19.5835C10.0833 19.5835 10.1658 19.5668 10.2426 19.5345C16.6294 16.8443 17.9167 12.2657 17.9167 9.48322V4.37498C17.9167 4.20922 17.8508 4.05026 17.7336 3.93306C17.6164 3.81585 17.4575 3.75 17.2917 3.74998C13.5458 3.74998 10.4175 0.993631 10.4175 0.993631C10.3082 0.895093 10.1675 0.838319 10.0204 0.833312ZM10 5.83331C10.3417 5.83331 10.8038 6.61665 11.058 7.91665H8.9421C9.19626 6.61665 9.65837 5.83331 10 5.83331ZM8.67517 6.04978C8.41267 6.55395 8.22084 7.19998 8.09167 7.91665H6.39164C6.89581 7.04581 7.70434 6.37478 8.67517 6.04978ZM11.3249 6.04978C12.2957 6.37478 13.1043 7.04581 13.6084 7.91665H11.9084C11.7792 7.19998 11.5874 6.55395 11.3249 6.04978ZM6.02543 8.74998H7.97937C7.9377 9.15831 7.91671 9.57915 7.91671 9.99998C7.91671 10.4208 7.9377 10.8416 7.97937 11.25H6.02543C5.90043 10.8541 5.83337 10.4375 5.83337 9.99998C5.83337 9.56248 5.90043 9.14581 6.02543 8.74998ZM8.81677 8.74998H11.1833C11.225 9.13748 11.25 9.55415 11.25 9.99998C11.25 10.4458 11.225 10.8625 11.1833 11.25H8.81677C8.7751 10.8625 8.75004 10.4458 8.75004 9.99998C8.75004 9.55415 8.7751 9.13748 8.81677 8.74998ZM12.0207 8.74998H13.9746C14.0996 9.14581 14.1667 9.56248 14.1667 9.99998C14.1667 10.4375 14.0996 10.8541 13.9746 11.25H12.0207C12.0624 10.8416 12.0834 10.4208 12.0834 9.99998C12.0834 9.57915 12.0624 9.15831 12.0207 8.74998ZM6.39164 12.0833H8.09167C8.22084 12.8 8.41267 13.446 8.67517 13.9502C7.70434 13.6252 6.89581 12.9541 6.39164 12.0833ZM8.9421 12.0833H11.058C10.8038 13.3833 10.3417 14.1666 10 14.1666C9.65837 14.1666 9.19626 13.3833 8.9421 12.0833ZM11.9084 12.0833H13.6084C13.1043 12.9541 12.2957 13.6252 11.3249 13.9502C11.5874 13.446 11.7792 12.8 11.9084 12.0833Z" fill="#5B678A"/>
</svg>
