<svg width="19" height="18" viewBox="0 0 19 18" fill="none" xmlns="http://www.w3.org/2000/svg">
<path fill-rule="evenodd" clip-rule="evenodd" d="M0 8.77269C0 8.40702 0.296429 8.1106 0.662093 8.1106H17.3799C17.7456 8.1106 18.042 8.40702 18.042 8.77269C18.042 9.13835 17.7456 9.43478 17.3799 9.43478H0.662093C0.296429 9.43478 0 9.13835 0 8.77269Z" fill="#5B678A"/>
<path fill-rule="evenodd" clip-rule="evenodd" d="M0 15.5591C0 15.1934 0.296429 14.897 0.662093 14.897H0.993139C1.3588 14.897 1.65523 15.1934 1.65523 15.5591C1.65523 15.9247 1.3588 16.2212 0.993139 16.2212H0.662093C0.296429 16.2212 0 15.9247 0 15.5591ZM2.1518 15.5591C2.1518 15.1934 2.44823 14.897 2.81389 14.897H17.5455C17.9111 14.897 18.2075 15.1934 18.2075 15.5591C18.2075 15.9247 17.9111 16.2212 17.5455 16.2212H2.81389C2.44823 16.2212 2.1518 15.9247 2.1518 15.5591Z" fill="#5B678A"/>
<path fill-rule="evenodd" clip-rule="evenodd" d="M0 2.31712C0 1.95146 0.296429 1.65503 0.662093 1.65503H0.993139C1.3588 1.65503 1.65523 1.95146 1.65523 2.31712C1.65523 2.68279 1.3588 2.97921 0.993139 2.97921H0.662093C0.296429 2.97921 0 2.68279 0 2.31712ZM2.10961 2.31712C2.10961 1.95146 2.40604 1.65503 2.7717 1.65503H17.2144C17.5801 1.65503 17.8765 1.95146 17.8765 2.31712C17.8765 2.68279 17.5801 2.97921 17.2144 2.97921H2.7717C2.40604 2.97921 2.10961 2.68279 2.10961 2.31712Z" fill="#5B678A"/>
<path d="M6.28944 8.77253C6.28944 9.96094 5.32605 10.9243 4.13764 10.9243C2.94923 10.9243 1.98584 9.96094 1.98584 8.77253C1.98584 7.58412 2.94923 6.62073 4.13764 6.62073C5.32605 6.62073 6.28944 7.58412 6.28944 8.77253Z" fill="white"/>
<path fill-rule="evenodd" clip-rule="evenodd" d="M4.13764 9.93119C4.77755 9.93119 5.2963 9.41244 5.2963 8.77253C5.2963 8.13262 4.77755 7.61387 4.13764 7.61387C3.49773 7.61387 2.97898 8.13262 2.97898 8.77253C2.97898 9.41244 3.49773 9.93119 4.13764 9.93119ZM4.13764 10.9243C5.32605 10.9243 6.28944 9.96094 6.28944 8.77253C6.28944 7.58412 5.32605 6.62073 4.13764 6.62073C2.94923 6.62073 1.98584 7.58412 1.98584 8.77253C1.98584 9.96094 2.94923 10.9243 4.13764 10.9243Z" fill="#5B678A"/>
<path d="M13.9037 15.3937C13.9037 16.5822 12.9403 17.5455 11.7519 17.5455C10.5635 17.5455 9.6001 16.5822 9.6001 15.3937C9.6001 14.2053 10.5635 13.2419 11.7519 13.2419C12.9403 13.2419 13.9037 14.2053 13.9037 15.3937Z" fill="white"/>
<path fill-rule="evenodd" clip-rule="evenodd" d="M11.7519 16.5524C12.3918 16.5524 12.9106 16.0337 12.9106 15.3937C12.9106 14.7538 12.3918 14.2351 11.7519 14.2351C11.112 14.2351 10.5932 14.7538 10.5932 15.3937C10.5932 16.0337 11.112 16.5524 11.7519 16.5524ZM11.7519 17.5455C12.9403 17.5455 13.9037 16.5822 13.9037 15.3937C13.9037 14.2053 12.9403 13.2419 11.7519 13.2419C10.5635 13.2419 9.6001 14.2053 9.6001 15.3937C9.6001 16.5822 10.5635 17.5455 11.7519 17.5455Z" fill="#5B678A"/>
<path d="M17.8764 2.1518C17.8764 3.34021 16.913 4.3036 15.7246 4.3036C14.5361 4.3036 13.5728 3.34021 13.5728 2.1518C13.5728 0.963394 14.5361 0 15.7246 0C16.913 0 17.8764 0.963394 17.8764 2.1518Z" fill="white"/>
<path fill-rule="evenodd" clip-rule="evenodd" d="M15.7246 3.31046C16.3645 3.31046 16.8832 2.79171 16.8832 2.1518C16.8832 1.51189 16.3645 0.993139 15.7246 0.993139C15.0846 0.993139 14.5659 1.51189 14.5659 2.1518C14.5659 2.79171 15.0846 3.31046 15.7246 3.31046ZM15.7246 4.3036C16.913 4.3036 17.8764 3.34021 17.8764 2.1518C17.8764 0.963394 16.913 0 15.7246 0C14.5361 0 13.5728 0.963394 13.5728 2.1518C13.5728 3.34021 14.5361 4.3036 15.7246 4.3036Z" fill="#5B678A"/>
</svg>
