<svg width="20" height="20" viewBox="0 0 20 20" fill="none" xmlns="http://www.w3.org/2000/svg">
<path d="M3.95829 3.33331C2.69496 3.33331 1.66663 4.36165 1.66663 5.62498V14.375C1.66663 15.6383 2.69496 16.6666 3.95829 16.6666H16.0416C17.305 16.6666 18.3333 15.6383 18.3333 14.375V5.62498C18.3333 4.36165 17.305 3.33331 16.0416 3.33331H3.95829ZM4.28381 7.49998C4.48682 7.5049 4.67563 7.62894 4.75501 7.82957L5.83329 10.5607L6.91158 7.82957C6.99241 7.62499 7.18869 7.49998 7.39661 7.49998C7.45994 7.49998 7.52454 7.5116 7.58704 7.5366C7.85454 7.64202 7.98542 7.94456 7.88001 8.21206L6.3175 12.1704C6.23876 12.3696 6.04704 12.5 5.83329 12.5C5.61954 12.5 5.42783 12.3696 5.34908 12.1704L3.78658 8.21206C3.68116 7.94456 3.81205 7.64243 4.07955 7.5366C4.14663 7.51014 4.21614 7.49834 4.28381 7.49998ZM8.85413 7.49998H10.2083C11.242 7.49998 12.0833 8.34123 12.0833 9.37498C12.0833 10.4087 11.242 11.25 10.2083 11.25H9.37496V11.9791C9.37496 12.2666 9.14163 12.5 8.85413 12.5C8.56663 12.5 8.33329 12.2666 8.33329 11.9791V8.02081C8.33329 7.73331 8.56663 7.49998 8.85413 7.49998ZM13.0322 7.49998C13.1969 7.50348 13.3539 7.58578 13.4505 7.72703L15.2075 10.2962V8.02081C15.2075 7.73331 15.4408 7.49998 15.7283 7.49998C16.0158 7.49998 16.25 7.73331 16.25 8.02081V11.9791C16.25 12.2075 16.1009 12.4089 15.8829 12.4764C15.8321 12.4922 15.7804 12.5 15.7291 12.5C15.5604 12.5 15.3986 12.4175 15.2994 12.2729L13.5416 9.70457V11.9791C13.5416 12.2666 13.3083 12.5 13.0208 12.5C12.7333 12.5 12.5 12.2666 12.5 11.9791V8.02081C12.5 7.79248 12.6491 7.59108 12.867 7.52358C12.9216 7.5066 12.9773 7.49881 13.0322 7.49998ZM9.37496 8.54165V10.2083H10.2083C10.6679 10.2083 11.0416 9.83456 11.0416 9.37498C11.0416 8.9154 10.6679 8.54165 10.2083 8.54165H9.37496Z" fill="#5B678A"/>
</svg>
