<svg width="33" height="32" viewBox="0 0 33 32" fill="none" xmlns="http://www.w3.org/2000/svg">
<path d="M16.5001 2.66666C9.14675 2.66666 3.16675 8.64666 3.16675 16C3.16675 18.1267 3.68008 20.2267 4.65341 22.1133L3.22675 27.22C3.06675 27.8 3.23341 28.42 3.65341 28.8467C3.97341 29.16 4.40008 29.3333 4.83341 29.3333C4.98675 29.3333 5.13341 29.3133 5.28008 29.2733L10.3867 27.8467C12.2734 28.82 14.3801 29.3333 16.5001 29.3333C23.8534 29.3333 29.8334 23.3533 29.8334 16C29.8334 8.64666 23.8534 2.66666 16.5001 2.66666ZM23.4067 20.9133C23.1134 21.7333 21.6734 22.5267 21.0267 22.5867C20.3801 22.6467 19.7734 22.88 16.8001 21.7067C13.2134 20.2933 10.9467 16.62 10.7734 16.38C10.5934 16.1467 9.33342 14.4733 9.33342 12.7333C9.33342 11 10.2467 10.1467 10.5667 9.79332C10.8934 9.43999 11.2734 9.35332 11.5067 9.35332C11.7467 9.35332 11.9801 9.35332 12.1867 9.35999C12.4334 9.37332 12.7134 9.38666 12.9801 9.97332C13.2934 10.6667 13.9801 12.4133 14.0667 12.5933C14.1534 12.7667 14.2134 12.9733 14.0934 13.2067C13.9801 13.44 13.9201 13.5867 13.7401 13.7933C13.5667 14 13.3734 14.2533 13.2134 14.4133C13.0401 14.5867 12.8534 14.78 13.0601 15.1333C13.2667 15.4867 13.9734 16.64 15.0201 17.5733C16.3667 18.7733 17.5001 19.1467 17.8534 19.3267C18.2067 19.5 18.4134 19.4733 18.6201 19.2333C18.8267 19 19.5001 18.2067 19.7401 17.8533C19.9734 17.5 20.2067 17.56 20.5334 17.68C20.8534 17.7933 22.5867 18.6467 22.9401 18.8267C23.2934 19 23.5267 19.0867 23.6134 19.2333C23.7001 19.38 23.7001 20.0867 23.4067 20.9133Z" fill="#34CF50"/>
</svg>
