<svg width="33" height="32" viewBox="0 0 33 32" fill="none" xmlns="http://www.w3.org/2000/svg">
<path d="M10.956 30.6407C10.8273 30.6407 10.6973 30.6173 10.572 30.57C10.1546 30.4107 9.87929 30.0107 9.87929 29.564V26.2667C8.33129 25.8033 6.87462 25.1427 5.93395 24.2987C4.06595 22.4147 3.21729 19.7753 3.21729 15.9493V13.796C3.21729 9.96999 4.06595 7.33066 5.88795 5.49132C9.02729 2.66666 14.652 2.66666 16.5 2.66666C18.348 2.66666 23.972 2.66666 27.0653 5.44799C28.9326 7.32999 29.7813 9.96866 29.7813 13.796L29.782 15.9493C29.782 19.7753 28.9333 22.4147 27.1113 24.254C23.972 27.078 18.3473 27.078 16.4993 27.078C16.0573 27.078 15.5693 27.078 14.738 27.036C13.8673 28.01 11.7593 30.2813 11.7593 30.2813C11.5506 30.5147 11.2566 30.6407 10.956 30.6407ZM22.134 19.9027C21.3933 19.2787 21.0513 19.09 20.0286 18.476C19.6026 18.2207 18.9533 18 18.6126 18C18.38 18 18.1013 18.178 17.9306 18.3487C17.4933 18.786 17.35 19.3333 16.5833 19.3333C15.8333 19.3333 14.5233 18.57 13.5833 17.5833C12.5966 16.6433 11.8333 15.3333 11.8333 14.5833C11.8333 13.8167 12.3706 13.6633 12.808 13.2253C12.9786 13.0553 13.1666 12.7767 13.1666 12.544C13.1666 12.2033 12.946 11.564 12.6906 11.138C12.0766 10.1147 11.8886 9.77266 11.264 9.03266C11.0526 8.78199 10.812 8.66732 10.56 8.66666C10.134 8.66599 9.57462 8.87732 9.19595 9.15932C8.62662 9.58399 8.03128 10.162 7.87195 10.882C7.85062 10.98 7.83795 11.0787 7.83395 11.1773C7.80329 11.9273 8.09795 12.6887 8.41595 13.3333C9.16462 14.8527 10.1553 16.3233 11.2333 17.6367C11.578 18.0567 11.9533 18.4473 12.342 18.8247C12.7193 19.2127 13.11 19.588 13.53 19.9333C14.8433 21.0113 16.314 22.002 17.8333 22.7507C18.472 23.0653 19.224 23.3547 19.9666 23.3333C20.0726 23.33 20.1786 23.318 20.2846 23.2947C21.0046 23.136 21.5826 22.54 22.0073 21.9707C22.2893 21.592 22.5006 21.0333 22.5 20.6067C22.4993 20.3547 22.3846 20.114 22.134 19.9027ZM24.5 14.6667V14C24.5 9.95666 21.21 6.66666 17.1666 6.66666C16.7986 6.66666 16.5 6.96532 16.5 7.33332C16.5 7.70132 16.7986 7.99999 17.1666 7.99999C20.4746 7.99999 23.1666 10.692 23.1666 14V14.6667C23.1666 15.0347 23.4653 15.3333 23.8333 15.3333C24.2013 15.3333 24.5 15.0347 24.5 14.6667ZM19.9073 13.978C20.2633 13.8847 20.4766 13.5213 20.384 13.1647C20.0793 11.9967 19.166 11.084 18.0006 10.782C17.6426 10.6907 17.28 10.9047 17.188 11.2607C17.096 11.6173 17.31 11.9807 17.6666 12.0733C18.3646 12.2533 18.9113 12.8007 19.094 13.5013C19.172 13.8013 19.4426 14 19.7386 14C19.794 14 19.8506 13.9927 19.9073 13.978ZM22.5 14C22.5 11.1653 20.2826 8.82732 17.4513 8.67799C17.0893 8.65799 16.77 8.94066 16.7506 9.30866C16.7313 9.67599 17.0133 9.98999 17.3813 10.0093C19.504 10.1213 21.1666 11.8747 21.1666 14C21.1666 14.368 21.4653 14.6667 21.8333 14.6667C22.2013 14.6667 22.5 14.368 22.5 14Z" fill="#820CB9"/>
</svg>
