<svg width="33" height="32" viewBox="0 0 33 32" fill="none" xmlns="http://www.w3.org/2000/svg">
<path d="M12.1666 2.66666C10.5133 2.66666 9.16658 4.01332 9.16658 5.66666V23C9.16658 24.6533 10.5133 26 12.1666 26H12.5064C12.4998 25.8867 12.4999 25.78 12.4999 25.6667C12.4999 22.1733 15.3399 19.3333 18.8333 19.3333H26.1666C26.5066 19.3333 26.8399 19.3594 27.1666 19.4128V5.66666C27.1666 4.01332 25.8199 2.66666 24.1666 2.66666H12.1666ZM7.83325 6.17317C6.66659 6.5865 5.83325 7.69999 5.83325 8.99999V23C5.83325 26.4933 8.67325 29.3333 12.1666 29.3333H13.6666C13.2399 28.7333 12.9198 28.06 12.7265 27.3333H12.1666C9.77992 27.3333 7.83325 25.3867 7.83325 23V6.17317ZM18.8333 20.6667C16.0759 20.6667 13.8333 22.9093 13.8333 25.6667C13.8333 28.424 16.0759 30.6667 18.8333 30.6667H20.1666C20.7193 30.6667 21.1666 30.2193 21.1666 29.6667C21.1666 29.114 20.7193 28.6667 20.1666 28.6667H18.8333C17.1793 28.6667 15.8333 27.3207 15.8333 25.6667C15.8333 24.0127 17.1793 22.6667 18.8333 22.6667H20.1666C20.7193 22.6667 21.1666 22.2193 21.1666 21.6667C21.1666 21.114 20.7193 20.6667 20.1666 20.6667H18.8333ZM24.8333 20.6667C24.2806 20.6667 23.8333 21.114 23.8333 21.6667C23.8333 22.2193 24.2806 22.6667 24.8333 22.6667H26.1666C27.8206 22.6667 29.1666 24.0127 29.1666 25.6667C29.1666 27.3207 27.8206 28.6667 26.1666 28.6667H24.8333C24.2806 28.6667 23.8333 29.114 23.8333 29.6667C23.8333 30.2193 24.2806 30.6667 24.8333 30.6667H26.1666C28.9239 30.6667 31.1666 28.424 31.1666 25.6667C31.1666 22.9093 28.9239 20.6667 26.1666 20.6667H24.8333ZM18.8333 24.6667C18.2806 24.6667 17.8333 25.114 17.8333 25.6667C17.8333 26.2193 18.2806 26.6667 18.8333 26.6667H26.1666C26.7193 26.6667 27.1666 26.2193 27.1666 25.6667C27.1666 25.114 26.7193 24.6667 26.1666 24.6667H18.8333Z" fill="#235FF5"/>
</svg>
