<svg width="33" height="32" viewBox="0 0 33 32" fill="none" xmlns="http://www.w3.org/2000/svg">
<path d="M4.38674 15.744C12.7654 12.058 23.6081 7.564 25.1047 6.942C29.0307 5.314 30.2354 5.626 29.6347 9.23133C29.2034 11.8227 27.9587 20.402 26.9667 25.742C26.3781 28.9087 25.0574 29.284 22.9807 27.914C21.9821 27.2547 16.9414 23.9213 15.8474 23.1387C14.8487 22.4253 13.4714 21.5673 15.1987 19.8773C15.8134 19.2753 19.8427 15.428 22.9821 12.4333C23.3934 12.04 22.8767 11.394 22.4021 11.7093C18.1707 14.5153 12.3041 18.41 11.5574 18.9173C10.4294 19.6833 9.34607 20.0347 7.40141 19.476C5.93207 19.054 4.49674 18.5507 3.93807 18.3587C1.78674 17.62 2.29741 16.6633 4.38674 15.744Z" fill="#0894DC"/>
</svg>
