<svg width="16" height="16" viewBox="0 0 16 16" fill="none" xmlns="http://www.w3.org/2000/svg">
<path d="M7.97331 1.33334C4.29131 1.33334 1.30664 4.31801 1.30664 8.00001C1.30664 11.682 4.29131 14.6667 7.97331 14.6667C11.6553 14.6667 14.64 11.682 14.64 8.00001C14.64 4.31801 11.6553 1.33334 7.97331 1.33334ZM6.33333 5.33334C6.70167 5.33334 7 5.63168 7 6.00001V10C7 10.3683 6.70167 10.6667 6.33333 10.6667C5.965 10.6667 5.66667 10.3683 5.66667 10V6.00001C5.66667 5.63168 5.965 5.33334 6.33333 5.33334ZM9.66667 5.33334C10.035 5.33334 10.3333 5.63168 10.3333 6.00001V10C10.3333 10.3683 10.035 10.6667 9.66667 10.6667C9.29833 10.6667 9 10.3683 9 10V6.00001C9 5.63168 9.29833 5.33334 9.66667 5.33334Z" fill="#8892B0"/>
</svg>
