<svg width="16" height="16" viewBox="0 0 16 16" fill="none" xmlns="http://www.w3.org/2000/svg">
<path d="M7.97331 1.33334C4.29131 1.33334 1.30664 4.31801 1.30664 8.00001C1.30664 11.682 4.29131 14.6667 7.97331 14.6667C11.6553 14.6667 14.64 11.682 14.64 8.00001C14.64 4.31801 11.6553 1.33334 7.97331 1.33334ZM6.49935 5.38478C6.57902 5.38478 6.65907 5.40372 6.73307 5.44272L10.7507 7.55795C10.9157 7.64462 11.0179 7.81433 11.0176 8.00066C11.0176 8.18699 10.9157 8.35605 10.7507 8.44272L6.73307 10.5573C6.65941 10.596 6.57902 10.6152 6.49935 10.6152C6.41002 10.6152 6.3212 10.591 6.24154 10.543C6.0902 10.4516 6 10.2913 6 10.1146V5.88543C6 5.70876 6.0902 5.54837 6.24154 5.45704C6.3212 5.40871 6.41035 5.38478 6.49935 5.38478Z" fill="#0093EF"/>
</svg>
