<svg width="64" height="64" viewBox="0 0 64 64" fill="none" xmlns="http://www.w3.org/2000/svg">
<path d="M31.9609 5.29692C31.2542 5.30727 30.5804 5.5978 30.0877 6.10466C29.595 6.61152 29.3237 7.29324 29.3333 8.00004V29.3334C29.3283 29.6867 29.3936 30.0376 29.5254 30.3655C29.6572 30.6934 29.8528 30.9919 30.1009 31.2435C30.349 31.4952 30.6447 31.695 30.9707 31.8314C31.2967 31.9678 31.6466 32.038 32 32.038C32.3534 32.038 32.7033 31.9678 33.0293 31.8314C33.3553 31.695 33.651 31.4952 33.8991 31.2435C34.1472 30.9919 34.3428 30.6934 34.4746 30.3655C34.6064 30.0376 34.6717 29.6867 34.6667 29.3334V8.00004C34.6715 7.64349 34.6049 7.28959 34.4706 6.95925C34.3363 6.62892 34.1371 6.32887 33.8849 6.07685C33.6326 5.82483 33.3324 5.62596 33.0019 5.49199C32.6715 5.35803 32.3175 5.2917 31.9609 5.29692V5.29692ZM22.7083 12.7943C22.2886 12.7934 21.8746 12.8915 21.5 13.0808C13.5025 16.9767 8 25.2004 8 34.6667C8 47.8904 18.7763 58.6667 32 58.6667C45.2237 58.6667 56 47.8904 56 34.6667C56 25.2001 50.498 16.9779 42.5026 13.0808C42.1878 12.9271 41.8458 12.837 41.4962 12.8156C41.1465 12.7941 40.7961 12.8418 40.4649 12.9558C40.1337 13.0698 39.8281 13.2479 39.5658 13.48C39.3034 13.7121 39.0893 13.9936 38.9357 14.3084C38.7822 14.6232 38.6921 14.9652 38.6707 15.3149C38.6494 15.6645 38.6971 16.015 38.8111 16.3462C38.9252 16.6774 39.1034 16.9828 39.3355 17.2452C39.5677 17.5075 39.8492 17.7215 40.1641 17.875C46.3766 20.9032 50.6667 27.264 50.6667 34.6667C50.6667 45.0084 42.3417 53.3334 32 53.3334C21.6583 53.3334 13.3333 45.0084 13.3333 34.6667C13.3333 27.2637 17.6202 20.9018 23.8333 17.875C24.3814 17.6175 24.8256 17.1811 25.0927 16.6377C25.3599 16.0942 25.4341 15.4759 25.3032 14.8847C25.1722 14.2934 24.844 13.7643 24.3724 13.3844C23.9008 13.0045 23.3139 12.7964 22.7083 12.7943Z" fill="white"/>
</svg>
