<svg width="12" height="12" viewBox="0 0 12 12" fill="none" xmlns="http://www.w3.org/2000/svg">
<path d="M6 1C3.24302 1 1 3.24302 1 6C1 8.75698 3.24302 11 6 11C8.75698 11 11 8.75698 11 6C11 3.24302 8.75698 1 6 1ZM6 1.75C8.35165 1.75 10.25 3.64835 10.25 6C10.25 8.35165 8.35165 10.25 6 10.25C3.64835 10.25 1.75 8.35165 1.75 6C1.75 3.64835 3.64835 1.75 6 1.75ZM6 3.5C5.86739 3.5 5.74021 3.55268 5.64645 3.64645C5.55268 3.74021 5.5 3.86739 5.5 4C5.5 4.13261 5.55268 4.25979 5.64645 4.35355C5.74021 4.44732 5.86739 4.5 6 4.5C6.13261 4.5 6.25979 4.44732 6.35355 4.35355C6.44732 4.25979 6.5 4.13261 6.5 4C6.5 3.86739 6.44732 3.74021 6.35355 3.64645C6.25979 3.55268 6.13261 3.5 6 3.5ZM5.99414 5.24463C5.89477 5.24618 5.80008 5.28711 5.73086 5.35843C5.66165 5.42975 5.62357 5.52563 5.625 5.625V8.375C5.6243 8.42469 5.63348 8.47403 5.65201 8.52014C5.67054 8.56625 5.69805 8.60822 5.73294 8.64361C5.76783 8.679 5.80941 8.7071 5.85526 8.72628C5.9011 8.74546 5.9503 8.75534 6 8.75534C6.0497 8.75534 6.0989 8.74546 6.14474 8.72628C6.19059 8.7071 6.23217 8.679 6.26706 8.64361C6.30195 8.60822 6.32946 8.56625 6.34799 8.52014C6.36652 8.47403 6.3757 8.42469 6.375 8.375V5.625C6.37572 5.57481 6.36636 5.52498 6.34747 5.47848C6.32857 5.43197 6.30054 5.38973 6.26502 5.35426C6.22951 5.31879 6.18723 5.29081 6.1407 5.27198C6.09417 5.25314 6.04433 5.24384 5.99414 5.24463Z" fill="#8892B0"/>
</svg>
