<svg width="12" height="12" viewBox="0 0 12 12" fill="none" xmlns="http://www.w3.org/2000/svg">
<path d="M6 1.00012C3.2385 1.00012 1 3.23862 1 6.00012C1 8.76162 3.2385 11.0001 6 11.0001C8.7615 11.0001 11 8.76162 11 6.00012C11 3.23862 8.7615 1.00012 6 1.00012ZM7.89025 7.35987C8.03675 7.50637 8.03675 7.74362 7.89025 7.89012C7.817 7.96362 7.721 8.00012 7.625 8.00012C7.529 8.00012 7.433 7.96362 7.35975 7.89037L6 6.53037L4.64025 7.89012C4.567 7.96362 4.471 8.00012 4.375 8.00012C4.279 8.00012 4.183 7.96362 4.10975 7.89037C3.96325 7.74387 3.96325 7.50662 4.10975 7.36012L5.46975 6.00012L4.11 4.64037C3.9635 4.49387 3.9635 4.25662 4.11 4.11012C4.2565 3.96362 4.49375 3.96362 4.64025 4.11012L6 5.46987L7.35975 4.11012C7.50625 3.96362 7.7435 3.96362 7.89 4.11012C8.0365 4.25662 8.0365 4.49387 7.89 4.64037L6.53025 6.00012L7.89025 7.35987Z" fill="#8892B0"/>
</svg>
