<svg width="16" height="16" viewBox="0 0 16 16" fill="none" xmlns="http://www.w3.org/2000/svg">
<path d="M7.99998 1.33334C4.32398 1.33334 1.33331 4.32401 1.33331 8.00001C1.33331 11.676 4.32398 14.6667 7.99998 14.6667C11.676 14.6667 14.6666 11.676 14.6666 8.00001C14.6666 4.32401 11.676 1.33334 7.99998 1.33334ZM10.8536 6.85368L7.52031 10.187C7.42265 10.2847 7.29465 10.3333 7.16665 10.3333C7.03865 10.3333 6.91065 10.2847 6.81298 10.187L5.14631 8.52034C4.95098 8.32501 4.95098 8.00868 5.14631 7.81334C5.34165 7.61801 5.65798 7.61801 5.85331 7.81334L7.16631 9.12634L10.146 6.14668C10.3413 5.95134 10.6576 5.95134 10.853 6.14668C11.0483 6.34201 11.0486 6.65834 10.8536 6.85368Z" fill="#235FF5"/>
</svg>
