<svg width="24" height="24" viewBox="0 0 24 24" fill="none" xmlns="http://www.w3.org/2000/svg">
<path fill-rule="evenodd" clip-rule="evenodd" d="M4 4.25C4 3.0095 5.0095 2 6.25 2H17.75C18.9905 2 20 3.0095 20 4.25V11.5C19.23 11.1785 18.386 11 17.5 11C16.2295 11 15.0484 11.37 14.0469 12H11.25C10.836 12 10.5 12.3355 10.5 12.75C10.5 13.1645 10.836 13.5 11.25 13.5H12.3838C12.0268 13.956 11.726 14.458 11.5 15H11.25C10.836 15 10.5 15.3355 10.5 15.75C10.5 16.1085 10.7524 16.4069 11.0879 16.4814C11.0354 16.8139 11 17.1525 11 17.5C11 19.248 11.6934 20.832 12.8164 22H6.25C5.0095 22 4 20.9905 4 19.75V4.25ZM8.25 6H7.75C7.336 6 7 6.3355 7 6.75C7 7.1645 7.336 7.5 7.75 7.5H8.25C8.664 7.5 9 7.1645 9 6.75C9 6.3355 8.664 6 8.25 6ZM16.25 6H11.25C10.836 6 10.5 6.3355 10.5 6.75C10.5 7.1645 10.836 7.5 11.25 7.5H16.25C16.664 7.5 17 7.1645 17 6.75C17 6.3355 16.664 6 16.25 6ZM8.25 9H7.75C7.336 9 7 9.3355 7 9.75C7 10.1645 7.336 10.5 7.75 10.5H8.25C8.664 10.5 9 10.1645 9 9.75C9 9.3355 8.664 9 8.25 9ZM16.25 9H11.25C10.836 9 10.5 9.3355 10.5 9.75C10.5 10.1645 10.836 10.5 11.25 10.5H16.25C16.664 10.5 17 10.1645 17 9.75C17 9.3355 16.664 9 16.25 9ZM8.25 12H7.75C7.336 12 7 12.3355 7 12.75C7 13.1645 7.336 13.5 7.75 13.5H8.25C8.664 13.5 9 13.1645 9 12.75C9 12.3355 8.664 12 8.25 12ZM8.25 15H7.75C7.336 15 7 15.3355 7 15.75C7 16.1645 7.336 16.5 7.75 16.5H8.25C8.664 16.5 9 16.1645 9 15.75C9 15.3355 8.664 15 8.25 15Z" fill="#8892B0"/>
<path fill-rule="evenodd" clip-rule="evenodd" d="M18.9474 16.7389C18.9474 16.4602 18.7408 16.2334 18.4868 16.2334H16.5132C16.2592 16.2334 16.0526 16.4602 16.0526 16.7389V18.4722C16.0526 18.751 16.2592 18.9778 16.5132 18.9778H18.4868C18.7408 18.9778 18.9474 18.751 18.9474 18.4722V16.7389ZM16.4474 18.4722V17.1H18.5526V18.4722C18.5526 18.5127 18.5237 18.5445 18.4868 18.5445H16.5132C16.4763 18.5445 16.4474 18.5127 16.4474 18.4722Z" fill="#8892B0"/>
<path fill-rule="evenodd" clip-rule="evenodd" d="M12 17.5C12 14.4625 14.4625 12 17.5 12C20.5375 12 23 14.4625 23 17.5C23 20.5375 20.5375 23 17.5 23C14.4625 23 12 20.5375 12 17.5ZM17.3682 14.5557C17.406 14.5183 17.4555 14.4984 17.5064 14.5001C17.5529 14.5018 17.5973 14.5215 17.6318 14.5557C17.6318 14.5557 18.6197 15.5112 19.8026 15.5112C19.855 15.5112 19.9052 15.534 19.9422 15.5747C19.9792 15.6153 20 15.6704 20 15.7279V17.4987C20 18.4633 19.5935 20.0505 17.5766 20.983C17.5523 20.9942 17.5263 21 17.5 21C17.4737 21 17.4477 20.9942 17.4234 20.983C15.4065 20.0505 15 18.4633 15 17.4987V15.7279C15 15.6704 15.0208 15.6153 15.0578 15.5747C15.0948 15.534 15.145 15.5112 15.1974 15.5112C16.3803 15.5112 17.3682 14.5557 17.3682 14.5557Z" fill="#8892B0"/>
</svg>
