<svg width="12" height="12" viewBox="0 0 12 12" fill="none" xmlns="http://www.w3.org/2000/svg">
<path d="M6 0.999969C3.243 0.999969 1 3.24297 1 5.99997C1 8.75697 3.243 11 6 11C8.757 11 11 8.75697 11 5.99997C11 3.24297 8.757 0.999969 6 0.999969ZM6 8.99997C5.72375 8.99997 5.5 8.77622 5.5 8.49997C5.5 8.22372 5.72375 7.99997 6 7.99997C6.27625 7.99997 6.5 8.22372 6.5 8.49997C6.5 8.77622 6.27625 8.99997 6 8.99997ZM6.7475 6.24422C6.4995 6.43747 6.375 6.53447 6.375 6.87497C6.375 7.08222 6.20725 7.24997 6 7.24997C5.79275 7.24997 5.625 7.08222 5.625 6.87497C5.625 6.16797 6.00725 5.87022 6.2865 5.65272C6.5555 5.44297 6.75 5.29147 6.75 4.74997C6.75 4.33647 6.4135 3.99997 6 3.99997C5.5865 3.99997 5.25 4.33647 5.25 4.74997V4.87497C5.25 5.08222 5.08225 5.24997 4.875 5.24997C4.66775 5.24997 4.5 5.08222 4.5 4.87497V4.74997C4.5 3.92272 5.17275 3.24997 6 3.24997C6.82725 3.24997 7.5 3.92272 7.5 4.74997C7.5 5.65772 7.065 5.99672 6.7475 6.24422Z" fill="#235FF5"/>
</svg>
