<svg width="11" height="14" viewBox="0 0 11 14" fill="none" xmlns="http://www.w3.org/2000/svg">
<g clip-path="url(#clip0_223_1233)">
<path d="M10.2358 4.01228H0.765601C0.562907 4.01228 0.368515 3.92989 0.225189 3.78322C0.0818625 3.63656 0.00134277 3.43764 0.00134277 3.23023V2.07416C0.00134277 1.86675 0.0818625 1.66783 0.225189 1.52117C0.368515 1.37451 0.562907 1.29211 0.765601 1.29211H10.2358C10.4385 1.29211 10.6328 1.37451 10.7762 1.52117C10.9195 1.66783 11 1.86675 11 2.07416V3.23023C11 3.43764 10.9195 3.63656 10.7762 3.78322C10.6328 3.92989 10.4385 4.01228 10.2358 4.01228ZM0.765601 1.83615C0.703912 1.83615 0.644749 1.86122 0.601128 1.90586C0.557507 1.9505 0.533001 2.01104 0.533001 2.07416V3.23023C0.533001 3.29336 0.557507 3.3539 0.601128 3.39853C0.644749 3.44317 0.703912 3.46825 0.765601 3.46825H10.2358C10.2975 3.46825 10.3566 3.44317 10.4002 3.39853C10.4439 3.3539 10.4684 3.29336 10.4684 3.23023V2.07416C10.4684 2.01104 10.4439 1.9505 10.4002 1.90586C10.3566 1.86122 10.2975 1.83615 10.2358 1.83615H0.765601Z" fill="white"/>
<path fill-rule="evenodd" clip-rule="evenodd" d="M1.09254 4.24987C1.06319 3.84467 1.38856 3.5 1.80041 3.5H9.19953C9.61138 3.5 9.93674 3.84467 9.9074 4.24987L9.29549 12.6997C9.24244 13.4324 8.62439 14 7.87975 14H3.12019C2.37554 14 1.7575 13.4324 1.70444 12.6997L1.09254 4.24987ZM9.19953 4.2H1.80041L2.41232 12.6499C2.43885 13.0162 2.74787 13.3 3.12019 13.3H7.87975C8.25207 13.3 8.56109 13.0162 8.58762 12.6499L9.19953 4.2Z" fill="white"/>
<path d="M3.67245 11.4819C3.60194 11.4819 3.53433 11.4532 3.48448 11.4022C3.43462 11.3512 3.40662 11.282 3.40662 11.2099V6.06364C3.40662 5.9915 3.43462 5.92231 3.48448 5.8713C3.53433 5.82028 3.60194 5.79163 3.67245 5.79163C3.74295 5.79163 3.81056 5.82028 3.86042 5.8713C3.91027 5.92231 3.93828 5.9915 3.93828 6.06364V11.2099C3.93828 11.282 3.91027 11.3512 3.86042 11.4022C3.81056 11.4532 3.74295 11.4819 3.67245 11.4819Z" fill="white"/>
<path d="M5.49996 11.4819C5.42946 11.4819 5.36184 11.4532 5.31199 11.4022C5.26214 11.3512 5.23413 11.282 5.23413 11.2099V6.06364C5.23413 5.9915 5.26214 5.92231 5.31199 5.8713C5.36184 5.82028 5.42946 5.79163 5.49996 5.79163C5.57046 5.79163 5.63808 5.82028 5.68793 5.8713C5.73778 5.92231 5.76579 5.9915 5.76579 6.06364V11.2099C5.76579 11.282 5.73778 11.3512 5.68793 11.4022C5.63808 11.4532 5.57046 11.4819 5.49996 11.4819Z" fill="white"/>
<path d="M7.3276 11.4819C7.25709 11.4819 7.18948 11.4532 7.13963 11.4022C7.08977 11.3512 7.06177 11.282 7.06177 11.2099V6.06364C7.06177 5.9915 7.08977 5.92231 7.13963 5.8713C7.18948 5.82028 7.25709 5.79163 7.3276 5.79163C7.3981 5.79163 7.46571 5.82028 7.51557 5.8713C7.56542 5.92231 7.59342 5.9915 7.59342 6.06364V11.2099C7.59342 11.282 7.56542 11.3512 7.51557 11.4022C7.46571 11.4532 7.3981 11.4819 7.3276 11.4819Z" fill="white"/>
<path d="M7.2316 0.544033H3.76851C3.69801 0.544033 3.6304 0.515374 3.58054 0.464361C3.53069 0.413348 3.50269 0.34416 3.50269 0.272016C3.50269 0.199873 3.53069 0.130685 3.58054 0.0796716C3.6304 0.0286586 3.69801 0 3.76851 0H7.2316C7.3021 0 7.36972 0.0286586 7.41957 0.0796716C7.46942 0.130685 7.49743 0.199873 7.49743 0.272016C7.49743 0.34416 7.46942 0.413348 7.41957 0.464361C7.36972 0.515374 7.3021 0.544033 7.2316 0.544033Z" fill="white"/>
</g>
<defs>
<clipPath id="clip0_223_1233">
<rect width="11" height="14" fill="white"/>
</clipPath>
</defs>
</svg>
