<svg width="16" height="16" viewBox="0 0 16 16" fill="none" xmlns="http://www.w3.org/2000/svg">
<path d="M7.99996 1.3335C6.5331 1.3335 5.33329 2.5333 5.33329 4.00016V5.3335H4.16663C3.33963 5.3335 2.66663 6.0065 2.66663 6.8335V13.1668C2.66663 13.9938 3.33963 14.6668 4.16663 14.6668H11.8333C12.6603 14.6668 13.3333 13.9938 13.3333 13.1668V6.8335C13.3333 6.0065 12.6603 5.3335 11.8333 5.3335H10.6666V4.00016C10.6666 2.5333 9.46682 1.3335 7.99996 1.3335ZM7.99996 2.3335C8.92643 2.3335 9.66663 3.07369 9.66663 4.00016V5.3335H6.33329V4.00016C6.33329 3.07369 7.07349 2.3335 7.99996 2.3335ZM7.99996 9.00016C8.55229 9.00016 8.99996 9.44783 8.99996 10.0002C8.99996 10.5525 8.55229 11.0002 7.99996 11.0002C7.44763 11.0002 6.99996 10.5525 6.99996 10.0002C6.99996 9.44783 7.44763 9.00016 7.99996 9.00016Z" fill="#EF0000"/>
</svg>
