<svg width="16" height="16" viewBox="0 0 16 16" fill="none" xmlns="http://www.w3.org/2000/svg">
<path d="M7.99996 1.3335C6.5331 1.3335 5.33329 2.5333 5.33329 4.00016V5.3335H4.16663C3.33963 5.3335 2.66663 6.0065 2.66663 6.8335V13.1668C2.66663 13.9938 3.33963 14.6668 4.16663 14.6668H11.8333C12.6603 14.6668 13.3333 13.9938 13.3333 13.1668V6.8335C13.3333 6.0065 12.6603 5.3335 11.8333 5.3335H6.33329V4.00016C6.33329 3.07369 7.07349 2.3335 7.99996 2.3335C8.88257 2.3335 9.59364 3.00863 9.65946 3.87126C9.66441 3.93676 9.68221 4.00064 9.71185 4.05926C9.74149 4.11788 9.78238 4.17009 9.8322 4.2129C9.88202 4.25571 9.93978 4.28829 10.0022 4.30878C10.0646 4.32926 10.1304 4.33726 10.1959 4.3323C10.2614 4.32734 10.3253 4.30952 10.3839 4.27987C10.4425 4.25022 10.4947 4.20932 10.5375 4.15949C10.5803 4.10967 10.6129 4.0519 10.6334 3.98948C10.6539 3.92707 10.6618 3.86123 10.6569 3.79574C10.552 2.4217 9.39801 1.3335 7.99996 1.3335ZM7.99996 9.00016C8.55229 9.00016 8.99996 9.44783 8.99996 10.0002C8.99996 10.5525 8.55229 11.0002 7.99996 11.0002C7.44763 11.0002 6.99996 10.5525 6.99996 10.0002C6.99996 9.44783 7.44763 9.00016 7.99996 9.00016Z" fill="#39B300"/>
</svg>
