<svg width="39" height="38" viewBox="0 0 39 38" fill="none" xmlns="http://www.w3.org/2000/svg">
<path fill-rule="evenodd" clip-rule="evenodd" d="M16.8397 0.972242C18.1505 -0.32408 20.2759 -0.324081 21.5867 0.972241L37.4432 16.6528C38.7541 17.9491 38.7541 20.0509 37.4432 21.3472L32.3122 26.4213C31.8753 26.8534 31.1668 26.8534 30.7299 26.4213C30.2929 25.9892 30.2929 25.2886 30.7299 24.8565L35.8609 19.7824C36.2978 19.3503 36.2978 18.6497 35.8609 18.2176L20.0044 2.53704C19.5674 2.10493 18.859 2.10493 18.422 2.53704L2.56551 18.2176C2.12855 18.6497 2.12855 19.3503 2.56551 19.7824L18.422 35.463C18.859 35.8951 19.5674 35.8951 20.0044 35.463L27.3732 28.1759C27.8101 27.7438 28.5186 27.7438 28.9555 28.1759C29.3925 28.608 29.3925 29.3086 28.9555 29.7407L21.5867 37.0278C20.2759 38.3241 18.1505 38.3241 16.8397 37.0278L0.983151 21.3472C-0.327716 20.0509 -0.327718 17.9491 0.98315 16.6528L16.8397 0.972242Z" fill="#F56C6C"/>
<path d="M16.7245 9.81572L17.8406 24.1639C17.8919 24.8238 18.4484 25.3334 19.1177 25.3334H19.3072C19.9765 25.3334 20.533 24.8238 20.5843 24.1639L21.7742 8.86675V8.79455C21.7742 7.91015 20.881 7.298 20.0436 7.60853L17.5519 8.53255C17.018 8.73052 16.6808 9.25358 16.7245 9.81572Z" fill="#F56C6C"/>
<path d="M20.4934 27.8665C20.4934 28.5661 19.9199 29.1332 19.2125 29.1332C18.5051 29.1332 17.9316 28.5661 17.9316 27.8665C17.9316 27.167 18.5051 26.5999 19.2125 26.5999C19.9199 26.5999 20.4934 27.167 20.4934 27.8665Z" fill="#F56C6C"/>
<path d="M34.5835 25.3337C34.5835 26.7329 33.4365 27.8671 32.0217 27.8671C30.6069 27.8671 29.46 26.7329 29.46 25.3337C29.46 23.9346 30.6069 22.8004 32.0217 22.8004C33.4365 22.8004 34.5835 23.9346 34.5835 25.3337Z" fill="white"/>
<path fill-rule="evenodd" clip-rule="evenodd" d="M32.0217 24.0671C31.3143 24.0671 30.7408 24.6342 30.7408 25.3337C30.7408 26.0333 31.3143 26.6004 32.0217 26.6004C32.7291 26.6004 33.3026 26.0333 33.3026 25.3337C33.3026 24.6342 32.7291 24.0671 32.0217 24.0671ZM32.0217 27.8671C33.4365 27.8671 34.5835 26.7329 34.5835 25.3337C34.5835 23.9346 33.4365 22.8004 32.0217 22.8004C30.6069 22.8004 29.46 23.9346 29.46 25.3337C29.46 26.7329 30.6069 27.8671 32.0217 27.8671Z" fill="#F56C6C"/>
</svg>
