<svg width="12" height="12" viewBox="0 0 12 12" fill="none" xmlns="http://www.w3.org/2000/svg">
<path d="M6 1C5.8674 1.00001 5.74023 1.0527 5.64646 1.14646C5.5527 1.24023 5.50001 1.3674 5.5 1.5V2C5.49876 2.12913 5.54753 2.25373 5.63609 2.34772C5.72465 2.4417 5.84613 2.49778 5.9751 2.50422C6.10408 2.51066 6.23054 2.46695 6.32802 2.38225C6.42549 2.29754 6.48642 2.17842 6.49805 2.0498C8.47371 2.29635 10 3.95572 10 6C10 8.21502 8.21502 10 6 10C3.78498 10 2 8.21502 2 6C2 4.92154 2.42404 3.94844 3.11523 3.229C3.161 3.1817 3.19697 3.12583 3.2211 3.0646C3.24522 3.00337 3.25702 2.93797 3.25582 2.87217C3.25461 2.80637 3.24043 2.74145 3.21409 2.68113C3.18774 2.62082 3.14975 2.56631 3.10229 2.52071C3.05483 2.47511 2.99883 2.43933 2.93751 2.41542C2.8762 2.39151 2.81076 2.37994 2.74496 2.38138C2.67916 2.38281 2.6143 2.39722 2.55408 2.42377C2.49386 2.45033 2.43947 2.48851 2.39404 2.53613C1.53123 3.4342 1 4.65846 1 6C1 8.75548 3.24452 11 6 11C8.75548 11 11 8.75548 11 6C11 3.24452 8.75548 1 6 1ZM3.99463 3.49512C3.8952 3.49524 3.79807 3.525 3.71564 3.58059C3.63321 3.63619 3.56923 3.71509 3.53186 3.80723C3.49449 3.89936 3.48544 4.00055 3.50586 4.09785C3.52627 4.19516 3.57523 4.28417 3.64648 4.35352L5.25195 5.95898C5.24638 6.06071 5.26159 6.1625 5.29666 6.25815C5.33172 6.3538 5.38591 6.4413 5.45591 6.51532C5.52591 6.58934 5.61025 6.64833 5.70379 6.68867C5.79734 6.72902 5.89812 6.74989 6 6.75C6.19891 6.75 6.38968 6.67098 6.53033 6.53033C6.67098 6.38968 6.75 6.19891 6.75 6C6.75 5.80109 6.67098 5.61032 6.53033 5.46967C6.38968 5.32902 6.19891 5.25 6 5.25C5.98631 5.25028 5.97264 5.25093 5.95898 5.25195L4.35352 3.64648C4.30686 3.59853 4.25106 3.56042 4.18942 3.53442C4.12777 3.50842 4.06153 3.49506 3.99463 3.49512Z" fill="#235FF5"/>
</svg>
