<svg width="16" height="16" viewBox="0 0 16 16" fill="none" xmlns="http://www.w3.org/2000/svg">
<path d="M7.99998 1.3335C4.32398 1.3335 1.33331 4.32416 1.33331 8.00016C1.33331 11.6762 4.32398 14.6668 7.99998 14.6668C11.676 14.6668 14.6666 11.6762 14.6666 8.00016C14.6666 4.32416 11.676 1.3335 7.99998 1.3335ZM4.93598 11.7712C4.74065 11.9665 4.42431 11.9665 4.22898 11.7712C3.22131 10.7642 2.66665 9.42483 2.66665 8.00016C2.66665 6.5755 3.22131 5.23616 4.22898 4.22916C5.23598 3.2215 6.57531 2.66683 7.99998 2.66683C9.02698 2.66683 10.0073 2.95916 10.853 3.49716L10.1246 4.2255C9.48298 3.86316 8.75731 3.66683 7.99998 3.66683C6.84231 3.66683 5.75431 4.11783 4.93598 4.93616C4.11765 5.7545 3.66665 6.8425 3.66665 8.00016C3.66665 9.15783 4.11765 10.2458 4.93598 11.0642C5.13131 11.2595 5.13131 11.5762 4.93598 11.7712ZM7.99998 9.00016C7.44765 9.00016 6.99998 8.5525 6.99998 8.00016C6.99998 7.44783 7.44765 7.00016 7.99998 7.00016C8.08898 7.00016 8.17365 7.0155 8.25565 7.0375L11.1463 4.14683C11.3416 3.9515 11.658 3.9515 11.8533 4.14683C12.0486 4.34216 12.0486 4.6585 11.8533 4.85383L8.96265 7.7445C8.98465 7.8265 8.99998 7.91116 8.99998 8.00016C8.99998 8.5525 8.55231 9.00016 7.99998 9.00016ZM11.771 11.7712C11.6733 11.8688 11.5453 11.9175 11.4173 11.9175C11.2893 11.9175 11.1613 11.8688 11.0636 11.7712C10.8683 11.5758 10.8683 11.2595 11.0636 11.0642C11.8823 10.2458 12.3333 9.15783 12.3333 8.00016C12.3333 7.24283 12.137 6.51716 11.7746 5.8755L12.503 5.14716C13.041 5.99283 13.3333 6.97316 13.3333 8.00016C13.3333 9.42483 12.7786 10.7642 11.771 11.7712Z" fill="#39B300"/>
</svg>
