<svg width="12" height="12" viewBox="0 0 12 12" fill="none" xmlns="http://www.w3.org/2000/svg">
<path d="M5.125 1.5C3.12889 1.5 1.5 3.12889 1.5 5.125C1.5 7.12111 3.12889 8.75 5.125 8.75C5.94329 8.75 6.69723 8.47325 7.30518 8.01269L9.64648 10.3535C9.69256 10.4015 9.74774 10.4398 9.8088 10.4662C9.86987 10.4926 9.93559 10.5065 10.0021 10.5072C10.0686 10.5079 10.1346 10.4953 10.1962 10.4701C10.2578 10.445 10.3137 10.4078 10.3608 10.3608C10.4078 10.3137 10.445 10.2578 10.4701 10.1962C10.4953 10.1346 10.5079 10.0686 10.5072 10.0021C10.5065 9.93559 10.4926 9.86987 10.4662 9.8088C10.4398 9.74774 10.4015 9.69256 10.3535 9.64648L8.01269 7.30518C8.47325 6.69723 8.75 5.94329 8.75 5.125C8.75 3.12889 7.12111 1.5 5.125 1.5ZM5.125 2.5C6.58067 2.5 7.75 3.66933 7.75 5.125C7.75 5.82393 7.47852 6.45515 7.03711 6.92432C6.99414 6.95542 6.9564 6.99317 6.92529 7.03613C6.45603 7.4781 5.82443 7.75 5.125 7.75C3.66933 7.75 2.5 6.58067 2.5 5.125C2.5 3.66933 3.66933 2.5 5.125 2.5Z" fill="#DDE1ED"/>
</svg>
