<svg width="24" height="24" viewBox="0 0 24 24" fill="none" xmlns="http://www.w3.org/2000/svg">
<path d="M5.25 3C3.734 3 2.5 4.234 2.5 5.75V6.75V18C2.5 19.645 3.85498 21 5.5 21H18.5C20.145 21 21.5 19.645 21.5 18V6.75V5.75C21.5 4.234 20.266 3 18.75 3H5.25ZM5.25 4.5C5.664 4.5 6 4.836 6 5.25C6 5.664 5.664 6 5.25 6C4.836 6 4.5 5.664 4.5 5.25C4.5 4.836 4.836 4.5 5.25 4.5ZM7.75 4.5C8.164 4.5 8.5 4.836 8.5 5.25C8.5 5.664 8.164 6 7.75 6C7.336 6 7 5.664 7 5.25C7 4.836 7.336 4.5 7.75 4.5ZM4.5 7.5H19.5V18C19.5 18.564 19.064 19 18.5 19H5.5C4.93602 19 4.5 18.564 4.5 18V7.5ZM12 9C9.5236 9 7.5 11.0236 7.5 13.5C7.5 15.9764 9.5236 18 12 18C14.4764 18 16.5 15.9764 16.5 13.5C16.5 11.0236 14.4764 9 12 9ZM12 10.5C12.5587 10.5 13.0782 10.6527 13.5244 10.915L9.41504 15.0244C9.15271 14.5782 9 14.0587 9 13.5C9 11.8343 10.3343 10.5 12 10.5ZM14.585 11.9756C14.8473 12.4218 15 12.9413 15 13.5C15 15.1657 13.6657 16.5 12 16.5C11.4413 16.5 10.9218 16.3473 10.4756 16.085L14.585 11.9756Z" fill="#8892B0"/>
</svg>
