<svg width="16" height="16" viewBox="0 0 16 16" fill="none" xmlns="http://www.w3.org/2000/svg">
<path d="M13.0464 8.76065C12.8087 8.58632 12.6667 8.30632 12.6667 8.01132C12.6667 7.71632 12.8087 7.43632 13.0461 7.26232L14.1441 6.45731C14.3191 6.32865 14.3914 6.10231 14.3231 5.89598C14.0404 5.04665 13.5934 4.27198 12.9941 3.59298C12.8497 3.43032 12.6171 3.37898 12.4181 3.46632L11.1817 4.00998C10.9124 4.12865 10.5987 4.11165 10.3431 3.96398C10.0877 3.81665 9.91641 3.55398 9.88408 3.26098L9.73541 1.90365C9.71175 1.68765 9.55108 1.51165 9.33841 1.46798C8.47275 1.29098 7.56308 1.28798 6.68208 1.46465C6.46808 1.50765 6.30708 1.68365 6.28341 1.90065L6.13608 3.24932C6.10375 3.54265 5.93241 3.80532 5.67641 3.95265C5.42108 4.09998 5.10841 4.11765 4.83808 3.99865L3.59508 3.45198C3.39775 3.36465 3.16441 3.41531 3.02008 3.57765C2.41875 4.25398 1.96975 5.02765 1.68408 5.87632C1.61475 6.08231 1.68675 6.30998 1.86241 6.43898L2.95341 7.23898C3.19141 7.41365 3.33341 7.69365 3.33341 7.98865C3.33341 8.28365 3.19141 8.56365 2.95408 8.73765L1.85608 9.54265C1.68108 9.67132 1.60875 9.89765 1.67708 10.104C1.95975 10.9533 2.40675 11.728 3.00608 12.407C3.15041 12.57 3.38375 12.6216 3.58208 12.5336L4.81841 11.99C5.08775 11.8713 5.40108 11.8883 5.65708 12.036C5.91241 12.1833 6.08375 12.446 6.11608 12.739L6.26475 14.0963C6.28841 14.3123 6.44908 14.4883 6.66175 14.532C7.09975 14.6213 7.54975 14.6666 8.00008 14.6666C8.43941 14.6666 8.88275 14.6223 9.31775 14.535C9.53175 14.492 9.69275 14.316 9.71641 14.099L9.86408 12.7503C9.89641 12.457 10.0677 12.1943 10.3237 12.047C10.5791 11.9 10.8921 11.8826 11.1621 12.001L12.4051 12.5476C12.6031 12.6353 12.8357 12.5846 12.9801 12.422C13.5814 11.7456 14.0304 10.972 14.3161 10.1233C14.3854 9.91732 14.3134 9.68965 14.1377 9.56065L13.0464 8.76065ZM8.00008 10.3333C6.71141 10.3333 5.66675 9.28865 5.66675 7.99998C5.66675 6.71132 6.71141 5.66665 8.00008 5.66665C9.28875 5.66665 10.3334 6.71132 10.3334 7.99998C10.3334 9.28865 9.28875 10.3333 8.00008 10.3333Z" fill="#8892B0"/>
</svg>
