<svg width="16" height="16" viewBox="0 0 16 16" fill="none" xmlns="http://www.w3.org/2000/svg">
<path d="M4.33333 14.6666H3.33333C2.597 14.6666 2 14.0696 2 13.3333V7.66662C2 6.93029 2.597 6.33329 3.33333 6.33329H5.66667V13.3333C5.66667 14.0696 5.06967 14.6666 4.33333 14.6666ZM13.5543 7.18962C13.236 6.85329 12.7963 6.66762 12.3157 6.66662H9.83333C9.83333 6.66662 10.1967 5.20762 10.3217 4.71829C10.5103 3.97795 10.5483 3.35495 10.4403 2.75762C10.3843 2.44729 10.2847 2.04562 10.01 1.68995C9.815 1.43729 9.571 1.27295 9.28433 1.20095C8.85767 1.09462 8.60167 1.23095 8.44833 1.65862C8.43567 1.69329 7.89967 3.58062 7.89967 3.58062C7.85767 3.72962 7.81733 3.84829 7.75567 3.94395C7.35967 4.56129 6.881 5.16162 6.333 5.77362V13.826C7.81967 14.2506 10.055 14.6396 10.2073 14.654C10.294 14.6626 10.38 14.6666 10.4653 14.6666C11.668 14.6666 12.7257 13.8563 13.0353 12.6606C13.3147 11.5813 13.8903 8.99995 13.8903 8.99995C13.9363 8.82962 13.9887 8.63662 14 8.42595C14.025 7.95895 13.8667 7.52029 13.5543 7.18962Z" fill="white"/>
</svg>
