<svg width="16" height="16" viewBox="0 0 16 16" fill="none" xmlns="http://www.w3.org/2000/svg">
<path d="M8.00001 14.6667C11.676 14.6667 14.6667 11.676 14.6667 8.00001C14.6667 4.32401 11.676 1.33334 8.00001 1.33334C4.32401 1.33334 1.33334 4.32401 1.33334 8.00001C1.33334 11.676 4.32401 14.6667 8.00001 14.6667ZM5.81301 7.47968L8.47968 4.81301C8.67501 4.61768 8.99134 4.61768 9.18668 4.81301C9.38201 5.00834 9.38201 5.32468 9.18668 5.52001L6.87368 7.83334L9.18668 10.1463C9.38201 10.3417 9.38201 10.658 9.18668 10.8533C9.08934 10.9513 8.96134 11 8.83334 11C8.70534 11 8.57734 10.9513 8.47968 10.8537L5.81301 8.18701C5.61801 7.99168 5.61801 7.67501 5.81301 7.47968Z" fill="#235FF5"/>
</svg>
