<svg width="16" height="16" viewBox="0 0 16 16" fill="none" xmlns="http://www.w3.org/2000/svg">
<path d="M2.83325 1.6665C2.00625 1.6665 1.33325 2.3395 1.33325 3.1665V10.1665C1.33325 10.9935 2.00625 11.6665 2.83325 11.6665H5.66659V13.3332H4.49992C4.43366 13.3322 4.36788 13.3445 4.3064 13.3692C4.24491 13.3939 4.18895 13.4306 4.14177 13.4771C4.09458 13.5236 4.05711 13.579 4.03154 13.6402C4.00597 13.7013 3.9928 13.7669 3.9928 13.8332C3.9928 13.8994 4.00597 13.965 4.03154 14.0262C4.05711 14.0873 4.09458 14.1427 4.14177 14.1892C4.18895 14.2358 4.24491 14.2725 4.3064 14.2972C4.36788 14.3219 4.43366 14.3341 4.49992 14.3332H6.08455C6.13823 14.342 6.19299 14.342 6.24666 14.3332H9.75122C9.8049 14.342 9.85965 14.342 9.91333 14.3332H11.4999C11.5662 14.3341 11.632 14.3219 11.6934 14.2972C11.7549 14.2725 11.8109 14.2358 11.8581 14.1892C11.9053 14.1427 11.9427 14.0873 11.9683 14.0262C11.9939 13.965 12.007 13.8994 12.007 13.8332C12.007 13.7669 11.9939 13.7013 11.9683 13.6402C11.9427 13.579 11.9053 13.5236 11.8581 13.4771C11.8109 13.4306 11.7549 13.3939 11.6934 13.3692C11.632 13.3445 11.5662 13.3322 11.4999 13.3332H10.3333V11.6665H13.1666C13.9936 11.6665 14.6666 10.9935 14.6666 10.1665V3.1665C14.6666 2.3395 13.9936 1.6665 13.1666 1.6665H5.53963L9.15942 4.7876C9.36309 4.96293 9.39188 5.26867 9.22388 5.479L8.19198 6.76807L10.1588 8.45361C10.3684 8.63328 10.3925 8.94902 10.2128 9.15869C10.1138 9.27402 9.97392 9.33317 9.83325 9.33317C9.71792 9.33317 9.60207 9.29373 9.50773 9.21273L7.1744 7.21273C6.96973 7.03739 6.94096 6.73134 7.10929 6.52067L8.14185 5.23031L4.00903 1.6665H2.83325ZM6.66659 11.6665H9.33325V13.3332H6.66659V11.6665Z" fill="#5B678A"/>
</svg>
