<svg width="17" height="16" viewBox="0 0 17 16" fill="none" xmlns="http://www.w3.org/2000/svg">
<path d="M9.96417 2.00452C8.88733 2.00452 7.81054 2.41335 6.99282 3.23108L4.16665 6.05725V3.33329C4.16787 3.24416 4.1512 3.15568 4.11763 3.0731C4.08406 2.99051 4.03427 2.9155 3.9712 2.85249C3.90814 2.78949 3.83308 2.73977 3.75046 2.70628C3.66784 2.67279 3.57935 2.65621 3.49022 2.65751C3.31352 2.6601 3.14508 2.73273 3.0219 2.85945C2.89873 2.98616 2.8309 3.15659 2.83331 3.33329V7.66663C2.83333 7.84343 2.90358 8.01299 3.0286 8.13801C3.15362 8.26303 3.32318 8.33327 3.49998 8.33329H7.83331C7.92166 8.33454 8.00936 8.31822 8.09134 8.28528C8.17332 8.25234 8.24794 8.20343 8.31085 8.1414C8.37376 8.07937 8.42372 8.00545 8.45782 7.92395C8.49192 7.84244 8.50948 7.75498 8.50948 7.66663C8.50948 7.57828 8.49192 7.49081 8.45782 7.4093C8.42372 7.3278 8.37376 7.25388 8.31085 7.19185C8.24794 7.12982 8.17332 7.08091 8.09134 7.04797C8.00936 7.01503 7.92166 6.99871 7.83331 6.99996H5.10936L7.93553 4.17379C9.06141 3.04791 10.8669 3.04791 11.9928 4.17379C13.1187 5.29967 13.1187 7.1052 11.9928 8.23108L7.02863 13.1953C6.96464 13.2567 6.91356 13.3303 6.87837 13.4117C6.84318 13.4931 6.82459 13.5807 6.82369 13.6694C6.82278 13.7581 6.83959 13.8461 6.87311 13.9282C6.90664 14.0103 6.95621 14.085 7.01893 14.1477C7.08165 14.2104 7.15626 14.26 7.23838 14.2935C7.32049 14.327 7.40848 14.3438 7.49717 14.3429C7.58587 14.342 7.67349 14.3234 7.75491 14.2882C7.83633 14.253 7.90991 14.202 7.97134 14.138L12.9355 9.17379C14.571 7.53834 14.571 4.86653 12.9355 3.23108C12.1178 2.41335 11.041 2.00452 9.96417 2.00452Z" fill="#5B678A"/>
</svg>
