<svg width="20" height="20" viewBox="0 0 20 20" fill="none" xmlns="http://www.w3.org/2000/svg">
<path d="M10 2.5C5.40502 2.5 1.66669 6.23833 1.66669 10.8333C1.66669 13.39 2.82127 15.7708 4.83377 17.365C4.94419 17.4525 5.08085 17.5 5.22169 17.5H14.7784C14.9192 17.5 15.0559 17.4525 15.1667 17.365C17.1788 15.7708 18.3334 13.39 18.3334 10.8333C18.3334 6.23833 14.595 2.5 10 2.5ZM6.44502 15.2354C6.32335 15.3562 6.16419 15.4167 6.00502 15.4167C5.84419 15.4167 5.68335 15.355 5.56127 15.2317C4.39335 14.0529 3.75002 12.4908 3.75002 10.8333C3.75002 7.38708 6.55377 4.58333 10 4.58333C10.7146 4.58333 11.4154 4.70292 12.0834 4.93917C12.4088 5.05417 12.5792 5.41125 12.4642 5.73667C12.3492 6.06208 11.9913 6.23292 11.6667 6.1175C11.1334 5.92875 10.5725 5.83333 10 5.83333C7.24294 5.83333 5.00002 8.07625 5.00002 10.8333C5.00002 12.1592 5.5146 13.4087 6.44919 14.3517C6.6921 14.5971 6.69044 14.9925 6.44502 15.2354ZM10 12.0833C9.3096 12.0833 8.75002 11.5237 8.75002 10.8333C8.75002 10.1429 9.3096 9.58333 10 9.58333C10.1113 9.58333 10.2171 9.6025 10.3196 9.63L13.5163 6.43333C13.7604 6.18917 14.1559 6.18917 14.4 6.43333C14.6442 6.67708 14.6442 7.07333 14.4 7.31708L11.2034 10.5138C11.2309 10.6163 11.25 10.7221 11.25 10.8333C11.25 11.5237 10.6904 12.0833 10 12.0833ZM14.4388 15.2317C14.3167 15.355 14.1559 15.4167 13.995 15.4167C13.8359 15.4167 13.6767 15.3562 13.555 15.2354C13.3096 14.9925 13.3079 14.5967 13.5509 14.3517C14.4854 13.4087 15 12.1592 15 10.8333C15 10.2608 14.9046 9.7 14.7154 9.16667C14.6004 8.84125 14.7709 8.48417 15.0963 8.36875C15.4209 8.25375 15.7788 8.42375 15.8938 8.74958C16.1304 9.4175 16.25 10.1183 16.25 10.8333C16.25 12.4908 15.6067 14.0529 14.4388 15.2317Z" fill="#8892B0"/>
</svg>
