<svg width="12" height="12" viewBox="0 0 12 12" fill="none" xmlns="http://www.w3.org/2000/svg">
<path d="M6 1C3.2385 1 1 3.2385 1 6C1 8.7615 3.2385 11 6 11C8.7615 11 11 8.7615 11 6C11 3.2385 8.7615 1 6 1ZM7.89025 7.35975C8.03675 7.50625 8.03675 7.7435 7.89025 7.89C7.817 7.9635 7.721 8 7.625 8C7.529 8 7.433 7.9635 7.35975 7.89025L6 6.53025L4.64025 7.89C4.567 7.9635 4.471 8 4.375 8C4.279 8 4.183 7.9635 4.10975 7.89025C3.96325 7.74375 3.96325 7.5065 4.10975 7.36L5.46975 6L4.11 4.64025C3.9635 4.49375 3.9635 4.2565 4.11 4.11C4.2565 3.9635 4.49375 3.9635 4.64025 4.11L6 5.46975L7.35975 4.11C7.50625 3.9635 7.7435 3.9635 7.89 4.11C8.0365 4.2565 8.0365 4.49375 7.89 4.64025L6.53025 6L7.89025 7.35975Z" fill="#8892B0"/>
</svg>
