<svg width="16" height="16" viewBox="0 0 16 16" fill="none" xmlns="http://www.w3.org/2000/svg">
<path d="M6.83337 1.33329C6.75284 1.33226 6.67325 1.3507 6.60138 1.38703C6.5295 1.42336 6.46747 1.47652 6.42055 1.54198C6.37363 1.60744 6.34321 1.68326 6.33189 1.763C6.32056 1.84273 6.32867 1.92403 6.35551 1.99996H4.88025C4.26558 1.99996 3.69553 2.30537 3.35486 2.81637L2.5658 3.99996H2.50004C2.43379 3.99902 2.368 4.01126 2.30652 4.03597C2.24504 4.06068 2.18908 4.09736 2.14189 4.14388C2.09471 4.1904 2.05724 4.24584 2.03166 4.30697C2.00609 4.3681 1.99292 4.4337 1.99292 4.49996C1.99292 4.56622 2.00609 4.63182 2.03166 4.69295C2.05724 4.75408 2.09471 4.80952 2.14189 4.85604C2.18908 4.90256 2.24504 4.93924 2.30652 4.96395C2.368 4.98866 2.43379 5.0009 2.50004 4.99996H13.5C13.5663 5.0009 13.6321 4.98866 13.6936 4.96395C13.755 4.93924 13.811 4.90256 13.8582 4.85604C13.9054 4.80952 13.9428 4.75408 13.9684 4.69295C13.994 4.63182 14.0072 4.56622 14.0072 4.49996C14.0072 4.4337 13.994 4.3681 13.9684 4.30697C13.9428 4.24584 13.9054 4.1904 13.8582 4.14388C13.811 4.09736 13.755 4.06068 13.6936 4.03597C13.6321 4.01126 13.5663 3.99902 13.5 3.99996H13.4343L12.6452 2.81637C12.3046 2.30537 11.7342 1.99996 11.1198 1.99996H9.64457C9.67141 1.92403 9.67952 1.84273 9.66819 1.763C9.65687 1.68326 9.62646 1.60744 9.57954 1.54198C9.53262 1.47652 9.47058 1.42336 9.3987 1.38703C9.32683 1.3507 9.24724 1.33226 9.16671 1.33329H6.83337ZM2.99093 5.99996L3.70837 12.6953C3.80837 13.6293 4.59196 14.3333 5.53129 14.3333H10.4688C11.4078 14.3333 12.1914 13.6293 12.2917 12.6953L13.0092 5.99996H2.99093Z" fill="#5B678A"/>
</svg>
