<svg width="16" height="16" viewBox="0 0 16 16" fill="none" xmlns="http://www.w3.org/2000/svg">
<path d="M8.01636 0.666747C7.88743 0.662724 7.76194 0.708676 7.6661 0.795003C7.6661 0.795003 5.16347 3.00008 2.16675 3.00008C2.03414 3.00009 1.90697 3.05278 1.81321 3.14654C1.71944 3.24031 1.66676 3.36748 1.66675 3.50008V7.58667C1.66675 9.81269 2.69655 13.4755 7.80607 15.6277C7.86749 15.6535 7.93345 15.6669 8.00008 15.6669C8.06671 15.6669 8.13268 15.6535 8.19409 15.6277C13.3036 13.4755 14.3334 9.81269 14.3334 7.58667V3.50008C14.3334 3.36748 14.2807 3.24031 14.187 3.14654C14.0932 3.05278 13.966 3.00009 13.8334 3.00008C10.8367 3.00008 8.33407 0.795003 8.33407 0.795003C8.24657 0.716172 8.13406 0.670753 8.01636 0.666747ZM5.50008 4.66675H10.5001C11.1434 4.66675 11.6667 5.19008 11.6667 5.83341V9.83341C11.6667 10.4767 11.1434 11.0001 10.5001 11.0001H5.50008C4.85675 11.0001 4.33341 10.4767 4.33341 9.83341V5.83341C4.33341 5.19008 4.85675 4.66675 5.50008 4.66675ZM5.33341 6.66675V9.83341C5.33341 9.92675 5.40675 10.0001 5.50008 10.0001H10.5001C10.5934 10.0001 10.6667 9.92675 10.6667 9.83341V6.66675H5.33341Z" fill="#5B678A"/>
</svg>
