<svg width="16" height="16" viewBox="0 0 16 16" fill="none" xmlns="http://www.w3.org/2000/svg">
<path d="M2.8333 2C2.7007 2.00001 2.57353 2.0527 2.47976 2.14646C2.386 2.24023 2.33332 2.3674 2.3333 2.5V14.1667C2.33236 14.2329 2.34461 14.2987 2.36931 14.3602C2.39402 14.4217 2.4307 14.4776 2.47722 14.5248C2.52374 14.572 2.57918 14.6095 2.64031 14.635C2.70144 14.6606 2.76704 14.6738 2.8333 14.6738C2.89956 14.6738 2.96517 14.6606 3.02629 14.635C3.08742 14.6095 3.14286 14.572 3.18938 14.5248C3.2359 14.4776 3.27258 14.4217 3.29729 14.3602C3.322 14.2987 3.33424 14.2329 3.3333 14.1667V11H13.8333C13.9262 11 14.0172 10.9741 14.0961 10.9252C14.1751 10.8764 14.2389 10.8065 14.2804 10.7234C14.3219 10.6404 14.3394 10.5474 14.3311 10.4549C14.3227 10.3625 14.2888 10.2741 14.233 10.1999L11.4583 6.5L14.233 2.80013C14.2888 2.72586 14.3227 2.63754 14.3311 2.54507C14.3394 2.4526 14.3219 2.35963 14.2804 2.27657C14.2389 2.19351 14.1751 2.12364 14.0961 2.07479C14.0172 2.02595 13.9262 2.00005 13.8333 2H2.8333Z" fill="#5B678A"/>
</svg>
