<svg width="12" height="12" viewBox="0 0 12 12" fill="none" xmlns="http://www.w3.org/2000/svg">
<path d="M10.3535 5.64635L6.8535 2.14635C6.65825 1.9511 6.34175 1.9511 6.1465 2.14635C5.95125 2.3416 5.95125 2.6581 6.1465 2.85335L8.793 5.49985H2C1.724 5.49985 1.5 5.72385 1.5 5.99985C1.5 6.27585 1.724 6.49985 2 6.49985H8.793L6.1465 9.14635C5.95125 9.3416 5.95125 9.6581 6.1465 9.85335C6.24425 9.9511 6.372 9.99985 6.5 9.99985C6.628 9.99985 6.75575 9.9511 6.8535 9.85335L10.3535 6.35335C10.5488 6.1581 10.5488 5.8416 10.3535 5.64635Z" fill="#8892B0"/>
</svg>
