<svg width="16" height="16" viewBox="0 0 16 16" fill="none" xmlns="http://www.w3.org/2000/svg">
<path d="M13.1621 2.32631C13.03 2.32943 12.9046 2.38467 12.8131 2.47996L7.99996 7.29311L3.1868 2.47996C3.1402 2.43196 3.08444 2.39381 3.02282 2.36775C2.9612 2.34169 2.89498 2.32827 2.82808 2.32826C2.72857 2.32829 2.63134 2.358 2.54881 2.4136C2.46628 2.4692 2.40222 2.54815 2.36482 2.64036C2.32742 2.73257 2.31838 2.83384 2.33886 2.93122C2.35933 3.0286 2.4084 3.11765 2.47977 3.18699L7.29292 8.00014L2.47977 12.8133C2.43179 12.8594 2.39348 12.9145 2.36709 12.9756C2.34069 13.0367 2.32675 13.1024 2.32608 13.1689C2.3254 13.2354 2.338 13.3014 2.36315 13.363C2.38829 13.4246 2.42547 13.4805 2.47251 13.5276C2.51955 13.5746 2.5755 13.6118 2.63709 13.6369C2.69868 13.6621 2.76466 13.6747 2.83118 13.674C2.8977 13.6733 2.96342 13.6594 3.02448 13.633C3.08555 13.6066 3.14073 13.5683 3.1868 13.5203L7.99996 8.70717L12.8131 13.5203C12.8592 13.5683 12.9144 13.6066 12.9754 13.633C13.0365 13.6594 13.1022 13.6733 13.1687 13.674C13.2352 13.6747 13.3012 13.6621 13.3628 13.6369C13.4244 13.6118 13.4804 13.5746 13.5274 13.5276C13.5744 13.4805 13.6116 13.4246 13.6368 13.363C13.6619 13.3014 13.6745 13.2354 13.6738 13.1689C13.6732 13.1024 13.6592 13.0367 13.6328 12.9756C13.6064 12.9145 13.5681 12.8594 13.5201 12.8133L8.70699 8.00014L13.5201 3.18699C13.5928 3.1172 13.6428 3.02707 13.6634 2.92842C13.684 2.82977 13.6743 2.72719 13.6356 2.63414C13.5969 2.54109 13.5309 2.46191 13.4464 2.40698C13.3619 2.35205 13.2628 2.32393 13.1621 2.32631Z" fill="#5B678A"/>
</svg>
