<svg width="16" height="16" viewBox="0 0 16 16" fill="none" xmlns="http://www.w3.org/2000/svg">
<path d="M8.00004 1.3335C4.32404 1.3335 1.33337 4.32416 1.33337 8.00016C1.33337 11.6762 4.32404 14.6668 8.00004 14.6668C11.676 14.6668 14.6667 11.6762 14.6667 8.00016C14.6667 4.32416 11.676 1.3335 8.00004 1.3335ZM10.8334 8.50016H8.50004V10.8335C8.50004 11.1098 8.27604 11.3335 8.00004 11.3335C7.72404 11.3335 7.50004 11.1098 7.50004 10.8335V8.50016H5.16671C4.89071 8.50016 4.66671 8.2765 4.66671 8.00016C4.66671 7.72383 4.89071 7.50016 5.16671 7.50016H7.50004V5.16683C7.50004 4.8905 7.72404 4.66683 8.00004 4.66683C8.27604 4.66683 8.50004 4.8905 8.50004 5.16683V7.50016H10.8334C11.1094 7.50016 11.3334 7.72383 11.3334 8.00016C11.3334 8.2765 11.1094 8.50016 10.8334 8.50016Z" fill="white"/>
</svg>
