<svg width="16" height="16" viewBox="0 0 16 16" fill="none" xmlns="http://www.w3.org/2000/svg">
<path d="M8.00004 1.33337C4.32406 1.33337 1.33337 4.32407 1.33337 8.00004C1.33337 11.676 4.32406 14.6667 8.00004 14.6667C11.676 14.6667 14.6667 11.676 14.6667 8.00004C14.6667 4.32407 11.676 1.33337 8.00004 1.33337ZM8.00004 4.33337C8.97571 4.33337 9.89431 4.71211 10.586 5.39978C10.782 5.59445 10.7826 5.91081 10.5879 6.10681C10.3936 6.30281 10.0769 6.30343 9.8809 6.10876C9.37757 5.60843 8.70937 5.33337 8.00004 5.33337C6.93637 5.33337 6.00382 5.96971 5.57882 6.88871L6.17387 6.58598C6.41987 6.46198 6.72106 6.55774 6.8464 6.80408C6.97173 7.04974 6.87364 7.35159 6.62765 7.47725L5.05343 8.27934C4.98243 8.31534 4.90486 8.33337 4.82686 8.33337C4.77486 8.33337 4.72225 8.32529 4.67192 8.30929C4.54592 8.26829 4.44123 8.17859 4.3809 8.06059L3.57882 6.48637C3.45348 6.24004 3.55157 5.93951 3.79757 5.81384C4.04357 5.68918 4.34476 5.78626 4.47009 6.03259L4.68168 6.44796C5.27168 5.19729 6.54671 4.33337 8.00004 4.33337ZM11.1342 7.66801C11.199 7.66301 11.2652 7.67063 11.3282 7.6908C11.4542 7.7318 11.5588 7.82149 11.6192 7.93949L12.4213 9.51436C12.5466 9.76036 12.4485 10.0609 12.2025 10.1862C12.1298 10.2229 12.0523 10.2409 11.976 10.2409C11.7943 10.2409 11.6183 10.1412 11.53 9.96749L11.3184 9.55212C10.7284 10.8028 9.45337 11.6667 8.00004 11.6667C7.02437 11.6667 6.10577 11.288 5.4141 10.6003C5.2181 10.4056 5.21748 10.0893 5.41215 9.89327C5.60682 9.69727 5.92385 9.69665 6.11918 9.89132C6.62251 10.3917 7.29071 10.6667 8.00004 10.6667C9.06371 10.6667 9.99593 10.0304 10.4213 9.11137L9.82686 9.4141C9.58086 9.53877 9.28 9.44267 9.15434 9.196C9.029 8.95 9.12644 8.64849 9.37244 8.52283L10.9467 7.72074C11.0058 7.69058 11.0693 7.67301 11.1342 7.66801Z" fill="#235FF5"/>
</svg>
