<svg width="16" height="16" viewBox="0 0 16 16" fill="none" xmlns="http://www.w3.org/2000/svg">
<path d="M3.50008 2C2.48941 2 1.66675 2.82267 1.66675 3.83333V4.5V12C1.66675 13.0967 2.57007 14 3.66675 14H12.3334C13.4301 14 14.3334 13.0967 14.3334 12V4.5V3.83333C14.3334 2.82267 13.5107 2 12.5001 2H3.50008ZM3.50008 3C3.77608 3 4.00008 3.224 4.00008 3.5C4.00008 3.776 3.77608 4 3.50008 4C3.22408 4 3.00008 3.776 3.00008 3.5C3.00008 3.224 3.22408 3 3.50008 3ZM5.16675 3C5.44275 3 5.66675 3.224 5.66675 3.5C5.66675 3.776 5.44275 4 5.16675 4C4.89075 4 4.66675 3.776 4.66675 3.5C4.66675 3.224 4.89075 3 5.16675 3ZM3.00008 5H13.0001V12C13.0001 12.376 12.7094 12.6667 12.3334 12.6667H3.66675C3.29076 12.6667 3.00008 12.376 3.00008 12V5ZM8.00008 6C6.34915 6 5.00008 7.34907 5.00008 9C5.00008 10.6509 6.34915 12 8.00008 12C9.65101 12 11.0001 10.6509 11.0001 9C11.0001 7.34907 9.65101 6 8.00008 6ZM8.00008 7C8.37252 7 8.71885 7.10181 9.01636 7.27669L6.27677 10.0163C6.10189 9.71877 6.00008 9.37244 6.00008 9C6.00008 7.88951 6.88959 7 8.00008 7ZM9.72339 7.98372C9.89827 8.28123 10.0001 8.62756 10.0001 9C10.0001 10.1105 9.11057 11 8.00008 11C7.62764 11 7.28131 10.8982 6.98381 10.7233L9.72339 7.98372Z" fill="#5B678A"/>
</svg>
