<svg width="20" height="20" viewBox="0 0 20 20" fill="none" xmlns="http://www.w3.org/2000/svg">
<path d="M15.2083 2.08331C14.7923 2.08384 14.3819 2.1802 14.0092 2.36493C13.6364 2.54965 13.3112 2.81778 13.0588 3.1485C12.8064 3.47922 12.6335 3.86365 12.5537 4.27196C12.4739 4.68026 12.4892 5.10147 12.5984 5.50291L12.5504 5.52651L6.97426 8.31378L6.92625 8.33738C6.67339 8.01223 6.3497 7.74903 5.9798 7.56782C5.6099 7.38661 5.20355 7.29216 4.79165 7.29165C4.07335 7.29165 3.38448 7.57699 2.87657 8.0849C2.36865 8.59281 2.08331 9.28168 2.08331 9.99998C2.08331 10.7183 2.36865 11.4071 2.87657 11.9151C3.38448 12.423 4.07335 12.7083 4.79165 12.7083C5.20382 12.7081 5.6105 12.6137 5.9807 12.4325C6.3509 12.2513 6.67485 11.9879 6.92788 11.6626L6.97426 11.6862L12.5504 14.4734L12.596 14.4962C12.4865 14.8979 12.4712 15.3194 12.5511 15.728C12.6309 16.1366 12.804 16.5213 13.0567 16.8522C13.3094 17.1831 13.6349 17.4512 14.0081 17.6358C14.3813 17.8204 14.792 17.9165 15.2083 17.9166C15.9266 17.9166 16.6155 17.6313 17.1234 17.1234C17.6313 16.6155 17.9166 15.9266 17.9166 15.2083C17.9166 14.49 17.6313 13.8011 17.1234 13.2932C16.6155 12.7853 15.9266 12.5 15.2083 12.5C14.8287 12.5005 14.4534 12.5808 14.1069 12.7358C13.7603 12.8907 13.4502 13.1167 13.1966 13.3992L13.1087 13.3553L7.53335 10.568L7.44627 10.5249C7.51436 10.1785 7.51409 9.82216 7.44545 9.47589L7.53335 9.43195L13.1087 6.64467L13.1942 6.60154C13.4481 6.88421 13.7586 7.11028 14.1056 7.26507C14.4526 7.41985 14.8283 7.49989 15.2083 7.49998C15.9266 7.49998 16.6155 7.21464 17.1234 6.70673C17.6313 6.19882 17.9166 5.50994 17.9166 4.79165C17.9166 4.07335 17.6313 3.38448 17.1234 2.87657C16.6155 2.36865 15.9266 2.08331 15.2083 2.08331Z" fill="#8892B0"/>
</svg>
