<svg width="16" height="16" viewBox="0 0 16 16" fill="none" xmlns="http://www.w3.org/2000/svg">
<path d="M12.8857 6.17848L13.699 5.36515C14.5437 4.52048 14.5437 3.14581 13.699 2.30081C13.29 1.89215 12.7463 1.66748 12.1667 1.66748C11.587 1.66748 11.043 1.89248 10.6343 2.30115L9.82133 3.11415L12.8857 6.17848ZM9.11433 3.82115L3.09133 9.84415C2.96299 9.97248 2.86532 10.1308 2.80866 10.3025L1.69199 13.6761C1.63233 13.8555 1.67932 14.0531 1.81299 14.1868C1.90866 14.2821 2.03599 14.3331 2.16666 14.3331C2.21933 14.3331 2.27233 14.3248 2.32399 14.3078L5.69666 13.1908C5.86899 13.1341 6.02766 13.0365 6.15599 12.9078L12.1787 6.88515L9.11433 3.82115Z" fill="#5B678A"/>
</svg>
