<svg width="20" height="20" viewBox="0 0 20 20" fill="none" xmlns="http://www.w3.org/2000/svg">
<path d="M7.08333 3.6403L2.7575 6.78613C2.59542 6.90363 2.5 7.09155 2.5 7.29155V16.0415C2.5 16.2765 2.63167 16.492 2.84125 16.5986C2.93083 16.644 3.02833 16.6665 3.125 16.6665C3.255 16.6665 3.38375 16.6261 3.4925 16.547L7.08333 13.9357V3.6403ZM11.6667 6.06405L8.33333 3.6403V13.9357L11.6667 16.3595V6.06405ZM17.1587 3.40113C16.9492 3.29447 16.6975 3.31447 16.5075 3.4528L12.9167 6.06405V16.3595L17.2425 13.2136C17.4046 13.0961 17.5 12.9082 17.5 12.7082V3.95822C17.5 3.72322 17.3683 3.5078 17.1587 3.40113Z" fill="#8892B0"/>
</svg>
