<svg width="16" height="16" viewBox="0 0 16 16" fill="none" xmlns="http://www.w3.org/2000/svg">
<path d="M11.7667 4.23341C10.68 3.14674 9.13999 2.52008 7.44666 2.69341C4.99999 2.94008 2.98666 4.92674 2.71333 7.37341C2.34666 10.6067 4.84666 13.3334 7.99999 13.3334C10.1267 13.3334 11.9533 12.0867 12.8067 10.2934C13.02 9.84674 12.7 9.33341 12.2067 9.33341C11.96 9.33341 11.7267 9.46674 11.62 9.68674C10.8667 11.3067 9.05999 12.3334 7.08666 11.8934C5.60666 11.5667 4.41333 10.3601 4.09999 8.88008C3.53999 6.29341 5.50666 4.00008 7.99999 4.00008C9.10666 4.00008 10.0933 4.46008 10.8133 5.18674L9.80666 6.19341C9.38666 6.61341 9.67999 7.33341 10.2733 7.33341H12.6667C13.0333 7.33341 13.3333 7.03341 13.3333 6.66674V4.27341C13.3333 3.68008 12.6133 3.38008 12.1933 3.80008L11.7667 4.23341V4.23341Z" fill="#5B678A"/>
</svg>
