<svg width="12" height="12" viewBox="0 0 12 12" fill="none" xmlns="http://www.w3.org/2000/svg">
<path d="M9.87164 1.74473C9.7726 1.74707 9.67852 1.7885 9.60992 1.85997L6.00006 5.46983L2.3902 1.85997C2.35524 1.82397 2.31342 1.79535 2.26721 1.77581C2.22099 1.75627 2.17133 1.7462 2.12115 1.7462C2.04652 1.74622 1.97359 1.7685 1.9117 1.8102C1.8498 1.8519 1.80176 1.91111 1.77371 1.98027C1.74566 2.04943 1.73888 2.12538 1.75423 2.19842C1.76959 2.27145 1.80639 2.33824 1.85992 2.39024L5.46978 6.0001L1.85992 9.60997C1.82393 9.64452 1.7952 9.68591 1.77541 9.73171C1.75561 9.77751 1.74516 9.82679 1.74465 9.87668C1.74414 9.92657 1.75359 9.97606 1.77245 10.0223C1.79131 10.0684 1.8192 10.1104 1.85447 10.1457C1.88975 10.181 1.93172 10.2089 1.97791 10.2277C2.0241 10.2466 2.07359 10.256 2.12348 10.2555C2.17337 10.255 2.22266 10.2445 2.26845 10.2248C2.31425 10.205 2.35564 10.1762 2.3902 10.1402L6.00006 6.53038L9.60992 10.1402C9.64448 10.1762 9.68586 10.205 9.73166 10.2248C9.77746 10.2445 9.82675 10.255 9.87664 10.2555C9.92653 10.256 9.97602 10.2466 10.0222 10.2277C10.0684 10.2089 10.1104 10.181 10.1456 10.1457C10.1809 10.1104 10.2088 10.0684 10.2277 10.0223C10.2465 9.97606 10.256 9.92657 10.2555 9.87668C10.255 9.82679 10.2445 9.77751 10.2247 9.73171C10.2049 9.68591 10.1762 9.64452 10.1402 9.60997L6.53033 6.0001L10.1402 2.39024C10.1947 2.3379 10.2322 2.27031 10.2476 2.19632C10.2631 2.12233 10.2558 2.04539 10.2268 1.97561C10.1977 1.90582 10.1483 1.84643 10.0849 1.80524C10.0215 1.76404 9.9472 1.74295 9.87164 1.74473Z" fill="#5B678A"/>
</svg>
