<svg width="16" height="16" viewBox="0 0 16 16" fill="none" xmlns="http://www.w3.org/2000/svg">
<path d="M7.99992 1.33325C4.32394 1.33325 1.33325 4.32394 1.33325 7.99992C1.33325 11.6759 4.32394 14.6666 7.99992 14.6666C11.6759 14.6666 14.6666 11.6759 14.6666 7.99992C14.6666 4.32394 11.6759 1.33325 7.99992 1.33325ZM7.99992 2.33325C11.1355 2.33325 13.6666 4.86438 13.6666 7.99992C13.6666 11.1355 11.1355 13.6666 7.99992 13.6666C4.86438 13.6666 2.33325 11.1355 2.33325 7.99992C2.33325 4.86438 4.86438 2.33325 7.99992 2.33325ZM8.49471 5.49471C8.3952 5.49473 8.29797 5.52445 8.21544 5.58004C8.13291 5.63564 8.06885 5.7146 8.03145 5.80681C7.99405 5.89902 7.98501 6.00029 8.00549 6.09767C8.02596 6.19505 8.07503 6.2841 8.1464 6.35343L9.29289 7.49992H5.49992C5.43366 7.49898 5.36788 7.51122 5.3064 7.53593C5.24491 7.56064 5.18895 7.59732 5.14177 7.64384C5.09458 7.69036 5.05711 7.7458 5.03154 7.80693C5.00597 7.86805 4.9928 7.93366 4.9928 7.99992C4.9928 8.06618 5.00597 8.13178 5.03154 8.19291C5.05711 8.25404 5.09458 8.30948 5.14177 8.356C5.18895 8.40252 5.24491 8.4392 5.3064 8.46391C5.36788 8.48862 5.43366 8.50086 5.49992 8.49992H9.29289L8.1464 9.6464C8.09842 9.69248 8.06011 9.74766 8.03372 9.80872C8.00732 9.86979 7.99338 9.9355 7.99271 10.002C7.99203 10.0685 8.00463 10.1345 8.02978 10.1961C8.05492 10.2577 8.0921 10.3137 8.13914 10.3607C8.18618 10.4077 8.24213 10.4449 8.30372 10.4701C8.36531 10.4952 8.43129 10.5078 8.49781 10.5071C8.56433 10.5065 8.63005 10.4925 8.69111 10.4661C8.75218 10.4397 8.80736 10.4014 8.85343 10.3534L10.8534 8.35343C10.9472 8.25966 10.9998 8.1325 10.9998 7.99992C10.9998 7.86733 10.9472 7.74017 10.8534 7.6464L8.85343 5.6464C8.80683 5.59841 8.75107 5.56025 8.68945 5.5342C8.62783 5.50814 8.56161 5.49471 8.49471 5.49471Z" fill="#5B678A"/>
</svg>
