<svg width="14" height="10" viewBox="0 0 14 10" fill="none" xmlns="http://www.w3.org/2000/svg">
<rect width="14" height="10" rx="2" fill="white"/>
<mask id="mask0_142:204" style="mask-type:alpha" maskUnits="userSpaceOnUse" x="0" y="0" width="14" height="10">
<rect width="14" height="10" rx="2" fill="white"/>
</mask>
<g mask="url(#mask0_142:204)">
<rect x="6.66666" width="7.33333" height="10" fill="#1AB11F"/>
<path fill-rule="evenodd" clip-rule="evenodd" d="M0 10H4.66667V0H0V10Z" fill="#262626"/>
<path fill-rule="evenodd" clip-rule="evenodd" d="M4.66667 10H9.33334V0H4.66667V10Z" fill="#DC0D18"/>
<path opacity="0.75" d="M6.33334 4.66667C6.33334 4.29848 6.03486 4.00001 5.66667 4.00001C5.29848 4.00001 5.00001 4.29848 5.00001 4.66667H6.33334ZM5.99723 6.39737C6.31569 6.58216 6.72365 6.47379 6.90844 6.15533C7.09322 5.83686 6.98486 5.4289 6.66639 5.24412L5.99723 6.39737ZM7.35823 5.22911C7.04806 5.42749 6.95743 5.83976 7.15581 6.14993C7.35419 6.46011 7.76645 6.55074 8.07663 6.35236L7.35823 5.22911ZM9.00001 4.66667C9.00001 4.29848 8.70153 4.00001 8.33334 4.00001C7.96515 4.00001 7.66667 4.29848 7.66667 4.66667H9.00001ZM5.00001 4.66667C5.00001 5.40684 5.40243 6.05225 5.99723 6.39737L6.66639 5.24412C6.46581 5.12773 6.33334 4.91228 6.33334 4.66667H5.00001ZM8.07663 6.35236C8.63047 5.99814 9.00001 5.37578 9.00001 4.66667H7.66667C7.66667 4.9021 7.54514 5.10957 7.35823 5.22911L8.07663 6.35236Z" fill="white"/>
<path fill-rule="evenodd" clip-rule="evenodd" d="M7.00001 5.33333C7.3682 5.33333 7.66668 4.88561 7.66668 4.33333C7.66668 3.78104 7.3682 3.33333 7.00001 3.33333C6.63182 3.33333 6.33334 3.78104 6.33334 4.33333C6.33334 4.88561 6.63182 5.33333 7.00001 5.33333Z" fill="white" fill-opacity="0.5"/>
</g>
</svg>
