<svg width="14" height="10" viewBox="0 0 14 10" fill="none" xmlns="http://www.w3.org/2000/svg">
<rect width="14" height="10" rx="2" fill="white"/>
<mask id="mask0_142:44" style="mask-type:alpha" maskUnits="userSpaceOnUse" x="0" y="0" width="14" height="10">
<rect width="14" height="10" rx="2" fill="white"/>
</mask>
<g mask="url(#mask0_142:44)">
<rect width="14" height="10" fill="#E2243B"/>
<path fill-rule="evenodd" clip-rule="evenodd" d="M0 0H14L7 10L0 0Z" fill="#262626"/>
<mask id="mask1_142:44" style="mask-type:alpha" maskUnits="userSpaceOnUse" x="0" y="0" width="14" height="10">
<path fill-rule="evenodd" clip-rule="evenodd" d="M0 0H14L7 10L0 0Z" fill="white"/>
</mask>
<g mask="url(#mask1_142:44)">
<g filter="url(#filter0_d_142:44)">
<path fill-rule="evenodd" clip-rule="evenodd" d="M7 5.5L5.85195 6.77164L5.93934 5.06066L4.22836 5.14805L5.5 4L4 2.66667L5.93934 3L5.66667 1L7 2.66667L8.33333 1L8.06066 3L10 2.66667L8.5 4L9.77164 5.14805L8.06066 5.06066L8.14805 6.77164L7 5.5Z" fill="#FFCF3C"/>
</g>
<g filter="url(#filter1_d_142:44)">
<path fill-rule="evenodd" clip-rule="evenodd" d="M0 6.66667H14V4H0V6.66667Z" fill="#1984D8"/>
</g>
<path fill-rule="evenodd" clip-rule="evenodd" d="M0 10H14V6.66667H0V10Z" fill="white"/>
</g>
</g>
<defs>
<filter id="filter0_d_142:44" x="4" y="1" width="6" height="5.77164" filterUnits="userSpaceOnUse" color-interpolation-filters="sRGB">
<feFlood flood-opacity="0" result="BackgroundImageFix"/>
<feColorMatrix in="SourceAlpha" type="matrix" values="0 0 0 0 0 0 0 0 0 0 0 0 0 0 0 0 0 0 127 0" result="hardAlpha"/>
<feOffset/>
<feColorMatrix type="matrix" values="0 0 0 0 0 0 0 0 0 0 0 0 0 0 0 0 0 0 0.06 0"/>
<feBlend mode="normal" in2="BackgroundImageFix" result="effect1_dropShadow_142:44"/>
<feBlend mode="normal" in="SourceGraphic" in2="effect1_dropShadow_142:44" result="shape"/>
</filter>
<filter id="filter1_d_142:44" x="0" y="4" width="14" height="2.66667" filterUnits="userSpaceOnUse" color-interpolation-filters="sRGB">
<feFlood flood-opacity="0" result="BackgroundImageFix"/>
<feColorMatrix in="SourceAlpha" type="matrix" values="0 0 0 0 0 0 0 0 0 0 0 0 0 0 0 0 0 0 127 0" result="hardAlpha"/>
<feOffset/>
<feColorMatrix type="matrix" values="0 0 0 0 0 0 0 0 0 0 0 0 0 0 0 0 0 0 0.06 0"/>
<feBlend mode="normal" in2="BackgroundImageFix" result="effect1_dropShadow_142:44"/>
<feBlend mode="normal" in="SourceGraphic" in2="effect1_dropShadow_142:44" result="shape"/>
</filter>
</defs>
</svg>
