<svg width="14" height="10" viewBox="0 0 14 10" fill="none" xmlns="http://www.w3.org/2000/svg">
<mask id="mask0_142:212" style="mask-type:alpha" maskUnits="userSpaceOnUse" x="0" y="0" width="14" height="10">
<rect width="14" height="10" rx="2" fill="white"/>
</mask>
<g mask="url(#mask0_142:212)">
<rect width="14" height="10" fill="#EE343C"/>
<path fill-rule="evenodd" clip-rule="evenodd" d="M6.27396 2.27397C6.11466 2.11467 5.86506 2.08995 5.67761 2.21492V2.21492C5.37567 2.41621 5.40384 2.86859 5.72841 3.03088L6.10556 3.21945C6.24515 3.28925 6.33332 3.43191 6.33332 3.58798V3.58798C6.33332 3.81553 6.14885 4 5.9213 4H5.79398C5.71025 4 5.62767 3.98051 5.55278 3.94306L4.62163 3.47749C4.44945 3.3914 4.24151 3.42514 4.1054 3.56126V3.56126C3.88956 3.7771 3.9486 4.14097 4.22163 4.27748L4.55228 4.44281C4.75177 4.54256 4.76908 4.82061 4.5835 4.94433V4.94433C4.36817 5.08788 4.4339 5.42011 4.68766 5.47087L4.96863 5.52706C5.2384 5.58102 5.31727 5.92871 5.09718 6.09377L4.84563 6.28243C4.68152 6.40552 4.76857 6.66667 4.97371 6.66667V6.66667C4.99116 6.66667 5.00855 6.66453 5.02548 6.66029L5.65637 6.50257C5.89559 6.44277 6.08304 6.70876 5.94626 6.91392V6.91392C5.82675 7.0932 5.95526 7.33333 6.17072 7.33333H6.46247C6.58441 7.33333 6.69267 7.41136 6.73123 7.52705V7.52705C6.81732 7.78533 7.18266 7.78533 7.26875 7.52705V7.52705C7.30731 7.41136 7.41557 7.33333 7.53752 7.33333H7.82926C8.04472 7.33333 8.17323 7.0932 8.05372 6.91392V6.91392C7.91694 6.70876 8.10439 6.44277 8.34361 6.50257L8.9745 6.66029C8.99143 6.66453 9.00882 6.66667 9.02627 6.66667V6.66667C9.23141 6.66667 9.31846 6.40552 9.15435 6.28243L8.9028 6.09377C8.68271 5.92871 8.76158 5.58102 9.03135 5.52706L9.31232 5.47087C9.56608 5.42011 9.63181 5.08788 9.41648 4.94433V4.94433C9.2309 4.82061 9.24821 4.54256 9.4477 4.44281L9.77835 4.27749C10.0514 4.14097 10.1104 3.7771 9.89458 3.56126V3.56126C9.75847 3.42514 9.55053 3.3914 9.37835 3.47749L8.4472 3.94306C8.37231 3.98051 8.28973 4 8.206 4H8.07868C7.85113 4 7.66666 3.81553 7.66666 3.58798V3.58798C7.66666 3.43191 7.75473 3.2893 7.89432 3.2195C8.0132 3.16006 8.14348 3.09492 8.27159 3.03087C8.59616 2.86858 8.62431 2.41621 8.32237 2.21492V2.21492C8.13492 2.08995 7.88532 2.11467 7.72602 2.27397L7.47139 2.5286C7.21104 2.78895 6.78894 2.78894 6.52859 2.5286L6.27396 2.27397Z" fill="#262626"/>
</g>
</svg>
