<svg width="14" height="10" viewBox="0 0 14 10" fill="none" xmlns="http://www.w3.org/2000/svg">
<rect width="14" height="10" rx="2" fill="white"/>
<mask id="mask0_142:79" style="mask-type:alpha" maskUnits="userSpaceOnUse" x="0" y="0" width="14" height="10">
<rect width="14" height="10" rx="2" fill="white"/>
</mask>
<g mask="url(#mask0_142:79)">
<path fill-rule="evenodd" clip-rule="evenodd" d="M0 3.33333H14V0H0V3.33333Z" fill="#24AAD5"/>
<path fill-rule="evenodd" clip-rule="evenodd" d="M0 10H14V6.66667H0V10Z" fill="#21BF75"/>
<path fill-rule="evenodd" clip-rule="evenodd" d="M0 6.66666H14V3.33333H0V6.66666Z" fill="#ED1845"/>
<g filter="url(#filter0_d_142:79)">
<path fill-rule="evenodd" clip-rule="evenodd" d="M7 6C7.20564 6 7.39678 5.93793 7.55571 5.8315C7.5373 5.83272 7.51872 5.83334 7.5 5.83334C7.03977 5.83334 6.66667 5.46024 6.66667 5C6.66667 4.53977 7.03977 4.16667 7.5 4.16667C7.51873 4.16667 7.5373 4.16729 7.55572 4.1685C7.39678 4.06207 7.20564 4 7 4C6.44772 4 6 4.44772 6 5C6 5.55228 6.44772 6 7 6ZM8.00001 5C8.00001 5.1841 7.85077 5.33334 7.66668 5.33334C7.48258 5.33334 7.33334 5.1841 7.33334 5C7.33334 4.81591 7.48258 4.66667 7.66668 4.66667C7.85077 4.66667 8.00001 4.81591 8.00001 5Z" fill="white"/>
</g>
</g>
<defs>
<filter id="filter0_d_142:79" x="6" y="4" width="2" height="3" filterUnits="userSpaceOnUse" color-interpolation-filters="sRGB">
<feFlood flood-opacity="0" result="BackgroundImageFix"/>
<feColorMatrix in="SourceAlpha" type="matrix" values="0 0 0 0 0 0 0 0 0 0 0 0 0 0 0 0 0 0 127 0" result="hardAlpha"/>
<feOffset dy="1"/>
<feColorMatrix type="matrix" values="0 0 0 0 0 0 0 0 0 0 0 0 0 0 0 0 0 0 0.06 0"/>
<feBlend mode="normal" in2="BackgroundImageFix" result="effect1_dropShadow_142:79"/>
<feBlend mode="normal" in="SourceGraphic" in2="effect1_dropShadow_142:79" result="shape"/>
</filter>
</defs>
</svg>
