<svg width="14" height="10" viewBox="0 0 14 10" fill="none" xmlns="http://www.w3.org/2000/svg">
<rect width="14" height="10" rx="2" fill="white"/>
<mask id="mask0_142:184" style="mask-type:alpha" maskUnits="userSpaceOnUse" x="0" y="0" width="14" height="10">
<rect width="14" height="10" rx="2" fill="white"/>
</mask>
<g mask="url(#mask0_142:184)">
<rect width="14" height="10" fill="url(#paint0_linear_142:184)"/>
<rect x="6.66666" width="7.33333" height="10" fill="#08379D"/>
<path fill-rule="evenodd" clip-rule="evenodd" d="M0 10H4.66667V0H0V10Z" fill="#08379D"/>
<path fill-rule="evenodd" clip-rule="evenodd" d="M4.66666 10H9.33332V0H4.66666V10Z" fill="#FFCC50"/>
<path fill-rule="evenodd" clip-rule="evenodd" d="M6.73219 3.4135C6.86596 3.2168 7.15679 3.2195 7.28689 3.41865L7.49554 3.73805C7.56912 3.85068 7.48831 4 7.35378 4V4C7.25359 4 7.17531 4.0865 7.18528 4.18618L7.31052 5.43858C7.32347 5.56806 7.43242 5.66667 7.56255 5.66667V5.66667C7.62925 5.66667 7.69326 5.64035 7.74068 5.59344L7.90109 5.43476C7.96438 5.37214 8 5.28682 8 5.19779V4.76275C8 4.70123 7.97556 4.64223 7.93206 4.59873V4.59873C7.81013 4.47679 7.85914 4.26917 8.02273 4.21464L8.15537 4.17043C8.38521 4.09382 8.613 4.29178 8.56918 4.53006L8.37957 5.56107C8.36694 5.62973 8.33307 5.69269 8.28274 5.74108L7.73565 6.26701C7.69139 6.30956 7.63237 6.33333 7.57096 6.33333V6.33333C7.43972 6.33333 7.33333 6.43972 7.33333 6.57097V6.66667C7.33333 6.85076 7.18409 7 7 7V7C6.8159 7 6.66666 6.85076 6.66666 6.66667V6.56903C6.66666 6.43886 6.56114 6.33333 6.43096 6.33333V6.33333C6.36845 6.33333 6.3085 6.3085 6.26429 6.2643L5.73803 5.73803C5.69149 5.6915 5.65978 5.63223 5.64687 5.5677L5.43994 4.53307C5.39244 4.29554 5.61926 4.09531 5.84906 4.17191L5.97727 4.21464C6.14085 4.26917 6.18987 4.47679 6.06794 4.59873V4.59873C6.02444 4.64223 6 4.70123 6 4.76275V5.19779C6 5.28682 6.03561 5.37215 6.0989 5.43476L6.25931 5.59344C6.30673 5.64035 6.37074 5.66667 6.43744 5.66667V5.66667C6.56757 5.66667 6.67652 5.56806 6.68947 5.43858L6.81497 4.18359C6.8248 4.08529 6.74761 4 6.64882 4V4C6.51476 4 6.43536 3.84998 6.51075 3.73912L6.73219 3.4135Z" fill="#262626"/>
</g>
<defs>
<linearGradient id="paint0_linear_142:184" x1="0" y1="0" x2="0" y2="10" gradientUnits="userSpaceOnUse">
<stop stop-color="#1132C7"/>
<stop offset="1" stop-color="#0522A5"/>
</linearGradient>
</defs>
</svg>
