<svg width="14" height="10" viewBox="0 0 14 10" fill="none" xmlns="http://www.w3.org/2000/svg">
<rect width="14" height="10" rx="2" fill="white"/>
<mask id="mask0" style="mask-type:alpha" maskUnits="userSpaceOnUse" x="0" y="0" width="14" height="10">
<rect width="14" height="10" rx="2" fill="white"/>
</mask>
<g mask="url(#mask0)">
<rect width="14" height="10" fill="#19BFBF"/>
<path fill-rule="evenodd" clip-rule="evenodd" d="M7 8.66671C9.02505 8.66671 10.6667 7.02508 10.6667 5.00004C10.6667 2.975 9.02505 1.33337 7 1.33337C4.97496 1.33337 3.33334 2.975 3.33334 5.00004C3.33334 7.02508 4.97496 8.66671 7 8.66671ZM9.98169 5.33339C9.85791 6.45296 9.11806 7.38684 8.10866 7.78851C8.43369 7.12651 8.62358 6.26406 8.66016 5.33339H9.98169ZM7.99282 5.33339C7.94414 6.4579 7.65053 7.45174 7.19275 7.99393C7.12902 7.99797 7.06475 8.00002 7 8.00002C6.93525 8.00002 6.87098 7.99797 6.80725 7.99393C6.34947 7.45174 6.05586 6.4579 6.00718 5.33339H7.99282ZM5.33985 5.33339C5.37643 6.26406 5.56631 7.12651 5.89135 7.78851C4.88195 7.38684 4.14209 6.45296 4.01832 5.33339H5.33985ZM6.00718 4.66673H7.99283C7.94416 3.54219 7.65055 2.54831 7.19276 2.00611C7.12903 2.00207 7.06475 2.00002 7 2.00002C6.93525 2.00002 6.87098 2.00207 6.80725 2.00611C6.34946 2.54831 6.05585 3.54219 6.00718 4.66673ZM5.89134 2.21153C5.5663 2.87355 5.37641 3.73603 5.33985 4.66673H4.01831C4.14206 3.54713 4.88192 2.61321 5.89134 2.21153ZM9.9817 4.66673H8.66016C8.62359 3.73603 8.43371 2.87356 8.10867 2.21153C9.11809 2.61321 9.85795 3.54713 9.9817 4.66673Z" fill="white"/>
</g>
</svg>
