<svg width="14" height="10" viewBox="0 0 14 10" fill="none" xmlns="http://www.w3.org/2000/svg">
<rect width="14" height="10" rx="2" fill="white"/>
<mask id="mask0_142:151" style="mask-type:alpha" maskUnits="userSpaceOnUse" x="0" y="0" width="14" height="10">
<rect width="14" height="10" rx="2" fill="white"/>
</mask>
<g mask="url(#mask0_142:151)">
<rect width="14" height="10" fill="#E4233B"/>
<path fill-rule="evenodd" clip-rule="evenodd" d="M0 0L6 5L0 10V0Z" fill="#34CD4E"/>
<path fill-rule="evenodd" clip-rule="evenodd" d="M14 0L8 5L14 10V0Z" fill="#34CD4E"/>
<path fill-rule="evenodd" clip-rule="evenodd" d="M5.51896 3.19688L-0.641221 -0.958218L-1.38681 0.147165L4.77289 4.30194C4.70388 4.52235 4.66668 4.75683 4.66668 5C4.66668 5.24317 4.70388 5.47765 4.77289 5.69807L-1.38681 9.85284L-0.64122 10.9582L5.51897 6.80313C5.92184 7.13442 6.4377 7.33333 7.00001 7.33333C7.56233 7.33333 8.07818 7.13442 8.48106 6.80313L14.6412 10.9582L15.3868 9.85284L9.22713 5.69807C9.29615 5.47766 9.33335 5.24317 9.33335 5C9.33335 4.75683 9.29615 4.52235 9.22713 4.30194L15.3868 0.147162L14.6412 -0.958221L8.48106 3.19688C8.07819 2.86558 7.56233 2.66667 7.00001 2.66667C6.4377 2.66667 5.92184 2.86558 5.51896 3.19688Z" fill="white"/>
<path fill-rule="evenodd" clip-rule="evenodd" d="M6.99999 4.33333L6.52859 4.4714L6.66666 4L6.52859 3.52859L6.99999 3.66667L7.47139 3.52859L7.33332 4L7.47139 4.4714L6.99999 4.33333ZM6 6L5.52859 6.13807L5.66667 5.66667L5.52859 5.19526L6 5.33334L6.4714 5.19526L6.33333 5.66667L6.4714 6.13807L6 6ZM7.52859 6.13807L8 6L8.4714 6.13807L8.33333 5.66667L8.4714 5.19526L8 5.33334L7.52859 5.19526L7.66666 5.66667L7.52859 6.13807Z" fill="#DF2239"/>
</g>
</svg>
