<svg width="14" height="10" viewBox="0 0 14 10" fill="none" xmlns="http://www.w3.org/2000/svg">
<rect width="14" height="10" rx="2" fill="white"/>
<mask id="mask0_142:165" style="mask-type:alpha" maskUnits="userSpaceOnUse" x="0" y="0" width="14" height="10">
<rect width="14" height="10" rx="2" fill="white"/>
</mask>
<g mask="url(#mask0_142:165)">
<rect width="14" height="10" fill="#DC1F37"/>
<rect width="6" height="4.66667" fill="#042C90"/>
<path fill-rule="evenodd" clip-rule="evenodd" d="M8.66675 4.99999C8.66675 3.99999 8.66675 3.33333 8.66675 3.33333H10.0001H11.3334C11.3334 3.33333 11.3334 3.99999 11.3334 4.99999C11.3334 5.99999 10.0001 6.66666 10.0001 6.66666C10.0001 6.66666 8.66675 5.99999 8.66675 4.99999Z" fill="white"/>
<mask id="mask1_142:165" style="mask-type:alpha" maskUnits="userSpaceOnUse" x="8" y="3" width="4" height="4">
<path fill-rule="evenodd" clip-rule="evenodd" d="M8.66675 4.99999C8.66675 3.99999 8.66675 3.33333 8.66675 3.33333H10.0001H11.3334C11.3334 3.33333 11.3334 3.99999 11.3334 4.99999C11.3334 5.99999 10.0001 6.66666 10.0001 6.66666C10.0001 6.66666 8.66675 5.99999 8.66675 4.99999Z" fill="white"/>
</mask>
<g mask="url(#mask1_142:165)">
<path fill-rule="evenodd" clip-rule="evenodd" d="M10 5.99999C10.3682 5.99999 10.6667 5.70151 10.6667 5.33332C10.6667 4.96513 10.3682 4.66666 10 4.66666C9.63185 4.66666 9.33337 4.96513 9.33337 5.33332C9.33337 5.70151 9.63185 5.99999 10 5.99999Z" fill="#65B5D2"/>
<path fill-rule="evenodd" clip-rule="evenodd" d="M10.0001 4.66667C10.1842 4.66667 10.3334 4.51743 10.3334 4.33333C10.3334 4.14924 10.1842 4 10.0001 4C9.816 4 9.66676 4.14924 9.66676 4.33333C9.66676 4.51743 9.816 4.66667 10.0001 4.66667ZM9.33346 5.33334C9.51755 5.33334 9.66679 5.1841 9.66679 5C9.66679 4.81591 9.51755 4.66667 9.33346 4.66667C9.14936 4.66667 9.00012 4.81591 9.00012 5C9.00012 5.1841 9.14936 5.33334 9.33346 5.33334ZM11.0001 5C11.0001 5.1841 10.8509 5.33334 10.6668 5.33334C10.4827 5.33334 10.3335 5.1841 10.3335 5C10.3335 4.81591 10.4827 4.66667 10.6668 4.66667C10.8509 4.66667 11.0001 4.81591 11.0001 5Z" fill="url(#paint0_linear_142:165)"/>
<rect x="8.66675" y="6" width="2.66667" height="0.666667" fill="#2F8F22"/>
</g>
<path d="M0 -0.333333H-0.901086L-0.21693 0.253086L2 2.15331V2.49513L-0.193746 4.06209L-0.333333 4.16179V4.33333V4.66667V5.26808L0.176666 4.94933L2.76227 3.33333H3.22651L5.44417 4.91738C5.5194 4.97111 5.60954 5 5.70199 5C6.11381 5 6.30334 4.48765 5.99067 4.21964L4 2.51336V2.17154L6.05416 0.704283C6.22936 0.579142 6.33333 0.377095 6.33333 0.161794V0V-0.601416L5.82333 -0.282666L3.23773 1.33333H2.77349L0.527079 -0.271244L0.440155 -0.333333H0.333333H0Z" fill="#DB1E36" stroke="white" stroke-width="0.666667"/>
<path fill-rule="evenodd" clip-rule="evenodd" d="M0 1.66667V3H2.33333V4.33333C2.33333 4.70152 2.63181 5 3 5V5C3.36819 5 3.66667 4.70152 3.66667 4.33333V3H5.66667C6.03486 3 6.33333 2.70152 6.33333 2.33333V2.33333C6.33333 1.96514 6.03486 1.66667 5.66667 1.66667H3.66667V0H2.33333V1.66667H0Z" fill="white"/>
<path fill-rule="evenodd" clip-rule="evenodd" d="M0 2H2.66667V1.66667V0H3.33333V1.66667V2H6V2.66667H3.33333V3V4.66667H2.66667V3V2.66667H0V2Z" fill="url(#paint1_linear_142:165)"/>
</g>
<defs>
<linearGradient id="paint0_linear_142:165" x1="9.00012" y1="4" x2="9.00012" y2="5.33333" gradientUnits="userSpaceOnUse">
<stop stop-color="#E20B0C"/>
<stop offset="1" stop-color="#D40001"/>
</linearGradient>
<linearGradient id="paint1_linear_142:165" x1="0" y1="0" x2="0" y2="4.66667" gradientUnits="userSpaceOnUse">
<stop stop-color="#DB1E36"/>
<stop offset="1" stop-color="#D51931"/>
</linearGradient>
</defs>
</svg>
