<svg width="14" height="10" viewBox="0 0 14 10" fill="none" xmlns="http://www.w3.org/2000/svg">
<rect x="0.25" y="0.25" width="13.5" height="9.5" rx="1.75" fill="white" stroke="#F5F5F5" stroke-width="0.5"/>
<mask id="mask0" mask-type="alpha" maskUnits="userSpaceOnUse" x="0" y="0" width="14" height="10">
<rect x="0.25" y="0.25" width="13.5" height="9.5" rx="1.75" fill="white" stroke="white" stroke-width="0.5"/>
</mask>
<g mask="url(#mask0)">
<rect x="10" width="4" height="10" fill="#FF3131"/>
<path fill-rule="evenodd" clip-rule="evenodd" d="M0 10H4V0H0V10Z" fill="#FF3131"/>
<path fill-rule="evenodd" clip-rule="evenodd" d="M8.17835 4.48811C8.02506 4.64141 7.76604 4.50278 7.80855 4.2902L7.99996 3.33317L7.33329 3.6665L6.99996 2.6665L6.66663 3.6665L5.99996 3.33317L6.19137 4.2902C6.23388 4.50278 5.97486 4.64141 5.82156 4.48811C5.73599 4.40254 5.59726 4.40254 5.51169 4.48811L5.33329 4.6665L4.66663 4.33317L4.99996 4.99984L4.90233 5.09747C4.77215 5.22764 4.77215 5.4387 4.90233 5.56887L5.66663 6.33317H6.66663L6.83329 7.33317H7.16663L7.33329 6.33317H8.33329L9.09759 5.56887C9.22777 5.4387 9.22777 5.22764 9.09759 5.09747L8.99996 4.99984L9.33329 4.33317L8.66663 4.6665L8.48823 4.48811C8.40266 4.40254 8.26392 4.40254 8.17835 4.48811Z" fill="#FF3131"/>
</g>
</svg>
