<svg width="14" height="10" viewBox="0 0 14 10" fill="none" xmlns="http://www.w3.org/2000/svg">
<rect width="14" height="10" rx="2" fill="white"/>
<mask id="mask0_142:150" style="mask-type:alpha" maskUnits="userSpaceOnUse" x="0" y="0" width="14" height="10">
<rect width="14" height="10" rx="2" fill="white"/>
</mask>
<g mask="url(#mask0_142:150)">
<rect width="14" height="10" fill="#F1361D"/>
<path fill-rule="evenodd" clip-rule="evenodd" d="M5.03632 1.55036L5.52054 1.63292L5.88371 1.96366L5.96626 1.47944L6.29701 1.11627L5.81279 1.03372L5.44962 0.702972L5.36706 1.18719L5.03632 1.55036ZM6.33332 3.244L6.75292 2.98863L7.244 2.99998L6.98863 2.58038L6.99999 2.0893L6.58038 2.34468L6.0893 2.33332L6.34468 2.75292L6.33332 3.244ZM5.76411 5.98542L5.35368 6.25529L5.34789 5.76411L5.07802 5.35368L5.5692 5.34789L5.97964 5.07802L5.98542 5.5692L6.25529 5.97964L5.76411 5.98542ZM6.12056 4.7157L6.60878 4.66159L7.04904 4.87942L6.99493 4.3912L7.21276 3.95093L6.72454 4.00505L6.28427 3.78722L6.33839 4.27543L6.12056 4.7157Z" fill="#FFDC42"/>
<path fill-rule="evenodd" clip-rule="evenodd" d="M3.33331 4.11334L2.15774 4.95138L2.59149 3.57438L1.4312 2.71531L2.87484 2.70231L3.33331 1.33334L3.79179 2.70231L5.23543 2.71531L4.07514 3.57438L4.50888 4.95138L3.33331 4.11334Z" fill="#FFDC42"/>
</g>
</svg>
