<svg width="14" height="10" viewBox="0 0 14 10" fill="none" xmlns="http://www.w3.org/2000/svg">
<rect x="0.25" y="0.25" width="13.5" height="9.5" rx="1.75" fill="white" stroke="#F5F5F5" stroke-width="0.5"/>
<mask id="mask0_142:160" style="mask-type:alpha" maskUnits="userSpaceOnUse" x="0" y="0" width="14" height="10">
<rect x="0.25" y="0.25" width="13.5" height="9.5" rx="1.75" fill="white" stroke="white" stroke-width="0.5"/>
</mask>
<g mask="url(#mask0_142:160)">
<path fill-rule="evenodd" clip-rule="evenodd" d="M0 2H14V0H0V2Z" fill="#0B389F"/>
<path fill-rule="evenodd" clip-rule="evenodd" d="M0 6H14V4H0V6Z" fill="#0B389F"/>
<path fill-rule="evenodd" clip-rule="evenodd" d="M0 10H14V8H0V10Z" fill="#0B389F"/>
<path fill-rule="evenodd" clip-rule="evenodd" d="M0 0L6.66667 5L0 10V0Z" fill="#E12A43"/>
<path fill-rule="evenodd" clip-rule="evenodd" d="M2.33333 5.51133L1.54962 6.07868L1.84702 5.158L1.06526 4.58797L2.03277 4.5863L2.33333 3.66666L2.63389 4.5863L3.60141 4.58797L2.81965 5.158L3.11705 6.07868L2.33333 5.51133Z" fill="white"/>
</g>
</svg>
