<svg width="14" height="10" viewBox="0 0 14 10" fill="none" xmlns="http://www.w3.org/2000/svg">
<rect x="0.25" y="0.25" width="13.5" height="9.5" rx="1.75" fill="white" stroke="#F5F5F5" stroke-width="0.5"/>
<mask id="mask0_142:209" style="mask-type:alpha" maskUnits="userSpaceOnUse" x="0" y="0" width="14" height="10">
<rect x="0.25" y="0.25" width="13.5" height="9.5" rx="1.75" fill="white" stroke="white" stroke-width="0.5"/>
</mask>
<g mask="url(#mask0_142:209)">
<path fill-rule="evenodd" clip-rule="evenodd" d="M10 1.66668C10.1816 1.5759 10.3658 1.78463 10.2532 1.95352L10.0336 2.28291C10.0114 2.3162 9.98288 2.34477 9.94959 2.36697L9.03536 2.97645C9.01186 2.99212 8.98996 3.01007 8.96999 3.03004V3.03004C8.80248 3.19755 8.80248 3.46914 8.96999 3.63664L9.00002 3.66668C9.18412 3.85077 9.18412 4.14925 9.00002 4.33334L8.88745 4.44592C8.75561 4.57775 8.55421 4.61044 8.38745 4.52706V4.52706C8.17348 4.42007 7.91329 4.5068 7.80631 4.72077L7.76432 4.80475C7.70181 4.92977 7.59219 5.02484 7.45958 5.06905L6.76932 5.29913C6.70134 5.32179 6.63016 5.33334 6.5585 5.33334H6.28472C6.11024 5.33334 5.95073 5.43192 5.8727 5.58799V5.58799C5.75892 5.81554 5.48222 5.90778 5.25466 5.794L4.43012 5.38173C4.36603 5.34968 4.30752 5.30751 4.25686 5.25685L3.80476 4.80475C3.71635 4.71634 3.66669 4.59644 3.66669 4.47141V4.23571C3.66669 4.10554 3.77221 4.00001 3.90239 4.00001V4.00001C3.9649 4.00001 4.02485 3.97518 4.06906 3.93097L4.49465 3.50538C4.6048 3.39523 4.75421 3.33334 4.90999 3.33334V3.33334C5.16282 3.33334 5.38728 3.17156 5.46723 2.93171L5.48318 2.88386C5.58802 2.56936 5.91064 2.38213 6.23572 2.44715L7.18635 2.63728C7.28315 2.65664 7.38303 2.65426 7.47879 2.63032L8.59569 2.35109C8.64288 2.3393 8.68864 2.32237 8.73214 2.30062L9.33335 2.00001L10 1.66668V1.66668Z" fill="#E7832C"/>
<path fill-rule="evenodd" clip-rule="evenodd" d="M7.00002 8.00001C7.18411 8.00001 7.33335 7.85077 7.33335 7.66668C7.33335 7.48258 7.18411 7.33334 7.00002 7.33334C6.81593 7.33334 6.66669 7.48258 6.66669 7.66668C6.66669 7.85077 6.81593 8.00001 7.00002 8.00001Z" fill="#445128"/>
<path opacity="0.75" d="M8 7.33334C8 7.33334 9 7.00001 9.33333 6.33334" stroke="#445128" stroke-width="1.33333" stroke-linecap="round"/>
<path opacity="0.75" d="M6 7.33334C6 7.33334 5 7.00001 4.66667 6.33334" stroke="#445128" stroke-width="1.33333" stroke-linecap="round"/>
</g>
</svg>
