<svg width="14" height="10" viewBox="0 0 14 10" fill="none" xmlns="http://www.w3.org/2000/svg">
<rect width="14" height="10" rx="2" fill="white"/>
<mask id="mask0_142:131" style="mask-type:alpha" maskUnits="userSpaceOnUse" x="0" y="0" width="14" height="10">
<rect width="14" height="10" rx="2" fill="white"/>
</mask>
<g mask="url(#mask0_142:131)">
<path fill-rule="evenodd" clip-rule="evenodd" d="M0 4H14V0H0V4Z" fill="#108753"/>
<path fill-rule="evenodd" clip-rule="evenodd" d="M0 10H14V6H0V10Z" fill="#108753"/>
<path fill-rule="evenodd" clip-rule="evenodd" d="M7.99999 10H5.99999V6H0V4H5.99999V0H7.99999V4H14V6H7.99999V10Z" fill="white"/>
<path fill-rule="evenodd" clip-rule="evenodd" d="M7.33333 10H6.66666V5.33333H0V4.66666H6.66666V0H7.33333V4.66666H14V5.33333H7.33333V10Z" fill="#262626"/>
<path fill-rule="evenodd" clip-rule="evenodd" d="M6.66666 10H5.99999V4.66667H0V4H5.99999V0H6.66666V4H14V4.66667H6.66666V10Z" fill="#FCD449"/>
<path fill-rule="evenodd" clip-rule="evenodd" d="M6.99999 7.33332C8.28865 7.33332 9.33332 6.28865 9.33332 4.99999C9.33332 3.71133 8.28865 2.66666 6.99999 2.66666C5.71133 2.66666 4.66666 3.71133 4.66666 4.99999C4.66666 6.28865 5.71133 7.33332 6.99999 7.33332Z" fill="url(#paint0_linear_142:131)"/>
<path fill-rule="evenodd" clip-rule="evenodd" d="M7.00001 6.66668C7.92049 6.66668 8.66668 5.92049 8.66668 5.00001C8.66668 4.07954 7.92049 3.33334 7.00001 3.33334C6.07954 3.33334 5.33334 4.07954 5.33334 5.00001C5.33334 5.92049 6.07954 6.66668 7.00001 6.66668Z" stroke="#0E673F" stroke-width="1.33333" stroke-linecap="round" stroke-dasharray="0.67 2.67"/>
<path fill-rule="evenodd" clip-rule="evenodd" d="M6.99999 5.66668C7.36818 5.66668 7.33332 5.3682 7.33332 5.00001C7.33332 4.63182 7.36818 4.33334 6.99999 4.33334C6.6318 4.33334 6.66665 4.63182 6.66665 5.00001C6.66665 5.3682 6.6318 5.66668 6.99999 5.66668Z" fill="#0E673F"/>
</g>
<defs>
<linearGradient id="paint0_linear_142:131" x1="4.66666" y1="2.66666" x2="4.66666" y2="7.33332" gradientUnits="userSpaceOnUse">
<stop stop-color="#E02C42"/>
<stop offset="1" stop-color="#D22036"/>
</linearGradient>
</defs>
</svg>
