<svg width="14" height="10" viewBox="0 0 14 10" fill="none" xmlns="http://www.w3.org/2000/svg">
<rect width="14" height="10" rx="2" fill="white"/>
<mask id="mask0_142:216" style="mask-type:alpha" maskUnits="userSpaceOnUse" x="0" y="0" width="14" height="10">
<rect width="14" height="10" rx="2" fill="white"/>
</mask>
<g mask="url(#mask0_142:216)">
<path fill-rule="evenodd" clip-rule="evenodd" d="M0 7.33332H14V4.66666H0V7.33332Z" fill="#0748AE"/>
<path fill-rule="evenodd" clip-rule="evenodd" d="M0 10H14V7.33334H0V10Z" fill="#DE2035"/>
<path fill-rule="evenodd" clip-rule="evenodd" d="M0 4.66667H14V0H0V4.66667Z" fill="#FFD935"/>
<path fill-rule="evenodd" clip-rule="evenodd" d="M6.19998 4C5.87614 4.24326 5.66667 4.63054 5.66667 5.06675C5.66667 5.80313 6.26363 6.40008 7 6.40008C7.73638 6.40008 8.33334 5.80313 8.33334 5.06675C8.33334 4.63054 8.12387 4.24326 7.80003 4L7.33334 5.40008H6.66667L6.19998 4Z" fill="#FFD935"/>
<path fill-rule="evenodd" clip-rule="evenodd" d="M6.99999 3.66666L7.33332 5.33332H6.66666L6.99999 3.66666Z" fill="#5FC0DC"/>
<path opacity="0.66" d="M8.66666 2.99999L7.66666 2.66666L7 3.33332L6.33333 2.66666L5.33333 2.99999" stroke="#3F2821" stroke-width="0.666667" stroke-linecap="round" stroke-linejoin="round"/>
</g>
</svg>
