<svg width="14" height="10" viewBox="0 0 14 10" fill="none" xmlns="http://www.w3.org/2000/svg">
<rect x="0.25" y="0.25" width="13.5" height="9.5" rx="1.75" fill="white" stroke="#F5F5F5" stroke-width="0.5"/>
<mask id="mask0_142:175" style="mask-type:alpha" maskUnits="userSpaceOnUse" x="0" y="0" width="14" height="10">
<rect x="0.25" y="0.25" width="13.5" height="9.5" rx="1.75" fill="white" stroke="white" stroke-width="0.5"/>
</mask>
<g mask="url(#mask0_142:175)">
<path fill-rule="evenodd" clip-rule="evenodd" d="M0 3.33333H14V0H0V3.33333Z" fill="#E41D33"/>
<path fill-rule="evenodd" clip-rule="evenodd" d="M0 9.99999H14V6.66666H0V9.99999Z" fill="#262626"/>
<path d="M6.0352 4.81574L6.17596 5.09727L6.14844 5.05598C5.94251 5.19327 5.66668 5.04565 5.66668 4.79815V4.50929C5.66668 4.4279 5.72194 4.35941 5.79699 4.33931L6.0352 4.81574ZM7.36853 4.81574L7.36859 4.81585L7.36864 4.81594L7.36871 4.81609L7.36877 4.8162L7.46067 5H7.33334H7.00001H6.66668H6.53055L6.62532 4.82747L6.62535 4.82743L6.62541 4.82732L6.62545 4.82725L6.6255 4.82716L6.62566 4.82687L6.62782 4.82301L6.63782 4.80559C6.64691 4.78996 6.66058 4.76695 6.678 4.73905C6.71322 4.68264 6.76193 4.60923 6.81752 4.53747C6.87464 4.46374 6.93091 4.40235 6.97985 4.36242C6.99042 4.35379 6.99917 4.34736 7.00617 4.3426C7.01395 4.34745 7.02406 4.35445 7.03657 4.36446C7.08409 4.40247 7.13774 4.46141 7.19168 4.53333C7.24417 4.60332 7.28918 4.67512 7.32146 4.73046C7.3374 4.75778 7.34975 4.78026 7.35788 4.79543L7.36671 4.81219L7.36853 4.81574ZM7.85158 5.05598L7.82406 5.09727L7.96482 4.81574L8.20303 4.33931C8.27808 4.35941 8.33334 4.4279 8.33334 4.50929V4.79815C8.33334 5.04565 8.05751 5.19327 7.85158 5.05598Z" fill="#F4B32E" fill-opacity="0.25" stroke="#C6A846" stroke-width="0.666667"/>
</g>
</svg>
