<svg width="14" height="10" viewBox="0 0 14 10" fill="none" xmlns="http://www.w3.org/2000/svg">
<rect width="14" height="10" rx="2" fill="white"/>
<mask id="mask0_142:132" style="mask-type:alpha" maskUnits="userSpaceOnUse" x="0" y="0" width="14" height="10">
<rect width="14" height="10" rx="2" fill="white"/>
</mask>
<g mask="url(#mask0_142:132)">
<path fill-rule="evenodd" clip-rule="evenodd" d="M14 0V5H0V0H14Z" fill="#29C53F"/>
<path fill-rule="evenodd" clip-rule="evenodd" d="M14 5V10.3333H0V5H14Z" fill="#579DED"/>
<path fill-rule="evenodd" clip-rule="evenodd" d="M0 10L14 5L0 0V10Z" fill="#F42D56"/>
<path d="M6 4.99999C6 5.92046 5.25381 6.66666 4.33333 6.66666C3.41286 6.66666 2.66667 5.92046 2.66667 4.99999C2.66667 4.07952 3.41286 3.33332 4.33333 3.33332C5.25381 3.33332 6 4.07952 6 4.99999Z" stroke="#FFC63C" stroke-width="1.33333"/>
<path fill-rule="evenodd" clip-rule="evenodd" d="M3.99999 4.66667C4.18408 4.66667 4.33332 4.51743 4.33332 4.33333C4.33332 4.14924 4.18408 4 3.99999 4C3.81589 4 3.66666 4.14924 3.66666 4.33333C3.66666 4.51743 3.81589 4.66667 3.99999 4.66667Z" fill="#FFC63C"/>
<path fill-rule="evenodd" clip-rule="evenodd" d="M4.66668 5.00001C4.85077 5.00001 5.00001 4.85077 5.00001 4.66668C5.00001 4.48258 4.85077 4.33334 4.66668 4.33334C4.48258 4.33334 4.33334 4.48258 4.33334 4.66668C4.33334 4.85077 4.48258 5.00001 4.66668 5.00001Z" fill="#FFC63C"/>
<path fill-rule="evenodd" clip-rule="evenodd" d="M4.33333 4.33332C4.51743 4.33332 4.66667 4.18409 4.66667 3.99999C4.66667 3.81589 4.51743 3.66666 4.33333 3.66666C4.14924 3.66666 4 3.81589 4 3.99999C4 4.18409 4.14924 4.33332 4.33333 4.33332Z" fill="#FFC63C"/>
<path fill-rule="evenodd" clip-rule="evenodd" d="M3.99999 5.33332C4.18408 5.33332 4.33332 5.18408 4.33332 4.99999C4.33332 4.81589 4.18408 4.66666 3.99999 4.66666C3.81589 4.66666 3.66666 4.81589 3.66666 4.99999C3.66666 5.18408 3.81589 5.33332 3.99999 5.33332Z" fill="#FFC63C"/>
<path fill-rule="evenodd" clip-rule="evenodd" d="M4.66668 5.66667C4.85077 5.66667 5.00001 5.51743 5.00001 5.33333C5.00001 5.14924 4.85077 5 4.66668 5C4.48258 5 4.33334 5.14924 4.33334 5.33333C4.33334 5.51743 4.48258 5.66667 4.66668 5.66667Z" fill="#FFC63C"/>
<path fill-rule="evenodd" clip-rule="evenodd" d="M3.99999 6.00001C4.18408 6.00001 4.33332 5.85077 4.33332 5.66668C4.33332 5.48258 4.18408 5.33334 3.99999 5.33334C3.81589 5.33334 3.66666 5.48258 3.66666 5.66668C3.66666 5.85077 3.81589 6.00001 3.99999 6.00001Z" fill="#FFC63C"/>
<path fill-rule="evenodd" clip-rule="evenodd" d="M4.66668 6.33332C4.85077 6.33332 5.00001 6.18409 5.00001 5.99999C5.00001 5.81589 4.85077 5.66666 4.66668 5.66666C4.48258 5.66666 4.33334 5.81589 4.33334 5.99999C4.33334 6.18409 4.48258 6.33332 4.66668 6.33332Z" fill="#FFC63C"/>
</g>
</svg>
