<svg width="14" height="10" viewBox="0 0 14 10" fill="none" xmlns="http://www.w3.org/2000/svg">
<rect width="14" height="10" rx="2" fill="white"/>
<mask id="mask0_142:65" style="mask-type:alpha" maskUnits="userSpaceOnUse" x="0" y="0" width="14" height="10">
<rect width="14" height="10" rx="2" fill="white"/>
</mask>
<g mask="url(#mask0_142:65)">
<rect width="14" height="10" fill="#79CFF6"/>
<rect width="6" height="4.66667" fill="url(#paint0_linear_142:65)"/>
<path fill-rule="evenodd" clip-rule="evenodd" d="M8.66666 4.99999C8.66666 3.99999 8.66666 2.66666 8.66666 2.66666H12C12 2.66666 12 3.99999 12 4.99999C12 6.66666 10.3333 7.33332 10.3333 7.33332C10.3333 7.33332 8.66666 6.66666 8.66666 4.99999Z" fill="white"/>
<mask id="mask1_142:65" style="mask-type:alpha" maskUnits="userSpaceOnUse" x="8" y="2" width="4" height="6">
<path fill-rule="evenodd" clip-rule="evenodd" d="M8.66666 4.99999C8.66666 3.99999 8.66666 2.66666 8.66666 2.66666H12C12 2.66666 12 3.99999 12 4.99999C12 6.66666 10.3333 7.33332 10.3333 7.33332C10.3333 7.33332 8.66666 6.66666 8.66666 4.99999Z" fill="white"/>
</mask>
<g mask="url(#mask1_142:65)">
<path fill-rule="evenodd" clip-rule="evenodd" d="M9.66667 3.99999C9.66667 4.18409 9.51743 4.33332 9.33333 4.33332C9.14924 4.33332 9 4.18409 9 3.99999C9 3.81589 9.14924 3.66666 9.33333 3.66666C9.51743 3.66666 9.66667 3.81589 9.66667 3.99999ZM11.6667 3.99999C11.6667 4.18409 11.5174 4.33332 11.3333 4.33332C11.1492 4.33332 11 4.18409 11 3.99999C11 3.81589 11.1492 3.66666 11.3333 3.66666C11.5174 3.66666 11.6667 3.81589 11.6667 3.99999Z" fill="#2A915C"/>
<path fill-rule="evenodd" clip-rule="evenodd" d="M8.66666 2.66666H12V3.33332H10.6667V4.66666H12V5.33332H10.6667V7.33332H9.99999V5.33332H8.66666V4.66666H9.99999V3.33332H8.66666V2.66666Z" fill="#EB1D43"/>
</g>
<path d="M0 -0.333333H-0.901086L-0.21693 0.253086L2 2.15331V2.49513L-0.193746 4.06209L-0.333333 4.16179V4.33333V4.66667V5.26808L0.176666 4.94933L2.76227 3.33333H3.22651L5.44417 4.91738C5.5194 4.97111 5.60954 5 5.70199 5C6.11381 5 6.30334 4.48765 5.99067 4.21964L4 2.51336V2.17154L6.05416 0.704283C6.22936 0.579142 6.33333 0.377095 6.33333 0.161794V0V-0.601416L5.82333 -0.282666L3.23773 1.33333H2.77349L0.527079 -0.271244L0.440155 -0.333333H0.333333H0Z" fill="#DB1E36" stroke="white" stroke-width="0.666667"/>
<path fill-rule="evenodd" clip-rule="evenodd" d="M0 1.66667V3H2.33333V4.33333C2.33333 4.70152 2.63181 5 3 5V5C3.36819 5 3.66667 4.70152 3.66667 4.33333V3H5.66667C6.03486 3 6.33333 2.70152 6.33333 2.33333V2.33333C6.33333 1.96514 6.03486 1.66667 5.66667 1.66667H3.66667V0H2.33333V1.66667H0Z" fill="url(#paint1_linear_142:65)"/>
<path fill-rule="evenodd" clip-rule="evenodd" d="M0 2H2.66667V1.66667V0H3.33333V1.66667V2H6V2.66667H3.33333V3V4.66667H2.66667V3V2.66667H0V2Z" fill="#DB1E36"/>
</g>
<defs>
<linearGradient id="paint0_linear_142:65" x1="0" y1="0" x2="0" y2="4.66667" gradientUnits="userSpaceOnUse">
<stop stop-color="#042C90"/>
<stop offset="1" stop-color="#00247E"/>
</linearGradient>
<linearGradient id="paint1_linear_142:65" x1="0" y1="0" x2="0" y2="5" gradientUnits="userSpaceOnUse">
<stop stop-color="white"/>
<stop offset="1" stop-color="#F0F0F0"/>
</linearGradient>
</defs>
</svg>
