<svg width="14" height="10" viewBox="0 0 14 10" fill="none" xmlns="http://www.w3.org/2000/svg">
<rect width="14" height="10" rx="2" fill="white"/>
<mask id="mask0_142:181" style="mask-type:alpha" maskUnits="userSpaceOnUse" x="0" y="0" width="14" height="10">
<rect width="14" height="10" rx="2" fill="white"/>
</mask>
<g mask="url(#mask0_142:181)">
<rect width="14" height="10" fill="#07319C"/>
<path fill-rule="evenodd" clip-rule="evenodd" d="M8.66666 4.99999C8.66666 4.68245 8.66666 4.3313 8.66666 3.99991C8.66666 3.26353 9.26361 2.66666 9.99999 2.66666H10.6667C11.403 2.66666 12 3.26353 12 3.99991C12 4.3313 12 4.68245 12 4.99999C12 6.66666 10.3333 7.33332 10.3333 7.33332C10.3333 7.33332 8.66666 6.66666 8.66666 4.99999Z" fill="#0072C4"/>
<mask id="mask1_142:181" style="mask-type:alpha" maskUnits="userSpaceOnUse" x="8" y="2" width="4" height="6">
<path fill-rule="evenodd" clip-rule="evenodd" d="M8.66666 4.99999C8.66666 4.68245 8.66666 4.3313 8.66666 3.99991C8.66666 3.26353 9.26361 2.66666 9.99999 2.66666H10.6667C11.403 2.66666 12 3.26353 12 3.99991C12 4.3313 12 4.68245 12 4.99999C12 6.66666 10.3333 7.33332 10.3333 7.33332C10.3333 7.33332 8.66666 6.66666 8.66666 4.99999Z" fill="white"/>
</mask>
<g mask="url(#mask1_142:181)">
<path fill-rule="evenodd" clip-rule="evenodd" d="M9.43456 4.63384C9.09297 4.97888 9.76242 4.93512 9.76242 4.93512L10.2392 4.78245C10.2392 4.78245 10.4536 4.80839 10.5983 4.85201C10.6941 4.8809 10.9609 5 10.9609 5C10.9609 5 11.5242 4.88753 11.3262 4.63384C11.1281 4.38015 9.77615 4.28881 9.43456 4.63384Z" fill="#005121"/>
<path fill-rule="evenodd" clip-rule="evenodd" d="M10.8549 4.27541C10.8686 4.2723 10.9006 4.273 10.9126 4.28754C10.9313 4.31027 10.9697 4.30271 10.9884 4.32462C11.0071 4.34659 11.0288 4.36684 11.0288 4.39808C11.0288 4.42932 11.0252 4.50678 11.0258 4.52379C11.0268 4.55002 11.0313 4.55408 11.0583 4.55338C11.0908 4.55256 11.1357 4.55002 11.1371 4.49179C11.1381 4.45122 11.0977 4.42589 11.0859 4.28157C11.1036 4.2664 11.1194 4.25287 11.1135 4.23268C11.1075 4.21243 11.1469 4.20227 11.143 4.17186C11.139 4.14151 11.1824 4.1229 11.1646 4.08919C11.1469 4.05541 11.1863 4.05376 11.1706 4.02671C11.1548 3.99973 11.1961 3.97605 11.1784 3.95249C11.1607 3.92881 11.2021 3.9069 11.1804 3.87821C11.1587 3.84951 11.1922 3.83262 11.1706 3.81065C11.1844 3.78875 11.1725 3.72627 11.1292 3.69084C11.0859 3.65535 11.0249 3.63681 10.9894 3.62329C10.9234 3.59814 10.8004 3.60976 10.7137 3.61992C10.627 3.63002 10.4655 3.64017 10.4163 3.63344C10.3671 3.62671 10.2509 3.61992 10.1593 3.63509C10.128 3.6403 10.0924 3.6309 10.0737 3.61319C10.0587 3.59903 10.0501 3.60056 10.0363 3.60138C10.0225 3.60221 10.0146 3.59795 10.0077 3.58106C9.99554 3.55135 9.96835 3.57179 9.95554 3.53465C9.94694 3.50982 9.90228 3.53129 9.88857 3.51021C9.87472 3.48913 9.85806 3.48659 9.82057 3.48913C9.81865 3.47643 9.79798 3.46716 9.77924 3.47052C9.7822 3.44944 9.76154 3.43256 9.72709 3.43338C9.73102 3.40722 9.6828 3.38697 9.65813 3.40303C9.64243 3.3836 9.61087 3.38779 9.60302 3.40303C9.58628 3.3836 9.53309 3.38951 9.52028 3.41059C9.49769 3.39795 9.45369 3.429 9.45731 3.47814C9.45828 3.49167 9.45917 3.5057 9.43657 3.51021C9.39428 3.51865 9.36969 3.56589 9.33317 3.57262C9.2968 3.57941 9.26035 3.59122 9.25346 3.61148C9.24657 3.63173 9.25939 3.65287 9.24561 3.66297C9.23183 3.67313 9.25443 3.6824 9.26131 3.68741C9.2682 3.69249 9.27902 3.70094 9.28102 3.71275C9.28383 3.72951 9.31146 3.73452 9.34013 3.71611C9.35191 3.70856 9.37257 3.73135 9.40606 3.71529C9.43954 3.69929 9.48709 3.70773 9.47894 3.73389C9.47502 3.74652 9.48383 3.76005 9.49472 3.77268C9.50554 3.78532 9.52176 3.82348 9.51243 3.84525C9.49865 3.87732 9.5262 3.89509 9.51931 3.92373C9.51243 3.95249 9.52324 3.97865 9.5085 4.01744C9.49369 4.05624 9.49346 4.10481 9.51539 4.11871C9.54591 4.13814 9.52746 4.17662 9.55376 4.193C9.57539 4.20646 9.56265 4.23941 9.60302 4.24951C9.64339 4.25967 9.61976 4.28665 9.66206 4.29256C9.70443 4.29846 9.71917 4.32887 9.76346 4.32208C9.79613 4.31713 9.81331 4.32506 9.83235 4.33256C9.83628 4.3596 9.82754 4.45884 9.82554 4.48417C9.82376 4.50659 9.81176 4.54233 9.81176 4.56436C9.81176 4.57783 9.83931 4.58119 9.87087 4.58119C9.90228 4.58119 9.91613 4.56856 9.9082 4.53313C9.90035 4.49763 9.89843 4.41122 9.90043 4.35719C9.92776 4.37033 9.95376 4.38875 9.95257 4.40906C9.95057 4.44195 9.95109 4.501 9.94561 4.53141C9.94176 4.55338 9.94761 4.58798 9.94961 4.61078C9.95161 4.61916 10.0047 4.61833 10.0264 4.61078C10.0481 4.60316 10.0481 4.5829 10.0461 4.4909C10.0451 4.44538 9.9968 4.39884 10.0579 4.37611C10.0875 4.36513 10.1288 4.33979 10.1446 4.31624C10.1603 4.29256 10.1948 4.30183 10.2194 4.3137C10.244 4.32551 10.2834 4.34354 10.3081 4.3356C10.3395 4.32551 10.373 4.35078 10.4006 4.3356C10.4281 4.32043 10.4636 4.34659 10.4862 4.32805C10.5089 4.30944 10.5483 4.32716 10.565 4.30944C10.5818 4.29173 10.6506 4.3196 10.6753 4.29598C10.6999 4.2723 10.7334 4.30271 10.7561 4.285C10.762 4.2803 10.769 4.27929 10.7767 4.27986C10.7758 4.31979 10.7684 4.38335 10.7669 4.40316C10.7651 4.42563 10.7531 4.46132 10.7531 4.48329C10.7531 4.49681 10.7806 4.50017 10.8121 4.50017C10.8437 4.50017 10.8575 4.48754 10.8496 4.45211C10.8417 4.41668 10.853 4.32951 10.8549 4.27541" fill="#A3A3A3"/>
<path fill-rule="evenodd" clip-rule="evenodd" d="M9.26162 3.66C9.27481 3.65041 9.26259 3.63047 9.26918 3.6113C9.27577 3.59219 9.31066 3.58101 9.34555 3.57466C9.38044 3.56825 9.40399 3.52362 9.44459 3.51562C9.46621 3.51136 9.46533 3.49809 9.46436 3.48533C9.46096 3.43892 9.50303 3.40958 9.52473 3.42158C9.53696 3.40158 9.58792 3.396 9.60392 3.41435C9.61147 3.4 9.64162 3.396 9.65673 3.41435C9.68029 3.39923 9.72651 3.41835 9.72273 3.44304C9.75577 3.44228 9.77555 3.45822 9.77273 3.47816C9.79066 3.47498 9.81044 3.48374 9.81236 3.49568C9.80933 3.5153 9.85414 3.52031 9.8334 3.53301C9.81525 3.54412 9.79799 3.53974 9.77733 3.52457C9.75666 3.50933 9.6877 3.52285 9.67784 3.53047C9.66799 3.53809 9.65718 3.54146 9.64925 3.53555C9.6414 3.52965 9.62273 3.52031 9.61384 3.5212C9.60496 3.52203 9.58629 3.52203 9.5754 3.50431C9.56459 3.4866 9.53703 3.48406 9.53214 3.49079C9.52725 3.49752 9.54296 3.52203 9.55873 3.5313C9.57444 3.54063 9.56659 3.55835 9.58533 3.56844C9.59755 3.57511 9.58629 3.59797 9.5794 3.61149C9.57251 3.62501 9.54592 3.62076 9.54392 3.61066C9.54199 3.60057 9.53503 3.59377 9.51933 3.60895C9.50355 3.62419 9.47014 3.61993 9.46221 3.61574C9.45436 3.61149 9.43266 3.60393 9.41792 3.60812C9.4031 3.61238 9.42481 3.61911 9.42681 3.62501C9.42873 3.63092 9.4031 3.63346 9.38836 3.63346C9.37362 3.63346 9.36866 3.64184 9.37755 3.64355C9.38644 3.64527 9.42081 3.64698 9.43466 3.64019C9.44844 3.63346 9.49073 3.64019 9.49473 3.65289C9.49866 3.66552 9.47014 3.6706 9.45333 3.66889C9.42859 3.66641 9.39229 3.67987 9.37459 3.68406C9.35688 3.68831 9.30962 3.67733 9.29088 3.68241C9.27221 3.68743 9.25377 3.66755 9.26162 3.66" fill="#A3A3A3"/>
<path fill-rule="evenodd" clip-rule="evenodd" d="M9.57837 3.7634C9.56067 3.77013 9.56659 3.79039 9.58237 3.79883C9.59815 3.80728 9.63355 3.81064 9.65622 3.80645C9.67881 3.8022 9.68378 3.80899 9.66904 3.81743C9.65422 3.82582 9.69163 3.82753 9.68867 3.84105C9.68578 3.85451 9.70244 3.85197 9.71822 3.85115C9.734 3.85032 9.75467 3.84016 9.77237 3.83089C9.79007 3.82162 9.80289 3.82835 9.78615 3.84442C9.76948 3.86042 9.71333 3.88074 9.66904 3.8782C9.62467 3.87566 9.60104 3.88575 9.61089 3.9001C9.62074 3.91445 9.668 3.91699 9.69259 3.90937C9.71726 3.90182 9.71333 3.91534 9.69459 3.92455C9.67585 3.93388 9.64926 3.9347 9.62667 3.93388C9.604 3.93305 9.5843 3.95248 9.61385 3.9634C9.64341 3.97439 9.68281 3.96766 9.69755 3.97693C9.71237 3.9862 9.75763 3.97185 9.75859 3.98791C9.75955 4.00391 9.74578 4.00982 9.71918 4.00816C9.69259 4.00645 9.70044 4.01845 9.72022 4.02499C9.73792 4.03096 9.76948 4.03096 9.78615 4.02924C9.80289 4.02759 9.798 4.04442 9.78126 4.05032C9.76452 4.05623 9.71037 4.06467 9.68378 4.06385C9.65718 4.06302 9.66992 4.07991 9.70444 4.07991C9.80978 4.07991 9.84526 4.03007 9.87185 3.99547C9.88489 3.97851 9.91022 3.96931 9.91615 3.97947C9.92207 3.98956 9.92304 3.9921 9.91126 4.00055C9.89941 4.00899 9.90229 4.01407 9.924 4.01489C9.94563 4.01572 9.97718 4.00982 9.99592 4.0048C10.0146 3.99972 10.0697 4.03166 10.0244 4.03261C9.94467 4.03432 9.84622 4.06302 9.81378 4.07483C9.78126 4.08664 9.72704 4.10886 9.69363 4.10772C9.66904 4.10689 9.65911 4.11616 9.66904 4.12715C9.67881 4.13813 9.71037 4.13813 9.72807 4.13305C9.74578 4.12797 9.7497 4.13305 9.73792 4.14315C9.72615 4.15331 9.69659 4.1575 9.67585 4.16093C9.65526 4.16429 9.64504 4.1775 9.66111 4.18283C9.69163 4.19299 9.66407 4.20226 9.68578 4.20734C9.70741 4.21242 9.68378 4.22842 9.70741 4.2335C9.73104 4.23858 9.74481 4.23604 9.76252 4.22423C9.78029 4.21242 9.79007 4.20562 9.80881 4.20734C9.82755 4.20905 9.84037 4.20055 9.85118 4.18791C9.862 4.17528 9.89844 4.15248 9.91022 4.16347C9.92207 4.17445 9.94667 4.15413 9.95163 4.16512C9.95652 4.1761 9.97718 4.16937 9.98215 4.18455C9.98755 4.20143 10.0107 4.2048 10.0264 4.19889C10.0421 4.19299 10.055 4.17864 10.055 4.1575C10.055 4.13642 10.0609 4.12797 10.0668 4.15077C10.0727 4.17356 10.0944 4.18029 10.1052 4.16937C10.116 4.15839 10.1199 4.12042 10.1121 4.1027C10.1042 4.08493 10.1032 4.06213 10.1111 4.05794C10.119 4.05375 10.1377 4.09255 10.1456 4.10943C10.1535 4.12632 10.1741 4.12124 10.1751 4.10436C10.1761 4.08747 10.1948 4.07902 10.2086 4.09172C10.2224 4.10436 10.2145 4.14658 10.2184 4.16683C10.2224 4.18709 10.2607 4.16175 10.2647 4.16848C10.2687 4.17528 10.2834 4.17693 10.2893 4.16258C10.2953 4.14823 10.309 4.13559 10.3169 4.14404C10.3248 4.15248 10.3366 4.16683 10.3415 4.18283C10.3464 4.19889 10.3641 4.20734 10.375 4.19045C10.3858 4.17356 10.3937 4.14067 10.3898 4.11782C10.3858 4.09509 10.3927 4.08074 10.4025 4.09255C10.4124 4.10436 10.4114 4.13642 10.4124 4.16258C10.4134 4.18874 10.4458 4.18626 10.4458 4.1474C10.4458 4.12969 10.4557 4.12632 10.4587 4.13642C10.4616 4.14658 10.4616 4.16347 10.4646 4.17102C10.4718 4.18975 10.4971 4.17947 10.5 4.16683C10.503 4.15413 10.4981 4.10855 10.4921 4.08836C10.4862 4.06804 10.4981 4.05375 10.5079 4.06467C10.5178 4.07566 10.5197 4.10436 10.5217 4.13642C10.5236 4.16848 10.5443 4.1702 10.5552 4.16093C10.566 4.15159 10.566 4.12461 10.5611 4.10518C10.5561 4.08582 10.5719 4.08582 10.5788 4.09762C10.5857 4.10943 10.5976 4.10182 10.5956 4.09255C10.5936 4.08328 10.6034 4.07483 10.6133 4.08747C10.6231 4.10016 10.6201 4.12886 10.6153 4.15159C10.6103 4.17445 10.6398 4.17185 10.6536 4.15248C10.6674 4.13305 10.6605 4.07991 10.6487 4.06302C10.6369 4.04613 10.6379 4.02416 10.6447 4.0048C10.6517 3.98537 10.6645 3.98448 10.6655 3.99299C10.6664 4.00137 10.6724 4.01572 10.6832 4.0267C10.694 4.03769 10.6999 4.0394 10.7018 4.02245C10.7038 4.00562 10.7137 4.00982 10.7176 4.02245C10.7216 4.03515 10.7284 4.04524 10.7383 4.03432C10.7481 4.02334 10.761 4.03178 10.7531 4.04867C10.7452 4.06556 10.7452 4.08074 10.7511 4.09762C10.757 4.11451 10.7777 4.11197 10.7797 4.09255C10.7838 4.05216 10.7896 4.07902 10.7944 4.09674C10.7993 4.11451 10.8141 4.11362 10.8171 4.10353C10.8201 4.09337 10.823 4.09089 10.823 4.10182C10.823 4.1128 10.8279 4.12207 10.8407 4.12207C10.8536 4.12207 10.8506 4.10016 10.8564 4.08664C10.8624 4.07312 10.8732 4.09172 10.888 4.12289C10.9027 4.15413 10.9136 4.12461 10.9481 4.19553C10.9621 4.22442 10.9825 4.19972 10.9816 4.18962C10.9805 4.17947 10.9835 4.17274 11.0002 4.17274C11.017 4.17274 11.0307 4.16937 11.0249 4.15839C11.019 4.1474 11.0229 4.12715 11.0219 4.10436C11.021 4.08156 11.0238 4.06893 11.0268 4.08156C11.0298 4.0942 11.0396 4.11197 11.0553 4.12124C11.0711 4.13051 11.0819 4.10518 11.0691 4.08918C11.0564 4.07312 11.0387 4.03515 11.0396 4.00309C11.0404 3.97947 11.0514 3.98702 11.0514 4.00391C11.0514 4.0208 11.0613 4.05121 11.0761 4.05794C11.0908 4.06467 11.0967 4.03343 11.0898 4.01743C11.083 4.00137 11.079 3.97947 11.0938 3.97521C11.1085 3.97102 11.0898 3.95331 11.077 3.94061C11.0642 3.92797 11.0564 3.91534 11.079 3.91616C11.1016 3.91699 11.083 3.90264 11.0721 3.89337C11.0613 3.8841 11.0426 3.8655 11.0721 3.86804C11.1016 3.87058 11.0918 3.8554 11.08 3.84696C11.0681 3.83851 11.0613 3.82245 11.0819 3.82334C11.1027 3.82416 11.1154 3.81401 11.1135 3.80645C11.1059 3.77718 11.0564 3.74315 11.0258 3.71699C10.9953 3.69083 10.9461 3.66467 10.9195 3.66042C10.8929 3.65616 10.8919 3.67312 10.8988 3.68321C10.9057 3.69331 10.9195 3.7001 10.9215 3.68994C10.9234 3.67985 10.9441 3.69083 10.9539 3.70429C10.9638 3.71782 10.9973 3.7347 11.018 3.74988C11.0387 3.76505 10.9904 3.7575 10.9667 3.73724C10.9533 3.72562 10.9549 3.73972 10.9727 3.75578C10.9904 3.77185 10.9677 3.77858 10.949 3.76505C10.9303 3.75159 10.8821 3.71362 10.8516 3.68912C10.821 3.66467 10.8161 3.67058 10.8151 3.68658C10.8141 3.70264 10.825 3.71362 10.8447 3.72709C10.8644 3.74061 10.889 3.76169 10.9077 3.77604C10.9264 3.79039 10.9107 3.79966 10.8988 3.7895C10.887 3.7794 10.8467 3.75159 10.823 3.73216C10.7993 3.71274 10.7777 3.70347 10.763 3.70601C10.7481 3.70855 10.7492 3.72289 10.7669 3.73807C10.7846 3.75324 10.8063 3.78194 10.8063 3.79883C10.8063 3.81572 10.7905 3.82753 10.7826 3.79718C10.7747 3.76677 10.7373 3.73134 10.7098 3.70429C10.6822 3.67731 10.6546 3.67223 10.6339 3.67394C10.6133 3.67559 10.6142 3.69585 10.6142 3.71191C10.6142 3.72791 10.6004 3.71864 10.5995 3.70683C10.5985 3.69502 10.5827 3.68493 10.5738 3.68575C10.565 3.68658 10.568 3.71109 10.565 3.72207C10.5621 3.73299 10.5483 3.74315 10.5483 3.71782C10.5483 3.69248 10.5158 3.67985 10.502 3.67896C10.4882 3.67813 10.4754 3.68321 10.4823 3.6942C10.4892 3.70512 10.4862 3.7347 10.4813 3.75159C10.4764 3.76842 10.4616 3.73889 10.4587 3.70766C10.4557 3.67648 10.4095 3.65451 10.377 3.66378C10.3444 3.67312 10.3691 3.69331 10.3632 3.71274C10.3573 3.73216 10.3484 3.71445 10.3454 3.6942C10.3425 3.67394 10.3267 3.66124 10.3051 3.66632C10.2834 3.6714 10.2687 3.6815 10.2696 3.69502C10.2706 3.70855 10.2706 3.72035 10.2657 3.74226C10.2607 3.76423 10.2519 3.75324 10.2529 3.73889C10.2539 3.72455 10.249 3.70093 10.244 3.6874C10.2391 3.67394 10.2312 3.68658 10.2332 3.70347C10.2352 3.72035 10.2302 3.75915 10.2224 3.78283C10.2145 3.80645 10.2027 3.80728 10.2086 3.77521C10.2145 3.74315 10.1997 3.69585 10.185 3.67394C10.1744 3.65826 10.1505 3.65286 10.1505 3.67477C10.1505 3.69674 10.1574 3.71274 10.1751 3.7288C10.1928 3.7448 10.179 3.78448 10.1613 3.80562C10.1436 3.8267 10.1446 3.79629 10.1505 3.7735C10.1564 3.7507 10.1239 3.74315 10.1111 3.73889C10.0983 3.7347 10.1249 3.71191 10.1308 3.6815C10.1337 3.66651 10.1298 3.65705 10.118 3.65616C10.1061 3.65534 10.0747 3.68404 10.0609 3.70512C10.0648 3.68321 10.0609 3.66378 10.049 3.66378C10.0373 3.66378 10.0244 3.68493 10.0156 3.7001C10.0067 3.71528 9.99785 3.70683 10.0067 3.69083C10.0156 3.67477 10.0293 3.63172 10.0116 3.62245C9.99392 3.61318 9.97815 3.65115 9.95948 3.64435C9.94889 3.64055 9.96341 3.61655 9.96933 3.60556C9.97518 3.59458 9.96341 3.58613 9.93681 3.60639C9.91022 3.6267 9.89844 3.65959 9.89148 3.67985C9.88467 3.7001 9.83741 3.73299 9.81178 3.7507C9.78615 3.76842 9.77533 3.76169 9.78815 3.75407C9.80096 3.74651 9.82652 3.72289 9.83933 3.71362C9.85215 3.70429 9.84622 3.69883 9.82163 3.71483C9.79704 3.73089 9.75222 3.76004 9.70637 3.77013C9.67948 3.7761 9.67585 3.77102 9.70244 3.7634C9.72904 3.75578 9.79007 3.71947 9.80489 3.70264C9.81415 3.69204 9.79007 3.70093 9.77829 3.70347C9.76652 3.70601 9.75667 3.70264 9.78029 3.6942C9.80385 3.68575 9.87874 3.61909 9.89452 3.59458C9.91022 3.57013 9.89644 3.5608 9.88659 3.56169C9.87674 3.56251 9.86296 3.56842 9.86592 3.55832C9.86889 3.54816 9.862 3.53464 9.84918 3.53889C9.83637 3.54309 9.83741 3.56759 9.83244 3.58105C9.82755 3.59458 9.79992 3.61235 9.78222 3.61235C9.76452 3.61235 9.73992 3.61572 9.72118 3.62835C9.70244 3.64099 9.69363 3.62918 9.70244 3.61909C9.71133 3.60893 9.73104 3.60639 9.75074 3.60556C9.77044 3.60474 9.79207 3.6022 9.80881 3.58613C9.82555 3.57013 9.82652 3.55743 9.81378 3.55661C9.80096 3.55578 9.77926 3.54143 9.77237 3.53553C9.73741 3.5055 9.67333 3.54734 9.64829 3.57178C9.63452 3.58531 9.58726 3.62416 9.57252 3.63426C9.5577 3.64435 9.56363 3.6587 9.58822 3.63934C9.61289 3.61991 9.62074 3.63343 9.59815 3.64778C9.57541 3.66213 9.55874 3.68321 9.56659 3.69083C9.57444 3.69839 9.60496 3.68912 9.6217 3.67985C9.63844 3.67058 9.64637 3.69331 9.60496 3.70093C9.57718 3.70607 9.56748 3.71585 9.58926 3.71699C9.606 3.71782 9.63155 3.71109 9.65526 3.69928C9.67881 3.6874 9.69755 3.6942 9.67785 3.70601C9.65815 3.71782 9.61481 3.73388 9.59318 3.73388C9.57504 3.73388 9.59615 3.75667 9.57837 3.7634Z" fill="white"/>
<path fill-rule="evenodd" clip-rule="evenodd" d="M9.69257 3.57478C9.71627 3.55011 9.73694 3.53931 9.75857 3.55705C9.7782 3.57311 9.78027 3.58011 9.7556 3.57478C9.73101 3.56945 9.71427 3.57478 9.69953 3.59071C9.68472 3.60671 9.66797 3.60045 9.69257 3.57478" fill="#A3A3A3"/>
<path fill-rule="evenodd" clip-rule="evenodd" d="M9.30272 3.63742C9.32042 3.61969 9.34894 3.61969 9.36176 3.60022C9.37457 3.58069 9.38835 3.58782 9.37257 3.60642C9.35687 3.62502 9.32635 3.62862 9.31353 3.64189C9.30072 3.65515 9.29383 3.64629 9.30272 3.63742" fill="#A3A3A3"/>
<path fill-rule="evenodd" clip-rule="evenodd" d="M9.41303 3.56966C9.42369 3.56819 9.44451 3.55546 9.45732 3.54039C9.47014 3.52533 9.49769 3.51999 9.51436 3.53773C9.5311 3.55546 9.53999 3.56166 9.54888 3.56526C9.55769 3.56879 9.55769 3.58033 9.54391 3.58379C9.53014 3.58739 9.51147 3.59006 9.50162 3.58559C9.49177 3.58119 9.47695 3.57766 9.46517 3.58033C9.45332 3.58293 9.44843 3.57766 9.45828 3.57319C9.46814 3.56879 9.47991 3.55546 9.48584 3.55013C9.49177 3.54486 9.50747 3.54926 9.49865 3.55459C9.48977 3.55993 9.49369 3.57139 9.50258 3.57586C9.51147 3.58033 9.52917 3.58033 9.53702 3.57233C9.52525 3.56079 9.50554 3.54573 9.49769 3.54133C9.48977 3.53686 9.48288 3.53506 9.47302 3.54573C9.46317 3.55639 9.43954 3.58206 9.41695 3.58119C9.39428 3.58033 9.40021 3.57139 9.41303 3.56966" fill="#A3A3A3"/>
<path fill-rule="evenodd" clip-rule="evenodd" d="M10.0352 3.72866C10.0265 3.74086 10.0185 3.7566 10.0175 3.769C10.0166 3.7814 10.0279 3.78986 10.0293 3.77433C10.0308 3.7588 10.0323 3.74953 10.0446 3.738C10.057 3.72646 10.0451 3.71493 10.0352 3.72866" fill="#A3A3A3"/>
<path fill-rule="evenodd" clip-rule="evenodd" d="M9.91465 3.72837C9.92487 3.72423 9.94221 3.71463 9.95058 3.70577C9.95895 3.69697 9.96436 3.7027 9.95599 3.71243C9.94762 3.72217 9.92843 3.7337 9.91954 3.73637C9.91073 3.73903 9.90384 3.73283 9.91465 3.72837" fill="#A3A3A3"/>
<path fill-rule="evenodd" clip-rule="evenodd" d="M9.9299 3.77769C9.91575 3.79471 9.85997 3.83515 9.84323 3.84271C9.82649 3.85033 9.83242 3.86131 9.85116 3.8554C9.83738 3.86633 9.80679 3.8841 9.78716 3.88912C9.76746 3.8942 9.76346 3.90937 9.79301 3.9001C9.82257 3.89083 9.8639 3.86633 9.87471 3.8554C9.8856 3.84442 9.87183 3.83934 9.88857 3.82753C9.90531 3.81572 9.93627 3.79414 9.94071 3.78531C9.9476 3.77185 9.93975 3.76588 9.9299 3.77769" fill="#A3A3A3"/>
<path fill-rule="evenodd" clip-rule="evenodd" d="M9.86887 3.91535C9.88998 3.90506 9.92939 3.86868 9.94072 3.84779C9.94761 3.83516 9.96139 3.83681 9.95057 3.85624C9.93976 3.87567 9.89939 3.91027 9.88561 3.91954C9.87183 3.92881 9.8462 3.92627 9.86887 3.91535" fill="#A3A3A3"/>
<path fill-rule="evenodd" clip-rule="evenodd" d="M10.3169 3.71529C10.3111 3.72716 10.31 3.75497 10.312 3.76843C10.3139 3.78195 10.3258 3.79211 10.3238 3.77186C10.3218 3.7516 10.3218 3.73135 10.3287 3.72544C10.3356 3.71948 10.3267 3.69503 10.3169 3.71529" fill="#A3A3A3"/>
<path fill-rule="evenodd" clip-rule="evenodd" d="M10.437 3.76506C10.447 3.77427 10.4518 3.81744 10.4508 3.83344C10.4498 3.8495 10.4666 3.8495 10.4655 3.82671C10.4646 3.80392 10.4626 3.77522 10.4538 3.76004C10.4449 3.74481 10.4233 3.75243 10.437 3.76506" fill="#A3A3A3"/>
<path fill-rule="evenodd" clip-rule="evenodd" d="M10.5423 3.79294C10.5484 3.80399 10.5561 3.825 10.5561 3.84018C10.5561 3.85542 10.5689 3.84862 10.5699 3.83091C10.5709 3.8132 10.568 3.79802 10.5611 3.78621C10.5542 3.7744 10.5335 3.77688 10.5423 3.79294" fill="#A3A3A3"/>
<path fill-rule="evenodd" clip-rule="evenodd" d="M10.6074 3.77973C10.602 3.76613 10.5936 3.75399 10.5876 3.75579C10.5818 3.75759 10.5857 3.76999 10.5936 3.78326C10.6014 3.79659 10.6132 3.79479 10.6074 3.77973" fill="#A3A3A3"/>
<path fill-rule="evenodd" clip-rule="evenodd" d="M10.1958 3.87396C10.1928 3.90933 10.1741 3.94063 10.1515 3.95161C10.1288 3.9626 10.1327 3.98031 10.1603 3.9626C10.1879 3.94488 10.2086 3.91447 10.2145 3.88749C10.2204 3.86044 10.1978 3.85034 10.1958 3.87396" fill="#A3A3A3"/>
<path fill-rule="evenodd" clip-rule="evenodd" d="M10.1465 3.85796C10.1347 3.86977 10.1278 3.8951 10.1278 3.91446C10.1278 3.93389 10.1357 3.91954 10.1377 3.90856C10.1397 3.89757 10.1435 3.8824 10.1535 3.87732C10.1632 3.87224 10.1584 3.84615 10.1465 3.85796" fill="#A3A3A3"/>
<path fill-rule="evenodd" clip-rule="evenodd" d="M10.9992 3.88238C11.0096 3.89946 11.0249 3.92715 11.0298 3.94315C11.0347 3.95921 11.0229 3.9634 11.0189 3.94905C11.0149 3.9347 10.9963 3.90264 10.9894 3.89165C10.9825 3.88073 10.9874 3.86296 10.9992 3.88238" fill="#A3A3A3"/>
<path d="M8 4.66667C8 4.66667 9.13396 5.00357 9.32536 5.00357C9.37915 5.00357 10.1136 4.83512 10.3339 4.83512C10.4162 4.83512 11.1765 4.95051 11.375 5.00357C11.5735 5.05662 12.6677 4.66667 12.6677 4.66667" stroke="white" stroke-width="0.666667" stroke-linecap="round" stroke-linejoin="round"/>
<path d="M8 5.33332C8 5.33332 9.13396 5.67022 9.32536 5.67022C9.37915 5.67022 10.1136 5.50177 10.3339 5.50177C10.4162 5.50177 11.1765 5.61716 11.375 5.67022C11.5735 5.72328 12.6677 5.33332 12.6677 5.33332" stroke="white" stroke-width="0.666667" stroke-linecap="round" stroke-linejoin="round"/>
<path d="M8 6.66667C8 6.66667 9.13396 7.00357 9.32536 7.00357C9.37915 7.00357 9.817 6.73096 10.3339 6.73096C10.8507 6.73096 11.1765 6.95051 11.375 7.00357C11.5735 7.05662 12.6677 6.66667 12.6677 6.66667L16.2564 7.24064" stroke="white" stroke-width="1.33333" stroke-linecap="round" stroke-linejoin="round"/>
</g>
<path d="M8.99999 4.99999V4.94007V4.87944V4.81818V4.75637V4.69408V4.63139V4.56839V4.50514V4.44174V4.37825V4.37031V4.36832V4.36634V4.36435V4.36237V4.36039V4.3584V4.35642V4.35443V4.35245V4.35046V4.34848V4.34649V4.34451V4.34252V4.34054V4.33856V4.33657V4.33459V4.3326V4.33062V4.32864V4.32665V4.32467V4.32268V4.3207V4.31872V4.31673V4.31475V4.31277V4.31078V4.3088V4.30682V4.30483V4.30285V4.30087V4.29888V4.2969V4.29492V4.29293V4.29095V4.28897V4.28699V4.285V4.28302V4.28104V4.27906V4.27708V4.27509V4.27311V4.27113V4.26915V4.26717V4.26519V4.26321V4.26123V4.25925V4.25726V4.25528V4.2533V4.25132V4.24934V4.24736V4.24538V4.2434V4.24143V4.23945V4.23747V4.23549V4.23351V4.23153V4.22955V4.22757V4.2256V4.22362V4.22164V4.21966V4.21769V4.21571V4.21373V4.21175V4.20978V4.2078V4.20583V4.20385V4.20187V4.1999V4.19792V4.19595V4.19397V4.192V4.19002V4.18805V4.18607V4.1841V4.18213V4.18015V4.17818V4.17621V4.17423V4.17226V4.17029V4.16832V4.16635V4.16438V4.1624V4.16043V4.15846V4.15649V4.15452V4.15255V4.15058V4.14861V4.14664V4.14467V4.14271V4.14074V4.13877V4.1368V4.13483V4.13287V4.1309V4.12893V4.12697V4.125V4.12304V4.12107V4.11911V4.11714V4.11518V4.11321V4.11125V4.10929V4.10732V4.10536V4.1034V4.10143V4.09947V4.09751V4.09555V4.09359V4.09163V4.08967V4.08771V4.08575V4.08379V4.08183V4.07987V4.07791V4.07596V4.074V4.07204V4.07009V4.06813V4.06617V4.06422V4.06226V4.06031V4.05835V4.0564V4.05445V4.05249V4.05054V4.04859V4.04663V4.04468V4.04273V4.04078V4.03883V4.03688V4.03493V4.03298V4.03103V4.02908V4.02714V4.02519V4.02324V4.02129V4.01935V4.0174V4.01546V4.01351V4.01157V4.00962V4.00768V4.00573V4.00379V4.00185V3.99991C8.99999 3.44765 9.44768 2.99999 9.99999 2.99999H10.6667C11.219 2.99999 11.6667 3.44765 11.6667 3.99991V4.00185V4.00379V4.00574V4.00768V4.00962V4.01157V4.01351V4.01546V4.0174V4.01935V4.02129V4.02324V4.02519V4.02714V4.02908V4.03103V4.03298V4.03493V4.03688V4.03883V4.04078V4.04273V4.04468V4.04664V4.04859V4.05054V4.05249V4.05445V4.0564V4.05835V4.06031V4.06226V4.06422V4.06617V4.06813V4.07009V4.07204V4.074V4.07596V4.07791V4.07987V4.08183V4.08379V4.08575V4.08771V4.08967V4.09163V4.09359V4.09555V4.09751V4.09947V4.10144V4.1034V4.10536V4.10732V4.10929V4.11125V4.11321V4.11518V4.11714V4.11911V4.12107V4.12304V4.125V4.12697V4.12894V4.1309V4.13287V4.13484V4.1368V4.13877V4.14074V4.14271V4.14468V4.14664V4.14861V4.15058V4.15255V4.15452V4.15649V4.15846V4.16043V4.1624V4.16438V4.16635V4.16832V4.17029V4.17226V4.17424V4.17621V4.17818V4.18015V4.18213V4.1841V4.18608V4.18805V4.19002V4.192V4.19397V4.19595V4.19792V4.1999V4.20187V4.20385V4.20583V4.2078V4.20978V4.21175V4.21373V4.21571V4.21769V4.21966V4.22164V4.22362V4.2256V4.22757V4.22955V4.23153V4.23351V4.23549V4.23747V4.23945V4.24143V4.24341V4.24538V4.24736V4.24934V4.25132V4.2533V4.25528V4.25727V4.25925V4.26123V4.26321V4.26519V4.26717V4.26915V4.27113V4.27311V4.2751V4.27708V4.27906V4.28104V4.28302V4.28501V4.28699V4.28897V4.29095V4.29294V4.29492V4.2969V4.29888V4.30087V4.30285V4.30483V4.30682V4.3088V4.31078V4.31277V4.31475V4.31673V4.31872V4.3207V4.32268V4.32467V4.32665V4.32864V4.33062V4.3326V4.33459V4.33657V4.33856V4.34054V4.34253V4.34451V4.34649V4.34848V4.35046V4.35245V4.35443V4.35642V4.3584V4.36039V4.36237V4.36435V4.36634V4.36832V4.37031V4.37229V4.37428V4.37626V4.37825V4.38023V4.38222V4.3842V4.38619V4.38817V4.39015V4.39214V4.39412V4.39611V4.39809V4.40008V4.40206V4.40405V4.40603V4.40801V4.41V4.41198V4.41397V4.41595V4.41793V4.41992V4.4219V4.42389V4.42587V4.42785V4.42984V4.43182V4.4338V4.43579V4.43777V4.43975V4.44174V4.44372V4.4457V4.44769V4.44967V4.45165V4.45364V4.45562V4.4576V4.45958V4.46157V4.46355V4.46553V4.46751V4.46949V4.47148V4.47346V4.47544V4.47742V4.4794V4.48138V4.48336V4.48534V4.48733V4.48931V4.49129V4.49327V4.49525V4.49723V4.49921V4.50119V4.50317V4.50515V4.50712V4.5091V4.51108V4.51306V4.51504V4.51702V4.519V4.52097V4.52295V4.52493V4.52691V4.52889V4.53086V4.53284V4.53482V4.53679V4.53877V4.54075V4.54272V4.5447V4.54667V4.54865V4.55062V4.5526V4.55457V4.55655V4.55852V4.5605V4.56247V4.56444V4.56642V4.56839V4.57036V4.57234V4.57431V4.57628V4.57825V4.58022V4.5822V4.58417V4.58614V4.58811V4.59008V4.59205V4.59402V4.59599V4.59796V4.59993V4.6019V4.60386V4.60583V4.6078V4.60977V4.61174V4.6137V4.61567V4.61764V4.6196V4.62157V4.62353V4.6255V4.62746V4.62943V4.63139V4.63336V4.63532V4.63729V4.63925V4.64121V4.64317V4.64514V4.6471V4.64906V4.65102V4.65298V4.65494V4.6569V4.65886V4.66082V4.66278V4.66474V4.6667V4.66866V4.67061V4.67257V4.67453V4.67649V4.67844V4.6804V4.68235V4.68431V4.68626V4.68822V4.69017V4.69213V4.69408V4.69603V4.69798V4.69994V4.70189V4.70384V4.70579V4.70774V4.70969V4.71164V4.71359V4.71554V4.71749V4.71944V4.72138V4.72333V4.72528V4.72722V4.72917V4.73112V4.73306V4.73501V4.73695V4.73889V4.74084V4.74278V4.74472V4.74666V4.74861V4.75055V4.75249V4.75443V4.75637V4.75831V4.76025V4.76218V4.76412V4.76606V4.768V4.76993V4.77187V4.7738V4.77574V4.77767V4.77961V4.78154V4.78347V4.78541V4.78734V4.78927V4.7912V4.79313V4.79506V4.79699V4.79892V4.80085V4.80278V4.8047V4.80663V4.80856V4.81048V4.81241V4.81433V4.81626V4.81818V4.8201V4.82203V4.82395V4.82587V4.82779V4.82971V4.83163V4.83355V4.83547V4.83739V4.83931V4.84122V4.84314V4.84506V4.84697V4.84889V4.8508V4.85271V4.85463V4.85654V4.85845V4.86036V4.86227V4.86418V4.86609V4.868V4.86991V4.87182V4.87372V4.87563V4.87754V4.87944V4.88135V4.88325V4.88515V4.88706V4.88896V4.89086V4.89276V4.89466V4.89656V4.89846V4.90036V4.90226V4.90415V4.90605V4.90794V4.90984V4.91173V4.91363V4.91552V4.91741V4.91931V4.9212V4.92309V4.92498V4.92687V4.92875V4.93064V4.93253V4.93442V4.9363V4.93819V4.94007V4.94195V4.94384V4.94572V4.9476V4.94948V4.95136V4.95324V4.95512V4.957V4.95887V4.96075V4.96263V4.9645V4.96638V4.96825V4.97012V4.972V4.97387V4.97574V4.97761V4.97948V4.98135V4.98321V4.98508V4.98695V4.98881V4.99068V4.99254V4.9944V4.99627V4.99813V4.99999C11.6667 5.70933 11.3155 6.20924 10.9437 6.54389C10.7575 6.71145 10.5702 6.83333 10.4294 6.91311C10.3939 6.93322 10.3616 6.95052 10.3333 6.96508C10.305 6.95052 10.2727 6.93322 10.2372 6.91311C10.0965 6.83333 9.90915 6.71145 9.72298 6.54389C9.35114 6.20924 8.99999 5.70933 8.99999 4.99999Z" stroke="white" stroke-width="0.666667"/>
<mask id="mask2_142:181" style="mask-type:alpha" maskUnits="userSpaceOnUse" x="8" y="2" width="4" height="6">
<path d="M8.99999 4.99999V4.94007V4.87944V4.81818V4.75637V4.69408V4.63139V4.56839V4.50514V4.44174V4.37825V4.37031V4.36832V4.36634V4.36435V4.36237V4.36039V4.3584V4.35642V4.35443V4.35245V4.35046V4.34848V4.34649V4.34451V4.34252V4.34054V4.33856V4.33657V4.33459V4.3326V4.33062V4.32864V4.32665V4.32467V4.32268V4.3207V4.31872V4.31673V4.31475V4.31277V4.31078V4.3088V4.30682V4.30483V4.30285V4.30087V4.29888V4.2969V4.29492V4.29293V4.29095V4.28897V4.28699V4.285V4.28302V4.28104V4.27906V4.27708V4.27509V4.27311V4.27113V4.26915V4.26717V4.26519V4.26321V4.26123V4.25925V4.25726V4.25528V4.2533V4.25132V4.24934V4.24736V4.24538V4.2434V4.24143V4.23945V4.23747V4.23549V4.23351V4.23153V4.22955V4.22757V4.2256V4.22362V4.22164V4.21966V4.21769V4.21571V4.21373V4.21175V4.20978V4.2078V4.20583V4.20385V4.20187V4.1999V4.19792V4.19595V4.19397V4.192V4.19002V4.18805V4.18607V4.1841V4.18213V4.18015V4.17818V4.17621V4.17423V4.17226V4.17029V4.16832V4.16635V4.16438V4.1624V4.16043V4.15846V4.15649V4.15452V4.15255V4.15058V4.14861V4.14664V4.14467V4.14271V4.14074V4.13877V4.1368V4.13483V4.13287V4.1309V4.12893V4.12697V4.125V4.12304V4.12107V4.11911V4.11714V4.11518V4.11321V4.11125V4.10929V4.10732V4.10536V4.1034V4.10143V4.09947V4.09751V4.09555V4.09359V4.09163V4.08967V4.08771V4.08575V4.08379V4.08183V4.07987V4.07791V4.07596V4.074V4.07204V4.07009V4.06813V4.06617V4.06422V4.06226V4.06031V4.05835V4.0564V4.05445V4.05249V4.05054V4.04859V4.04663V4.04468V4.04273V4.04078V4.03883V4.03688V4.03493V4.03298V4.03103V4.02908V4.02714V4.02519V4.02324V4.02129V4.01935V4.0174V4.01546V4.01351V4.01157V4.00962V4.00768V4.00573V4.00379V4.00185V3.99991C8.99999 3.44765 9.44768 2.99999 9.99999 2.99999H10.6667C11.219 2.99999 11.6667 3.44765 11.6667 3.99991V4.00185V4.00379V4.00574V4.00768V4.00962V4.01157V4.01351V4.01546V4.0174V4.01935V4.02129V4.02324V4.02519V4.02714V4.02908V4.03103V4.03298V4.03493V4.03688V4.03883V4.04078V4.04273V4.04468V4.04664V4.04859V4.05054V4.05249V4.05445V4.0564V4.05835V4.06031V4.06226V4.06422V4.06617V4.06813V4.07009V4.07204V4.074V4.07596V4.07791V4.07987V4.08183V4.08379V4.08575V4.08771V4.08967V4.09163V4.09359V4.09555V4.09751V4.09947V4.10144V4.1034V4.10536V4.10732V4.10929V4.11125V4.11321V4.11518V4.11714V4.11911V4.12107V4.12304V4.125V4.12697V4.12894V4.1309V4.13287V4.13484V4.1368V4.13877V4.14074V4.14271V4.14468V4.14664V4.14861V4.15058V4.15255V4.15452V4.15649V4.15846V4.16043V4.1624V4.16438V4.16635V4.16832V4.17029V4.17226V4.17424V4.17621V4.17818V4.18015V4.18213V4.1841V4.18608V4.18805V4.19002V4.192V4.19397V4.19595V4.19792V4.1999V4.20187V4.20385V4.20583V4.2078V4.20978V4.21175V4.21373V4.21571V4.21769V4.21966V4.22164V4.22362V4.2256V4.22757V4.22955V4.23153V4.23351V4.23549V4.23747V4.23945V4.24143V4.24341V4.24538V4.24736V4.24934V4.25132V4.2533V4.25528V4.25727V4.25925V4.26123V4.26321V4.26519V4.26717V4.26915V4.27113V4.27311V4.2751V4.27708V4.27906V4.28104V4.28302V4.28501V4.28699V4.28897V4.29095V4.29294V4.29492V4.2969V4.29888V4.30087V4.30285V4.30483V4.30682V4.3088V4.31078V4.31277V4.31475V4.31673V4.31872V4.3207V4.32268V4.32467V4.32665V4.32864V4.33062V4.3326V4.33459V4.33657V4.33856V4.34054V4.34253V4.34451V4.34649V4.34848V4.35046V4.35245V4.35443V4.35642V4.3584V4.36039V4.36237V4.36435V4.36634V4.36832V4.37031V4.37229V4.37428V4.37626V4.37825V4.38023V4.38222V4.3842V4.38619V4.38817V4.39015V4.39214V4.39412V4.39611V4.39809V4.40008V4.40206V4.40405V4.40603V4.40801V4.41V4.41198V4.41397V4.41595V4.41793V4.41992V4.4219V4.42389V4.42587V4.42785V4.42984V4.43182V4.4338V4.43579V4.43777V4.43975V4.44174V4.44372V4.4457V4.44769V4.44967V4.45165V4.45364V4.45562V4.4576V4.45958V4.46157V4.46355V4.46553V4.46751V4.46949V4.47148V4.47346V4.47544V4.47742V4.4794V4.48138V4.48336V4.48534V4.48733V4.48931V4.49129V4.49327V4.49525V4.49723V4.49921V4.50119V4.50317V4.50515V4.50712V4.5091V4.51108V4.51306V4.51504V4.51702V4.519V4.52097V4.52295V4.52493V4.52691V4.52889V4.53086V4.53284V4.53482V4.53679V4.53877V4.54075V4.54272V4.5447V4.54667V4.54865V4.55062V4.5526V4.55457V4.55655V4.55852V4.5605V4.56247V4.56444V4.56642V4.56839V4.57036V4.57234V4.57431V4.57628V4.57825V4.58022V4.5822V4.58417V4.58614V4.58811V4.59008V4.59205V4.59402V4.59599V4.59796V4.59993V4.6019V4.60386V4.60583V4.6078V4.60977V4.61174V4.6137V4.61567V4.61764V4.6196V4.62157V4.62353V4.6255V4.62746V4.62943V4.63139V4.63336V4.63532V4.63729V4.63925V4.64121V4.64317V4.64514V4.6471V4.64906V4.65102V4.65298V4.65494V4.6569V4.65886V4.66082V4.66278V4.66474V4.6667V4.66866V4.67061V4.67257V4.67453V4.67649V4.67844V4.6804V4.68235V4.68431V4.68626V4.68822V4.69017V4.69213V4.69408V4.69603V4.69798V4.69994V4.70189V4.70384V4.70579V4.70774V4.70969V4.71164V4.71359V4.71554V4.71749V4.71944V4.72138V4.72333V4.72528V4.72722V4.72917V4.73112V4.73306V4.73501V4.73695V4.73889V4.74084V4.74278V4.74472V4.74666V4.74861V4.75055V4.75249V4.75443V4.75637V4.75831V4.76025V4.76218V4.76412V4.76606V4.768V4.76993V4.77187V4.7738V4.77574V4.77767V4.77961V4.78154V4.78347V4.78541V4.78734V4.78927V4.7912V4.79313V4.79506V4.79699V4.79892V4.80085V4.80278V4.8047V4.80663V4.80856V4.81048V4.81241V4.81433V4.81626V4.81818V4.8201V4.82203V4.82395V4.82587V4.82779V4.82971V4.83163V4.83355V4.83547V4.83739V4.83931V4.84122V4.84314V4.84506V4.84697V4.84889V4.8508V4.85271V4.85463V4.85654V4.85845V4.86036V4.86227V4.86418V4.86609V4.868V4.86991V4.87182V4.87372V4.87563V4.87754V4.87944V4.88135V4.88325V4.88515V4.88706V4.88896V4.89086V4.89276V4.89466V4.89656V4.89846V4.90036V4.90226V4.90415V4.90605V4.90794V4.90984V4.91173V4.91363V4.91552V4.91741V4.91931V4.9212V4.92309V4.92498V4.92687V4.92875V4.93064V4.93253V4.93442V4.9363V4.93819V4.94007V4.94195V4.94384V4.94572V4.9476V4.94948V4.95136V4.95324V4.95512V4.957V4.95887V4.96075V4.96263V4.9645V4.96638V4.96825V4.97012V4.972V4.97387V4.97574V4.97761V4.97948V4.98135V4.98321V4.98508V4.98695V4.98881V4.99068V4.99254V4.9944V4.99627V4.99813V4.99999C11.6667 5.70933 11.3155 6.20924 10.9437 6.54389C10.7575 6.71145 10.5702 6.83333 10.4294 6.91311C10.3939 6.93322 10.3616 6.95052 10.3333 6.96508C10.305 6.95052 10.2727 6.93322 10.2372 6.91311C10.0965 6.83333 9.90915 6.71145 9.72298 6.54389C9.35114 6.20924 8.99999 5.70933 8.99999 4.99999Z" fill="white" stroke="white" stroke-width="0.666667"/>
</mask>
<g mask="url(#mask2_142:181)">
</g>
<path d="M0 -0.333333H-0.901086L-0.21693 0.253086L2 2.15331V2.49513L-0.193746 4.06209L-0.333333 4.16179V4.33333V4.66667V5.26808L0.176666 4.94933L2.76227 3.33333H3.22651L5.44417 4.91738C5.5194 4.97111 5.60954 5 5.70199 5C6.11381 5 6.30334 4.48765 5.99067 4.21964L4 2.51336V2.17154L6.05416 0.704283C6.22936 0.579142 6.33333 0.377095 6.33333 0.161794V0V-0.601416L5.82333 -0.282666L3.23773 1.33333H2.77349L0.527079 -0.271244L0.440155 -0.333333H0.333333H0Z" fill="#DB1E36" stroke="white" stroke-width="0.666667"/>
<path fill-rule="evenodd" clip-rule="evenodd" d="M0 1.66667V3H2.33333V4.33333C2.33333 4.70152 2.63181 5 3 5V5C3.36819 5 3.66667 4.70152 3.66667 4.33333V3H5.66667C6.03486 3 6.33333 2.70152 6.33333 2.33333V2.33333C6.33333 1.96514 6.03486 1.66667 5.66667 1.66667H3.66667V0H2.33333V1.66667H0Z" fill="white"/>
<path fill-rule="evenodd" clip-rule="evenodd" d="M0 2H2.66667V1.66667V0H3.33333V1.66667V2H6V2.66667H3.33333V3V4.66667H2.66667V3V2.66667H0V2Z" fill="#DB1E36"/>
</g>
</svg>
