<svg width="14" height="10" viewBox="0 0 14 10" fill="none" xmlns="http://www.w3.org/2000/svg">
<rect width="14" height="10" rx="2" fill="white"/>
<mask id="mask0_142:124" style="mask-type:alpha" maskUnits="userSpaceOnUse" x="0" y="0" width="14" height="10">
<rect width="14" height="10" rx="2" fill="white"/>
</mask>
<g mask="url(#mask0_142:124)">
<rect width="14" height="10" fill="#95CEF5"/>
<path fill-rule="evenodd" clip-rule="evenodd" d="M6.21628 3.41202L6.99999 2.88L7.78371 3.41202L7.5199 2.50226L8.26807 1.92131L7.32131 1.89107L6.99999 1L6.67867 1.89107L5.73192 1.92131L6.48008 2.50226L6.21628 3.41202ZM6.21628 8.74536L6.99999 8.21334L7.78371 8.74536L7.5199 7.8356L8.26807 7.25465L7.32131 7.22441L6.99999 6.33334L6.67867 7.22441L5.73192 7.25465L6.48008 7.8356L6.21628 8.74536ZM9.66666 5.54666L8.88294 6.07868L9.14675 5.16892L8.39858 4.58797L9.34534 4.55773L9.66666 3.66666L9.98798 4.55773L10.9347 4.58797L10.1866 5.16892L10.4504 6.07868L9.66666 5.54666ZM3.54961 6.07868L4.33332 5.54666L5.11704 6.07868L4.85323 5.16892L5.6014 4.58797L4.65464 4.55773L4.33332 3.66666L4.012 4.55773L3.06525 4.58797L3.81341 5.16892L3.54961 6.07868Z" fill="white"/>
</g>
</svg>
