<svg width="14" height="10" viewBox="0 0 14 10" fill="none" xmlns="http://www.w3.org/2000/svg">
<rect width="14" height="10" rx="2" fill="white"/>
<mask id="mask0" mask-type="alpha" maskUnits="userSpaceOnUse" x="0" y="0" width="14" height="10">
<rect width="14" height="10" rx="2" fill="white"/>
</mask>
<g mask="url(#mask0)">
<rect width="14" height="10" fill="#0A17A7"/>
<path fill-rule="evenodd" clip-rule="evenodd" d="M3.33688 6.66663L-1.38683 9.85281L-0.641235 10.9582L5.33333 6.9283V10.6666H8.66667V6.9283L14.6412 10.9582L15.3868 9.85281L10.6631 6.66663H14V3.3333H10.6631L15.3868 0.147132L14.6412 -0.958252L8.66667 3.07164V-0.666701H5.33333V3.07165L-0.641235 -0.958249L-1.38683 0.147135L3.33686 3.3333H-4.76837e-07V6.66663H3.33688Z" fill="white"/>
<path d="M9.33398 3.1661L15.6667 -1" stroke="#DB1F35" stroke-width="0.666667" stroke-linecap="round"/>
<path d="M10.0064 6.84875L15.6833 10.6752" stroke="#DB1F35" stroke-width="0.666667" stroke-linecap="round"/>
<path d="M4.00277 3.15521L-1.91874 -0.83551" stroke="#DB1F35" stroke-width="0.666667" stroke-linecap="round"/>
<path d="M4.64502 6.80243L-1.91874 11.1552" stroke="#DB1F35" stroke-width="0.666667" stroke-linecap="round"/>
<path fill-rule="evenodd" clip-rule="evenodd" d="M0 6H6V10H8V6H14V4H8V0H6V4H0V6Z" fill="#E6273E"/>
</g>
</svg>
