<svg width="14" height="10" viewBox="0 0 14 10" fill="none" xmlns="http://www.w3.org/2000/svg">
<rect x="0.25" y="0.25" width="13.5" height="9.5" rx="1.75" fill="white" stroke="#F5F5F5" stroke-width="0.5"/>
<mask id="mask0_142:147" style="mask-type:alpha" maskUnits="userSpaceOnUse" x="0" y="0" width="14" height="10">
<rect x="0.25" y="0.25" width="13.5" height="9.5" rx="1.75" fill="white" stroke="white" stroke-width="0.5"/>
</mask>
<g mask="url(#mask0_142:147)">
<path fill-rule="evenodd" clip-rule="evenodd" d="M2.66667 0H0V2.66667H2.66667V0ZM6.66666 0H4V2.66667H6.66666V0ZM6.66668 0H14V1.33333H6.66668V0ZM14 2.66666H6.66668V3.99999H14V2.66666ZM6.66668 5.33334H14V6.66667H6.66668V5.33334ZM14 8H0V9.33333H14V8ZM4 4H6.66666V6.66667H4V4ZM2.66667 4H0V6.66667H2.66667V4Z" fill="#1C6DC1"/>
</g>
</svg>
