<svg width="14" height="10" viewBox="0 0 14 10" fill="none" xmlns="http://www.w3.org/2000/svg">
<rect x="0.25" y="0.25" width="13.5" height="9.5" rx="1.75" fill="white" stroke="#F5F5F5" stroke-width="0.5"/>
<mask id="mask0_142:109" style="mask-type:alpha" maskUnits="userSpaceOnUse" x="0" y="0" width="14" height="10">
<rect x="0.25" y="0.25" width="13.5" height="9.5" rx="1.75" fill="white" stroke="white" stroke-width="0.5"/>
</mask>
<g mask="url(#mask0_142:109)">
<rect x="9.33331" width="4.66667" height="10" fill="#63AEE3"/>
<path fill-rule="evenodd" clip-rule="evenodd" d="M0 10H4.66667V0H0V10Z" fill="#63AEE3"/>
<path d="M6.33335 4.66666C6.33335 4.29847 6.03488 3.99999 5.66669 3.99999C5.2985 3.99999 5.00002 4.29847 5.00002 4.66666H6.33335ZM5.99724 6.39736C6.31571 6.58214 6.72367 6.47377 6.90845 6.15531C7.09324 5.83685 6.98487 5.42889 6.66641 5.2441L5.99724 6.39736ZM7.35826 5.2291C7.04808 5.42748 6.95745 5.83974 7.15583 6.14992C7.35421 6.4601 7.76648 6.55072 8.07665 6.35235L7.35826 5.2291ZM9.00003 4.66666C9.00003 4.29847 8.70155 3.99999 8.33336 3.99999C7.96517 3.99999 7.6667 4.29847 7.6667 4.66666H9.00003ZM5.00002 4.66666C5.00002 5.40683 5.40245 6.05223 5.99724 6.39736L6.66641 5.2441C6.46582 5.12771 6.33335 4.91227 6.33335 4.66666H5.00002ZM8.07665 6.35235C8.6305 5.99812 9.00003 5.37576 9.00003 4.66666H7.6667C7.6667 4.90208 7.54516 5.10956 7.35826 5.2291L8.07665 6.35235Z" fill="#628A40"/>
<path fill-rule="evenodd" clip-rule="evenodd" d="M6.99998 5.33333C7.36817 5.33333 7.66665 5.03486 7.66665 4.66667C7.66665 4.29848 7.36817 4 6.99998 4C6.63179 4 6.33331 4.29848 6.33331 4.66667C6.33331 5.03486 6.63179 5.33333 6.99998 5.33333Z" fill="#DCC26D"/>
</g>
</svg>
