<svg width="14" height="10" viewBox="0 0 14 10" fill="none" xmlns="http://www.w3.org/2000/svg">
<rect width="14" height="10" rx="2" fill="white"/>
<mask id="mask0_142:149" style="mask-type:alpha" maskUnits="userSpaceOnUse" x="0" y="0" width="14" height="10">
<rect width="14" height="10" rx="2" fill="white"/>
</mask>
<g mask="url(#mask0_142:149)">
<path fill-rule="evenodd" clip-rule="evenodd" d="M0 10H14V0H0V10Z" fill="#F0371D"/>
<path fill-rule="evenodd" clip-rule="evenodd" d="M6.99199 4.07289C7.4734 3.66995 7.50268 3.57983 7.61802 3.22484C7.65652 3.10634 7.62937 3.00902 7.5973 2.89409C7.55106 2.72836 7.4946 2.52602 7.61002 2.17077C7.08477 2.00011 6.4745 2.42949 6.24694 3.12983C6.01939 3.83017 6.26072 4.53626 6.78598 4.70692C6.88001 4.73748 6.86946 4.71539 6.84092 4.65557C6.79084 4.55062 6.68535 4.32954 6.99199 4.07289ZM5.99504 4.80884C5.76058 4.22648 5.68393 4.17079 5.38195 3.95138C5.28115 3.87815 5.1802 3.8739 5.06099 3.86889C4.88908 3.86166 4.67919 3.85282 4.377 3.63327C4.05238 4.08008 4.27216 4.79317 4.86791 5.226C5.46365 5.65884 6.20976 5.64751 6.53438 5.2007C6.5925 5.12071 6.56823 5.12391 6.50252 5.13257C6.38724 5.14777 6.14438 5.17978 5.99504 4.80884ZM8.99998 5.12696C8.62671 5.12696 8.53196 5.12696 7.99998 4.79362C7.66113 4.5813 7.48347 4.74995 7.39913 4.83001C7.35106 4.87564 7.33331 4.89249 7.33331 4.79362C7.33331 4.24134 7.93026 3.79362 8.66664 3.79362C9.40302 3.79362 9.99998 4.24134 9.99998 4.79362C9.62645 4.79362 9.45146 4.90985 9.30813 5.00504C9.20873 5.07106 9.12457 5.12696 8.99998 5.12696ZM8.99997 4.50005C8.99997 4.59209 8.92535 4.66671 8.8333 4.66671C8.74126 4.66671 8.66664 4.59209 8.66664 4.50005C8.66664 4.408 8.74126 4.33338 8.8333 4.33338C8.92535 4.33338 8.99997 4.408 8.99997 4.50005ZM7.62601 5.97499C7.47338 6.58395 7.50266 6.67406 7.61801 7.02906C7.65651 7.14755 7.73568 7.21032 7.82918 7.28445C7.964 7.39135 8.12862 7.52186 8.24404 7.87711C8.7693 7.70644 9.01063 7.00035 8.78308 6.30001C8.55552 5.59968 7.94525 5.17029 7.42 5.34096C7.32597 5.37151 7.34748 5.38318 7.40573 5.4148C7.50793 5.47027 7.72323 5.58712 7.62601 5.97499ZM8.21424 6.83535C8.1267 6.86379 8.03267 6.81588 8.00423 6.72834C7.97579 6.6408 8.02369 6.54677 8.11124 6.51833C8.19878 6.48988 8.29281 6.53779 8.32125 6.62534C8.34969 6.71288 8.30179 6.8069 8.21424 6.83535ZM6.38689 5.98442C5.76057 6.02744 5.68392 6.08313 5.38194 6.30254C5.28114 6.37577 5.24591 6.47046 5.2043 6.5823C5.1443 6.74355 5.07104 6.94044 4.76885 7.15999C5.09348 7.6068 5.83958 7.61813 6.43533 7.1853C7.03107 6.75246 7.25085 6.03937 6.92623 5.59257C6.86812 5.51258 6.86366 5.53665 6.85159 5.60181C6.83042 5.71615 6.78582 5.95702 6.38689 5.98442ZM5.75043 6.80973C5.69632 6.73526 5.71283 6.63103 5.7873 6.57693C5.86177 6.52282 5.966 6.53933 6.0201 6.6138C6.0742 6.68827 6.0577 6.7925 5.98323 6.8466C5.90876 6.90071 5.80453 6.8842 5.75043 6.80973ZM5.01346 4.45857C5.06756 4.38411 5.17179 4.3676 5.24626 4.4217C5.32072 4.47581 5.33723 4.58003 5.28313 4.6545C5.22902 4.72897 5.1248 4.74548 5.05033 4.69137C4.97586 4.63727 4.95935 4.53304 5.01346 4.45857ZM7.02179 3.0311C7.10933 3.05954 7.15724 3.15357 7.12879 3.24111C7.10035 3.32865 7.00632 3.37656 6.91878 3.34812C6.83124 3.31967 6.78333 3.22565 6.81177 3.13811C6.84022 3.05056 6.93424 3.00265 7.02179 3.0311Z" fill="white"/>
</g>
</svg>
