<svg width="14" height="10" viewBox="0 0 14 10" fill="none" xmlns="http://www.w3.org/2000/svg">
<rect width="14" height="10" rx="2" fill="#D01129"/>
<mask id="mask0_142:3" style="mask-type:alpha" maskUnits="userSpaceOnUse" x="0" y="0" width="14" height="10">
<rect width="14" height="10" rx="2" fill="white"/>
</mask>
<g mask="url(#mask0_142:3)">
<path fill-rule="evenodd" clip-rule="evenodd" d="M6.94407 5.02043C7.27454 5.02043 7.54244 4.73915 7.54244 4.39223C7.54244 4.04526 7.27454 3.76398 6.94407 3.76398C6.61361 3.76398 6.34576 4.04526 6.34576 4.39223C6.34576 4.73915 6.61361 5.02043 6.94407 5.02043" fill="#FFF101"/>
<path fill-rule="evenodd" clip-rule="evenodd" d="M6.39877 4.13962C6.56822 4.08287 6.78807 4.14892 6.93271 4.29467C7.08626 4.26531 7.24022 4.06287 7.28793 3.88262C7.23551 3.28366 6.86234 2.8299 6.74886 2.51852C6.71298 2.42011 6.54661 2.26537 6.3736 2.33742C6.23135 2.39669 6.15941 2.35057 5.68162 2.60079C5.42327 2.73608 5.20582 2.87504 5.09123 2.89926C4.97659 2.92348 4.85566 2.94507 4.76397 2.86966C4.63785 2.76592 4.49642 2.73724 4.41312 2.65907C4.31106 2.56329 4.24558 2.491 4.17655 2.4617C4.10752 2.43235 3.99067 2.49755 4.04001 2.65271C4.15133 3.00317 4.41376 3.05993 4.52642 3.38751C4.5796 3.54238 4.65521 3.65877 4.8242 3.5414C4.99319 3.42403 5.23203 3.26813 5.63921 3.25173C5.91265 3.24066 6.19523 3.1351 6.32508 2.96189C6.3238 3.11173 6.37413 3.23455 6.36084 3.42947C6.34762 3.62446 6.34972 3.86696 6.39877 4.13962" fill="white"/>
<path fill-rule="evenodd" clip-rule="evenodd" d="M6.719 4.15608C6.66878 3.86122 6.75983 3.81871 6.65113 3.47309C6.58577 3.26526 6.54401 3.00477 6.54296 2.88354L6.49927 2.89688C6.50032 3.0181 6.54214 3.27865 6.60744 3.48648C6.71259 3.82067 6.63086 3.87143 6.67082 4.1411C6.68317 4.14373 6.70909 4.15241 6.719 4.15608" fill="#FFF101"/>
<path fill-rule="evenodd" clip-rule="evenodd" d="M6.46175 4.12369C6.4621 4.0862 6.45983 4.04705 6.4543 4.01341C6.53113 3.99402 6.66272 4.06858 6.65905 4.01317C6.65795 3.99561 6.65963 3.93886 6.66068 3.90876C6.65899 3.9558 6.47602 3.87641 6.44451 3.8969C6.41066 3.72534 6.45261 3.54883 6.42575 3.44112C6.48686 3.42357 6.59917 3.46185 6.58542 3.41158C6.57762 3.38583 6.5627 3.32179 6.55286 3.28173C6.56247 3.32369 6.47329 3.28895 6.44311 3.31292C6.42744 3.2199 6.40455 3.04338 6.40501 2.96271L6.32498 2.96185C6.32369 3.1117 6.37402 3.23451 6.36074 3.42944C6.34752 3.62442 6.34962 3.86693 6.39866 4.13959C6.4162 4.13421 6.44509 4.1273 6.46175 4.12369" fill="#FFF101"/>
<path fill-rule="evenodd" clip-rule="evenodd" d="M6.25972 2.75398C6.14042 2.93484 5.85545 3.05967 5.59197 3.08725C5.28358 3.11955 5.07655 3.22731 4.92411 3.33282C4.911 3.30805 4.88735 3.29471 4.86644 3.27838C4.64339 3.10493 4.73508 2.86988 4.81954 2.90346C4.78768 2.89049 4.76916 2.873 4.75174 2.85985C4.72226 2.83692 4.63721 2.92481 4.64787 3.06438C4.65242 3.12383 4.70088 3.21153 4.74032 3.25802C4.66832 3.24426 4.63383 3.22493 4.59154 3.17129C4.61531 3.15575 4.64607 3.14695 4.67088 3.14493C4.66244 3.12364 4.65067 3.10004 4.64787 3.06438C4.61263 3.06407 4.56964 3.07698 4.53277 3.10328C4.44428 3.01074 4.35317 2.93692 4.30034 2.82768C4.21582 2.6527 4.3018 2.54224 4.41312 2.65906C4.31106 2.56328 4.24558 2.49098 4.17655 2.46169C4.10752 2.43233 3.99067 2.49753 4.04001 2.6527C4.15133 3.00316 4.41376 3.05991 4.52642 3.3875C4.5796 3.54236 4.65801 3.66303 4.8242 3.54138C4.84611 3.52536 4.85193 3.52157 4.87098 3.50738C4.9237 3.47539 5.00723 3.52909 4.99832 3.64585C5.04102 3.53863 5.01376 3.50579 4.97752 3.4415C4.95073 3.45649 4.95288 3.36872 4.93634 3.35716C5.03117 3.29527 5.14651 3.23319 5.29203 3.18897C5.29739 3.24138 5.31114 3.29704 5.3571 3.28897C5.38174 3.28322 5.40673 3.27802 5.433 3.27343C5.38704 3.2815 5.37411 3.22059 5.36881 3.16823C5.43778 3.1516 5.51316 3.139 5.59576 3.1319C5.69094 3.12371 5.78933 3.1034 5.88172 3.0719C5.89547 3.12218 5.92389 3.20689 5.97125 3.19025C6.01325 3.17612 6.05409 3.16016 6.09242 3.14163C6.02653 3.17459 6.00061 3.08046 5.98477 3.03068C6.10518 2.97569 6.20776 2.90071 6.2691 2.81123L6.25972 2.75398" fill="#FFF101"/>
<path fill-rule="evenodd" clip-rule="evenodd" d="M6.78658 2.8438C6.84472 2.79646 6.89464 2.77407 6.84449 2.67383C6.76247 2.50991 6.81343 2.50935 6.63383 2.40507C6.45092 2.29901 6.47405 2.2907 6.23201 2.3803C6.17247 2.40232 6.18576 2.42482 6.19618 2.51547C6.21861 2.71082 6.26125 2.86813 6.30022 3.02887C6.45237 3.00801 6.68645 2.92545 6.78658 2.8438Z" fill="#FFF101"/>
<path fill-rule="evenodd" clip-rule="evenodd" d="M6.21877 2.79934C6.18685 2.70344 6.19541 2.71647 6.3111 2.7457C6.34897 2.61928 6.40126 2.51258 6.43056 2.41026C6.4633 2.2957 6.47355 2.27509 6.52173 2.30316C6.58336 2.339 6.65105 2.37686 6.69514 2.39961C6.77215 2.43925 6.7608 2.45313 6.72404 2.51613C6.68728 2.57912 6.56706 2.70681 6.49291 2.84002C6.59071 2.91231 6.62211 2.91885 6.55262 2.94999C6.47485 2.98479 6.34565 3.02791 6.29124 3.03812C6.28128 2.97518 6.24912 2.89029 6.21877 2.79934Z" fill="#FFF101"/>
<path fill-rule="evenodd" clip-rule="evenodd" d="M5.07046 3.70119L5.06277 3.79985L4.9935 3.73379L4.91603 3.78902L4.92115 3.69055L4.83197 3.66223L4.90816 3.60486L4.87455 3.51336L4.96397 3.54076L5.01121 3.45605L5.0471 3.54651L5.13937 3.5319L5.09417 3.6182L5.1622 3.68486L5.07046 3.70119" fill="#FFF101"/>
<path fill-rule="evenodd" clip-rule="evenodd" d="M7.00853 5.0145C6.87694 4.88875 6.82148 4.65584 6.86942 4.45144C6.76841 4.32655 6.52445 4.28771 6.35191 4.33444C5.88408 4.68165 5.6964 5.24783 5.4963 5.50673C5.43304 5.58856 5.38859 5.81713 5.53457 5.93847C5.65457 6.03817 5.65253 6.12661 6.09775 6.43597C6.33851 6.60324 6.56185 6.7315 6.63915 6.82361C6.71651 6.91572 6.79475 7.01493 6.77838 7.13597C6.75589 7.30251 6.8029 7.44551 6.78012 7.56025C6.7521 7.70092 6.72525 7.79664 6.73556 7.87407C6.74593 7.9515 6.85807 8.02514 6.96141 7.90269C7.19476 7.62624 7.11042 7.35927 7.32432 7.09303C7.42539 6.96722 7.48364 6.84025 7.30236 6.74526C7.12102 6.65034 6.87304 6.51107 6.65587 6.14912C6.51007 5.906 6.28172 5.70178 6.07387 5.67034C6.19812 5.59664 6.27432 5.48942 6.44174 5.40398C6.60915 5.31853 6.80814 5.19548 7.00853 5.0145" fill="white"/>
<path fill-rule="evenodd" clip-rule="evenodd" d="M6.86184 4.71497C6.6438 4.90805 6.56318 4.84646 6.33244 5.11815C6.19374 5.28151 5.99976 5.44977 5.90027 5.5113L5.93312 5.54432C6.03262 5.48279 6.2266 5.31454 6.36536 5.15117C6.58846 4.88848 6.67118 4.93741 6.87367 4.76622C6.86965 4.75374 6.86376 4.72579 6.86184 4.71497" fill="#FFF101"/>
<path fill-rule="evenodd" clip-rule="evenodd" d="M6.96379 4.96506C6.93274 4.98347 6.90157 5.00512 6.87658 5.02695C6.82218 4.96677 6.81787 4.80983 6.77406 4.84096C6.76008 4.85062 6.71243 4.87753 6.68703 4.8916C6.72676 4.86964 6.75268 5.0757 6.78536 5.09411C6.66076 5.21068 6.49422 5.26077 6.41884 5.33906C6.37381 5.29221 6.34923 5.17105 6.31462 5.20866C6.29732 5.2286 6.25194 5.27417 6.22381 5.30316C6.25363 5.27343 6.26954 5.37191 6.30437 5.38732C6.23552 5.44811 6.10136 5.55717 6.03455 5.5971L6.07387 5.67032C6.19812 5.59662 6.27431 5.4894 6.44173 5.40395C6.60915 5.31851 6.80814 5.19545 7.00853 5.01447C6.9953 5.0012 6.97509 4.97839 6.96379 4.96506" fill="#FFF101"/>
<path fill-rule="evenodd" clip-rule="evenodd" d="M5.93506 5.8337C6.14389 5.85175 6.38931 6.04844 6.5438 6.27426C6.72461 6.53854 6.91708 6.67285 7.0803 6.75872C7.06644 6.78306 7.06725 6.8112 7.06428 6.83841C7.03271 7.12796 6.793 7.16208 6.77844 7.06851C6.78368 7.10398 6.7785 7.12955 6.7764 7.15199C6.7722 7.19028 6.88725 7.22361 6.997 7.14416C7.04378 7.11028 7.09184 7.02239 7.11053 6.96331C7.13512 7.0356 7.1364 7.07664 7.11339 7.1419C7.08863 7.12808 7.06603 7.10447 7.05193 7.083C7.03859 7.10129 7.02502 7.1238 6.997 7.14416C7.01436 7.1764 7.04652 7.209 7.08665 7.22936C7.05455 7.35609 7.03923 7.47585 6.97551 7.57848C6.87351 7.74282 6.73935 7.71988 6.78007 7.56025C6.75205 7.70092 6.72519 7.79664 6.73551 7.87407C6.74587 7.9515 6.85801 8.02514 6.96135 7.9027C7.19471 7.62624 7.11036 7.35927 7.32426 7.09303C7.42533 6.96722 7.48574 6.8356 7.3023 6.74526C7.27807 6.7334 7.27207 6.73003 7.25086 6.71976C7.19809 6.68783 7.20065 6.58502 7.30137 6.53474C7.19162 6.54955 7.17817 6.59077 7.14327 6.65585C7.16896 6.67266 7.09551 6.71462 7.09422 6.73548C6.99578 6.68019 6.88696 6.60637 6.77768 6.49609C6.81828 6.46508 6.85731 6.42471 6.8276 6.38698C6.81053 6.36747 6.79376 6.34728 6.77681 6.32569C6.80652 6.36349 6.76277 6.40563 6.72217 6.4367C6.67399 6.38233 6.62593 6.32007 6.57875 6.24851C6.5244 6.166 6.45846 6.08673 6.38628 6.01848C6.42088 5.9808 6.47652 5.91266 6.43912 5.87786C6.4065 5.84673 6.37288 5.81756 6.33846 5.79205C6.39857 5.83548 6.33385 5.90612 6.30077 5.94539C6.19516 5.86343 6.08203 5.80759 5.97758 5.79664L5.93506 5.8337" fill="#FFF101"/>
<path fill-rule="evenodd" clip-rule="evenodd" d="M5.66094 5.34882C5.59278 5.31965 5.62641 5.28021 5.5688 5.37593C5.47461 5.53244 5.45641 5.4964 5.46025 5.71188C5.46415 5.93114 5.5047 5.89616 5.69968 6.07145C5.84956 5.95347 6.02845 5.77512 6.14152 5.65928C6.04826 5.53139 5.77832 5.39916 5.66094 5.34882Z" fill="#FFF101"/>
<path fill-rule="evenodd" clip-rule="evenodd" d="M5.99292 5.84813C5.92977 5.92513 5.93624 5.91088 5.90251 5.791C5.77931 5.81975 5.68427 5.85296 5.5853 5.87749C5.47439 5.90495 5.45231 5.90593 5.45132 5.84813C5.4501 5.77412 5.44753 5.6937 5.44421 5.6422C5.43845 5.55241 5.45551 5.55571 5.52588 5.55767C5.59625 5.55957 5.74243 5.57773 5.8894 5.57853C5.90012 5.45345 5.88981 5.42165 5.95028 5.46929C6.01779 5.52256 6.11799 5.61853 6.15364 5.66287C6.10668 5.70336 6.0528 5.7751 5.99292 5.84813Z" fill="#FFF101"/>
<path fill-rule="evenodd" clip-rule="evenodd" d="M7.31096 6.44144L7.39618 6.39906L7.37632 6.49502L7.46066 6.53789L7.37684 6.58242L7.39804 6.67771L7.31259 6.6371L7.25393 6.71343L7.23185 6.61838L7.13836 6.61777L7.19509 6.53997L7.13684 6.4634L7.23069 6.46132L7.25166 6.36615L7.31096 6.44144" fill="#FFF101"/>
<path fill-rule="evenodd" clip-rule="evenodd" d="M7.42514 4.02257C7.38727 4.20502 7.22283 4.37193 7.0303 4.43058C6.97776 4.58483 7.0677 4.82599 7.19254 4.95963C7.71279 5.21138 8.2737 5.09896 8.58727 5.15144C8.68642 5.16801 8.89718 5.09413 8.92426 4.9008C8.94652 4.74184 9.02044 4.69951 9.053 4.13994C9.07059 3.83737 9.06471 3.57015 9.10205 3.45382C9.13939 3.33749 9.18209 3.2167 9.29009 3.17107C9.43869 3.10826 9.53312 2.99395 9.63925 2.95731C9.76922 2.91242 9.8616 2.88899 9.92026 2.84092C9.97898 2.79284 9.98364 2.65401 9.83102 2.62129C9.48628 2.54728 9.30826 2.75749 8.9817 2.69609C8.82739 2.6671 8.69353 2.67755 8.70588 2.88997C8.71823 3.10233 8.72737 3.39743 8.53735 3.77584C8.40972 4.03003 8.35549 4.33976 8.43343 4.54447C8.31052 4.46832 8.18399 4.45266 8.02986 4.34318C7.87566 4.23364 7.67463 4.11431 7.42514 4.02257" fill="white"/>
<path fill-rule="evenodd" clip-rule="evenodd" d="M7.2514 4.30562C7.51971 4.40733 7.50923 4.51143 7.84867 4.58543C8.05278 4.6299 8.28853 4.72213 8.38907 4.78183L8.39985 4.7354C8.29936 4.67571 8.06356 4.58354 7.8595 4.53901C7.53125 4.46745 7.53026 4.36776 7.28781 4.26923C7.27954 4.2792 7.25938 4.29846 7.2514 4.30562" fill="#FFF101"/>
<path fill-rule="evenodd" clip-rule="evenodd" d="M7.40675 4.08784C7.43751 4.10686 7.47095 4.12436 7.50141 4.13622C7.47905 4.21573 7.35171 4.29818 7.3993 4.32246C7.41427 4.33035 7.46023 4.3602 7.48452 4.37622C7.4466 4.35108 7.60353 4.22448 7.60242 4.18552C7.76093 4.24056 7.88547 4.36699 7.98776 4.39641C7.97169 4.46075 7.88396 4.54368 7.93231 4.55634C7.95741 4.56209 8.01771 4.58056 8.05569 4.59164C8.01625 4.5794 8.08953 4.51567 8.08481 4.47634C8.1694 4.50852 8.32639 4.57598 8.39274 4.61677L8.43345 4.54442C8.31054 4.46827 8.18402 4.45261 8.02988 4.34313C7.87569 4.23359 7.67466 4.11427 7.42516 4.02252C7.42085 4.04112 7.41211 4.0709 7.40675 4.08784" fill="#FFF101"/>
<path fill-rule="evenodd" clip-rule="evenodd" d="M8.63753 4.58893C8.54799 4.39003 8.58755 4.0685 8.6966 3.81511C8.82417 3.51853 8.83873 3.27639 8.8279 3.08508C8.85493 3.08557 8.8777 3.0707 8.9017 3.05982C9.15627 2.94379 9.30429 3.14465 9.23432 3.20465C9.261 3.18214 9.28471 3.17413 9.30423 3.16483C9.3379 3.14942 9.3079 3.0282 9.18749 2.96814C9.13617 2.94251 9.03965 2.94275 8.98151 2.95529C9.02893 2.89676 9.06207 2.87511 9.12743 2.86343C9.12842 2.89284 9.12027 2.9252 9.10955 2.94875C9.13133 2.95168 9.15667 2.95278 9.18749 2.96814C9.20537 2.93621 9.21621 2.8907 9.21295 2.84398C9.33353 2.80985 9.43996 2.76392 9.55646 2.77052C9.74304 2.7811 9.79122 2.91456 9.63924 2.95731C9.7692 2.91242 9.86159 2.88899 9.92025 2.84092C9.97897 2.79284 9.98363 2.65401 9.831 2.62129C9.48627 2.54728 9.30825 2.75749 8.98168 2.69609C8.82737 2.6671 8.68862 2.67798 8.70586 2.88997C8.70813 2.91792 8.70836 2.92508 8.71052 2.94948C8.71052 3.01346 8.62448 3.06251 8.53267 2.99603C8.59972 3.0885 8.64044 3.08012 8.71157 3.07933C8.71262 3.04746 8.78392 3.09327 8.80174 3.08404C8.80541 3.20122 8.79889 3.33713 8.7626 3.49156C8.71669 3.47021 8.66397 3.45486 8.64761 3.50073C8.64003 3.52599 8.63182 3.55132 8.6225 3.57749C8.63881 3.53162 8.69549 3.5504 8.74133 3.57174C8.7206 3.64275 8.69328 3.71762 8.65786 3.79627C8.61697 3.88691 8.58458 3.98648 8.56436 4.0863C8.51601 4.07364 8.43196 4.05713 8.42194 4.10856C8.41262 4.15376 8.40533 4.1989 8.40149 4.243C8.40726 4.16661 8.49784 4.19009 8.54683 4.20055C8.53203 4.33755 8.54252 4.46832 8.58568 4.56887L8.63753 4.58893" fill="#FFF101"/>
<path fill-rule="evenodd" clip-rule="evenodd" d="M8.27928 5.00472C8.2893 5.0813 8.28278 5.13787 8.39055 5.14234C8.56676 5.14974 8.55243 5.17255 8.72823 5.06136C8.90713 4.94815 8.9119 4.9705 8.95903 4.70561C8.97062 4.64047 8.9454 4.64127 8.86542 4.60543C8.69316 4.52812 8.54258 4.5334 8.39055 4.48844C8.33165 4.63725 8.26204 4.87286 8.27928 5.00472Z" fill="#FFF101"/>
<path fill-rule="evenodd" clip-rule="evenodd" d="M8.62053 4.52916C8.71566 4.548 8.70063 4.54929 8.61867 4.63993C8.70401 4.73754 8.76933 4.80622 8.83912 4.88402C8.91723 4.97112 8.92906 4.99069 8.88187 5.02047C8.82147 5.05858 8.75646 5.10115 8.71562 5.12995C8.64438 5.18011 8.63861 5.16286 8.605 5.0979C8.57139 5.03301 8.52272 4.89204 8.44997 4.75809C8.34138 4.81082 8.3203 4.83614 8.32938 4.75736C8.33958 4.66929 8.36865 4.5302 8.3874 4.47565C8.44426 4.49803 8.53035 4.51118 8.62053 4.52916Z" fill="#FFF101"/>
<path fill-rule="evenodd" clip-rule="evenodd" d="M8.45089 3.03404L8.37335 2.97771L8.46248 2.94774L8.4556 2.84964L8.53424 2.90358L8.60228 2.83667L8.61149 2.93465L8.70376 2.94982L8.63642 3.01747L8.68267 3.10273L8.59011 3.09006L8.55603 3.18132L8.50745 3.09704L8.41844 3.1256L8.45089 3.03404" fill="#FFF101"/>
<path fill-rule="evenodd" clip-rule="evenodd" d="M6.9301 4.29739C6.78529 4.15146 6.56666 4.08733 6.39979 4.14323L6.3951 4.14029C6.35127 3.89663 6.34139 3.66129 6.35713 3.42916C6.36325 3.33936 6.35797 3.27364 6.34038 3.15644C6.33309 3.10784 6.3321 3.10104 6.32951 3.08092C6.32433 3.04055 6.32159 3.00638 6.32135 2.97267C6.1932 3.13515 5.92213 3.24406 5.63927 3.25551C5.30464 3.26899 5.09567 3.35734 4.82613 3.54455C4.67638 3.64855 4.59087 3.58666 4.52291 3.38877C4.47791 3.25793 4.42304 3.1824 4.29142 3.04337L4.28129 3.03267C4.14345 2.887 4.08353 2.80203 4.03647 2.65388C3.99253 2.51568 4.08747 2.41969 4.17783 2.45812C4.18398 2.46073 4.19016 2.4637 4.1964 2.46704C4.2255 2.4826 4.25536 2.50561 4.29488 2.54168C4.30842 2.55403 4.34808 2.59192 4.37879 2.62126L4.41546 2.65618C4.41999 2.66044 4.42468 2.66456 4.42959 2.66858C4.42277 2.66406 4.41567 2.66109 4.40841 2.65955L4.37405 2.62682C4.34336 2.5975 4.30383 2.55974 4.29037 2.54746C4.25126 2.51176 4.22183 2.48908 4.19336 2.47386C4.18731 2.47062 4.18132 2.46774 4.17537 2.46521C4.09081 2.42925 4.00165 2.5194 4.04365 2.65147C4.09026 2.79823 4.14961 2.88239 4.28673 3.02729L4.29685 3.03798C4.42916 3.17775 4.48457 3.25402 4.53003 3.38619C4.59662 3.58009 4.67762 3.63872 4.82238 3.53818C5.09293 3.35027 5.30308 3.26142 5.63926 3.24788C5.92506 3.23631 6.19861 3.12462 6.3224 2.95949L6.3289 2.96189C6.32859 2.99877 6.3313 3.03554 6.337 3.0799C6.33957 3.09994 6.34056 3.10673 6.34785 3.15526C6.36551 3.27299 6.37083 3.3392 6.36466 3.42971C6.34905 3.65987 6.35871 3.89318 6.40177 4.13466L6.39784 4.13595L6.40253 4.13888L6.40177 4.13466C6.57079 4.08017 6.78986 4.14523 6.93224 4.29088C7.07604 4.26338 7.234 4.07275 7.28449 3.88294C7.25955 3.59806 7.16755 3.34046 7.00213 3.02403C6.97661 2.9752 6.9069 2.84707 6.87308 2.78491L6.85452 2.75074C6.80179 2.65211 6.76851 2.5826 6.74565 2.51986C6.69828 2.38995 6.52117 2.28013 6.37513 2.34094C6.35526 2.34922 6.33594 2.35581 6.31477 2.36174C6.30121 2.36553 6.2874 2.36894 6.26853 2.37326C6.07409 2.41777 5.96645 2.45596 5.68343 2.60417L5.65954 2.61675C5.60514 2.64555 5.47409 2.7179 5.39252 2.76292L5.32502 2.80009C5.21296 2.86046 5.14278 2.89227 5.09213 2.90297C4.92465 2.93836 4.83998 2.93684 4.76191 2.87263C4.73732 2.85241 4.71105 2.83412 4.6821 2.8167C4.67457 2.81217 4.66693 2.80773 4.65904 2.8033L4.66129 2.80053L4.66027 2.79547C4.66891 2.80029 4.67724 2.80512 4.68545 2.81006C4.71469 2.82766 4.74126 2.84615 4.76613 2.86661C4.84192 2.92894 4.92497 2.93043 5.09043 2.89547C5.14019 2.88495 5.20997 2.85333 5.32143 2.79328L5.38876 2.75621L5.38877 2.7562C5.47032 2.71118 5.60151 2.63876 5.656 2.60992L5.67991 2.59733C5.9635 2.44881 6.0717 2.41043 6.26671 2.36579C6.28548 2.36149 6.2992 2.3581 6.31263 2.35434C6.33354 2.34849 6.35259 2.34199 6.37217 2.33383C6.52239 2.27127 6.70348 2.38356 6.75218 2.51712C6.77489 2.57943 6.80803 2.64866 6.8606 2.74699L6.87908 2.78102L6.87911 2.78107C6.91291 2.8432 6.98268 2.97144 7.00825 3.02034C7.1741 3.33762 7.26643 3.59611 7.29135 3.88361C7.24007 4.07736 7.08019 4.2703 6.9301 4.29739ZM4.65246 2.79115L4.66027 2.79547L4.6601 2.79462C4.65755 2.79332 4.655 2.79216 4.65246 2.79115ZM4.62638 2.78572C4.63504 2.7859 4.64374 2.78769 4.65246 2.79115C4.63912 2.78386 4.62495 2.7765 4.60933 2.76867L4.56926 2.74902L4.56908 2.74742C4.56289 2.74448 4.55685 2.74201 4.55092 2.74003L4.53681 2.73313C4.49102 2.71041 4.45974 2.69236 4.43448 2.67251L4.43449 2.67214L4.42959 2.66858L4.43448 2.67251L4.43432 2.67837L4.43206 2.67995C4.43026 2.67855 4.42848 2.67714 4.42673 2.67572C4.42787 2.67651 4.429 2.67734 4.43012 2.67822L4.43029 2.67199L4.4259 2.67505C4.42068 2.67079 4.4157 2.66642 4.41087 2.66189L4.40841 2.65955C4.36154 2.64959 4.30783 2.69943 4.27735 2.77977L4.28275 2.78437L4.43206 2.67995C4.45532 2.69797 4.48348 2.71454 4.52271 2.73441C4.46563 2.73144 4.41773 2.78455 4.3565 2.92083L4.36204 2.92547L4.56702 2.75623L4.60647 2.77558L4.62638 2.78572ZM4.65051 2.79857C4.64278 2.79433 4.63479 2.79008 4.62638 2.78572C4.56135 2.7844 4.49943 2.87449 4.46233 3.03501L4.46865 3.03839L4.65904 2.8033L4.65246 2.79964L4.65261 2.79945L4.65693 2.8015L4.65574 2.79558L4.65261 2.79945L4.65051 2.79857ZM4.47322 3.02095C4.51494 2.85316 4.58374 2.7716 4.65051 2.79857L4.65246 2.79964L4.47322 3.02095ZM4.47322 3.02095L4.46941 3.03682L4.4631 3.03344L4.47322 3.02095ZM4.55962 2.7526L4.56702 2.75623L4.56983 2.75391L4.56926 2.74902L4.55955 2.74425L4.55092 2.74003C4.54122 2.7368 4.53185 2.73488 4.52271 2.73441L4.53397 2.74005L4.54913 2.74747C4.48492 2.72592 4.43607 2.76612 4.36982 2.90932L4.35754 2.91945L4.36308 2.92409L4.36982 2.90932L4.55962 2.7526ZM4.56052 2.75186C4.55667 2.75019 4.55287 2.74872 4.54913 2.74747L4.55681 2.75122L4.55962 2.7526L4.56052 2.75186ZM4.56052 2.75186L4.56608 2.75438L4.56533 2.74789L4.56052 2.75186ZM4.42582 2.67511C4.42612 2.67531 4.42642 2.67551 4.42673 2.67572C4.42645 2.6755 4.42618 2.67527 4.4259 2.67505L4.42582 2.67511ZM4.28879 2.77094C4.32337 2.68936 4.38195 2.6461 4.42582 2.67511L4.28879 2.77094ZM4.28879 2.77094C4.28718 2.77473 4.28562 2.77861 4.28411 2.78258L4.27871 2.77798L4.28879 2.77094Z" fill="black"/>
<path fill-rule="evenodd" clip-rule="evenodd" d="M6.70872 3.88023C6.70354 3.99325 6.70534 4.05406 6.72259 4.15538L6.7178 4.15966C6.7123 4.15762 6.70518 4.15518 6.69779 4.15265C6.68675 4.14886 6.67509 4.14486 6.66724 4.14166C6.65407 4.05281 6.65299 3.99749 6.65777 3.89317L6.65875 3.8715C6.66451 3.73746 6.65435 3.64768 6.604 3.48765C6.54331 3.29452 6.4968 3.03089 6.49826 2.89318L6.54661 2.88348C6.54776 3.01675 6.59412 3.27953 6.6546 3.47186C6.70524 3.63287 6.71551 3.72358 6.7097 3.85853L6.70872 3.88023ZM6.72038 4.15246L6.71559 4.15674C6.71522 4.15459 6.71486 4.15246 6.71451 4.15035C6.7166 4.15108 6.71858 4.15179 6.72038 4.15246ZM6.67172 4.13734C6.681 4.13931 6.70041 4.14539 6.71451 4.15035C6.69815 4.05215 6.69652 3.99103 6.70161 3.87988L6.70259 3.85819C6.70836 3.72414 6.69819 3.63435 6.64785 3.47427C6.58714 3.28123 6.54065 3.01768 6.54415 2.8872L6.50309 2.89683C6.50424 3.02999 6.55062 3.29284 6.61108 3.48527C6.66172 3.64623 6.67199 3.73693 6.66618 3.87186L6.66521 3.89355C6.66045 3.9974 6.66152 4.05226 6.67172 4.13734Z" fill="black"/>
<path fill-rule="evenodd" clip-rule="evenodd" d="M5.85934 2.50525C5.81855 2.52362 5.81887 2.58873 5.85184 2.69016C5.87822 2.77127 5.92493 2.87317 5.98111 2.97725L5.98778 2.97434L5.86429 2.50774L5.85934 2.50525ZM6.45792 4.01275C6.46326 4.04524 6.4658 4.08415 6.46543 4.12371L6.46252 4.12742L6.45006 4.13018L6.45006 4.13018L6.45006 4.13018L6.45005 4.13018L6.45005 4.13019L6.45005 4.13019L6.45004 4.13019C6.43182 4.13427 6.41117 4.13889 6.39512 4.14029C6.35129 3.89662 6.3414 3.66128 6.35715 3.42915C6.36327 3.33936 6.35799 3.27363 6.3404 3.15644C6.33311 3.10783 6.33211 3.10103 6.32953 3.08091C6.32379 3.03621 6.32105 2.9991 6.32505 2.95802L6.40869 2.96272C6.40829 3.03188 6.42657 3.19092 6.44579 3.30663C6.45615 3.30087 6.47069 3.2993 6.49357 3.29974L6.50292 3.29998C6.52426 3.30059 6.53246 3.30037 6.53994 3.29829C6.54841 3.29593 6.55132 3.29168 6.54944 3.28299L6.55334 3.29902C6.55072 3.30207 6.54684 3.30429 6.5418 3.30569C6.53335 3.30805 6.52491 3.30827 6.50271 3.30763L6.49343 3.3074C6.46841 3.30692 6.45414 3.30898 6.44534 3.31597L6.43956 3.31359C6.41993 3.19704 6.401 3.03355 6.40501 2.96653L6.32865 2.96189C6.32833 2.99877 6.33104 3.03553 6.33674 3.0799C6.33932 3.09994 6.34031 3.10672 6.34759 3.15526C6.36526 3.27298 6.37057 3.3392 6.36441 3.42971C6.34871 3.66121 6.35856 3.8959 6.39767 4.13592C6.41245 4.13138 6.4378 4.12506 6.45817 4.12057L6.45814 4.12365L6.46105 4.11994L6.45817 4.12057C6.45838 4.0825 6.45594 4.04511 6.45348 4.0097C6.47393 4.00454 6.49868 4.00538 6.53044 4.01093C6.5411 4.01279 6.55173 4.01499 6.56668 4.01834C6.61254 4.02863 6.61933 4.02996 6.63281 4.03022C6.64952 4.03056 6.65627 4.02577 6.65545 4.01342C6.65462 4.00024 6.65523 3.96523 6.6566 3.92297C6.66147 3.91992 6.66412 3.91531 6.66435 3.90891L6.65708 3.90862L6.65708 3.90861L6.66436 3.90889C6.66268 3.95704 6.66182 3.99865 6.66272 4.01289C6.6639 4.03062 6.65313 4.03826 6.63268 4.03786C6.61849 4.03757 6.61176 4.03626 6.56516 4.02581C6.55031 4.02248 6.53978 4.02029 6.52925 4.01846C6.49837 4.01307 6.47448 4.01225 6.45792 4.01275ZM6.65707 3.90893L6.6566 3.92297C6.65005 3.92708 6.63951 3.92838 6.62547 3.92745C6.60772 3.92626 6.58775 3.92235 6.54954 3.91339L6.54537 3.91241C6.48007 3.89707 6.4567 3.89349 6.44646 3.90015L6.44098 3.89767C6.43873 3.88628 6.43678 3.87468 6.4351 3.86285C6.42581 3.79716 6.42526 3.74175 6.42933 3.63351C6.43346 3.52344 6.4328 3.48437 6.42482 3.43743C6.44084 3.43283 6.46029 3.43163 6.4874 3.43258L6.50958 3.43364C6.54352 3.43549 6.55541 3.4356 6.56696 3.43326C6.58068 3.43047 6.58524 3.42464 6.58198 3.41274C6.57798 3.39953 6.57223 3.377 6.56341 3.34068L6.56239 3.33645C6.56287 3.33842 6.55746 3.31603 6.55334 3.29902C6.55707 3.29466 6.55821 3.28862 6.55643 3.28084L6.54937 3.28268L6.54936 3.28261L6.55642 3.28076C6.55897 3.29113 6.57014 3.33741 6.56945 3.33455L6.57047 3.33878C6.57925 3.37493 6.58498 3.39739 6.58896 3.41051C6.59356 3.42736 6.58588 3.43718 6.56835 3.44075C6.55595 3.44327 6.5439 3.44315 6.50921 3.44126L6.48717 3.44021C6.47079 3.43964 6.45734 3.43987 6.44647 3.44005C6.4398 3.44016 6.4341 3.44026 6.42931 3.44014C6.44011 3.48346 6.44078 3.52285 6.43661 3.6338C6.43256 3.74157 6.4331 3.79665 6.44231 3.86171C6.44373 3.87176 6.44535 3.88162 6.44719 3.89133C6.46086 3.88615 6.48518 3.89042 6.54697 3.90494L6.55113 3.90592C6.58895 3.91478 6.6087 3.91866 6.62594 3.9198C6.6465 3.92118 6.65652 3.91754 6.65707 3.90893ZM6.65707 3.90893L6.65708 3.90862L6.65708 3.90862L6.65707 3.90893ZM6.54937 3.28268L6.54944 3.28299L6.54936 3.28269L6.54937 3.28268ZM5.85845 2.51421L5.85727 2.50978L5.86222 2.51226L5.85845 2.51421ZM5.97264 2.94568C5.9233 2.85175 5.88259 2.76104 5.85874 2.68768C5.82813 2.59353 5.82672 2.53285 5.85845 2.51421L5.97264 2.94568ZM5.97264 2.94568L5.98745 2.97347L5.98077 2.97638L5.97264 2.94568ZM5.98324 3.02715C5.94898 3.04506 5.91473 3.06079 5.88052 3.07417L5.88294 3.08242L5.98599 3.03525L5.98324 3.02715ZM5.98339 3.02707L5.98614 3.03517C5.95166 3.0532 5.9172 3.06902 5.88276 3.0825L5.88034 3.07425L5.98339 3.02707ZM5.36792 3.16448C5.34162 3.17171 5.31603 3.17962 5.29095 3.18827L5.29287 3.19671L5.29306 3.19665L5.29306 3.19667C5.29324 3.19661 5.29341 3.19655 5.29359 3.19649L5.3691 3.17315C5.36928 3.1731 5.36946 3.17305 5.36964 3.173L5.36964 3.17298L5.36964 3.17298L5.36792 3.16448ZM5.36964 3.17298L5.36793 3.1645L5.29115 3.18823L5.29306 3.19665L5.29359 3.19649C5.31819 3.18801 5.34329 3.18025 5.3691 3.17315L5.36964 3.17298Z" fill="black"/>
<path fill-rule="evenodd" clip-rule="evenodd" d="M5.59152 3.08342C5.87024 3.05424 6.14393 2.92264 6.25664 2.75178L6.26322 2.75331L6.27197 2.81344C6.21241 2.90032 6.11216 2.97661 5.98813 3.02944C5.98784 3.02852 5.99318 3.04547 5.99485 3.05059C5.99766 3.05927 6.00023 3.06672 6.0029 3.07381C6.02521 3.13309 6.05161 3.15774 6.09077 3.13815L6.09082 3.13826C6.0809 3.14305 6.0707 3.14772 6.06022 3.15229C6.03365 3.149 6.01345 3.12192 5.9964 3.07663C5.99368 3.0694 5.99107 3.06185 5.98822 3.05306C5.98655 3.04791 5.9812 3.03092 5.9835 3.02715C6.10841 2.97011 6.20762 2.89461 6.26569 2.81186L6.2578 2.76368C6.25953 2.76117 6.26123 2.75866 6.26289 2.75614L6.25631 2.75461L6.2578 2.76368C6.14074 2.93297 5.86907 3.06208 5.59252 3.09104C5.32513 3.11904 5.12018 3.20181 4.92111 3.33465C4.91281 3.31897 4.90285 3.30973 4.8778 3.29141L4.8777 3.29134L4.86445 3.28144C4.76364 3.20304 4.71752 3.10433 4.72423 3.01297C4.72891 2.94913 4.76057 2.9015 4.79703 2.89673C4.80375 2.9005 4.81072 2.90386 4.8182 2.90692L4.81817 2.90701C4.7783 2.89116 4.73659 2.94032 4.73122 3.01355C4.72471 3.10221 4.76966 3.19841 4.86852 3.27529L4.8816 3.28507L4.88169 3.28514C4.90764 3.30411 4.91819 3.3139 4.92202 3.3296C5.11684 3.19477 5.32289 3.11155 5.59152 3.08342ZM4.81862 2.89898C4.81135 2.89649 4.8041 2.8958 4.79703 2.89673C4.79044 2.89303 4.78409 2.88895 4.77769 2.88439C4.77167 2.8801 4.75571 2.86758 4.75104 2.86391C4.75028 2.86331 4.74982 2.86295 4.74975 2.8629C4.71454 2.8355 4.64272 2.94667 4.65169 3.06405C4.65575 3.1172 4.69873 3.20301 4.74322 3.25545L4.73985 3.26176C4.66623 3.24769 4.63133 3.22749 4.5898 3.16802C4.61115 3.15407 4.63947 3.14458 4.6656 3.1416C4.66565 3.1416 4.6657 3.14159 4.66575 3.14159L4.66771 3.14638L4.67079 3.1411C4.66912 3.14123 4.66744 3.1414 4.66575 3.14159L4.66038 3.12844C4.65982 3.12704 4.65927 3.12565 4.65874 3.12428C4.65517 3.1151 4.65235 3.10669 4.65045 3.09862C4.648 3.08821 4.64707 3.07837 4.64803 3.06818C4.64685 3.06817 4.64567 3.06817 4.64448 3.06819C4.60905 3.06877 4.56846 3.08243 4.53038 3.10597L4.51338 3.08842C4.50317 3.07802 4.47669 3.05166 4.45815 3.0332C4.449 3.02409 4.44178 3.0169 4.43939 3.0145C4.36803 2.94259 4.32757 2.89201 4.29728 2.82939C4.25725 2.74652 4.25249 2.67103 4.28055 2.63163C4.29926 2.60537 4.32885 2.59994 4.36231 2.6156C4.36632 2.61942 4.37025 2.62318 4.37406 2.62681C4.3819 2.6343 4.38916 2.64124 4.39526 2.64706C4.34999 2.60711 4.30872 2.60447 4.28612 2.63621C4.26003 2.67284 4.26459 2.74538 4.3035 2.82592C4.33333 2.8876 4.37335 2.93761 4.44417 3.00898C4.44653 3.01136 4.45372 3.01851 4.46283 3.02759C4.48138 3.04605 4.50793 3.07248 4.51818 3.08293C4.52413 3.089 4.52979 3.09483 4.53064 3.10009C4.56446 3.07596 4.60496 3.06192 4.64408 3.06355C4.63525 2.94132 4.7114 2.82375 4.75378 2.85672C4.75386 2.85679 4.75442 2.85722 4.75533 2.85793C4.76029 2.86183 4.77573 2.87394 4.78152 2.87806C4.79343 2.88655 4.80517 2.89331 4.81862 2.89898ZM4.66877 3.14892C4.64297 3.15141 4.6145 3.16056 4.59426 3.16883C4.63352 3.21862 4.66563 3.23851 4.73066 3.25218C4.70732 3.22283 4.68495 3.18539 4.66877 3.14892ZM4.39526 2.64706C4.40038 2.65194 4.40468 2.65603 4.40783 2.65901C4.40361 2.65471 4.39942 2.65073 4.39526 2.64706ZM4.41057 2.66161L4.41046 2.66173C4.40958 2.66081 4.4087 2.65991 4.40783 2.65901C4.40888 2.66 4.4098 2.66087 4.41057 2.66161ZM4.39546 2.63717C4.38417 2.62781 4.37304 2.62062 4.36231 2.6156C4.33397 2.58854 4.30217 2.55822 4.29037 2.54745C4.25126 2.51176 4.22183 2.48908 4.19336 2.47385C4.18731 2.47061 4.18132 2.46774 4.17537 2.46521C4.09081 2.42925 4.00165 2.5194 4.04365 2.65147C4.09026 2.79823 4.14961 2.88238 4.28673 3.02728L4.29685 3.03798C4.42916 3.17775 4.48457 3.25401 4.53003 3.38618C4.56084 3.4759 4.59367 3.53467 4.63519 3.56497C4.68459 3.60103 4.74539 3.59452 4.82231 3.53822L4.84838 3.51937L4.8487 3.51914L4.86934 3.50405C4.92798 3.46846 4.99982 3.52783 5.00266 3.62427C5.00043 3.63068 4.99793 3.63736 4.99514 3.64435L5.00206 3.64611C5.00191 3.64651 5.00175 3.6469 5.00159 3.64729L4.99461 3.64551C5.00251 3.54202 4.92997 3.47592 4.873 3.51047L4.85255 3.52544L4.85223 3.52567L4.8262 3.54449C4.74699 3.60247 4.68294 3.60932 4.63077 3.57124C4.58768 3.53979 4.55419 3.47987 4.52291 3.38877C4.47791 3.25793 4.42304 3.1824 4.29142 3.04336L4.28129 3.03266C4.14345 2.887 4.08353 2.80203 4.03647 2.65388C3.99253 2.51568 4.08747 2.41969 4.17783 2.45812C4.18398 2.46073 4.19016 2.4637 4.1964 2.46703C4.2255 2.4826 4.25536 2.50561 4.29488 2.54168C4.30842 2.55403 4.34808 2.59192 4.37879 2.62125C4.38478 2.62697 4.39042 2.63236 4.39546 2.63717ZM5.00215 3.64589C5.00271 3.6385 5.00287 3.63129 5.00266 3.62427C5.022 3.56861 5.02064 3.5334 5.00276 3.4949C4.99937 3.48763 4.9954 3.48008 4.98993 3.47034C4.98983 3.47017 4.98972 3.46997 4.98959 3.46975C4.98673 3.46468 4.97739 3.44812 4.97942 3.44486C4.97016 3.45003 4.96268 3.44587 4.95741 3.43494C4.9538 3.42744 4.95142 3.41847 4.94761 3.40037L4.94668 3.39596C4.94186 3.37299 4.93876 3.3633 4.93451 3.36032L4.9346 3.35389C5.04708 3.28048 5.16073 3.22492 5.29583 3.18854C5.30281 3.25679 5.32041 3.29155 5.35649 3.28521C5.3737 3.2812 5.39051 3.27758 5.40731 3.27431C5.41423 3.27766 5.42219 3.27878 5.43127 3.27757C5.40686 3.28188 5.38275 3.28685 5.35761 3.29271C5.31522 3.30016 5.29572 3.26164 5.29296 3.19261C5.16471 3.23158 5.0528 3.28601 4.94216 3.35779C4.94641 3.36359 4.94926 3.37398 4.95353 3.39431L4.95445 3.39872C4.95812 3.41614 4.96041 3.42478 4.96364 3.43149C4.96727 3.43902 4.97069 3.44092 4.98057 3.43953L4.99593 3.46645C5.00149 3.47634 5.00555 3.48406 5.00903 3.49155C5.02981 3.53628 5.02932 3.57715 5.00215 3.64589ZM5.43232 3.26968C5.42396 3.27115 5.41563 3.27269 5.40731 3.27431C5.38353 3.26281 5.37185 3.22499 5.36817 3.16449C5.43984 3.1472 5.5155 3.13495 5.59564 3.12807C5.69157 3.11981 5.78961 3.09933 5.8854 3.07083C5.90774 3.15252 5.93478 3.19907 5.97032 3.18659C6.00251 3.17576 6.03238 3.1644 6.06022 3.15229C6.06884 3.15336 6.07814 3.15191 6.08822 3.14777C6.05313 3.16441 6.01468 3.1796 5.97232 3.19385C5.93036 3.20859 5.90177 3.15937 5.88276 3.07551C5.79105 3.10678 5.69246 3.12738 5.59597 3.13569C5.51617 3.14254 5.44085 3.15473 5.37234 3.1678C5.37957 3.23919 5.39662 3.2759 5.43231 3.26963L5.43232 3.26968ZM5.43232 3.26968C5.43241 3.26967 5.4325 3.26965 5.43259 3.26964L5.43378 3.27718C5.43294 3.27733 5.4321 3.27746 5.43127 3.27757C5.43202 3.27744 5.43277 3.27731 5.43351 3.27718L5.43232 3.26968ZM5.00215 3.64589C5.00215 3.64597 5.00214 3.64605 5.00213 3.64613L5.00206 3.64611C5.00209 3.64604 5.00212 3.64596 5.00215 3.64589ZM4.39546 2.63717C4.40222 2.64278 4.40904 2.64917 4.41587 2.65633L4.41087 2.66189C4.41078 2.6618 4.41068 2.6617 4.41057 2.66161L4.41546 2.65618C4.4118 2.65275 4.40462 2.64591 4.39546 2.63717ZM4.81862 2.89898C4.81942 2.89925 4.82022 2.89955 4.82102 2.89987L4.81841 2.907C4.81834 2.90698 4.81827 2.90695 4.8182 2.90692L4.82077 2.89987C4.82005 2.89958 4.81933 2.89928 4.81862 2.89898ZM6.08822 3.14777C6.09011 3.14687 6.09199 3.14598 6.09386 3.14507L6.09082 3.13826C6.0909 3.13822 6.09099 3.13818 6.09108 3.13813L6.09417 3.14506C6.09216 3.14606 6.09017 3.14697 6.08822 3.14777Z" fill="black"/>
<path fill-rule="evenodd" clip-rule="evenodd" d="M6.87295 4.45228C6.82495 4.65692 6.88138 4.88776 7.01097 5.0116L7.0109 5.01732C6.83191 5.17898 6.64286 5.30551 6.44332 5.40734C6.38469 5.43727 6.33469 5.47082 6.28008 5.51464C6.26655 5.5255 6.25313 5.53663 6.23581 5.55129C6.23738 5.54995 6.20284 5.57928 6.19331 5.58727C6.15066 5.62301 6.11887 5.6471 6.08463 5.66817C6.28275 5.70344 6.5081 5.89548 6.65894 6.14701C6.83744 6.44451 7.01502 6.59051 7.30397 6.74177C7.46459 6.82593 7.45628 6.9346 7.32709 7.09542C7.24106 7.2025 7.20686 7.28902 7.15696 7.48221C7.10259 7.69268 7.06472 7.78598 6.96412 7.90516C6.87209 8.01421 6.74552 7.97591 6.73194 7.87453C6.72712 7.83826 6.72992 7.79724 6.73988 7.74011C6.74435 7.71449 6.76259 7.6267 6.7716 7.58334L6.77655 7.5594C6.77775 7.55337 6.77877 7.5475 6.77964 7.54164C6.77946 7.54998 6.78067 7.55781 6.78311 7.56507L6.77895 7.5852L6.77894 7.58521L6.77893 7.58526L6.77891 7.58539L6.7789 7.58542L6.77889 7.58545C6.76985 7.62899 6.75175 7.71609 6.74732 7.7415C6.73749 7.79789 6.73474 7.83818 6.73944 7.87347C6.75214 7.96834 6.871 8.0043 6.95895 7.90009C7.05862 7.78203 7.09612 7.68963 7.15021 7.48022C7.20038 7.28602 7.23491 7.19866 7.32181 7.0905C7.4484 6.93292 7.45627 6.82997 7.30101 6.74862C7.01096 6.59679 6.83239 6.44997 6.65306 6.15109C6.50065 5.89694 6.27176 5.70403 6.07363 5.67406L6.07235 5.66695C6.10973 5.64478 6.14297 5.61992 6.18905 5.5813C6.19856 5.57333 6.23308 5.54402 6.23152 5.54534C6.24889 5.53065 6.26235 5.51948 6.27594 5.50857C6.33092 5.46446 6.38131 5.43064 6.44042 5.40048C6.63827 5.2995 6.82576 5.1742 7.00333 5.01433L7.00635 5.01726L7.00643 5.01154L7.00333 5.01433C6.87381 4.88784 6.81793 4.65614 6.86692 4.45385C6.77231 4.33687 6.53607 4.28852 6.35428 4.33749C6.17941 4.46729 6.0338 4.63355 5.89565 4.84576C5.85761 4.90419 5.78067 5.03807 5.70578 5.16837C5.62797 5.30376 5.55237 5.4353 5.52492 5.47437C5.51628 5.48667 5.50779 5.49822 5.4994 5.50907C5.4159 5.61709 5.41388 5.83298 5.5371 5.93541C5.54286 5.94019 5.54843 5.94503 5.55388 5.94996C5.57054 5.96504 5.58566 5.98063 5.60346 6.00065L5.62446 6.02479C5.63849 6.04096 5.65537 6.06043 5.66306 6.06904C5.68979 6.09897 5.71643 6.12656 5.74833 6.15669C5.83064 6.23445 5.94205 6.32294 6.10004 6.43271C6.18043 6.48857 6.43326 6.65555 6.43199 6.6547C6.54375 6.73009 6.60706 6.7792 6.64216 6.82102C6.755 6.95538 6.7962 7.03334 6.78225 7.13644C6.77649 7.17912 6.77478 7.21701 6.77645 7.26447L6.77268 7.26375L6.76898 7.26723C6.76715 7.21817 6.76883 7.17931 6.77476 7.13536C6.7883 7.03527 6.74789 6.9588 6.63641 6.82607C6.60192 6.78497 6.53894 6.73612 6.42777 6.66112C6.4291 6.66202 6.17621 6.49499 6.09574 6.43908C5.93746 6.32911 5.82578 6.2404 5.74317 6.16237C5.71112 6.13209 5.68433 6.10434 5.65747 6.07427C5.64972 6.0656 5.63276 6.04603 5.61872 6.02984L5.59785 6.00586C5.58022 5.98603 5.56528 5.97063 5.54884 5.95574C5.54347 5.95088 5.53798 5.94611 5.5323 5.9414C5.40555 5.83604 5.40761 5.6153 5.49346 5.50425C5.50178 5.49349 5.5102 5.48203 5.51877 5.46983C5.54602 5.43105 5.62126 5.30013 5.69887 5.16509L5.69887 5.16509L5.69887 5.16508C5.77389 5.03455 5.85112 4.90017 5.88935 4.84144C6.02796 4.62853 6.17413 4.46162 6.35099 4.33066C6.53643 4.28044 6.77553 4.32938 6.87295 4.45228ZM6.76935 7.27644L6.76898 7.26723L6.76839 7.26778C6.76859 7.27074 6.76892 7.27362 6.76935 7.27644ZM6.77842 7.3038C6.77397 7.2956 6.77092 7.28647 6.76935 7.27644C6.77054 7.30292 6.77269 7.33249 6.77568 7.36736L6.77618 7.37318L6.77499 7.37412C6.77565 7.38118 6.77662 7.38787 6.77793 7.39421C6.7836 7.46401 6.78479 7.50017 6.78069 7.53384L6.78016 7.53414C6.77986 7.53668 6.77969 7.53918 6.77964 7.54164L6.78069 7.53384L6.78539 7.53118L6.78844 7.53277C6.78813 7.53545 6.78779 7.53811 6.78742 7.54077L6.78697 7.54054C6.78704 7.53875 6.78717 7.53692 6.78739 7.53508L6.78216 7.53804L6.78697 7.54054C6.78693 7.54173 6.78691 7.54291 6.78693 7.54407C6.78609 7.54964 6.7851 7.55523 6.78396 7.56097L6.78311 7.56507C6.79892 7.61206 6.86655 7.6356 6.94746 7.62316L6.94855 7.61595L6.78844 7.53277C6.79174 7.5043 6.79134 7.47385 6.78777 7.42349C6.8141 7.47629 6.88195 7.4931 7.02433 7.48068L7.02538 7.47332L6.78365 7.37175L6.78322 7.36668C6.78124 7.34359 6.77963 7.32285 6.77842 7.3038ZM6.77699 7.27769L6.77842 7.3038C6.81048 7.36275 6.91541 7.37365 7.06553 7.32738L7.06516 7.31995L6.77645 7.26447L6.77675 7.27231L6.77613 7.27219L6.77565 7.26724L6.77137 7.27127L6.77613 7.27219L6.77699 7.27769ZM7.04849 7.32453C6.89157 7.36981 6.79055 7.34931 6.77699 7.27769L6.77675 7.27231L7.04849 7.32453ZM7.04849 7.32453L7.06348 7.32005L7.06385 7.32748L7.04849 7.32453ZM6.78438 7.38029L6.78365 7.37175L6.77996 7.3702L6.77618 7.37318L6.77793 7.39421C6.78017 7.40498 6.7834 7.41473 6.78777 7.42349L6.78559 7.39504C6.80085 7.462 6.85898 7.48553 7.00816 7.47433L7.02267 7.48042L7.02372 7.47306L7.00816 7.47433L6.78438 7.38029ZM6.78292 7.37968C6.78359 7.38503 6.78448 7.39015 6.78559 7.39504L6.78438 7.38029L6.78292 7.37968ZM6.78292 7.37968L6.78223 7.37338L6.77725 7.3773L6.78292 7.37968ZM6.93449 7.61719L6.78742 7.54077C6.78726 7.54187 6.7871 7.54297 6.78693 7.54407C6.78781 7.59631 6.85182 7.62639 6.93449 7.61719ZM6.93449 7.61719L6.94533 7.62281L6.94641 7.61561C6.9424 7.61622 6.93843 7.61675 6.93449 7.61719Z" fill="black"/>
<path fill-rule="evenodd" clip-rule="evenodd" d="M6.63083 4.86691C6.7377 4.80907 6.78212 4.78057 6.85951 4.71204L6.86544 4.71426C6.8665 4.72023 6.86808 4.72805 6.86974 4.73621C6.87213 4.74802 6.87467 4.76054 6.87597 4.76919C6.80687 4.82761 6.76663 4.85284 6.667 4.90677L6.64649 4.91796C6.54196 4.97557 6.4713 5.03218 6.36809 5.15371C6.23915 5.30551 6.04499 5.47959 5.93062 5.54708L5.89844 5.50799C6.00777 5.44038 6.20135 5.26682 6.32974 5.11559C6.43361 4.9933 6.50497 4.93613 6.61033 4.87808L6.63083 4.86691ZM6.85844 4.71565L6.86437 4.71787C6.86278 4.71928 6.8612 4.72067 6.85964 4.72205C6.85919 4.71976 6.85879 4.71761 6.85844 4.71565ZM6.85964 4.72205C6.78461 4.78805 6.73945 4.8168 6.63433 4.87369L6.61387 4.88485C6.50927 4.94248 6.4386 4.99909 6.33534 5.12067C6.20648 5.27245 6.01232 5.44653 5.90297 5.50852L5.93146 5.54101C6.04076 5.47342 6.23436 5.29986 6.36282 5.14861C6.46663 5.02638 6.53799 4.96921 6.64327 4.91118L6.66383 4.89996C6.76305 4.84625 6.80294 4.82124 6.8704 4.76743C6.86737 4.75802 6.86258 4.73717 6.85964 4.72205Z" fill="black"/>
<path fill-rule="evenodd" clip-rule="evenodd" d="M6.8743 5.02398C6.89844 5.00288 6.92928 4.98112 6.96204 4.96169L6.96655 4.96248L6.97514 4.97252C6.98749 4.98687 7.00173 5.00342 7.01094 5.01734C6.83195 5.17899 6.6429 5.30552 6.44336 5.40736C6.38474 5.43728 6.33474 5.47083 6.28013 5.51465C6.26659 5.52552 6.25318 5.53664 6.23585 5.5513C6.23743 5.54997 6.20288 5.57929 6.19335 5.58728C6.147 5.62613 6.11348 5.6512 6.07074 5.67216L6.03279 5.59375C6.09014 5.55946 6.21243 5.46312 6.2979 5.38803C6.2876 5.3813 6.27894 5.36836 6.26691 5.34526L6.26017 5.33223C6.25763 5.32738 6.25561 5.32365 6.25366 5.32032C6.2426 5.30136 6.23528 5.29701 6.22636 5.3059L6.2213 5.3004L6.22135 5.30035L6.2264 5.30585L6.2381 5.29386C6.24531 5.29566 6.25237 5.30346 6.25987 5.31632C6.26189 5.31977 6.26397 5.3236 6.26655 5.32854L6.2733 5.34159C6.28642 5.36678 6.29525 5.37908 6.30583 5.38376L6.30676 5.3902C6.22083 5.46608 6.09517 5.56525 6.03776 5.59519L6.07212 5.66695C6.1095 5.64478 6.14274 5.61992 6.18881 5.5813C6.19832 5.57333 6.23285 5.54402 6.23129 5.54534C6.24866 5.53065 6.26211 5.51948 6.27571 5.50857C6.33068 5.46446 6.38108 5.43064 6.44018 5.40048C6.63919 5.29891 6.82771 5.17273 7.00605 5.0172C6.99484 5.00594 6.97672 4.98585 6.96307 4.96986L6.96562 4.96834L6.96111 4.96756L6.96307 4.96986C6.93162 4.98868 6.90198 5.00961 6.87399 5.02954L6.87117 5.0263L6.8743 5.02398ZM6.78575 5.08979L6.87117 5.0263C6.8559 5.00803 6.84397 4.98208 6.83157 4.9445L6.82191 4.91377L6.81325 4.88625C6.8067 4.86657 6.80126 4.85428 6.7955 4.84717C6.7895 4.83976 6.78376 4.83867 6.77611 4.84411C6.76554 4.85141 6.73419 4.8696 6.70088 4.88821C6.69592 4.8853 6.69078 4.88519 6.68538 4.88818L6.68537 4.88818L6.68877 4.89494L6.70088 4.88821C6.70761 4.89214 6.71402 4.90122 6.72034 4.91469C6.72827 4.93159 6.73493 4.95153 6.74686 4.99151C6.75498 5.01871 6.75514 5.01925 6.7581 5.02868C6.76921 5.06399 6.77786 5.08378 6.78575 5.08979ZM6.78575 5.08979L6.77959 5.09437C6.74496 5.12625 6.70545 5.15485 6.65746 5.18412C6.63695 5.19664 6.58626 5.22508 6.54858 5.24622C6.52759 5.258 6.51063 5.26752 6.50517 5.27076C6.46496 5.2946 6.43705 5.31478 6.41632 5.33631L6.41065 5.32631C6.40395 5.31456 6.39507 5.29901 6.38428 5.27734L6.38013 5.26886L6.36656 5.2413C6.35998 5.22839 6.35467 5.21926 6.34949 5.21238C6.33699 5.19576 6.32443 5.19251 6.31205 5.20597C6.30294 5.21646 6.28679 5.23338 6.25969 5.26111L6.25876 5.26207C6.26376 5.25695 6.22881 5.29266 6.22135 5.30035L6.22135 5.30035C6.22718 5.29453 6.23268 5.2925 6.2381 5.29386C6.25064 5.28102 6.26727 5.26404 6.26388 5.2675L6.26478 5.26658C6.292 5.23873 6.30819 5.22176 6.31736 5.2112C6.32607 5.20173 6.33369 5.2037 6.34378 5.21711C6.34863 5.22356 6.35375 5.23236 6.36014 5.2449L6.37361 5.27225L6.37783 5.28087C6.39232 5.31001 6.40352 5.32842 6.41632 5.34174C6.44161 5.32079 6.46906 5.30094 6.50876 5.27741C6.51414 5.27422 6.53094 5.26479 6.5518 5.25308C6.5895 5.23193 6.64045 5.20334 6.66112 5.19073C6.71108 5.16025 6.75198 5.13046 6.78783 5.09692L6.78713 5.0907L6.78575 5.08979ZM5.93011 6.32197C5.96567 6.34988 6.01924 6.31703 6.08641 6.23636C6.14014 6.17183 6.20085 6.07838 6.25855 5.97534L6.25281 5.97073L5.92969 6.31623L5.93011 6.32197ZM5.93795 6.31828L5.93488 6.32157L5.93446 6.31583L5.93795 6.31828ZM6.08092 6.2313C6.01857 6.30619 5.96921 6.3378 5.93795 6.31828L6.23676 5.99878C6.18401 6.09054 6.12953 6.17293 6.08092 6.2313ZM6.23676 5.99878L6.25227 5.97145L6.25801 5.97606L6.23676 5.99878ZM6.29868 5.9484C6.32869 5.97165 6.35716 5.99593 6.38392 6.02125L6.38866 6.01545L6.30314 5.94236L6.29868 5.9484ZM6.29856 5.9483L6.30302 5.94226C6.33321 5.96565 6.36186 5.99009 6.38881 6.01558L6.38407 6.02139L6.29856 5.9483ZM6.78014 6.50347C6.78031 6.50363 6.78047 6.50379 6.78063 6.50395L6.78625 6.49809C6.78627 6.49811 6.78629 6.49813 6.78631 6.49815L6.78068 6.50403L6.78014 6.50347ZM6.72007 6.4402L6.78014 6.50347C6.76051 6.48392 6.74063 6.46297 6.72007 6.4402ZM6.71966 6.43974C6.71979 6.4399 6.71993 6.44005 6.72007 6.4402L6.71965 6.43975L6.71966 6.43974ZM6.72543 6.43403L6.71966 6.43974C6.71963 6.43972 6.71961 6.43969 6.71958 6.43966L6.72535 6.43396L6.72543 6.43403ZM6.72543 6.43403L6.78625 6.49809L6.78625 6.49809C6.76639 6.47833 6.74626 6.45712 6.72543 6.43403Z" fill="black"/>
<path fill-rule="evenodd" clip-rule="evenodd" d="M5.93755 5.83662L5.93552 5.82987C5.93844 5.83012 5.94137 5.83041 5.9443 5.83073L5.93755 5.83662ZM6.36298 5.81558C6.36905 5.83029 6.36797 5.84714 6.36063 5.86575C6.35396 5.88269 6.34265 5.90022 6.32638 5.92064C6.32032 5.92824 6.31433 5.93536 6.29877 5.94844C6.18909 5.86332 6.07726 5.81089 5.98007 5.79956L5.9443 5.83073C6.14247 5.85253 6.38477 6.03499 6.54692 6.272C6.70366 6.50109 6.87435 6.64598 7.08359 6.76066C7.07479 6.77612 7.07215 6.78982 7.06958 6.82189L7.06952 6.82273L7.06806 6.83882C7.05379 6.96969 6.99543 7.06098 6.91672 7.10055C6.86177 7.12818 6.8067 7.12325 6.78448 7.09257C6.78426 7.08538 6.78364 7.07823 6.78257 7.07046C6.79138 7.11257 6.85162 7.12478 6.91348 7.09368C6.98986 7.05528 7.04674 6.96631 7.06073 6.83798L7.06216 6.82212L7.06223 6.82128C7.06489 6.78806 7.06768 6.77356 7.07874 6.76214C6.86999 6.65232 6.69838 6.50664 6.54091 6.27649C6.37748 6.03761 6.13213 5.85456 5.93483 5.83752L5.9328 5.83076L5.97801 5.79284C6.07935 5.80346 6.19235 5.85645 6.29811 5.94285C6.3088 5.9303 6.31471 5.92327 6.32069 5.91576C6.33653 5.89588 6.34748 5.87892 6.35381 5.86285C6.36486 5.83482 6.3604 5.81249 6.33646 5.7952L6.34062 5.78893C6.34063 5.78894 6.34064 5.78894 6.34064 5.78894L6.33652 5.79515C6.34529 5.80165 6.35411 5.80846 6.36298 5.81558ZM6.7907 6.34879C6.79312 6.37614 6.76779 6.40562 6.71966 6.43928C6.6697 6.38289 6.62177 6.32019 6.57592 6.25066C6.5212 6.16759 6.4553 6.08871 6.38383 6.0158C6.44009 5.95454 6.4649 5.90679 6.43683 5.88067C6.41161 5.85659 6.38709 5.83493 6.36298 5.81558C6.35944 5.807 6.35347 5.79915 6.34488 5.7921C6.37637 5.81576 6.40841 5.84333 6.4416 5.875C6.47473 5.90583 6.4485 5.95632 6.38879 6.01564C6.4605 6.08346 6.52677 6.16278 6.58181 6.24633C6.62746 6.31556 6.67517 6.37798 6.72009 6.43361C6.77546 6.39124 6.79714 6.35749 6.77407 6.32813L6.77968 6.32326C6.77969 6.32327 6.7797 6.32328 6.77971 6.3233L6.77416 6.3281C6.77965 6.3351 6.78516 6.34198 6.7907 6.34879ZM7.28176 6.54167C7.21827 6.55315 7.19159 6.57486 7.16423 6.62457C7.1639 6.62518 7.16348 6.62594 7.163 6.62682C7.15839 6.63531 7.14775 6.65487 7.14536 6.65258C7.1538 6.6581 7.15451 6.66651 7.14897 6.67615C7.14507 6.68293 7.13878 6.68992 7.12742 6.70092L7.12408 6.70414C7.10454 6.72291 7.09837 6.73 7.09802 6.7357L7.09267 6.73882C6.97591 6.67325 6.87331 6.5977 6.7757 6.49297C6.8285 6.45265 6.84842 6.41918 6.82509 6.38954C6.81338 6.37616 6.80197 6.36264 6.7907 6.34879C6.79001 6.34105 6.7871 6.33347 6.78186 6.32603C6.79774 6.34616 6.81375 6.36541 6.83048 6.38454C6.85789 6.41937 6.83581 6.45647 6.78027 6.49334C6.87657 6.59051 6.97735 6.66503 7.09182 6.72975C7.0944 6.7229 7.10171 6.71519 7.11907 6.69852L7.12239 6.69533C7.13323 6.68483 7.13922 6.67817 7.14264 6.67223C7.14632 6.66582 7.14601 6.6621 7.14017 6.65397C7.14053 6.65329 7.14171 6.65106 7.14331 6.64804C7.14768 6.63977 7.1552 6.62555 7.15783 6.62077C7.18906 6.56403 7.22032 6.54183 7.30097 6.53095L7.303 6.5382C7.21371 6.58277 7.19545 6.68179 7.25246 6.71629L7.27487 6.72736L7.27514 6.72749L7.30392 6.7418C7.39134 6.78486 7.429 6.83968 7.42367 6.90617C7.41926 6.96107 7.3866 7.02145 7.32711 7.0955C7.24109 7.20257 7.20688 7.28909 7.15698 7.48229C7.10261 7.69275 7.06474 7.78605 6.96414 7.90523C6.87211 8.01428 6.74554 7.97599 6.73197 7.8746C6.72714 7.83834 6.72994 7.79732 6.7399 7.74019C6.74437 7.71457 6.7626 7.62679 6.77161 7.58343C6.77174 7.58282 6.77186 7.58223 6.77199 7.58164C6.76916 7.59878 6.76852 7.61439 6.76988 7.62818C6.76091 7.67154 6.75039 7.72299 6.74716 7.74154C6.73732 7.79793 6.73458 7.83822 6.73928 7.87352C6.75198 7.96838 6.87084 8.00435 6.95879 7.90014C7.05845 7.78207 7.09595 7.68967 7.15005 7.48026C7.20021 7.28606 7.23475 7.1987 7.32164 7.09054C7.38023 7.01761 7.41227 6.9584 7.41651 6.9055C7.42156 6.84255 7.38581 6.7905 7.30093 6.7487L7.2721 6.73436L7.27183 6.73423L7.24921 6.72305C7.19051 6.68754 7.20358 6.59247 7.28176 6.54167ZM6.77841 7.58705C6.77602 7.59855 6.77305 7.61286 6.76988 7.62818C6.77366 7.66651 6.79295 7.69075 6.824 7.69462C6.87054 7.70044 6.93041 7.65837 6.97872 7.58054C7.01905 7.51559 7.03878 7.45445 7.0678 7.32651C7.08224 7.26286 7.08374 7.25634 7.09033 7.23032C7.05174 7.20739 7.0201 7.17722 7.00196 7.1452C7.00141 7.14422 7.00086 7.14324 7.00033 7.14226C7.00454 7.14143 7.00876 7.13906 7.01289 7.13586C7.01657 7.133 7.02019 7.12947 7.02367 7.12578C7.02973 7.11936 7.03519 7.11268 7.0411 7.10468L7.05202 7.08945C7.06764 7.11182 7.08964 7.13286 7.11184 7.14525C7.14005 7.07775 7.13926 7.0359 7.11413 6.962L7.10724 6.96208C7.09404 7.00381 7.06985 7.05144 7.04337 7.08869C7.04282 7.08946 7.04227 7.09024 7.04171 7.091C7.02786 7.11019 7.01343 7.12647 6.99965 7.13752C6.99812 7.13874 6.99661 7.1399 6.9951 7.14099C6.99507 7.14101 6.99504 7.14103 6.99501 7.14106C6.9027 7.20782 6.77517 7.19811 6.78018 7.1524L6.78194 7.13648C6.78395 7.11907 6.78489 7.10576 6.78448 7.09257C6.77968 7.08593 6.77641 7.07808 6.77501 7.0691L6.7821 7.06791C6.78224 7.06877 6.78239 7.06962 6.78257 7.07046C6.78245 7.06961 6.78233 7.06876 6.7822 7.0679L6.7821 7.06791C6.7821 7.0679 6.7821 7.0679 6.7821 7.06789L6.77491 7.06909C6.77823 7.09156 6.77777 7.10829 6.77461 7.13558L6.77284 7.15162C6.76682 7.20663 6.90187 7.21706 6.99826 7.14794C7.01645 7.18432 7.04829 7.21411 7.08513 7.23281C7.07659 7.25449 7.07508 7.26103 7.06062 7.32477C7.03178 7.45188 7.01225 7.5124 6.97252 7.57639C6.92557 7.65204 6.86803 7.69246 6.82476 7.68706C6.78824 7.6825 6.76979 7.6455 6.77841 7.58705ZM6.77665 7.55949C6.77667 7.5594 6.77669 7.55932 6.77672 7.55924L6.7838 7.56101C6.7833 7.56351 6.78143 7.57248 6.77878 7.58523C6.77866 7.58583 6.77853 7.58644 6.77841 7.58705C6.77962 7.57886 6.78136 7.57024 6.78365 7.56124L6.77665 7.55949ZM6.77665 7.55949C6.7765 7.56007 6.77636 7.56065 6.77622 7.56123C6.77637 7.56047 6.77649 7.55988 6.77657 7.55947L6.77665 7.55949ZM7.05191 7.0893C7.05194 7.08935 7.05198 7.0894 7.05202 7.08945L7.05499 7.0853L7.05465 7.08529L7.0491 7.08515C7.05001 7.08653 7.05095 7.08792 7.05191 7.0893ZM7.05632 7.08282C7.07139 7.10509 7.09314 7.12637 7.11004 7.14057C7.13141 7.07997 7.13177 7.04081 7.11059 6.97491C7.098 7.01084 7.07829 7.04988 7.05632 7.08282ZM7.28176 6.54167C7.28812 6.54052 7.29486 6.53947 7.302 6.53851L7.29997 6.53127C7.29355 6.53447 7.28748 6.53795 7.28176 6.54167ZM6.77622 7.56123C6.77549 7.56478 6.77399 7.57201 6.77199 7.58164C6.77307 7.57506 6.77448 7.56825 6.77622 7.56123ZM6.78186 6.32603C6.78114 6.32512 6.78042 6.32421 6.77971 6.3233L6.77978 6.32323C6.78051 6.32416 6.7812 6.32509 6.78186 6.32603ZM6.34488 5.7921C6.34346 5.79104 6.34205 5.78999 6.34064 5.78894L6.34068 5.78888C6.34215 5.78993 6.34354 5.79101 6.34488 5.7921Z" fill="black"/>
<path fill-rule="evenodd" clip-rule="evenodd" d="M7.312 6.43671L7.2545 6.36371L7.24815 6.36528L7.22718 6.46045L7.1368 6.45957L7.13403 6.46578L7.19229 6.54235L7.1355 6.61544L7.13837 6.62159L7.23186 6.6222L7.25043 6.71433L7.2568 6.71582L7.31546 6.63949L7.39658 6.68119L7.40163 6.67683L7.38042 6.58154L7.46235 6.5413L7.46229 6.53445L7.37794 6.49157L7.39978 6.39986L7.39466 6.3956L7.312 6.43671ZM7.39119 6.40583L7.31265 6.44489L7.30829 6.44387L7.25352 6.37433L7.25534 6.36701L7.24899 6.36858L7.25352 6.37433L7.2309 6.46514L7.14416 6.46706L7.13982 6.46101L7.13706 6.46722L7.14416 6.46706L7.19812 6.54229L7.14568 6.6142L7.13852 6.61394L7.14138 6.62009L7.14568 6.6142L7.23552 6.61747L7.25592 6.70527L7.25123 6.71102L7.2576 6.71252L7.25592 6.70527L7.31423 6.63361L7.39319 6.67114L7.39464 6.67858L7.39968 6.67422L7.39319 6.67114L7.37533 6.579L7.45283 6.53784L7.45922 6.54133L7.45916 6.53448L7.45283 6.53784L7.37289 6.4942L7.39119 6.40583ZM7.39119 6.40583L7.39788 6.40251L7.39276 6.39824L7.39119 6.40583Z" fill="black"/>
<path fill-rule="evenodd" clip-rule="evenodd" d="M7.02928 4.42684C7.22206 4.36811 7.38429 4.20133 7.42158 4.02168L7.42634 4.01889C7.64932 4.10088 7.84836 4.20956 8.03189 4.33994C8.10804 4.39403 8.15349 4.41574 8.28708 4.46987C8.35073 4.49565 8.3882 4.51283 8.42631 4.53564C8.35638 4.33784 8.4021 4.03692 8.53413 3.77398C8.6903 3.46298 8.72192 3.22864 8.70224 2.89013C8.6913 2.70194 8.78504 2.65518 8.98234 2.69225C9.11104 2.71645 9.2029 2.70448 9.37642 2.65635L9.38988 2.65262C9.58666 2.59793 9.68407 2.58576 9.83174 2.61747C9.96768 2.64661 9.99937 2.78092 9.9225 2.84386C9.89337 2.86773 9.85585 2.88635 9.7979 2.90746C9.77966 2.9141 9.72337 2.93298 9.68267 2.94662L9.68266 2.94663L9.68266 2.94663L9.64039 2.96087L9.63428 2.96307C9.64022 2.95927 9.64531 2.95483 9.64956 2.94983L9.68081 2.9393C9.72149 2.92566 9.7776 2.90684 9.79574 2.90023C9.85299 2.87938 9.88988 2.86107 9.91824 2.83783C9.99017 2.77894 9.96041 2.65281 9.83051 2.62496C9.68421 2.59355 9.58774 2.6056 9.39196 2.66001L9.3785 2.66375C9.20403 2.71213 9.11128 2.72422 8.98128 2.69978C8.78795 2.66346 8.69915 2.70775 8.70973 2.88966C8.72949 3.22945 8.69768 3.46511 8.54079 3.77755C8.40739 4.04323 8.36272 4.34781 8.43703 4.54297L8.4318 4.54769C8.39085 4.52232 8.35295 4.50466 8.28468 4.477C8.15058 4.42268 8.10478 4.40079 8.02803 4.34627C7.84606 4.217 7.64881 4.10913 7.42801 4.02753L7.42891 4.02331L7.42415 4.0261L7.42801 4.02753C7.3885 4.20844 7.22528 4.37514 7.03395 4.4318C6.98474 4.57626 7.06295 4.81515 7.19428 4.95609C7.26523 4.99042 7.33895 5.01895 7.41573 5.04223C7.65228 5.11394 7.84601 5.12956 8.23094 5.13051C8.42854 5.131 8.50565 5.1338 8.58806 5.14759C8.71893 5.16947 8.89801 5.06337 8.92088 4.90017C8.92467 4.87307 8.93006 4.84823 8.93794 4.81981C8.94281 4.80222 8.96424 4.73218 8.96217 4.73906C8.97306 4.70274 8.98159 4.67098 8.9899 4.6343C9.01692 4.515 9.03671 4.36092 9.04958 4.13963C9.05454 4.05433 9.05589 4.02054 9.06234 3.83842C9.07042 3.61032 9.07791 3.51766 9.09882 3.45253C9.15336 3.2826 9.19699 3.2063 9.28895 3.16745C9.32572 3.15191 9.3598 3.13325 9.39721 3.1088L9.39837 3.11223L9.40305 3.11384C9.36444 3.13922 9.32938 3.15851 9.29144 3.17454C9.20217 3.21226 9.15938 3.2871 9.1055 3.45497C9.08492 3.51907 9.07744 3.61159 9.06939 3.8387C9.06294 4.02089 9.0616 4.05471 9.05663 4.1401C9.04373 4.3618 9.02389 4.5163 8.99676 4.63607C8.98841 4.67294 8.97983 4.70487 8.9689 4.74136C8.97093 4.73458 8.94955 4.80448 8.94471 4.82194C8.93691 4.85005 8.9316 4.87455 8.92786 4.90128C8.90434 5.06915 8.72124 5.17763 8.5867 5.15514C8.50481 5.14143 8.42788 5.13864 8.2307 5.13815C7.84511 5.1372 7.6509 5.12154 7.41349 5.04957C7.33637 5.02619 7.2623 4.99753 7.18993 4.96224C7.05575 4.81859 6.97659 4.57682 7.02928 4.42684ZM9.41057 3.10885L9.40305 3.11384L9.40385 3.11411C9.40621 3.11243 9.40845 3.11068 9.41057 3.10885ZM9.42801 3.08793C9.42355 3.09568 9.41775 3.10268 9.41057 3.10885C9.42268 3.10075 9.43516 3.09204 9.44822 3.08265L9.48686 3.05432L9.48829 3.05496C9.49383 3.05079 9.49891 3.04651 9.50352 3.04209L9.51873 3.03092C9.54513 3.01178 9.56547 2.99814 9.58516 2.98675C9.59674 2.98006 9.60786 2.97431 9.61873 2.96945L9.62009 2.97022C9.62527 2.96819 9.63 2.9658 9.63428 2.96307C9.62914 2.96499 9.62397 2.96712 9.61873 2.96945L9.6143 2.96695L9.61404 2.96335C9.61672 2.96213 9.61938 2.96097 9.62202 2.95986L9.62209 2.96085C9.62036 2.96169 9.61856 2.96248 9.61669 2.96321L9.62249 2.96648L9.62209 2.96085C9.62448 2.95969 9.62674 2.95843 9.62889 2.95708C9.63205 2.95585 9.63519 2.95469 9.63833 2.95361L9.64956 2.94983C9.68222 2.91134 9.6653 2.83961 9.60839 2.77351L9.60096 2.77613L9.61404 2.96335C9.6036 2.96811 9.59292 2.97366 9.58187 2.98006C9.56381 2.9905 9.54527 3.00278 9.52219 3.01931C9.55314 2.96889 9.53328 2.89872 9.45153 2.77494L9.44493 2.77766L9.48205 3.04868L9.44432 3.07635L9.42801 3.08793ZM9.40535 3.10343C9.41275 3.09849 9.42028 3.09334 9.42801 3.08793C9.46163 3.02944 9.41828 2.92809 9.30441 2.81412L9.29847 2.81817L9.39721 3.1088L9.40353 3.10464L9.40361 3.10487L9.39976 3.10777L9.40523 3.10965L9.40361 3.10487L9.40535 3.10343ZM9.31057 2.83103C9.42813 2.95284 9.461 3.05619 9.40535 3.10343L9.40353 3.10464L9.31057 2.83103ZM9.31057 2.83103L9.29939 2.81964L9.30533 2.81559L9.31057 2.83103ZM9.48875 3.04377L9.48205 3.04868L9.48256 3.0524L9.48686 3.05432L9.49504 3.04832L9.50352 3.04209C9.51101 3.03491 9.51725 3.02736 9.52219 3.01931L9.51481 3.02463L9.4981 3.03691C9.54807 2.98932 9.53938 2.92473 9.45437 2.79279L9.45215 2.77656L9.44555 2.77928L9.45437 2.79279L9.48875 3.04377ZM9.48891 3.04495C9.49216 3.04232 9.49523 3.03964 9.4981 3.03691L9.49101 3.04212L9.48875 3.04377L9.48891 3.04495ZM9.48891 3.04495L9.48405 3.04873L9.48978 3.0513L9.48891 3.04495ZM9.61004 2.78833L9.62202 2.95986C9.62432 2.95889 9.62661 2.95796 9.62889 2.95708C9.67379 2.92861 9.66464 2.85723 9.61004 2.78833ZM9.61004 2.78833L9.60915 2.77566L9.60172 2.77827C9.6046 2.78161 9.60737 2.78497 9.61004 2.78833Z" fill="black"/>
<path fill-rule="evenodd" clip-rule="evenodd" d="M7.30489 4.33154C7.28756 4.32389 7.26939 4.31645 7.25021 4.30918L7.24908 4.30267C7.25376 4.29848 7.25968 4.29289 7.26578 4.28713C7.27415 4.27923 7.28286 4.27101 7.28917 4.26562C7.29869 4.26949 7.30796 4.27341 7.31701 4.27739C7.38749 4.30838 7.41831 4.32705 7.51158 4.38986C7.62341 4.46517 7.70073 4.50045 7.86029 4.53523C8.05004 4.57664 8.29072 4.66612 8.40343 4.73627L8.38733 4.78512C8.27684 4.71952 8.03692 4.6303 7.84797 4.58914C7.68747 4.55415 7.60935 4.5185 7.49678 4.44268C7.4044 4.38047 7.37413 4.36211 7.30489 4.33154ZM7.25395 4.30849L7.25282 4.30199C7.25477 4.30273 7.25671 4.30347 7.25864 4.30421C7.25698 4.30574 7.25541 4.30718 7.25395 4.30849ZM7.29074 4.2717C7.28452 4.2792 7.26982 4.29384 7.25864 4.30421C7.2758 4.31082 7.29216 4.31757 7.30785 4.3245C7.37758 4.35529 7.40812 4.37381 7.50084 4.43625C7.61271 4.51159 7.69002 4.54687 7.84958 4.58166C8.03923 4.62297 8.27986 4.71245 8.38571 4.78089L8.39824 4.7387C8.28797 4.67319 8.04799 4.58397 7.85894 4.54272C7.69845 4.50774 7.62032 4.47209 7.50778 4.3963C7.41486 4.33372 7.38431 4.31522 7.31433 4.28445C7.31384 4.28423 7.31335 4.28401 7.31285 4.2838C7.30435 4.28007 7.29584 4.27633 7.29074 4.2717Z" fill="black"/>
<path fill-rule="evenodd" clip-rule="evenodd" d="M8.77017 3.49263C8.77018 3.49256 8.7702 3.49249 8.77022 3.49242L8.76216 3.49048L8.73783 3.57066L8.73785 3.57068C8.74721 3.54266 8.75525 3.51622 8.76212 3.4907L8.77017 3.49263ZM8.77003 3.49313C8.77008 3.49297 8.77012 3.4928 8.77017 3.49263L8.77018 3.49264L8.77003 3.49313ZM8.74609 3.57204L8.77003 3.49313C8.76322 3.51835 8.75529 3.54444 8.74609 3.57204ZM8.74583 3.57281C8.74591 3.57255 8.746 3.57229 8.74609 3.57204L8.74585 3.57282L8.74583 3.57281ZM7.50011 4.13981C7.47062 4.12833 7.43723 4.11116 7.40487 4.09114L7.40326 4.08664L7.40728 4.0737C7.41297 4.05527 7.41949 4.03416 7.42633 4.01892C7.64931 4.10091 7.84835 4.20959 8.03188 4.33997C8.10803 4.39406 8.15348 4.41578 8.28707 4.4699C8.35569 4.4977 8.39388 4.5155 8.43655 4.54637L8.39086 4.62008C8.33384 4.58502 8.19303 4.5219 8.08862 4.48188C8.08819 4.49269 8.08343 4.50509 8.07463 4.52123L8.06757 4.53365C8.05387 4.55715 8.05117 4.56218 8.04877 4.57038C8.04611 4.57952 8.0477 4.58456 8.05501 4.5874L8.04143 4.5834C8.04011 4.57914 8.04037 4.57402 8.04209 4.56814C8.04475 4.55901 8.04746 4.55396 8.06164 4.52965L8.06859 4.51742C8.07832 4.49958 8.08265 4.4869 8.08144 4.47682L8.08629 4.47275C8.19156 4.51279 8.33639 4.57755 8.38984 4.61483L8.43184 4.54771C8.39089 4.52234 8.353 4.50469 8.28473 4.47703C8.15063 4.4227 8.10483 4.40081 8.02808 4.3463C7.84504 4.21627 7.64655 4.10789 7.42894 4.02343C7.42529 4.03917 7.41778 4.0656 7.41137 4.08611L7.40884 4.08455L7.41045 4.08905L7.41137 4.08611C7.44259 4.10524 7.47469 4.12174 7.50514 4.13731C7.50405 4.14121 7.50269 4.14516 7.50109 4.14918C7.49189 4.17221 7.476 4.19506 7.44968 4.22623L7.42182 4.2588C7.41205 4.27043 7.40542 4.27908 7.40066 4.28663C7.38988 4.30377 7.38982 4.31326 7.40117 4.31905C7.41245 4.32499 7.44252 4.34403 7.47511 4.36537C7.4752 4.37125 7.47761 4.37593 7.48263 4.37933L7.48255 4.37946C7.44598 4.35535 7.40993 4.33237 7.39767 4.3259C7.38135 4.31758 7.38144 4.30287 7.39431 4.28242C7.39929 4.2745 7.40611 4.26563 7.41608 4.25375L7.44396 4.22116C7.46978 4.19058 7.48529 4.16827 7.4941 4.14622L7.49433 4.14564C7.49574 4.14209 7.49703 4.13882 7.50011 4.13981ZM7.48505 4.3719L7.47511 4.36537C7.47499 4.35753 7.479 4.34756 7.48645 4.33564C7.49604 4.3203 7.50939 4.30382 7.53481 4.27475L7.53808 4.27102C7.58508 4.21737 7.59939 4.19845 7.59902 4.18563L7.6038 4.18189C7.66257 4.2023 7.71746 4.2318 7.78873 4.27792L7.79129 4.27961L7.79129 4.27961C7.80563 4.28907 7.87567 4.3353 7.89563 4.34756C7.93315 4.37062 7.96238 4.38508 7.99152 4.39738C7.98834 4.41012 7.98237 4.42406 7.97357 4.44031C7.96909 4.44857 7.96413 4.45702 7.95738 4.46804L7.95703 4.46861C7.93504 4.50451 7.93067 4.51165 7.92746 4.51928L7.92492 4.52582C7.91899 4.54157 7.9212 4.54943 7.93332 4.55261C7.9467 4.55567 7.96889 4.56194 8.00598 4.5729L8.00881 4.57374L8.03405 4.58122L8.04143 4.5834C8.04313 4.58891 8.04747 4.59295 8.0547 4.59524L8.05467 4.59532L8.0318 4.58859L8.00656 4.5811L8.00373 4.58027C7.9668 4.56935 7.94467 4.5631 7.93139 4.56006C7.91415 4.55555 7.91051 4.54257 7.91787 4.52301L7.92064 4.51588C7.92395 4.50804 7.92844 4.5007 7.95045 4.46477L7.95098 4.46391C7.95766 4.453 7.96256 4.44466 7.96696 4.43653C7.97001 4.43091 7.9727 4.42558 7.97516 4.42072C7.97956 4.41201 7.98319 4.40481 7.98676 4.4001C7.95944 4.39224 7.9297 4.37753 7.89167 4.35417C7.8715 4.34177 7.80069 4.29503 7.78695 4.28596L7.78463 4.28443C7.7156 4.23976 7.66214 4.21084 7.60566 4.19071C7.60316 4.20577 7.58767 4.22539 7.54316 4.2762L7.5399 4.27993C7.51476 4.30868 7.50156 4.32497 7.49226 4.33984C7.48194 4.35635 7.4797 4.36677 7.48505 4.3719ZM7.48505 4.3719L7.48643 4.373L7.48263 4.37933L7.48282 4.37946L7.4867 4.37299L7.48505 4.3719ZM8.0547 4.59524L8.05668 4.58797L8.05501 4.5874L8.0569 4.58795L8.05489 4.5953L8.0547 4.59524ZM9.04285 4.34928C9.04811 4.303 8.99424 4.27074 8.89409 4.25002C8.81401 4.23345 8.7066 4.22498 8.5927 4.22402L8.59176 4.23155L9.03832 4.35253L9.04285 4.34928ZM9.03589 4.34397L9.04014 4.34512L9.03561 4.34837L9.03589 4.34397ZM8.62296 4.23211C8.72507 4.2342 8.82025 4.24253 8.89268 4.25752C8.98564 4.27676 9.03639 4.30581 9.03589 4.34397L8.62296 4.23211ZM8.62296 4.23211L8.59264 4.23167L8.59357 4.22414L8.62296 4.23211ZM8.57145 4.08727L8.5715 4.08704L8.57149 4.08704L8.57152 4.08685L8.56333 4.08545C8.55473 4.12255 8.54806 4.16079 8.5432 4.20006L8.55146 4.2011L8.55149 4.20093L8.5515 4.20093L8.55153 4.20067L8.57145 4.08727ZM8.57145 4.08727C8.56295 4.12398 8.55635 4.16181 8.55153 4.20067L8.55149 4.20093L8.54325 4.19989L8.56331 4.08564L8.57149 4.08704L8.57145 4.08727Z" fill="black"/>
<path fill-rule="evenodd" clip-rule="evenodd" d="M8.69995 3.81661C8.58459 4.08465 8.55626 4.39931 8.64085 4.58722L8.6363 4.59244L8.5824 4.57037C8.54052 4.47281 8.52774 4.34358 8.54614 4.20422L8.52772 4.20026C8.51258 4.19707 8.50069 4.195 8.48912 4.19375C8.43742 4.18813 8.40831 4.2014 8.40515 4.24322L8.40515 4.24322C8.40614 4.23185 8.40737 4.22028 8.40884 4.20849C8.42329 4.18811 8.45116 4.18194 8.48987 4.18614C8.50171 4.18743 8.5138 4.18954 8.52915 4.19276C8.53334 4.19365 8.54649 4.1965 8.55047 4.20091C8.53511 4.34318 8.54775 4.47107 8.58697 4.56521L8.63059 4.58209C8.63179 4.58492 8.63302 4.58772 8.63426 4.59049L8.63882 4.58527L8.63059 4.58209C8.54947 4.39101 8.57885 4.07943 8.69331 3.81346C8.80391 3.55634 8.83807 3.32862 8.82799 3.08118C8.84484 3.08149 8.85778 3.077 8.88422 3.06396L8.88548 3.06334L8.90028 3.05624C9.01534 3.0038 9.11981 3.01122 9.1918 3.063C9.24182 3.09898 9.26529 3.15118 9.25148 3.18671C9.24525 3.19074 9.23973 3.19513 9.23207 3.2016L9.23207 3.2016L9.23666 3.20754C9.24351 3.20166 9.24842 3.19459 9.25148 3.18671C9.26136 3.18032 9.27305 3.17485 9.29796 3.16351L9.3028 3.16126C9.34301 3.14285 9.28725 3.02204 9.18595 2.97151C9.14012 2.94863 9.04799 2.94479 8.98227 2.95896L8.97876 2.95274C9.02725 2.89289 9.06131 2.8713 9.1311 2.86322C9.13199 2.88963 9.12564 2.92017 9.11497 2.9455L9.11004 2.94488L9.11015 2.9451L9.11286 2.95032C9.11357 2.94877 9.11425 2.9472 9.11493 2.94561C9.11494 2.94557 9.11496 2.94554 9.11497 2.9455L9.11759 2.94583C9.13829 2.94833 9.15194 2.95056 9.1636 2.9549C9.17089 2.95762 9.17741 2.96117 9.18438 2.96612C9.18493 2.96514 9.18548 2.96414 9.18601 2.96313C9.20334 2.93057 9.2124 2.88676 9.21203 2.84021C9.23127 2.83477 9.2501 2.82907 9.27702 2.82066C9.36269 2.7939 9.37738 2.78953 9.41384 2.7811C9.46581 2.76909 9.51149 2.76407 9.55668 2.76663C9.64504 2.77164 9.70969 2.80505 9.72818 2.85027C9.7405 2.8804 9.73021 2.91 9.70061 2.93259C9.6937 2.93491 9.68697 2.93717 9.68061 2.9393C9.67372 2.94161 9.66727 2.94377 9.66153 2.9457C9.71455 2.92436 9.73607 2.88893 9.7215 2.85328C9.70431 2.81124 9.64218 2.77913 9.5563 2.77426C9.51182 2.77174 9.46679 2.77669 9.41541 2.78857C9.3792 2.79694 9.36456 2.8013 9.2791 2.82799C9.25213 2.83641 9.23324 2.84213 9.21661 2.84362C9.2196 2.88649 9.21095 2.93031 9.19004 2.96509M9.10728 2.94483C9.11814 2.92006 9.12482 2.88963 9.12807 2.86712C9.06739 2.87797 9.03497 2.89718 8.99113 2.94943C9.02708 2.94291 9.06914 2.94131 9.10728 2.94483ZM9.66357 2.95304C9.67809 2.94722 9.69048 2.94031 9.70061 2.93259C9.73789 2.92007 9.78022 2.90581 9.79553 2.90023C9.85279 2.87938 9.88968 2.86107 9.91804 2.83783C9.98996 2.77894 9.9602 2.65281 9.8303 2.62496C9.68401 2.59355 9.58753 2.6056 9.39176 2.66001L9.37829 2.66375C9.20382 2.71213 9.11107 2.72422 8.98107 2.69978C8.89162 2.68297 8.82676 2.68345 8.78102 2.70605C8.72657 2.73294 8.70153 2.79147 8.70951 2.88957L8.71194 2.92142L8.71206 2.92301L8.71419 2.94941C8.71419 3.02053 8.62937 3.05614 8.54845 3.01054C8.54425 3.0053 8.53997 2.99967 8.5356 2.99364L8.53063 2.9991C8.53653 3.00337 8.54248 3.00717 8.54845 3.01054C8.57234 3.04037 8.59371 3.05777 8.61602 3.06681C8.63695 3.07529 8.65286 3.07655 8.69703 3.07567C8.70415 3.07554 8.70734 3.07548 8.70796 3.07912C8.70831 3.06823 8.71537 3.06347 8.72682 3.06404C8.73472 3.06444 8.74345 3.06676 8.75977 3.07216L8.76192 3.07287C8.78623 3.08095 8.79535 3.08303 8.80016 3.08054L8.80541 3.08384C8.80975 3.22258 8.79872 3.35383 8.76115 3.49498C8.70135 3.46718 8.66396 3.4658 8.65111 3.50181C8.64585 3.51935 8.64042 3.53645 8.63471 3.55342C8.62806 3.55836 8.62293 3.56566 8.61934 3.57547C8.62824 3.55043 8.63638 3.52547 8.64423 3.49932C8.65932 3.45702 8.70077 3.45854 8.75909 3.49057C8.7911 3.35437 8.80219 3.2253 8.79828 3.08905C8.79134 3.0901 8.7813 3.08733 8.75973 3.08016L8.75759 3.07945C8.74191 3.07426 8.73351 3.07203 8.72648 3.07168C8.71864 3.07129 8.71543 3.07345 8.71164 3.08308L8.69717 3.08332C8.65205 3.08421 8.63552 3.0829 8.6134 3.07394C8.58575 3.06273 8.55982 3.03966 8.52981 2.99827L8.53477 2.9928C8.61616 3.05174 8.70691 3.01887 8.70693 2.94976L8.70481 2.9236L8.70469 2.92201L8.70226 2.89022C8.69405 2.78919 8.72042 2.72753 8.77792 2.69913C8.8254 2.67568 8.89153 2.67519 8.98236 2.69225C9.11106 2.71645 9.20292 2.70448 9.37644 2.65635L9.3899 2.65262C9.58668 2.59793 9.68409 2.58576 9.83177 2.61747C9.9677 2.64661 9.99939 2.78092 9.92252 2.84386C9.89339 2.86773 9.85587 2.88635 9.79792 2.90746C9.77968 2.9141 9.72339 2.93298 9.68269 2.94663C9.67578 2.94894 9.66932 2.95111 9.66357 2.95304ZM8.62594 3.57875C8.62894 3.57031 8.63186 3.56188 8.63471 3.55342C8.65605 3.53756 8.69302 3.54587 8.74484 3.57279C8.72333 3.64644 8.69559 3.72141 8.66118 3.79783C8.62002 3.88905 8.58793 3.98839 8.56351 4.08994C8.48498 4.06937 8.43304 4.07069 8.42552 4.1093C8.41832 4.14421 8.41274 4.17713 8.40884 4.20849C8.40311 4.21657 8.39949 4.22688 8.39815 4.23967C8.40187 4.19857 8.40867 4.15492 8.4184 4.10772C8.42728 4.06215 8.48219 4.06076 8.56083 4.08543C8.58093 3.98622 8.61321 3.88631 8.6546 3.79456C8.68886 3.71847 8.71648 3.64384 8.73989 3.57516C8.67728 3.54601 8.63861 3.54314 8.62594 3.57876L8.62594 3.57875ZM8.62594 3.57875C8.62594 3.57876 8.62594 3.57876 8.62594 3.57876L8.61912 3.57608C8.61919 3.57588 8.61926 3.57567 8.61934 3.57547C8.61927 3.57567 8.61919 3.57588 8.61912 3.57608L8.62594 3.57875ZM9.66357 2.95304C9.65631 2.95595 9.64852 2.95859 9.64021 2.96093L9.63813 2.95361C9.64219 2.9522 9.65058 2.94937 9.66153 2.9457C9.65437 2.94858 9.64663 2.95121 9.63833 2.95354L9.64041 2.96087C9.64442 2.95948 9.65273 2.95668 9.66357 2.95304ZM8.39815 4.23967C8.39807 4.24064 8.39798 4.24161 8.3979 4.24257L8.40515 4.24322C8.40515 4.24324 8.40514 4.24326 8.40514 4.24327L8.39789 4.24262C8.39796 4.24162 8.39805 4.24064 8.39815 4.23967Z" fill="black"/>
</g>
</svg>
