<svg width="14" height="10" viewBox="0 0 14 10" fill="none" xmlns="http://www.w3.org/2000/svg">
<rect x="0.25" y="0.25" width="13.5" height="9.5" rx="1.75" fill="white" stroke="#F5F5F5" stroke-width="0.5"/>
<mask id="mask0_142:98" style="mask-type:alpha" maskUnits="userSpaceOnUse" x="0" y="0" width="14" height="10">
<rect x="0.25" y="0.25" width="13.5" height="9.5" rx="1.75" fill="white" stroke="white" stroke-width="0.5"/>
</mask>
<g mask="url(#mask0_142:98)">
<path fill-rule="evenodd" clip-rule="evenodd" d="M0 3.33333H14V0H0V3.33333Z" fill="#38BB56"/>
<path fill-rule="evenodd" clip-rule="evenodd" d="M0 10H14V6.66669H0V10Z" fill="#DE1B27"/>
<path fill-rule="evenodd" clip-rule="evenodd" d="M0.99999 2.66669C0.815895 2.66669 0.666656 2.81593 0.666656 3.00002C0.666656 3.18412 0.815895 3.33335 0.99999 3.33335C1.18408 3.33335 1.33332 3.18412 1.33332 3.00002C1.33332 2.81593 1.18408 2.66669 0.99999 2.66669ZM2.33332 2.66669C2.14922 2.66669 1.99998 2.81593 1.99998 3.00002C1.99998 3.18412 2.14922 3.33335 2.33332 3.33335C2.51741 3.33335 2.66665 3.18412 2.66665 3.00002C2.66665 2.81593 2.51741 2.66669 2.33332 2.66669ZM3.33333 3.00002C3.33333 2.81593 3.48256 2.66669 3.66666 2.66669C3.85075 2.66669 3.99999 2.81593 3.99999 3.00002C3.99999 3.18412 3.85075 3.33335 3.66666 3.33335C3.48256 3.33335 3.33333 3.18412 3.33333 3.00002ZM4.99999 2.66669C4.81589 2.66669 4.66665 2.81593 4.66665 3.00002C4.66665 3.18412 4.81589 3.33335 4.99999 3.33335C5.18408 3.33335 5.33332 3.18412 5.33332 3.00002C5.33332 2.81593 5.18408 2.66669 4.99999 2.66669ZM5.99999 3.00002C5.99999 2.81593 6.14923 2.66669 6.33333 2.66669C6.51742 2.66669 6.66666 2.81593 6.66666 3.00002C6.66666 3.18412 6.51742 3.33335 6.33333 3.33335C6.14923 3.33335 5.99999 3.18412 5.99999 3.00002ZM7.66665 2.66669C7.48256 2.66669 7.33332 2.81593 7.33332 3.00002C7.33332 3.18412 7.48256 3.33335 7.66665 3.33335C7.85075 3.33335 7.99999 3.18412 7.99999 3.00002C7.99999 2.81593 7.85075 2.66669 7.66665 2.66669ZM8.66666 3.00002C8.66666 2.81593 8.8159 2.66669 9 2.66669C9.18409 2.66669 9.33333 2.81593 9.33333 3.00002C9.33333 3.18411 9.18409 3.33335 9 3.33335C8.8159 3.33335 8.66666 3.18411 8.66666 3.00002ZM10.3333 2.66669C10.1492 2.66669 9.99999 2.81593 9.99999 3.00002C9.99999 3.18411 10.1492 3.33335 10.3333 3.33335C10.5174 3.33335 10.6667 3.18411 10.6667 3.00002C10.6667 2.81593 10.5174 2.66669 10.3333 2.66669ZM11.3333 3.00002C11.3333 2.81593 11.4826 2.66669 11.6667 2.66669C11.8507 2.66669 12 2.81593 12 3.00002C12 3.18412 11.8507 3.33335 11.6667 3.33335C11.4826 3.33335 11.3333 3.18412 11.3333 3.00002ZM13 2.66669C12.8159 2.66669 12.6667 2.81593 12.6667 3.00002C12.6667 3.18412 12.8159 3.33335 13 3.33335C13.1841 3.33335 13.3333 3.18412 13.3333 3.00002C13.3333 2.81593 13.1841 2.66669 13 2.66669ZM0.666656 7.00002C0.666656 6.81593 0.815895 6.66669 0.99999 6.66669C1.18408 6.66669 1.33332 6.81593 1.33332 7.00002C1.33332 7.18411 1.18408 7.33335 0.99999 7.33335C0.815895 7.33335 0.666656 7.18411 0.666656 7.00002ZM2.33332 6.66669C2.14922 6.66669 1.99998 6.81593 1.99998 7.00002C1.99998 7.18411 2.14922 7.33335 2.33332 7.33335C2.51741 7.33335 2.66665 7.18411 2.66665 7.00002C2.66665 6.81593 2.51741 6.66669 2.33332 6.66669ZM3.33333 7.00002C3.33333 6.81593 3.48256 6.66669 3.66666 6.66669C3.85075 6.66669 3.99999 6.81593 3.99999 7.00002C3.99999 7.18411 3.85075 7.33335 3.66666 7.33335C3.48256 7.33335 3.33333 7.18411 3.33333 7.00002ZM4.99999 6.66669C4.81589 6.66669 4.66665 6.81593 4.66665 7.00002C4.66665 7.18411 4.81589 7.33335 4.99999 7.33335C5.18408 7.33335 5.33332 7.18411 5.33332 7.00002C5.33332 6.81593 5.18408 6.66669 4.99999 6.66669ZM5.99999 7.00002C5.99999 6.81593 6.14923 6.66669 6.33333 6.66669C6.51742 6.66669 6.66666 6.81593 6.66666 7.00002C6.66666 7.18411 6.51742 7.33335 6.33333 7.33335C6.14923 7.33335 5.99999 7.18411 5.99999 7.00002ZM7.66665 6.66669C7.48256 6.66669 7.33332 6.81593 7.33332 7.00002C7.33332 7.18411 7.48256 7.33335 7.66665 7.33335C7.85075 7.33335 7.99999 7.18411 7.99999 7.00002C7.99999 6.81593 7.85075 6.66669 7.66665 6.66669ZM8.66666 7.00002C8.66666 6.81593 8.8159 6.66669 9 6.66669C9.18409 6.66669 9.33333 6.81593 9.33333 7.00002C9.33333 7.18411 9.18409 7.33335 9 7.33335C8.8159 7.33335 8.66666 7.18411 8.66666 7.00002ZM10.3333 6.66669C10.1492 6.66669 9.99999 6.81593 9.99999 7.00002C9.99999 7.18411 10.1492 7.33335 10.3333 7.33335C10.5174 7.33335 10.6667 7.18411 10.6667 7.00002C10.6667 6.81593 10.5174 6.66669 10.3333 6.66669ZM11.3333 7.00002C11.3333 6.81593 11.4826 6.66669 11.6667 6.66669C11.8507 6.66669 12 6.81593 12 7.00002C12 7.18411 11.8507 7.33335 11.6667 7.33335C11.4826 7.33335 11.3333 7.18411 11.3333 7.00002ZM13 6.66669C12.8159 6.66669 12.6667 6.81593 12.6667 7.00002C12.6667 7.18411 12.8159 7.33335 13 7.33335C13.1841 7.33335 13.3333 7.18411 13.3333 7.00002C13.3333 6.81593 13.1841 6.66669 13 6.66669Z" fill="white" fill-opacity="0.5"/>
<mask id="path-6-inside-1_142:98" fill="white">
<path fill-rule="evenodd" clip-rule="evenodd" d="M6.32676 4.26056C6.12599 4.44346 6 4.70701 6 4.99999C6 5.55227 6.44772 5.99999 7 5.99999V5.99999C7.55228 5.99999 8 5.55227 8 4.99999C8 4.71254 7.87872 4.45341 7.68453 4.271"/>
</mask>
<path d="M5.87779 3.76774C5.5442 4.07164 5.33333 4.51166 5.33333 4.99999H6.66667C6.66667 4.90235 6.70779 4.81527 6.77572 4.75338L5.87779 3.76774ZM5.33333 4.99999C5.33333 5.92046 6.07953 6.66665 7 6.66665V5.33332C6.8159 5.33332 6.66667 5.18408 6.66667 4.99999H5.33333ZM7 6.66665C7.92047 6.66665 8.66667 5.92046 8.66667 4.99999H7.33333C7.33333 5.18408 7.1841 5.33332 7 5.33332V6.66665ZM8.66667 4.99999C8.66667 4.52095 8.4637 4.08826 8.14098 3.7851L7.22808 4.7569C7.29373 4.81857 7.33333 4.90413 7.33333 4.99999H8.66667Z" fill="#D80915" mask="url(#path-6-inside-1_142:98)"/>
<rect x="6.66666" y="4.66669" width="0.666667" height="1.33333" rx="0.333333" fill="#D80915"/>
</g>
</svg>
