<svg width="14" height="10" viewBox="0 0 14 10" fill="none" xmlns="http://www.w3.org/2000/svg">
<rect width="14" height="10" rx="2" fill="white"/>
<mask id="mask0_142:126" style="mask-type:alpha" maskUnits="userSpaceOnUse" x="0" y="0" width="14" height="10">
<rect width="14" height="10" rx="2" fill="white"/>
</mask>
<g mask="url(#mask0_142:126)">
<path fill-rule="evenodd" clip-rule="evenodd" d="M0 2.66667H14V0H0V2.66667Z" fill="#262626"/>
<path fill-rule="evenodd" clip-rule="evenodd" d="M0 9.99998H14V7.33331H0V9.99998Z" fill="#018301"/>
<path fill-rule="evenodd" clip-rule="evenodd" d="M0 7.33335H14V2.66669H0V7.33335Z" fill="white"/>
<path fill-rule="evenodd" clip-rule="evenodd" d="M0 6.66665H14V3.33331H0V6.66665Z" fill="#DC0808"/>
<path fill-rule="evenodd" clip-rule="evenodd" d="M7.00001 8.33335C7.66668 8.33335 8.66668 7.02506 8.66668 5.00002C8.66668 2.97498 7.66668 1.66669 7.00001 1.66669C6.33334 1.66669 5.33334 2.97498 5.33334 5.00002C5.33334 7.02506 6.33334 8.33335 7.00001 8.33335Z" fill="#BC0000"/>
<mask id="mask1_142:126" style="mask-type:alpha" maskUnits="userSpaceOnUse" x="5" y="1" width="4" height="8">
<path fill-rule="evenodd" clip-rule="evenodd" d="M7.00001 8.33335C7.66668 8.33335 8.66668 7.02506 8.66668 5.00002C8.66668 2.97498 7.66668 1.66669 7.00001 1.66669C6.33334 1.66669 5.33334 2.97498 5.33334 5.00002C5.33334 7.02506 6.33334 8.33335 7.00001 8.33335Z" fill="white"/>
</mask>
<g mask="url(#mask1_142:126)">
<path fill-rule="evenodd" clip-rule="evenodd" d="M4.33335 8.66671C5.25383 8.66671 6.00002 7.02508 6.00002 5.00004C6.00002 2.975 5.25383 1.33337 4.33335 1.33337C3.41288 1.33337 2.66669 2.975 2.66669 5.00004C2.66669 7.02508 3.41288 8.66671 4.33335 8.66671Z" fill="#262626"/>
<path fill-rule="evenodd" clip-rule="evenodd" d="M9.66667 8.66671C10.5871 8.66671 11.3333 7.02508 11.3333 5.00004C11.3333 2.975 10.5871 1.33337 9.66667 1.33337C8.74619 1.33337 8 2.975 8 5.00004C8 7.02508 8.74619 8.66671 9.66667 8.66671Z" fill="#262626"/>
<g filter="url(#filter0_d_142:126)">
<path fill-rule="evenodd" clip-rule="evenodd" d="M6.99999 4.00004C7.18408 4.00004 7.33332 3.40309 7.33332 2.66671C7.33332 1.93033 7.18408 1.33337 6.99999 1.33337C6.81589 1.33337 6.66666 1.93033 6.66666 2.66671C6.66666 3.40309 6.81589 4.00004 6.99999 4.00004ZM6.99999 6.00005C7.18408 6.00005 7.33332 5.55234 7.33332 5.00005C7.33332 4.44777 7.18408 4.00005 6.99999 4.00005C6.81589 4.00005 6.66666 4.44777 6.66666 5.00005C6.66666 5.55234 6.81589 6.00005 6.99999 6.00005ZM6.99999 6.00005C6.81589 6.00005 6.66666 6.597 6.66666 7.33338C6.66666 8.06976 6.81589 8.66672 6.99999 8.66672C7.18408 8.66672 7.33332 8.06976 7.33332 7.33338C7.33332 6.597 7.18408 6.00005 6.99999 6.00005Z" fill="url(#paint0_linear_142:126)"/>
</g>
</g>
</g>
<defs>
<filter id="filter0_d_142:126" x="6.66666" y="1.33337" width="0.666656" height="8.33337" filterUnits="userSpaceOnUse" color-interpolation-filters="sRGB">
<feFlood flood-opacity="0" result="BackgroundImageFix"/>
<feColorMatrix in="SourceAlpha" type="matrix" values="0 0 0 0 0 0 0 0 0 0 0 0 0 0 0 0 0 0 127 0" result="hardAlpha"/>
<feOffset dy="1"/>
<feColorMatrix type="matrix" values="0 0 0 0 0 0 0 0 0 0 0 0 0 0 0 0 0 0 0.06 0"/>
<feBlend mode="normal" in2="BackgroundImageFix" result="effect1_dropShadow_142:126"/>
<feBlend mode="normal" in="SourceGraphic" in2="effect1_dropShadow_142:126" result="shape"/>
</filter>
<linearGradient id="paint0_linear_142:126" x1="6.66666" y1="1.33337" x2="6.66666" y2="8.66671" gradientUnits="userSpaceOnUse">
<stop stop-color="white"/>
<stop offset="1" stop-color="#F0F0F0"/>
</linearGradient>
</defs>
</svg>
