<svg width="14" height="10" viewBox="0 0 14 10" fill="none" xmlns="http://www.w3.org/2000/svg">
<rect width="14" height="10" rx="2" fill="white"/>
<mask id="mask0_142:81" style="mask-type:alpha" maskUnits="userSpaceOnUse" x="0" y="0" width="14" height="10">
<rect width="14" height="10" rx="2" fill="white"/>
</mask>
<g mask="url(#mask0_142:81)">
<rect width="14" height="10" fill="#F22A46"/>
<path fill-rule="evenodd" clip-rule="evenodd" d="M7.00001 6.66665C7.92049 6.66665 8.66668 5.92045 8.66668 4.99998C8.66668 4.0795 7.92049 3.33331 7.00001 3.33331C6.07954 3.33331 5.33334 4.0795 5.33334 4.99998C5.33334 5.92045 6.07954 6.66665 7.00001 6.66665Z" fill="#FFF04D"/>
<path fill-rule="evenodd" clip-rule="evenodd" d="M6.1841 8.57476L7.00001 7.35684L7.81592 8.57476L8.02259 7.12344L9.28614 7.86674L8.84264 6.46947L10.3036 6.59094L9.29773 5.52447L10.6667 5.00003L9.29773 4.47559L10.3036 3.40912L8.84264 3.53058L9.28614 2.13331L8.02259 2.87662L7.81592 1.42529L7.00001 2.64322L6.1841 1.42529L5.97743 2.87662L4.71388 2.13331L5.15738 3.53058L3.69646 3.40912L4.70229 4.47559L3.33334 5.00003L4.70229 5.52447L3.69646 6.59094L5.15738 6.46947L4.71388 7.86674L5.97743 7.12344L6.1841 8.57476ZM9.33334 5.00005C9.33334 6.28871 8.28867 7.33338 7 7.33338C5.71134 7.33338 4.66667 6.28871 4.66667 5.00005C4.66667 3.71138 5.71134 2.66672 7 2.66672C8.28867 2.66672 9.33334 3.71138 9.33334 5.00005Z" fill="#FFF04D"/>
</g>
</svg>
