<svg width="14" height="10" viewBox="0 0 14 10" fill="none" xmlns="http://www.w3.org/2000/svg">
<rect x="0.25" y="0.25" width="13.5" height="9.5" rx="1.75" fill="white" stroke="#F5F5F5" stroke-width="0.5"/>
<mask id="mask0_142:190" style="mask-type:alpha" maskUnits="userSpaceOnUse" x="0" y="0" width="14" height="10">
<rect x="0.25" y="0.25" width="13.5" height="9.5" rx="1.75" fill="white" stroke="white" stroke-width="0.5"/>
</mask>
<g mask="url(#mask0_142:190)">
<path fill-rule="evenodd" clip-rule="evenodd" d="M6.99999 7.33335C8.28865 7.33335 9.33332 6.28868 9.33332 5.00002C9.33332 3.71136 8.28865 2.66669 6.99999 2.66669C5.71133 2.66669 4.66666 3.71136 4.66666 5.00002C4.66666 6.28868 5.71133 7.33335 6.99999 7.33335Z" fill="#E01B41"/>
<mask id="mask1_142:190" style="mask-type:alpha" maskUnits="userSpaceOnUse" x="4" y="2" width="6" height="6">
<path fill-rule="evenodd" clip-rule="evenodd" d="M6.99999 7.33335C8.28865 7.33335 9.33332 6.28868 9.33332 5.00002C9.33332 3.71136 8.28865 2.66669 6.99999 2.66669C5.71133 2.66669 4.66666 3.71136 4.66666 5.00002C4.66666 6.28868 5.71133 7.33335 6.99999 7.33335Z" fill="white"/>
</mask>
<g mask="url(#mask1_142:190)">
<path fill-rule="evenodd" clip-rule="evenodd" d="M4.66666 5.33337C5.33332 5.95837 6.33332 6.33337 6.99999 5.33337C7.66666 4.33337 8.99999 4.33337 9.33332 5.33337C9.66666 6.33337 9.33332 7.33337 9.33332 7.33337H4.66666C4.66666 7.33337 3.99999 4.70837 4.66666 5.33337Z" fill="#0E4B9C"/>
</g>
<path opacity="0.75" fill-rule="evenodd" clip-rule="evenodd" d="M10.5414 1.80063C10.382 1.89268 10.3274 2.09655 10.4194 2.25598L11.0861 3.41068C11.1781 3.57011 11.382 3.62473 11.5414 3.53269C11.7009 3.44064 11.7555 3.23677 11.6634 3.07734L10.9968 1.92264C10.9047 1.76321 10.7009 1.70859 10.5414 1.80063ZM9.67541 2.30063C9.51598 2.39268 9.46136 2.59655 9.55341 2.75598L10.2201 3.91068C10.3121 4.07011 10.516 4.12473 10.6754 4.03269C10.8348 3.94064 10.8895 3.73677 10.7974 3.57734L10.1308 2.42264C10.0387 2.26321 9.83485 2.20859 9.67541 2.30063ZM2.33653 6.92265C2.24448 6.76322 2.29911 6.55936 2.45854 6.46731C2.61797 6.37526 2.82183 6.42989 2.91388 6.58932L3.58055 7.74402C3.6726 7.90345 3.61797 8.10731 3.45854 8.19936C3.29911 8.29141 3.09525 8.23678 3.0032 8.07735L2.33653 6.92265ZM3.32456 5.96731C3.16513 6.05936 3.11051 6.26322 3.20255 6.42265L3.86922 7.57735C3.96127 7.73678 4.16513 7.79141 4.32456 7.69936C4.48399 7.60731 4.53862 7.40345 4.44657 7.24402L3.7799 6.08932C3.68786 5.92989 3.48399 5.87526 3.32456 5.96731ZM10.2201 6.0893C10.3121 5.92987 10.516 5.87524 10.6754 5.96729C10.8349 6.05934 10.8895 6.2632 10.7974 6.42263L10.1308 7.57733C10.0387 7.73676 9.83485 7.79139 9.67542 7.69934C9.51599 7.60729 9.46136 7.40343 9.55341 7.244L10.2201 6.0893ZM11.5414 6.46729C11.382 6.37524 11.1781 6.42987 11.0861 6.5893L10.4194 7.744C10.3274 7.90343 10.382 8.1073 10.5414 8.19934C10.7009 8.29139 10.9047 8.23677 10.9968 8.07733L11.6634 6.92263C11.7555 6.7632 11.7009 6.55934 11.5414 6.46729ZM3.00319 1.92265C3.09524 1.76322 3.2991 1.7086 3.45853 1.80064C3.61796 1.89269 3.67259 2.09656 3.58054 2.25599L2.91387 3.41069C2.82183 3.57012 2.61796 3.62474 2.45853 3.5327C2.2991 3.44065 2.24448 3.23678 2.33652 3.07735L3.00319 1.92265ZM4.32457 2.30064C4.16514 2.2086 3.96127 2.26322 3.86923 2.42265L3.20256 3.57735C3.11051 3.73678 3.16514 3.94065 3.32457 4.0327C3.484 4.12474 3.68786 4.07012 3.77991 3.91069L4.44658 2.75599C4.53862 2.59656 4.484 2.39269 4.32457 2.30064Z" fill="#262626"/>
</g>
</svg>
