<svg width="14" height="10" viewBox="0 0 14 10" fill="none" xmlns="http://www.w3.org/2000/svg">
<rect width="14" height="10" rx="2" fill="white"/>
<mask id="mask0_142:85" style="mask-type:alpha" maskUnits="userSpaceOnUse" x="0" y="0" width="14" height="10">
<rect width="14" height="10" rx="2" fill="white"/>
</mask>
<g mask="url(#mask0_142:85)">
<rect width="14" height="10" fill="#30C6E0"/>
<path fill-rule="evenodd" clip-rule="evenodd" d="M7 7C8.10457 7 9 6.10457 9 5C9 3.89543 8.10457 3 7 3C5.89543 3 5 3.89543 5 5C5 6.10457 5.89543 7 7 7Z" fill="#FFCD4B"/>
<path fill-rule="evenodd" clip-rule="evenodd" d="M6.18409 8.57476L7 7.35684L7.81591 8.57476L8.02258 7.12344L9.28612 7.86674L8.84262 6.46947L10.3035 6.59094L9.29771 5.52447L10.6667 5.00003L9.29771 4.47559L10.3035 3.40912L8.84262 3.53058L9.28612 2.13331L8.02258 2.87662L7.81591 1.42529L7 2.64322L6.18409 1.42529L5.97742 2.87662L4.71387 2.13331L5.15737 3.53058L3.69644 3.40912L4.70228 4.47559L3.33333 5.00003L4.70228 5.52447L3.69644 6.59094L5.15737 6.46947L4.71387 7.86674L5.97742 7.12344L6.18409 8.57476ZM9.33333 5.00005C9.33333 6.28871 8.28866 7.33338 7 7.33338C5.71133 7.33338 4.66666 6.28871 4.66666 5.00005C4.66666 3.71138 5.71133 2.66672 7 2.66672C8.28866 2.66672 9.33333 3.71138 9.33333 5.00005Z" fill="#FFCD4B"/>
<path fill-rule="evenodd" clip-rule="evenodd" d="M0.666656 1.00002C0.666656 0.815925 0.815895 0.666687 0.99999 0.666687C1.18408 0.666687 1.33332 0.815925 1.33332 1.00002C1.33332 1.18412 1.18408 1.33335 0.99999 1.33335C0.815895 1.33335 0.666656 1.18412 0.666656 1.00002ZM0.666656 2.33334C0.666656 2.14925 0.815895 2.00001 0.99999 2.00001C1.18408 2.00001 1.33332 2.14925 1.33332 2.33334C1.33332 2.51744 1.18408 2.66668 0.99999 2.66668C0.815895 2.66668 0.666656 2.51744 0.666656 2.33334ZM0.99999 3.33336C0.815895 3.33336 0.666656 3.4826 0.666656 3.6667C0.666656 3.85079 0.815895 4.00003 0.99999 4.00003C1.18408 4.00003 1.33332 3.85079 1.33332 3.6667C1.33332 3.4826 1.18408 3.33336 0.99999 3.33336ZM0.666656 5.00002C0.666656 4.81593 0.815895 4.66669 0.99999 4.66669C1.18408 4.66669 1.33332 4.81593 1.33332 5.00002C1.33332 5.18412 1.18408 5.33335 0.99999 5.33335C0.815895 5.33335 0.666656 5.18412 0.666656 5.00002ZM0.99999 6.00001C0.815895 6.00001 0.666656 6.14925 0.666656 6.33334C0.666656 6.51744 0.815895 6.66668 0.99999 6.66668C1.18408 6.66668 1.33332 6.51744 1.33332 6.33334C1.33332 6.14925 1.18408 6.00001 0.99999 6.00001ZM0.666656 7.6667C0.666656 7.4826 0.815895 7.33336 0.99999 7.33336C1.18408 7.33336 1.33332 7.4826 1.33332 7.6667C1.33332 7.85079 1.18408 8.00003 0.99999 8.00003C0.815895 8.00003 0.666656 7.85079 0.666656 7.6667ZM0.99999 8.66669C0.815895 8.66669 0.666656 8.81592 0.666656 9.00002C0.666656 9.18411 0.815895 9.33335 0.99999 9.33335C1.18408 9.33335 1.33332 9.18411 1.33332 9.00002C1.33332 8.81592 1.18408 8.66669 0.99999 8.66669ZM1.33332 8.33334C1.33332 8.14925 1.48256 8.00001 1.66665 8.00001C1.85075 8.00001 1.99999 8.14925 1.99999 8.33334C1.99999 8.51744 1.85075 8.66668 1.66665 8.66668C1.48256 8.66668 1.33332 8.51744 1.33332 8.33334ZM1.66665 6.66669C1.48256 6.66669 1.33332 6.81593 1.33332 7.00002C1.33332 7.18412 1.48256 7.33335 1.66665 7.33335C1.85075 7.33335 1.99999 7.18412 1.99999 7.00002C1.99999 6.81593 1.85075 6.66669 1.66665 6.66669ZM1.33332 5.6667C1.33332 5.4826 1.48256 5.33336 1.66665 5.33336C1.85075 5.33336 1.99999 5.4826 1.99999 5.6667C1.99999 5.85079 1.85075 6.00003 1.66665 6.00003C1.48256 6.00003 1.33332 5.85079 1.33332 5.6667ZM1.66665 4.00001C1.48256 4.00001 1.33332 4.14925 1.33332 4.33334C1.33332 4.51744 1.48256 4.66668 1.66665 4.66668C1.85075 4.66668 1.99999 4.51744 1.99999 4.33334C1.99999 4.14925 1.85075 4.00001 1.66665 4.00001ZM1.33332 3.00002C1.33332 2.81593 1.48256 2.66669 1.66665 2.66669C1.85075 2.66669 1.99999 2.81593 1.99999 3.00002C1.99999 3.18411 1.85075 3.33335 1.66665 3.33335C1.48256 3.33335 1.33332 3.18411 1.33332 3.00002ZM1.66665 1.33336C1.48256 1.33336 1.33332 1.4826 1.33332 1.6667C1.33332 1.85079 1.48256 2.00003 1.66665 2.00003C1.85075 2.00003 1.99999 1.85079 1.99999 1.6667C1.99999 1.4826 1.85075 1.33336 1.66665 1.33336Z" fill="#FFCD4B"/>
</g>
</svg>
