<svg width="14" height="10" viewBox="0 0 14 10" fill="none" xmlns="http://www.w3.org/2000/svg">
<rect x="0.25" y="0.25" width="13.5" height="9.5" rx="1.75" fill="white" stroke="#F5F5F5" stroke-width="0.5"/>
<mask id="mask0_142:72" style="mask-type:alpha" maskUnits="userSpaceOnUse" x="0" y="0" width="14" height="10">
<rect x="0.25" y="0.25" width="13.5" height="9.5" rx="1.75" fill="white" stroke="white" stroke-width="0.5"/>
</mask>
<g mask="url(#mask0_142:72)">
<path fill-rule="evenodd" clip-rule="evenodd" d="M0 2.66667H14V0H0V2.66667Z" fill="#F03340"/>
<path fill-rule="evenodd" clip-rule="evenodd" d="M0 9.99998H14V7.33331H0V9.99998Z" fill="#F03340"/>
<path fill-rule="evenodd" clip-rule="evenodd" d="M6.4714 6.19524C6.57925 6.0874 6.57925 5.91256 6.47141 5.80472L6.43305 5.76636C6.37119 5.7045 6.2814 5.67963 6.19653 5.70085L6.0069 5.74825C5.78506 5.80371 5.64738 5.51444 5.83031 5.37725L6.00166 5.24873C6.10791 5.16905 6.05155 4.99998 5.91874 4.99998V4.99998C5.77292 4.99998 5.72651 4.80339 5.85694 4.73818L6.14306 4.59512C6.27349 4.5299 6.22709 4.33331 6.08126 4.33331V4.33331C5.94845 4.33331 5.89209 4.16424 5.99834 4.08456L6.73333 3.53331C6.89136 3.41479 7.10864 3.41479 7.26667 3.53331L8.00166 4.08456C8.10791 4.16424 8.05155 4.33331 7.91874 4.33331V4.33331C7.77292 4.33331 7.72651 4.5299 7.85694 4.59512L8.14306 4.73818C8.27349 4.80339 8.22709 4.99998 8.08126 4.99998V4.99998C7.94845 4.99998 7.89209 5.16905 7.99834 5.24873L8.16969 5.37725C8.35262 5.51444 8.21494 5.80371 7.9931 5.74825L7.80347 5.70085C7.7186 5.67963 7.62882 5.7045 7.56695 5.76636L7.5286 5.80472C7.42076 5.91256 7.42076 6.0874 7.5286 6.19524V6.19524C7.70256 6.3692 7.57935 6.66665 7.33333 6.66665H6.66667C6.42065 6.66665 6.29744 6.3692 6.4714 6.19524V6.19524Z" fill="#1FC065"/>
</g>
</svg>
