<svg width="14" height="10" viewBox="0 0 14 10" fill="none" xmlns="http://www.w3.org/2000/svg">
<rect width="14" height="10" rx="2" fill="white"/>
<mask id="mask0_142:68" style="mask-type:alpha" maskUnits="userSpaceOnUse" x="0" y="0" width="14" height="10">
<rect width="14" height="10" rx="2" fill="white"/>
</mask>
<g mask="url(#mask0_142:68)">
<rect width="14" height="10" fill="#FFBF19"/>
<path fill-rule="evenodd" clip-rule="evenodd" d="M5.33331 0.666687H12C12.7364 0.666687 13.3333 1.26364 13.3333 2.00002V8.00002C13.3333 8.7364 12.7364 9.33335 12 9.33335H5.33331V0.666687Z" fill="#A52531"/>
<path d="M0.666687 2.00002C0.666687 1.26364 1.26364 0.666687 2.00002 0.666687H2.66669V9.33335H2.00002C1.26364 9.33335 0.666687 8.7364 0.666687 8.00002V2.00002Z" fill="#03664F"/>
<rect x="2.66663" y="0.666687" width="2" height="8.66667" rx="0.666667" fill="#FF6816"/>
<path fill-rule="evenodd" clip-rule="evenodd" d="M6.66667 1.66665C6.66667 1.85074 6.51743 1.99998 6.33333 1.99998C6.14924 1.99998 6 1.85074 6 1.66665V1.33331H6.33333C6.51743 1.33331 6.66667 1.48255 6.66667 1.66665ZM12 1.66665C12 1.85074 12.1493 1.99998 12.3333 1.99998C12.5174 1.99998 12.6667 1.85074 12.6667 1.66665V1.33331H12.3333C12.1493 1.33331 12 1.48255 12 1.66665ZM12.3333 7.99997C12.1493 7.99997 12 8.14921 12 8.3333C12 8.5174 12.1493 8.66664 12.3333 8.66664H12.6667V8.3333C12.6667 8.14921 12.5174 7.99997 12.3333 7.99997ZM6.66667 8.3333C6.66667 8.14921 6.51743 7.99997 6.33333 7.99997C6.14924 7.99997 6 8.14921 6 8.3333V8.66664H6.33333C6.51743 8.66664 6.66667 8.5174 6.66667 8.3333Z" fill="#FFBF18"/>
<path fill-rule="evenodd" clip-rule="evenodd" d="M7.99999 6.2868C7.99999 6.12841 7.87159 6.00001 7.7132 6.00001V6.00001C7.68237 6.00001 7.65183 5.99509 7.6228 5.98472C7.42993 5.91578 6.66666 5.62456 6.66666 5.33334C6.66666 5.23058 6.69834 5.12782 6.74217 5.03482C6.85837 4.78826 6.92813 4.50283 6.83995 4.24491C6.73726 3.94456 6.62953 3.55609 6.66666 3.33334V3.33334C6.74207 2.88088 7.33333 3.18348 7.33333 3.64219V4.32259C7.33333 4.53347 7.45247 4.72625 7.64108 4.82055L7.85584 4.92793C7.94193 4.97098 8.0459 4.9541 8.11395 4.88605V4.88605C8.22188 4.77813 8.19235 4.59619 8.05584 4.52793L7.66666 4.33334V4.00001V4.00001C7.83273 4.00001 7.88558 3.77614 7.73704 3.70187L7.66666 3.66668V3.33334H8.09762C8.24854 3.33334 8.39328 3.27339 8.49999 3.16668V3.16668C8.60671 3.05996 8.75144 3.00001 8.90236 3.00001H8.93417C9.1788 3.00001 9.40243 3.13822 9.51183 3.35702L9.55828 3.44992C9.62767 3.5887 9.63909 3.74938 9.59002 3.89659V3.89659C9.46374 4.27544 9.74573 4.66668 10.1451 4.66668H10.8916C10.961 4.66668 11.0276 4.63911 11.0766 4.59004V4.59004C11.2029 4.46375 11.1684 4.25086 11.0086 4.17099L10.7636 4.04848C10.6998 4.0166 10.6296 4.00001 10.5583 4.00001H10.4714C10.211 4.00001 9.99999 3.78895 9.99999 3.5286V3.5286C9.99999 3.40358 10.0497 3.28368 10.1381 3.19527L10.3333 3.00001V3.33334C10.3333 3.51744 10.4826 3.66668 10.6667 3.66668V3.66668H10.9213C11.1738 3.66668 11.4047 3.80934 11.5176 4.0352L11.6132 4.22641C11.6486 4.29713 11.6712 4.37329 11.6776 4.4521C11.6942 4.65552 11.7186 5.07376 11.6667 5.33334C11.6311 5.51108 11.5469 5.67877 11.472 5.80151C11.3905 5.93518 11.3333 6.08582 11.3333 6.2424V7.0787C11.3333 7.21933 11.2193 7.33334 11.0787 7.33334V7.33334C10.8894 7.33334 10.7663 7.13413 10.8509 6.96482L10.9648 6.73706C10.987 6.69275 10.987 6.6406 10.9648 6.59629L10.9491 6.56482C10.8787 6.42412 10.6667 6.47418 10.6667 6.63148V6.63148C10.6667 6.65463 10.6613 6.67745 10.6509 6.69815L10.4157 7.16853C10.3652 7.26954 10.262 7.33334 10.1491 7.33334V7.33334C9.92743 7.33334 9.78328 7.1001 9.8824 6.90187L9.95755 6.75156C9.98546 6.69574 9.99999 6.63418 9.99999 6.57178L9.99999 6.53935C9.99999 6.24148 9.75852 6.00001 9.46065 6.00001H9.206C8.90813 6.00001 8.66666 6.24148 8.66666 6.53935V6.53935C8.66666 6.62308 8.64716 6.70567 8.60972 6.78056L8.41573 7.16853C8.36523 7.26954 8.26199 7.33334 8.14906 7.33334V7.33334C7.92743 7.33334 7.78328 7.1001 7.8824 6.90187L7.95755 6.75156C7.98546 6.69574 7.99999 6.63418 7.99999 6.57178V6.2868Z" fill="#FFBF18"/>
</g>
</svg>
