<svg width="14" height="10" viewBox="0 0 14 10" fill="none" xmlns="http://www.w3.org/2000/svg">
<rect x="0.25" y="0.25" width="13.5" height="9.5" rx="1.75" fill="white" stroke="#F5F5F5" stroke-width="0.5"/>
<mask id="mask0_142:88" style="mask-type:alpha" maskUnits="userSpaceOnUse" x="0" y="0" width="14" height="10">
<rect x="0.25" y="0.25" width="13.5" height="9.5" rx="1.75" fill="white" stroke="white" stroke-width="0.5"/>
</mask>
<g mask="url(#mask0_142:88)">
<path fill-rule="evenodd" clip-rule="evenodd" d="M14 0H6.66666V1.33333H14V0ZM14 2.66668H6.66666V4.00001H14V2.66668ZM6.66666 5.33332H14V6.66666H6.66666V5.33332ZM14 8H0V9.33333H14V8Z" fill="#E1244A"/>
<rect width="6.66667" height="6.66667" fill="#0C3F8E"/>
<path fill-rule="evenodd" clip-rule="evenodd" d="M3.33331 4.11331L2.15774 4.95135L2.59149 3.57435L1.4312 2.71528L2.87484 2.70228L3.33331 1.33331L3.79179 2.70228L5.23543 2.71528L4.07514 3.57435L4.50888 4.95135L3.33331 4.11331Z" fill="white"/>
</g>
</svg>
