<svg width="14" height="10" viewBox="0 0 14 10" fill="none" xmlns="http://www.w3.org/2000/svg">
<rect width="14" height="10" rx="2" fill="white"/>
<mask id="mask0_142:205" style="mask-type:alpha" maskUnits="userSpaceOnUse" x="0" y="0" width="14" height="10">
<rect width="14" height="10" rx="2" fill="white"/>
</mask>
<g mask="url(#mask0_142:205)">
<g filter="url(#filter0_d_142:205)">
<path fill-rule="evenodd" clip-rule="evenodd" d="M0 6.66665H14V3.33331H0V6.66665Z" fill="#262626"/>
</g>
<g filter="url(#filter1_d_142:205)">
<path fill-rule="evenodd" clip-rule="evenodd" d="M0 10H14V6.66669H0V10Z" fill="#34B857"/>
</g>
<path fill-rule="evenodd" clip-rule="evenodd" d="M0 3.33333H14V0H0V3.33333Z" fill="#F41F34"/>
<path fill-rule="evenodd" clip-rule="evenodd" d="M7 6C7.20563 6 7.39677 5.93793 7.5557 5.83151C7.53729 5.83273 7.51872 5.83334 7.5 5.83334C7.03977 5.83334 6.66667 5.46025 6.66667 5.00001C6.66667 4.53977 7.03977 4.16668 7.5 4.16668C7.51873 4.16668 7.53731 4.16729 7.55573 4.16851C7.39679 4.06208 7.20565 4 7 4C6.44772 4 6 4.44772 6 5C6 5.55228 6.44772 6 7 6ZM8 5.00001C8 5.18411 7.85076 5.33334 7.66666 5.33334C7.48257 5.33334 7.33333 5.18411 7.33333 5.00001C7.33333 4.81591 7.48257 4.66668 7.66666 4.66668C7.85076 4.66668 8 4.81591 8 5.00001Z" fill="white"/>
</g>
<defs>
<filter id="filter0_d_142:205" x="0" y="3.33331" width="14" height="3.33331" filterUnits="userSpaceOnUse" color-interpolation-filters="sRGB">
<feFlood flood-opacity="0" result="BackgroundImageFix"/>
<feColorMatrix in="SourceAlpha" type="matrix" values="0 0 0 0 0 0 0 0 0 0 0 0 0 0 0 0 0 0 127 0" result="hardAlpha"/>
<feOffset/>
<feColorMatrix type="matrix" values="0 0 0 0 0 0 0 0 0 0 0 0 0 0 0 0 0 0 0.06 0"/>
<feBlend mode="normal" in2="BackgroundImageFix" result="effect1_dropShadow_142:205"/>
<feBlend mode="normal" in="SourceGraphic" in2="effect1_dropShadow_142:205" result="shape"/>
</filter>
<filter id="filter1_d_142:205" x="0" y="6.66669" width="14" height="3.33331" filterUnits="userSpaceOnUse" color-interpolation-filters="sRGB">
<feFlood flood-opacity="0" result="BackgroundImageFix"/>
<feColorMatrix in="SourceAlpha" type="matrix" values="0 0 0 0 0 0 0 0 0 0 0 0 0 0 0 0 0 0 127 0" result="hardAlpha"/>
<feOffset/>
<feColorMatrix type="matrix" values="0 0 0 0 0 0 0 0 0 0 0 0 0 0 0 0 0 0 0.06 0"/>
<feBlend mode="normal" in2="BackgroundImageFix" result="effect1_dropShadow_142:205"/>
<feBlend mode="normal" in="SourceGraphic" in2="effect1_dropShadow_142:205" result="shape"/>
</filter>
</defs>
</svg>
