<svg width="14" height="10" viewBox="0 0 14 10" fill="none" xmlns="http://www.w3.org/2000/svg">
<rect width="14" height="10" rx="2" fill="white"/>
<mask id="mask0_142:202" style="mask-type:alpha" maskUnits="userSpaceOnUse" x="0" y="0" width="14" height="10">
<rect width="14" height="10" rx="2" fill="white"/>
</mask>
<g mask="url(#mask0_142:202)">
<rect width="14" height="10" fill="#E6BE53"/>
<path fill-rule="evenodd" clip-rule="evenodd" d="M0.666687 8.33335C0.666687 8.88564 1.1144 9.33335 1.66669 9.33335H12.3334C12.8856 9.33335 13.3334 8.88564 13.3334 8.33335V1.66669C13.3334 1.1144 12.8856 0.666687 12.3334 0.666687H1.66669C1.1144 0.666687 0.666687 1.1144 0.666687 1.66669V8.33335Z" fill="#E01826"/>
<path fill-rule="evenodd" clip-rule="evenodd" d="M6.71214 1.76266C6.38497 1.87172 6.28694 2.28696 6.53081 2.53082C6.61781 2.61783 6.73581 2.6667 6.85885 2.6667H7.14119C7.26423 2.6667 7.38223 2.61783 7.46923 2.53082C7.7131 2.28696 7.61507 1.87172 7.2879 1.76266L7.17084 1.72364C7.05996 1.68668 6.94008 1.68668 6.8292 1.72364L6.71214 1.76266ZM7.33335 3.33336C7.14926 3.51745 6.85078 3.51745 6.66669 3.33336L6.18021 2.84688C6.0726 2.73928 5.90821 2.7126 5.7721 2.78066L5.75499 2.78921C5.54756 2.89292 5.5027 3.16937 5.66669 3.33336L5.99358 3.66026C6.19649 3.86316 6.24679 4.17315 6.11847 4.4298L6.019 4.62873C6.00652 4.6537 6.00002 4.68122 6.00002 4.70913C6.00002 4.84278 5.85938 4.9297 5.73984 4.86994L5.57838 4.78921C5.45784 4.72894 5.43177 4.56828 5.52707 4.47298C5.60418 4.39587 5.60418 4.27085 5.52707 4.19374L5.37989 4.04657C5.34907 4.01574 5.32342 3.98015 5.30392 3.94116L5.03054 3.3944C5.01025 3.35383 4.99447 3.31116 4.98347 3.26715C4.85651 2.75931 4.1971 2.62615 3.88301 3.04493L3.80002 3.15558C3.71347 3.27098 3.66669 3.41134 3.66669 3.55558V4.50931C3.66669 4.61281 3.69078 4.71489 3.73707 4.80746L3.95164 5.2366C3.98368 5.30069 4.02585 5.35919 4.07652 5.40986L4.59019 5.92353C4.64086 5.9742 4.69936 6.01636 4.76345 6.04841L5.30188 6.31762C5.32258 6.32797 5.3454 6.33336 5.36854 6.33336C5.52585 6.33336 5.57591 6.54542 5.43521 6.61576L5.35795 6.65439C5.34166 6.66254 5.32679 6.67326 5.31391 6.68614L5.16669 6.83336C5.07464 6.92541 4.9254 6.92541 4.83335 6.83336C4.74131 6.74131 4.59207 6.74131 4.50002 6.83336L4.47297 6.86041C4.38959 6.94379 4.36892 7.07117 4.42166 7.17663L4.51281 7.35894C4.60712 7.54755 4.79989 7.66669 5.01077 7.66669H5.17598C5.27947 7.66669 5.38155 7.6426 5.47412 7.59631L5.87088 7.39793C5.95471 7.35602 6.02268 7.28804 6.06459 7.20422L6.20084 6.93173C6.26603 6.80134 6.4398 6.77314 6.54288 6.87622C6.61487 6.94821 6.62604 7.061 6.56957 7.14571L6.36636 7.45052C6.16404 7.754 6.24604 8.16404 6.54953 8.36637L6.63022 8.42016C6.85415 8.56945 7.14589 8.56945 7.36982 8.42016L7.45051 8.36637C7.754 8.16404 7.83601 7.754 7.63368 7.45052L7.43048 7.14571C7.374 7.061 7.38517 6.94821 7.45716 6.87622C7.56024 6.77314 7.73401 6.80134 7.7992 6.93173L7.93545 7.20422C7.97736 7.28804 8.04534 7.35602 8.12916 7.39793L8.52592 7.59631C8.61849 7.6426 8.72057 7.66669 8.82407 7.66669H8.98927C9.20015 7.66669 9.39293 7.54755 9.48723 7.35894L9.57838 7.17663C9.63112 7.07117 9.61045 6.94379 9.52707 6.86041L9.50002 6.83336C9.40797 6.74131 9.25874 6.74131 9.16669 6.83336C9.07464 6.92541 8.9254 6.92541 8.83336 6.83336L8.68613 6.68614C8.67325 6.67326 8.65838 6.66254 8.64209 6.65439L8.56483 6.61576C8.42413 6.54542 8.47419 6.33336 8.6315 6.33336C8.65464 6.33336 8.67746 6.32797 8.69816 6.31762L9.23659 6.04841C9.30068 6.01636 9.35919 5.9742 9.40985 5.92353L9.92352 5.40986C9.97419 5.35919 10.0164 5.30069 10.0484 5.2366L10.263 4.80746C10.3093 4.71489 10.3334 4.61281 10.3334 4.50931V3.55558C10.3334 3.41134 10.2866 3.27098 10.2 3.15558L10.117 3.04493C9.80295 2.62615 9.14353 2.75931 9.01657 3.26715C9.00557 3.31116 8.98979 3.35383 8.9695 3.3944L8.69612 3.94116C8.67663 3.98015 8.65097 4.01574 8.62015 4.04657L8.47298 4.19374C8.39586 4.27085 8.39586 4.39587 8.47298 4.47298C8.56827 4.56828 8.5422 4.72894 8.42166 4.78921L8.2602 4.86994C8.14067 4.9297 8.00002 4.84278 8.00002 4.70913C8.00002 4.68122 7.99352 4.6537 7.98104 4.62873L7.88158 4.4298C7.75325 4.17314 7.80355 3.86316 8.00646 3.66026L8.33335 3.33336C8.49734 3.16937 8.45248 2.89292 8.24505 2.78921L8.22795 2.78065C8.09183 2.7126 7.92744 2.73928 7.81983 2.84688L7.33335 3.33336Z" fill="#E6BE53"/>
<path fill-rule="evenodd" clip-rule="evenodd" d="M6.33331 5.66669C6.33331 5.78941 6.54 5.83025 6.5998 5.72308C6.71602 5.51478 6.858 5.33335 6.99998 5.33335C7.14196 5.33335 7.28394 5.51478 7.40016 5.72308C7.45996 5.83025 7.66665 5.78941 7.66665 5.66669V5.66669C7.66665 5.1144 7.36817 4.66669 6.99998 4.66669C6.63179 4.66669 6.33331 5.1144 6.33331 5.66669V5.66669Z" fill="#215F90"/>
</g>
</svg>
