<svg width="14" height="10" viewBox="0 0 14 10" fill="none" xmlns="http://www.w3.org/2000/svg">
<rect width="14" height="10" rx="2" fill="white"/>
<mask id="mask0_142:127" style="mask-type:alpha" maskUnits="userSpaceOnUse" x="0" y="0" width="14" height="10">
<rect width="14" height="10" rx="2" fill="white"/>
</mask>
<g mask="url(#mask0_142:127)">
<rect width="14" height="10" fill="#E81B26"/>
<path fill-rule="evenodd" clip-rule="evenodd" d="M6.99998 6.66665C7.92045 6.66665 8.66665 5.92045 8.66665 4.99998C8.66665 4.0795 7.92045 3.33331 6.99998 3.33331C6.0795 3.33331 5.33331 4.0795 5.33331 4.99998C5.33331 5.92045 6.0795 6.66665 6.99998 6.66665Z" fill="#FFE94F"/>
<path fill-rule="evenodd" clip-rule="evenodd" d="M5.10406 3.63964C5.20471 3.4996 5.3205 3.37117 5.44902 3.25674L0.980846 -1.76532L-0.357415 -0.279028L5.10406 3.63964ZM5.44901 6.74327C5.32049 6.62884 5.2047 6.50041 5.10405 6.36037L-0.357422 10.279L0.980839 11.7653L5.44901 6.74327ZM4.68984 5.33002C4.67458 5.22221 4.66668 5.11203 4.66668 5.00001C4.66668 4.88798 4.67458 4.77779 4.68984 4.66997L1.58846e-05 3.99999V5.99999L4.68984 5.33002ZM7.45771 2.71155L8.00002 -5.60284e-06H6.00002L6.54233 2.71155C6.69033 2.68211 6.84337 2.66668 7.00001 2.66668C7.15666 2.66668 7.30971 2.68211 7.45771 2.71155ZM8.89598 6.36037C8.79533 6.50041 8.67954 6.62884 8.55102 6.74327L13.0192 11.7653L14.3575 10.279L8.89598 6.36037ZM7.45771 7.28847C7.30971 7.31791 7.15667 7.33334 7.00001 7.33334C6.84337 7.33334 6.69032 7.31791 6.54232 7.28847L6.00002 9.99999H8.00002L7.45771 7.28847ZM9.31019 5.33002C9.32545 5.22221 9.33335 5.11203 9.33335 5.00001C9.33335 4.88798 9.32545 4.77779 9.31019 4.66997L14 3.99999V5.99999L9.31019 5.33002ZM8.89597 3.63963C8.79531 3.4996 8.67953 3.37117 8.55101 3.25674L13.0192 -1.76532L14.3574 -0.27903L8.89597 3.63963Z" fill="#FFE94F"/>
</g>
</svg>
