<svg width="14" height="10" viewBox="0 0 14 10" fill="none" xmlns="http://www.w3.org/2000/svg">
<rect width="14" height="10" rx="2" fill="white"/>
<mask id="mask0_142:177" style="mask-type:alpha" maskUnits="userSpaceOnUse" x="0" y="0" width="14" height="10">
<rect width="14" height="10" rx="2" fill="white"/>
</mask>
<g mask="url(#mask0_142:177)">
<path fill-rule="evenodd" clip-rule="evenodd" d="M0 10H14V0H0V10Z" fill="#079D7B"/>
<path fill-rule="evenodd" clip-rule="evenodd" d="M5.33336 5.99995H4.33337C4.41244 6.2373 4.51886 6.46094 4.64862 6.66662H9.35145C9.48121 6.46094 9.58763 6.2373 9.6667 5.99995H8.6667H8.06184C8.15708 5.98224 8.25446 5.96069 8.35314 5.93523C8.24813 5.93872 8.12017 5.94758 7.97454 5.95767C7.70048 5.97665 7.36387 5.99997 7.00003 5.99997C6.63619 5.99997 6.29958 5.97665 6.02552 5.95767C5.87419 5.94719 5.74193 5.93802 5.63469 5.93484C5.73004 5.96016 5.82427 5.98184 5.91662 5.99995H5.33336ZM5.35662 5.85118C4.60945 5.59895 4.09738 5.19439 4.17787 4.89398C4.26769 4.55878 5.06127 4.48018 5.95038 4.71841C5.99705 4.73092 6.04306 4.74405 6.08833 4.75775C6.06821 4.62223 6.05749 4.47998 6.05749 4.33329C6.05749 3.41282 6.47947 2.66663 7.00001 2.66663C7.52055 2.66663 7.94253 3.41282 7.94253 4.33329C7.94253 4.47922 7.93193 4.62077 7.912 4.75565C7.96314 4.73993 8.01523 4.72494 8.06818 4.71075C8.95729 4.47252 9.75086 4.55112 9.84068 4.88633C9.92185 5.18927 9.40043 5.59811 8.643 5.84986C8.50918 5.45304 7.82452 5.3333 7.00003 5.3333C6.17463 5.3333 5.48937 5.4533 5.35662 5.85118ZM5.33336 5.99995C5.33336 5.99996 5.33336 5.99996 5.33336 5.99997ZM7.00002 7.99997C7.67338 7.99997 8.29177 7.75024 8.7774 7.3333H5.22263C5.70826 7.75024 6.32665 7.99997 7.00002 7.99997Z" fill="white"/>
<path fill-rule="evenodd" clip-rule="evenodd" d="M7.00002 1.99998C7.18411 1.99998 7.33335 1.85074 7.33335 1.66665C7.33335 1.48255 7.18411 1.33331 7.00002 1.33331C6.81592 1.33331 6.66668 1.48255 6.66668 1.66665C6.66668 1.85074 6.81592 1.99998 7.00002 1.99998ZM4.33333 3.66666C4.51743 3.66666 4.66667 3.51742 4.66667 3.33332C4.66667 3.14923 4.51743 2.99999 4.33333 2.99999C4.14924 2.99999 4 3.14923 4 3.33332C4 3.51742 4.14924 3.66666 4.33333 3.66666ZM9.99998 3.33332C9.99998 3.51742 9.85074 3.66666 9.66664 3.66666C9.48255 3.66666 9.33331 3.51742 9.33331 3.33332C9.33331 3.14923 9.48255 2.99999 9.66664 2.99999C9.85074 2.99999 9.99998 3.14923 9.99998 3.33332ZM8.66665 2.66666C8.85075 2.66666 8.99998 2.51742 8.99998 2.33332C8.99998 2.14923 8.85075 1.99999 8.66665 1.99999C8.48256 1.99999 8.33332 2.14923 8.33332 2.33332C8.33332 2.51742 8.48256 2.66666 8.66665 2.66666ZM5.66666 2.33332C5.66666 2.51742 5.51742 2.66666 5.33333 2.66666C5.14923 2.66666 4.99999 2.51742 4.99999 2.33332C4.99999 2.14923 5.14923 1.99999 5.33333 1.99999C5.51742 1.99999 5.66666 2.14923 5.66666 2.33332Z" fill="#FCD117"/>
</g>
</svg>
