<svg width="14" height="10" viewBox="0 0 14 10" fill="none" xmlns="http://www.w3.org/2000/svg">
<rect width="14" height="10" rx="2" fill="white"/>
<mask id="mask0_142:55" style="mask-type:alpha" maskUnits="userSpaceOnUse" x="0" y="0" width="14" height="10">
<rect width="14" height="10" rx="2" fill="white"/>
</mask>
<g mask="url(#mask0_142:55)">
<rect width="14" height="10" fill="#108B4D"/>
<path fill-rule="evenodd" clip-rule="evenodd" d="M9.90683 3.86665C9.93112 4.02037 9.94373 4.17797 9.94373 4.33852C9.94373 5.99537 8.60058 7.33851 6.94373 7.33851C5.28687 7.33851 3.94373 5.99537 3.94373 4.33852C3.94373 4.17797 3.95634 4.02037 3.98062 3.86665C4.20696 5.29933 5.44742 6.39479 6.94373 6.39479C8.44004 6.39479 9.68049 5.29933 9.90683 3.86665V3.86665ZM7.00001 4.28202L6.17596 4.86946L6.48001 3.90422L5.66668 3.30204L6.67863 3.29292L7.00001 2.33331L7.32139 3.29292L8.33334 3.30204L7.52001 3.90422L7.82406 4.86946L7.00001 4.28202V4.28202Z" fill="#FFC941"/>
</g>
</svg>
