<svg width="14" height="10" viewBox="0 0 14 10" fill="none" xmlns="http://www.w3.org/2000/svg">
<rect width="14" height="10" rx="2" fill="white"/>
<mask id="mask0_142:99" style="mask-type:alpha" maskUnits="userSpaceOnUse" x="0" y="0" width="14" height="10">
<rect width="14" height="10" rx="2" fill="white"/>
</mask>
<g mask="url(#mask0_142:99)">
<rect width="14" height="10" fill="#07319C"/>
<path fill-rule="evenodd" clip-rule="evenodd" d="M8.66663 5.00002C8.66663 4.68248 8.66663 4.33133 8.66663 3.99994C8.66663 3.26356 9.26358 2.66669 9.99996 2.66669H10.6666C11.403 2.66669 12 3.26356 12 3.99994C12 4.33133 12 4.68248 12 5.00002C12 6.66669 10.3333 7.33335 10.3333 7.33335C10.3333 7.33335 8.66663 6.66669 8.66663 5.00002Z" fill="#08B9D6"/>
<mask id="mask1_142:99" style="mask-type:alpha" maskUnits="userSpaceOnUse" x="8" y="2" width="4" height="6">
<path fill-rule="evenodd" clip-rule="evenodd" d="M8.66663 5.00002C8.66663 4.68248 8.66663 4.33133 8.66663 3.99994C8.66663 3.26356 9.26358 2.66669 9.99996 2.66669H10.6666C11.403 2.66669 12 3.26356 12 3.99994C12 4.33133 12 4.68248 12 5.00002C12 6.66669 10.3333 7.33335 10.3333 7.33335C10.3333 7.33335 8.66663 6.66669 8.66663 5.00002Z" fill="white"/>
</mask>
<g mask="url(#mask1_142:99)">
<path fill-rule="evenodd" clip-rule="evenodd" d="M8.66663 6H12V7.33333H10.6666H9.99996H8.66663L8.66663 6Z" fill="#A63D09"/>
<path fill-rule="evenodd" clip-rule="evenodd" d="M10.6666 3.33337H9.9999V4.00005H9.33325V4.66672H9.9999V6.00004H10.6666V4.66672H11.3333V4.00005H10.6666V3.33337Z" fill="#262626"/>
</g>
<path d="M0 -0.333333H-0.901086L-0.21693 0.253086L2 2.15331V2.49513L-0.193746 4.06209L-0.333333 4.16179V4.33333V4.66667V5.26808L0.176666 4.94933L2.76227 3.33333H3.22651L5.44417 4.91738C5.5194 4.97111 5.60954 5 5.70199 5C6.11381 5 6.30334 4.48765 5.99067 4.21964L4 2.51336V2.17154L6.05416 0.704283C6.22936 0.579142 6.33333 0.377095 6.33333 0.161794V0V-0.601416L5.82333 -0.282666L3.23773 1.33333H2.77349L0.527079 -0.271244L0.440155 -0.333333H0.333333H0Z" fill="#DB1E36" stroke="white" stroke-width="0.666667"/>
<path fill-rule="evenodd" clip-rule="evenodd" d="M0 1.66667V3H2.33333V4.33333C2.33333 4.70152 2.63181 5 3 5V5C3.36819 5 3.66667 4.70152 3.66667 4.33333V3H5.66667C6.03486 3 6.33333 2.70152 6.33333 2.33333V2.33333C6.33333 1.96514 6.03486 1.66667 5.66667 1.66667H3.66667V0H2.33333V1.66667H0Z" fill="white"/>
<path fill-rule="evenodd" clip-rule="evenodd" d="M0 2H2.66667V1.66667V0H3.33333V1.66667V2H6V2.66667H3.33333V3V4.66667H2.66667V3V2.66667H0V2Z" fill="#DB1E36"/>
</g>
</svg>
