<svg width="14" height="10" viewBox="0 0 14 10" fill="none" xmlns="http://www.w3.org/2000/svg">
<rect x="0.25" y="0.25" width="13.5" height="9.5" rx="1.75" fill="white" stroke="#F5F5F5" stroke-width="0.5"/>
<mask id="mask0_142:58" style="mask-type:alpha" maskUnits="userSpaceOnUse" x="0" y="0" width="14" height="10">
<rect x="0.25" y="0.25" width="13.5" height="9.5" rx="1.75" fill="white" stroke="white" stroke-width="0.5"/>
</mask>
<g mask="url(#mask0_142:58)">
<path fill-rule="evenodd" clip-rule="evenodd" d="M7.33331 10H14V0H7.33331V10Z" fill="#DE233C"/>
<mask id="path-4-outside-1_142:58" maskUnits="userSpaceOnUse" x="0.333313" y="0.333313" width="4" height="4" fill="black">
<rect fill="white" x="0.333313" y="0.333313" width="4" height="4"/>
<path fill-rule="evenodd" clip-rule="evenodd" d="M2.66665 1.33331H1.99998V1.99999H1.33331V2.66666H1.99998V3.33331H2.66665V2.66666H3.33331V1.99999H2.66665V1.33331Z"/>
</mask>
<path fill-rule="evenodd" clip-rule="evenodd" d="M2.66665 1.33331H1.99998V1.99999H1.33331V2.66666H1.99998V3.33331H2.66665V2.66666H3.33331V1.99999H2.66665V1.33331Z" fill="#CCCCCD"/>
<path d="M1.99998 1.33331V0.666646H1.33332V1.33331H1.99998ZM2.66665 1.33331H3.33332V0.666646H2.66665V1.33331ZM1.99998 1.99999V2.66666H2.66665V1.99999H1.99998ZM1.33331 1.99999V1.33332H0.666646V1.99999H1.33331ZM1.33331 2.66666H0.666646V3.33332H1.33331V2.66666ZM1.99998 2.66666H2.66665V1.99999H1.99998V2.66666ZM1.99998 3.33331H1.33332V3.99998H1.99998V3.33331ZM2.66665 3.33331V3.99998H3.33332V3.33331H2.66665ZM2.66665 2.66666V1.99999H1.99998V2.66666H2.66665ZM3.33331 2.66666V3.33332H3.99998V2.66666H3.33331ZM3.33331 1.99999H3.99998V1.33332H3.33331V1.99999ZM2.66665 1.99999H1.99998V2.66666H2.66665V1.99999ZM1.99998 1.99998H2.66665V0.666646H1.99998V1.99998ZM2.66665 1.99999V1.33331H1.33332V1.99999H2.66665ZM1.33331 2.66666H1.99998V1.33332H1.33331V2.66666ZM1.99998 2.66666V1.99999H0.666646V2.66666H1.99998ZM1.99998 1.99999H1.33331V3.33332H1.99998V1.99999ZM2.66665 3.33331V2.66666H1.33332V3.33331H2.66665ZM2.66665 2.66665H1.99998V3.99998H2.66665V2.66665ZM1.99998 2.66666V3.33331H3.33332V2.66666H1.99998ZM3.33331 1.99999H2.66665V3.33332H3.33331V1.99999ZM2.66665 1.99999V2.66666H3.99998V1.99999H2.66665ZM2.66665 2.66666H3.33331V1.33332H2.66665V2.66666ZM1.99998 1.33331V1.99999H3.33332V1.33331H1.99998Z" fill="#7B716A" fill-opacity="0.66" mask="url(#path-4-outside-1_142:58)"/>
<path fill-rule="evenodd" clip-rule="evenodd" d="M2.33333 2.66667C2.51743 2.66667 2.66667 2.51743 2.66667 2.33333C2.66667 2.14924 2.51743 2 2.33333 2C2.14924 2 2 2.14924 2 2.33333C2 2.51743 2.14924 2.66667 2.33333 2.66667Z" fill="#7B716A"/>
</g>
</svg>
