<svg width="14" height="10" viewBox="0 0 14 10" fill="none" xmlns="http://www.w3.org/2000/svg">
<rect x="0.25" y="0.25" width="13.5" height="9.5" rx="1.75" fill="white" stroke="#F5F5F5" stroke-width="0.5"/>
<mask id="mask0_142:64" style="mask-type:alpha" maskUnits="userSpaceOnUse" x="0" y="0" width="14" height="10">
<rect x="0.25" y="0.25" width="13.5" height="9.5" rx="1.75" fill="white" stroke="white" stroke-width="0.5"/>
</mask>
<g mask="url(#mask0_142:64)">
<rect x="9.33331" width="4.66667" height="10" fill="#E3283E"/>
<path fill-rule="evenodd" clip-rule="evenodd" d="M0 10H4.66667V0H0V10Z" fill="#128A60"/>
<path d="M6.33335 4.66669C6.33335 4.2985 6.03488 4.00002 5.66669 4.00002C5.2985 4.00002 5.00002 4.2985 5.00002 4.66669H6.33335ZM5.99724 6.39739C6.31571 6.58217 6.72367 6.4738 6.90845 6.15534C7.09324 5.83688 6.98487 5.42892 6.66641 5.24413L5.99724 6.39739ZM7.35826 5.22913C7.04808 5.42751 6.95745 5.83977 7.15583 6.14995C7.35421 6.46013 7.76648 6.55076 8.07665 6.35238L7.35826 5.22913ZM9.00003 4.66669C9.00003 4.2985 8.70155 4.00002 8.33336 4.00002C7.96517 4.00002 7.6667 4.2985 7.6667 4.66669H9.00003ZM5.00002 4.66669C5.00002 5.40686 5.40245 6.05226 5.99724 6.39739L6.66641 5.24413C6.46582 5.12774 6.33335 4.9123 6.33335 4.66669H5.00002ZM8.07665 6.35238C8.6305 5.99815 9.00003 5.37579 9.00003 4.66669H7.6667C7.6667 4.90211 7.54516 5.10959 7.35826 5.22913L8.07665 6.35238Z" fill="#8C9157"/>
<path fill-rule="evenodd" clip-rule="evenodd" d="M6.99998 5.33331C7.36817 5.33331 7.66665 4.8856 7.66665 4.33331C7.66665 3.78103 7.36817 3.33331 6.99998 3.33331C6.63179 3.33331 6.33331 3.78103 6.33331 4.33331C6.33331 4.8856 6.63179 5.33331 6.99998 5.33331Z" fill="#C59262"/>
</g>
</svg>
