<svg width="14" height="10" viewBox="0 0 14 10" fill="none" xmlns="http://www.w3.org/2000/svg">
<rect width="14" height="10" rx="2" fill="white"/>
<mask id="mask0_142:71" style="mask-type:alpha" maskUnits="userSpaceOnUse" x="0" y="0" width="14" height="10">
<rect width="14" height="10" rx="2" fill="white"/>
</mask>
<g mask="url(#mask0_142:71)">
<path fill-rule="evenodd" clip-rule="evenodd" d="M14 0H6.66666V0.666667H14V0ZM14 1.33332H6.66666V1.99999H14V1.33332ZM6.66666 2.66668H14V3.33334H6.66666V2.66668ZM14 4H6.66666V4.66667H14V4ZM0 5.33332H14V5.99999H0V5.33332ZM14 6.66668H0V7.33334H14V6.66668ZM0 8H14V8.66667H0V8ZM14 9.33332H0V9.99999H14V9.33332Z" fill="#E1244A"/>
<rect width="8" height="5.33333" fill="#0C3F8E"/>
<path fill-rule="evenodd" clip-rule="evenodd" d="M3.33331 4.66669C3.80588 4.66669 4.24016 4.50279 4.58242 4.22874C4.40111 4.29638 4.20487 4.33334 3.99999 4.33334C3.07951 4.33334 2.33332 3.58715 2.33332 2.66668C2.33332 1.7462 3.07951 1.00001 3.99999 1.00001C4.20485 1.00001 4.40108 1.03697 4.58237 1.10459C4.24012 0.830567 3.80585 0.666687 3.33331 0.666687C2.22874 0.666687 1.33331 1.56212 1.33331 2.66669C1.33331 3.77126 2.22874 4.66669 3.33331 4.66669ZM4.7548 3.86799L5.33331 3.21336L5.91183 3.86799L5.76072 3.00754L6.63322 2.96339L5.86627 2.54505L6.37576 1.83538L5.5705 2.17417L5.33331 1.33336L5.09612 2.17417L4.29087 1.83538L4.80035 2.54505L4.03341 2.96339L4.90591 3.00754L4.7548 3.86799Z" fill="#FFD34F"/>
</g>
</svg>
