<svg width="14" height="10" viewBox="0 0 14 10" fill="none" xmlns="http://www.w3.org/2000/svg">
<rect x="0.25" y="0.25" width="13.5" height="9.5" rx="1.75" fill="white" stroke="#F5F5F5" stroke-width="0.5"/>
<mask id="mask0_142:50" style="mask-type:alpha" maskUnits="userSpaceOnUse" x="0" y="0" width="14" height="10">
<rect x="0.25" y="0.25" width="13.5" height="9.5" rx="1.75" fill="white" stroke="white" stroke-width="0.5"/>
</mask>
<g mask="url(#mask0_142:50)">
<path fill-rule="evenodd" clip-rule="evenodd" d="M0 3.33333H14V0H0V3.33333Z" fill="#1A78D6"/>
<path fill-rule="evenodd" clip-rule="evenodd" d="M0 10H14V6.66669H0V10Z" fill="#1A78D6"/>
<path d="M7 6.33333C7.73638 6.33333 8.33333 5.73638 8.33333 5C8.33333 4.26362 7.73638 3.66667 7 3.66667C6.26362 3.66667 5.66667 4.26362 5.66667 5C5.66667 5.73638 6.26362 6.33333 7 6.33333Z" stroke="#DBCD92" stroke-width="0.666667"/>
<path fill-rule="evenodd" clip-rule="evenodd" d="M6.99998 4.33331L7.66665 5.66665H6.33331L6.99998 4.33331Z" fill="#9CDDEE"/>
</g>
</svg>
