<svg width="14" height="10" viewBox="0 0 14 10" fill="none" xmlns="http://www.w3.org/2000/svg">
<rect x="0.25" y="0.25" width="13.5" height="9.5" rx="1.75" fill="white" stroke="#F5F5F5" stroke-width="0.5"/>
<path fill-rule="evenodd" clip-rule="evenodd" d="M0 1.2111C0 0.542229 0.542229 -4.40764e-10 1.2111 2.07684e-10V2.07684e-10C1.2908 2.84951e-10 1.36872 0.0235915 1.43504 0.0678014L5.66923 2.8906C6.76688 3.62237 6.24884 5.33333 4.92963 5.33333H4L6.66274 7.66323C7.58928 8.47395 7.01589 10 5.78473 10H2C0.895429 10 0 9.10457 0 8V1.2111Z" fill="white"/>
<mask id="mask0_142:158" style="mask-type:alpha" maskUnits="userSpaceOnUse" x="0" y="0" width="8" height="10">
<path fill-rule="evenodd" clip-rule="evenodd" d="M0 1.2111C0 0.542229 0.542229 -4.40764e-10 1.2111 2.07684e-10V2.07684e-10C1.2908 2.84951e-10 1.36872 0.0235915 1.43504 0.0678014L5.66923 2.8906C6.76688 3.62237 6.24884 5.33333 4.92963 5.33333H4L6.66274 7.66323C7.58928 8.47395 7.01589 10 5.78473 10H2C0.895429 10 0 9.10457 0 8V1.2111Z" fill="white"/>
</mask>
<g mask="url(#mask0_142:158)">
<path d="M5.78473 9.33333H0.666667V0.666667H1.13148L5.29943 3.4453C5.84826 3.81118 5.58924 4.66667 4.92963 4.66667H4C3.72226 4.66667 3.47362 4.83886 3.37593 5.09885C3.27824 5.35884 3.35198 5.65216 3.561 5.83505L6.22374 8.16495C6.68701 8.57031 6.40031 9.33333 5.78473 9.33333Z" fill="#EE1B44" stroke="#0543A8" stroke-width="1.33333" stroke-linejoin="round"/>
<path fill-rule="evenodd" clip-rule="evenodd" d="M3.42556 3.90041C3.61761 3.84777 3.79467 3.77579 3.95127 3.68809C3.79595 4.25228 3.27919 4.6667 2.66563 4.6667C2.05208 4.6667 1.53533 4.25229 1.38 3.6881C1.53703 3.77603 1.71463 3.84817 1.9073 3.90084L2.16667 3.66668L1.74279 3.28399L2.31312 3.31312L2.28399 2.7428L2.66667 3.16668L3.04936 2.7428L3.02023 3.31312L3.59055 3.28399L3.16667 3.66668L3.42556 3.90041ZM2.15747 8.56521L2.66771 8.00004L3.17796 8.56521L3.13912 7.80477L3.89955 7.84361L3.33438 7.33337L3.89955 6.82312L3.13912 6.86196L3.17796 6.10153L2.66771 6.6667L2.15747 6.10153L2.19631 6.86196L1.43587 6.82312L2.00105 7.33337L1.43587 7.84361L2.19631 7.80477L2.15747 8.56521Z" fill="white"/>
</g>
</svg>
