<svg width="14" height="10" viewBox="0 0 14 10" fill="none" xmlns="http://www.w3.org/2000/svg">
<rect width="14" height="10" rx="2" fill="white"/>
<mask id="mask0_142:186" style="mask-type:alpha" maskUnits="userSpaceOnUse" x="0" y="0" width="14" height="10">
<rect width="14" height="10" rx="2" fill="white"/>
</mask>
<g mask="url(#mask0_142:186)">
<rect width="14" height="10" fill="#0A17A7"/>
<path d="M0 -0.333333H-0.901086L-0.21693 0.253086L2 2.15331V2.49513L-0.193746 4.06209L-0.333333 4.16179V4.33333V4.66667V5.26808L0.176666 4.94933L2.76227 3.33333H3.22651L5.44417 4.91738C5.5194 4.97111 5.60954 5 5.70199 5C6.11381 5 6.30334 4.48765 5.99067 4.21964L4 2.51336V2.17154L6.05416 0.704283C6.22936 0.579142 6.33333 0.377095 6.33333 0.161794V0V-0.601416L5.82333 -0.282666L3.23773 1.33333H2.77349L0.527079 -0.271244L0.440155 -0.333333H0.333333H0Z" fill="#FF2E3B" stroke="white" stroke-width="0.666667"/>
<path fill-rule="evenodd" clip-rule="evenodd" d="M0 1.66667V3H2.33333V4.33333C2.33333 4.70152 2.63181 5 3 5V5C3.36819 5 3.66667 4.70152 3.66667 4.33333V3H5.66667C6.03486 3 6.33333 2.70152 6.33333 2.33333V2.33333C6.33333 1.96514 6.03486 1.66667 5.66667 1.66667H3.66667V0H2.33333V1.66667H0Z" fill="white"/>
<path fill-rule="evenodd" clip-rule="evenodd" d="M0 2H2.66667V1.66667V0H3.33333V1.66667V2H6V2.66667H3.33333V3V4.66667H2.66667V3V2.66667H0V2Z" fill="#FF2E3B"/>
<path fill-rule="evenodd" clip-rule="evenodd" d="M9.99998 8.66669L9.52858 8.80476L9.66665 8.33335L9.52858 7.86195L9.99998 8.00002L10.4714 7.86195L10.3333 8.33335L10.4714 8.80476L9.99998 8.66669Z" fill="#CA1931"/>
<path fill-rule="evenodd" clip-rule="evenodd" d="M9.99998 2.33331L9.52858 2.47138L9.66665 1.99998L9.52858 1.52858L9.99998 1.66665L10.4714 1.52858L10.3333 1.99998L10.4714 2.47138L9.99998 2.33331Z" fill="#CA1931"/>
<path fill-rule="evenodd" clip-rule="evenodd" d="M12 4.33331L11.5286 4.47138L11.6667 3.99998L11.5286 3.52858L12 3.66665L12.4714 3.52858L12.3334 3.99998L12.4714 4.47138L12 4.33331Z" fill="#CA1931"/>
<path fill-rule="evenodd" clip-rule="evenodd" d="M7.99998 5L7.52858 5.13807L7.66665 4.66667L7.52858 4.19526L7.99998 4.33333L8.47138 4.19526L8.33331 4.66667L8.47138 5.13807L7.99998 5Z" fill="#CA1931"/>
</g>
</svg>
