<svg width="14" height="10" viewBox="0 0 14 10" fill="none" xmlns="http://www.w3.org/2000/svg">
<rect x="0.25" y="0.25" width="13.5" height="9.5" rx="1.75" fill="white" stroke="#F5F5F5" stroke-width="0.5"/>
<mask id="mask0_142:45" style="mask-type:alpha" maskUnits="userSpaceOnUse" x="0" y="0" width="14" height="10">
<rect x="0.25" y="0.25" width="13.5" height="9.5" rx="1.75" fill="white" stroke="white" stroke-width="0.5"/>
</mask>
<g mask="url(#mask0_142:45)">
<path fill-rule="evenodd" clip-rule="evenodd" d="M14 4.66667H6.66666V0H14V4.66667Z" fill="#E52448"/>
<path fill-rule="evenodd" clip-rule="evenodd" d="M6.66666 10H0V4.66669H6.66666V10Z" fill="#1367AE"/>
<path fill-rule="evenodd" clip-rule="evenodd" d="M3.33333 2.88L2.54962 3.41202L2.81342 2.50226L2.06526 1.92131L3.01201 1.89107L3.33333 1L3.65466 1.89107L4.60141 1.92131L3.85324 2.50226L4.11705 3.41202L3.33333 2.88Z" fill="#1367AE"/>
<path fill-rule="evenodd" clip-rule="evenodd" d="M10.3333 7.88L9.54962 8.41202L9.81342 7.50226L9.06526 6.92131L10.012 6.89107L10.3333 6L10.6547 6.89107L11.6014 6.92131L10.8532 7.50226L11.117 8.41202L10.3333 7.88Z" fill="#E52448"/>
</g>
</svg>
