<svg width="14" height="10" viewBox="0 0 14 10" fill="none" xmlns="http://www.w3.org/2000/svg">
<rect x="0.25" y="0.25" width="13.5" height="9.5" rx="1.75" fill="white" stroke="#F5F5F5" stroke-width="0.5"/>
<mask id="mask0_142:6" style="mask-type:alpha" maskUnits="userSpaceOnUse" x="0" y="0" width="14" height="10">
<rect x="0.25" y="0.25" width="13.5" height="9.5" rx="1.75" fill="white" stroke="white" stroke-width="0.5"/>
</mask>
<g mask="url(#mask0_142:6)">
<path fill-rule="evenodd" clip-rule="evenodd" d="M0 2.66667H14V0H0V2.66667Z" fill="#D82332"/>
<path fill-rule="evenodd" clip-rule="evenodd" d="M0 9.99998H14V7.33331H0V9.99998Z" fill="#D82332"/>
<path fill-rule="evenodd" clip-rule="evenodd" d="M6.5337 5.37634L6.39148 5.50898C6.52005 5.54505 6.69841 5.50306 6.76942 5.37634H6.5337" fill="#064A89"/>
<path fill-rule="evenodd" clip-rule="evenodd" d="M5.38623 5.46671C5.48247 5.56294 5.64189 5.55171 5.73814 5.49079C5.83443 5.42983 5.90517 5.42596 5.96517 5.43235C5.97152 5.48665 5.9857 5.55628 6.01004 5.6251H5.43909C5.42491 5.58983 5.39724 5.50762 5.38623 5.46671" fill="#064A89"/>
<path fill-rule="evenodd" clip-rule="evenodd" d="M5.492 5.72388C5.60407 5.67093 5.71862 5.71292 5.76819 5.75109C5.85973 5.82168 6.01095 5.80254 6.08513 5.76249C6.11343 5.80867 6.14782 5.8541 6.18931 5.88878H5.57841C5.55359 5.84872 5.49994 5.75028 5.492 5.72388" fill="#064A89"/>
<path fill-rule="evenodd" clip-rule="evenodd" d="M8.14901 6.16242C8.17584 6.13516 8.21213 6.09027 8.23584 6.05822C8.19637 6.05339 8.15049 6.02484 8.10171 6.00048C8.01171 5.95554 7.92573 5.95554 7.84917 6.00849C7.73557 6.08704 7.59351 6.10629 7.48303 6.02774C7.36181 5.9415 7.24949 5.96037 7.15478 6.01494C7.06007 6.06941 7.00012 6.07263 6.9433 6.07263C6.88647 6.07263 6.82652 6.06941 6.73181 6.01494C6.63711 5.96037 6.52478 5.9415 6.40356 6.02774C6.29308 6.10629 6.15102 6.08704 6.03742 6.00849C5.96086 5.95554 5.87488 5.95554 5.78488 6.00048C5.73605 6.02484 5.69023 6.05339 5.65076 6.05822C5.67446 6.09027 5.71076 6.13516 5.73758 6.16242H8.14901" fill="#064A89"/>
<path fill-rule="evenodd" clip-rule="evenodd" d="M7.85333 6.43054C7.87857 6.41452 7.94804 6.36162 7.98275 6.33436C7.94487 6.34237 7.85852 6.31425 7.81392 6.29103C7.68444 6.22366 7.59926 6.23011 7.50302 6.2814C7.40672 6.33275 7.27101 6.36001 7.17159 6.30549C7.07217 6.25097 7.00111 6.23651 6.94905 6.23651C6.89698 6.23651 6.82593 6.25097 6.72651 6.30549C6.62709 6.36001 6.49138 6.33275 6.39508 6.2814C6.29884 6.23011 6.21365 6.22366 6.08418 6.29103C6.03958 6.31425 5.95323 6.34237 5.91534 6.33436C5.95005 6.36162 6.01952 6.41452 6.04476 6.43054H7.85333" fill="#064A89"/>
<path fill-rule="evenodd" clip-rule="evenodd" d="M7.28416 5.89752C7.25734 5.88311 7.22596 5.84951 7.19734 5.80639C7.15157 5.73741 7.07898 5.69891 6.97009 5.69891C6.8612 5.69891 6.78861 5.73741 6.74284 5.80639C6.71421 5.84951 6.68284 5.88311 6.65607 5.89752H7.28416" fill="#064A89"/>
<path fill-rule="evenodd" clip-rule="evenodd" d="M7.10519 5.64991C7.09413 5.63066 7.07048 5.56969 7.0626 5.5376C7.03731 5.54566 6.98842 5.54883 6.96 5.54883C6.93159 5.54883 6.8827 5.54566 6.85741 5.5376C6.84953 5.56969 6.82588 5.63066 6.81482 5.64991H7.10519" fill="#064A89"/>
<path fill-rule="evenodd" clip-rule="evenodd" d="M7.36798 5.37634L7.5102 5.50898C7.38163 5.54505 7.20327 5.50306 7.13226 5.37634H7.36798" fill="#064A89"/>
<path fill-rule="evenodd" clip-rule="evenodd" d="M8.54971 5.46671C8.45347 5.56294 8.29405 5.55171 8.19781 5.49079C8.10151 5.42983 8.03077 5.42596 7.97077 5.43235C7.96437 5.48665 7.95024 5.55628 7.9259 5.6251H8.49685C8.51103 5.58983 8.53865 5.50762 8.54971 5.46671" fill="#064A89"/>
<path fill-rule="evenodd" clip-rule="evenodd" d="M8.46451 5.72388C8.35245 5.67093 8.2379 5.71292 8.18832 5.75109C8.09679 5.82168 7.94557 5.80254 7.87139 5.76249C7.84308 5.80867 7.80869 5.8541 7.76721 5.88878H8.37811C8.40292 5.84872 8.45663 5.75028 8.46451 5.72388" fill="#064A89"/>
<path fill-rule="evenodd" clip-rule="evenodd" d="M7.57942 6.53577C7.38804 6.61512 7.17862 6.65894 6.95915 6.65894C6.73947 6.65894 6.53016 6.61518 6.33862 6.53566C6.37963 6.53088 6.43397 6.51077 6.47778 6.48598C6.54883 6.44588 6.6782 6.43786 6.73979 6.47797C6.80132 6.51808 6.8755 6.55813 6.95915 6.55813C7.0428 6.55813 7.11698 6.51808 7.17852 6.47797C7.24005 6.43786 7.36947 6.44588 7.44053 6.48598C7.48428 6.51077 7.53836 6.53098 7.57942 6.53577" fill="#064A89"/>
<path fill-rule="evenodd" clip-rule="evenodd" d="M7.31257 3.36344C6.96697 3.29129 6.65607 3.33296 6.65607 3.66333C6.65607 3.98726 6.65607 4.46833 6.65607 4.5678C6.65607 4.6672 6.65802 4.67978 6.77443 4.70731C7.02691 4.76704 7.05056 4.77306 7.32517 4.83715V3.9071C7.11056 3.88301 7.0285 3.76064 7.0285 3.61844C7.0285 3.48054 7.12316 3.3907 7.31257 3.36344" fill="#514537"/>
<path fill-rule="evenodd" clip-rule="evenodd" d="M6.42689 5.91423C6.23435 5.91423 6.03234 5.74423 6.03234 5.42031C6.03234 5.09633 6.03234 4.68902 6.03234 4.61525C6.03234 4.5423 6.04044 4.53203 6.02366 4.51504C6.01382 4.50504 6.03472 4.4902 6.0489 4.47574C6.07022 4.45407 6.08483 4.43606 6.05604 4.40676C6.02721 4.37751 6.03948 4.36988 6.05763 4.35149C6.07578 4.333 6.08287 4.31461 6.06551 4.29692C6.04816 4.27929 6.04419 4.2737 6.06313 4.25445C6.08208 4.2352 6.07419 4.22719 6.05842 4.21111C6.0426 4.19509 6.03514 4.18348 6.05525 4.16305C6.07499 4.143 6.07652 4.13977 6.09943 4.13977C6.12234 4.13977 6.17202 4.13977 6.19414 4.13977C6.21626 4.13977 6.21663 4.1466 6.19805 4.16547C6.17398 4.18988 6.16689 4.1995 6.19414 4.22719C6.22133 4.25482 6.22017 4.26407 6.20282 4.28171C6.17673 4.30816 6.1653 4.32622 6.19176 4.3531C6.21821 4.37993 6.22054 4.39197 6.20044 4.4124C6.18033 4.43284 6.17832 4.4509 6.20044 4.47332C6.21742 4.49058 6.21858 4.50063 6.21858 4.53106C6.21858 4.71472 6.21858 5.21504 6.21858 5.35294C6.21858 5.49085 6.31641 5.57423 6.50266 5.57423C6.6889 5.57423 6.75202 5.49724 6.80567 5.44595C6.77096 5.69289 6.66996 5.91423 6.42689 5.91423" fill="#514537"/>
<path fill-rule="evenodd" clip-rule="evenodd" d="M6.97035 5.12746C6.99638 5.13542 7.02162 5.17392 7.02162 5.21564H7.07294C7.07294 5.18037 7.05791 5.12585 7.03072 5.09214C7.03029 5.08332 7.02913 5.07574 7.02717 5.06811C7.04611 5.04402 7.07373 5.00553 7.07294 4.96865C7.07241 4.94537 7.04532 4.94623 7.04214 4.96467C7.03955 4.97983 7.02955 5.00316 7.01061 5.01117C7.01061 4.9815 6.994 4.94623 6.97035 4.94623C6.9467 4.94623 6.93008 4.9815 6.93008 5.01117C6.91114 5.00316 6.90114 4.97983 6.89855 4.96467C6.89537 4.94623 6.86823 4.94537 6.86775 4.96865C6.86696 5.00553 6.89458 5.04402 6.91352 5.06811C6.91156 5.07574 6.9104 5.08332 6.90998 5.09214C6.88278 5.12585 6.86775 5.18037 6.86775 5.21564H6.91908C6.91908 5.17392 6.94431 5.13542 6.97035 5.12746" fill="#514537"/>
<path fill-rule="evenodd" clip-rule="evenodd" d="M6.70576 5.12746C6.73179 5.13542 6.75708 5.17392 6.75708 5.21564H6.80835C6.80835 5.18037 6.79338 5.12585 6.76613 5.09214C6.76576 5.08332 6.76454 5.07574 6.76258 5.06811C6.78153 5.04402 6.80915 5.00553 6.80835 4.96865C6.80788 4.94537 6.78073 4.94623 6.77756 4.96467C6.77497 4.97983 6.76491 5.00316 6.74602 5.01117C6.74602 4.9815 6.72946 4.94623 6.70576 4.94623C6.68211 4.94623 6.66555 4.9815 6.66555 5.01117C6.64661 5.00316 6.63655 4.97983 6.63396 4.96467C6.63079 4.94623 6.6037 4.94537 6.60317 4.96865C6.60237 5.00553 6.62999 5.04402 6.64893 5.06811C6.64698 5.07574 6.64581 5.08332 6.64539 5.09214C6.61819 5.12585 6.60317 5.18037 6.60317 5.21564H6.65449C6.65449 5.17392 6.67973 5.13542 6.70576 5.12746" fill="#514537"/>
<path fill-rule="evenodd" clip-rule="evenodd" d="M6.44123 5.12746C6.46726 5.13542 6.4925 5.17392 6.4925 5.21564H6.54383C6.54383 5.18037 6.5288 5.12585 6.5016 5.09214C6.50118 5.08332 6.50002 5.07574 6.49806 5.06811C6.517 5.04402 6.54462 5.00553 6.54383 4.96865C6.5433 4.94537 6.51621 4.94623 6.51303 4.96467C6.51044 4.97983 6.50039 5.00316 6.48144 5.01117C6.48144 4.9815 6.46488 4.94623 6.44123 4.94623C6.41753 4.94623 6.40097 4.9815 6.40097 5.01117C6.38203 5.00316 6.37203 4.97983 6.36943 4.96467C6.36626 4.94623 6.33912 4.94537 6.33864 4.96865C6.33785 5.00553 6.36547 5.04402 6.38441 5.06811C6.38245 5.07574 6.38123 5.08332 6.38086 5.09214C6.35361 5.12585 6.33864 5.18037 6.33864 5.21564H6.38991C6.38991 5.17392 6.4152 5.13542 6.44123 5.12746" fill="#514537"/>
<path fill-rule="evenodd" clip-rule="evenodd" d="M7.23487 5.12746C7.20884 5.13542 7.1836 5.17392 7.1836 5.21564H7.13228C7.13228 5.18037 7.14725 5.12585 7.1745 5.09214C7.17487 5.08332 7.17609 5.07574 7.1781 5.06811C7.15911 5.04402 7.13149 5.00553 7.13228 4.96865C7.13281 4.94537 7.1599 4.94623 7.16307 4.96467C7.16567 4.97983 7.17572 5.00316 7.19461 5.01117C7.19461 4.9815 7.21122 4.94623 7.23487 4.94623C7.25858 4.94623 7.27514 4.9815 7.27514 5.01117C7.29403 5.00316 7.30408 4.97983 7.30667 4.96467C7.30985 4.94623 7.33694 4.94537 7.33746 4.96865C7.33826 5.00553 7.31064 5.04402 7.2917 5.06811C7.29366 5.07574 7.29487 5.08332 7.29524 5.09214C7.32249 5.12585 7.33746 5.18037 7.33746 5.21564H7.28614C7.28614 5.17392 7.2609 5.13542 7.23487 5.12746" fill="#514537"/>
<path fill-rule="evenodd" clip-rule="evenodd" d="M7.4994 5.12746C7.47337 5.13542 7.44813 5.17392 7.44813 5.21564H7.39681C7.39681 5.18037 7.41183 5.12585 7.43903 5.09214C7.43945 5.08332 7.44062 5.07574 7.44257 5.06811C7.42363 5.04402 7.39601 5.00553 7.39681 4.96865C7.39728 4.94537 7.42443 4.94623 7.4276 4.96467C7.43019 4.97983 7.44019 5.00316 7.45913 5.01117C7.45913 4.9815 7.47575 4.94623 7.4994 4.94623C7.5231 4.94623 7.53966 4.9815 7.53966 5.01117C7.55861 5.00316 7.56861 4.97983 7.5712 4.96467C7.57437 4.94623 7.60146 4.94537 7.60199 4.96865C7.60279 5.00553 7.57517 5.04402 7.55622 5.06811C7.55818 5.07574 7.55935 5.08332 7.55977 5.09214C7.58702 5.12585 7.60199 5.18037 7.60199 5.21564H7.55072C7.55072 5.17392 7.52543 5.13542 7.4994 5.12746" fill="#514537"/>
<path fill-rule="evenodd" clip-rule="evenodd" d="M6.28571 5.2688H7.67449V5.33547H6.28571V5.2688Z" fill="#514537"/>
<path fill-rule="evenodd" clip-rule="evenodd" d="M7.51105 5.91423C7.70359 5.91423 7.9056 5.74423 7.9056 5.42031C7.9056 5.09633 7.9056 4.68902 7.9056 4.61525C7.9056 4.5423 7.8975 4.53203 7.91427 4.51504C7.92411 4.50504 7.90321 4.4902 7.88903 4.47574C7.86771 4.45407 7.85311 4.43606 7.88189 4.40676C7.91073 4.37751 7.89845 4.36988 7.88036 4.35149C7.86216 4.333 7.85507 4.31461 7.87242 4.29692C7.88978 4.27929 7.89374 4.2737 7.8748 4.25445C7.85586 4.2352 7.86374 4.22719 7.87951 4.21111C7.89533 4.19509 7.90279 4.18348 7.88269 4.16305C7.86295 4.143 7.86142 4.13977 7.83851 4.13977C7.8156 4.13977 7.76591 4.13977 7.7438 4.13977C7.72173 4.13977 7.72131 4.1466 7.73988 4.16547C7.76396 4.18988 7.77105 4.1995 7.7438 4.22719C7.7166 4.25482 7.71777 4.26407 7.73512 4.28171C7.7612 4.30816 7.77258 4.32622 7.74618 4.3531C7.71972 4.37993 7.71734 4.39197 7.7375 4.4124C7.75761 4.43284 7.75962 4.4509 7.7375 4.47332C7.72052 4.49058 7.71935 4.50063 7.71935 4.53106C7.71935 4.71472 7.71935 5.21504 7.71935 5.35294C7.71935 5.49085 7.62147 5.57423 7.43528 5.57423C7.24904 5.57423 7.18597 5.49724 7.13226 5.44595C7.16697 5.69289 7.26798 5.91423 7.51105 5.91423" fill="#514537"/>
<path fill-rule="evenodd" clip-rule="evenodd" d="M6.28571 4.83711C6.28571 4.83711 6.28576 4.7898 6.28576 4.73114L6.56338 4.83716L6.28571 4.83711" fill="#EEA339"/>
<path fill-rule="evenodd" clip-rule="evenodd" d="M5.95453 4.88636L5.33331 4.80126C5.35136 4.66599 5.38548 4.53411 5.43458 4.40857L5.95453 4.6183V4.88636" fill="#EEA339"/>
<path fill-rule="evenodd" clip-rule="evenodd" d="M7.2381 3.84795L7.34852 3.38708C7.47773 3.41891 7.60334 3.46687 7.72238 3.5301L7.36625 4.22278L7.36752 3.87499C7.3264 3.8752 7.26334 3.86881 7.2381 3.84795" fill="#EEA339"/>
<path fill-rule="evenodd" clip-rule="evenodd" d="M5.96918 4.93149L5.33638 4.89246C5.32823 5.02729 5.33633 5.16337 5.36066 5.29762C5.36066 5.29762 5.96918 5.30149 5.96918 5.29762V4.93149" fill="#EEA339"/>
<path fill-rule="evenodd" clip-rule="evenodd" d="M5.96285 4.49775C5.94237 4.47049 5.95502 4.45597 5.97708 4.44151C5.9992 4.4271 5.99603 4.41587 5.98502 4.39506C5.97396 4.3742 5.9629 4.35173 5.98343 4.32931C6.00396 4.30683 5.99603 4.29721 5.98026 4.28119C5.96449 4.26517 5.9629 4.24753 5.97708 4.23468C5.99132 4.22183 5.98814 4.21221 5.97872 4.19941C5.9692 4.18656 5.95063 4.16054 5.96724 4.14371L5.70909 3.92468C5.6238 4.02834 5.55079 4.14275 5.492 4.26544L5.96285 4.49775" fill="#EEA339"/>
<path fill-rule="evenodd" clip-rule="evenodd" d="M6.58136 4.61717L6.27369 4.31399C6.31708 4.26991 6.32141 4.2627 6.29067 4.23141C6.25713 4.19733 6.25591 4.19378 6.32417 4.12437C6.34745 4.10077 6.33443 4.08426 6.30131 4.08426C6.26819 4.08426 6.11586 4.08426 6.0985 4.08426C6.08115 4.08426 6.0675 4.08518 6.0548 4.09808L5.80951 3.85679C5.90311 3.75889 6.00766 3.67346 6.12057 3.60211L6.58136 4.35507V4.61717" fill="#EEA339"/>
<path fill-rule="evenodd" clip-rule="evenodd" d="M6.26137 4.6633C6.26137 4.58798 6.26142 4.51341 6.26142 4.50282C6.26142 4.48034 6.25983 4.47153 6.24248 4.45389C6.22513 4.43626 6.2338 4.42782 6.24724 4.40857L6.53909 4.65561V4.80067L6.26137 4.6633" fill="#EEA339"/>
<path fill-rule="evenodd" clip-rule="evenodd" d="M6.53474 4.22316C6.53474 4.07848 6.53474 3.94467 6.53474 3.86757C6.53474 3.63665 6.54749 3.52117 6.58061 3.49795L6.5541 3.38708C6.42453 3.42252 6.29892 3.47047 6.17987 3.5337L6.53474 4.22316" fill="#EEA339"/>
<path fill-rule="evenodd" clip-rule="evenodd" d="M7.67446 4.83711C7.67446 4.83711 7.67441 4.7898 7.67441 4.73114L7.39679 4.83716L7.67446 4.83711" fill="#EEA339"/>
<path fill-rule="evenodd" clip-rule="evenodd" d="M7.97882 4.88636L8.60004 4.80126C8.58199 4.66599 8.54787 4.53411 8.49877 4.40857L7.97882 4.6183V4.88636" fill="#EEA339"/>
<path fill-rule="evenodd" clip-rule="evenodd" d="M7.97882 4.93149L8.61157 4.89246C8.61972 5.02729 8.61168 5.16337 8.58729 5.29762C8.58729 5.29762 7.97882 5.30149 7.97882 5.29762V4.93149" fill="#EEA339"/>
<path fill-rule="evenodd" clip-rule="evenodd" d="M7.95882 4.49775C7.97935 4.47049 7.96665 4.45597 7.94459 4.44151C7.92247 4.4271 7.92564 4.41587 7.93665 4.39506C7.94771 4.3742 7.95877 4.35173 7.93824 4.32931C7.91771 4.30683 7.92564 4.29721 7.94141 4.28119C7.95718 4.26517 7.95877 4.24753 7.94459 4.23468C7.93035 4.22183 7.93353 4.21221 7.94295 4.19941C7.95247 4.18656 7.97099 4.16054 7.95443 4.14371L8.21258 3.92468C8.29787 4.02834 8.37083 4.14275 8.42961 4.26544L7.95882 4.49775" fill="#EEA339"/>
<path fill-rule="evenodd" clip-rule="evenodd" d="M7.39679 4.61717L7.70446 4.31399C7.66102 4.26991 7.65668 4.2627 7.68748 4.23141C7.72102 4.19733 7.72224 4.19378 7.65399 4.12437C7.63065 4.10077 7.64372 4.08426 7.67684 4.08426C7.70996 4.08426 7.86229 4.08426 7.87965 4.08426C7.897 4.08426 7.91065 4.08518 7.92335 4.09808L8.16864 3.85679C8.07504 3.75889 7.97049 3.67346 7.85758 3.60211L7.39679 4.35507V4.61717" fill="#EEA339"/>
<path fill-rule="evenodd" clip-rule="evenodd" d="M7.67451 4.6633C7.67451 4.58798 7.67446 4.51341 7.67446 4.50282C7.67446 4.48034 7.67605 4.47153 7.6934 4.45389C7.71076 4.43626 7.70208 4.42782 7.68864 4.40857L7.39679 4.65561V4.80067L7.67451 4.6633" fill="#EEA339"/>
<path fill-rule="evenodd" clip-rule="evenodd" d="M6.07404 4.51611C6.08509 4.52735 6.08986 4.53853 6.08986 4.56579C6.08986 4.59305 6.08986 5.18961 6.08986 5.42375C6.08986 5.70918 6.26028 5.86794 6.43546 5.86794C6.59642 5.86794 6.70218 5.7188 6.75742 5.54563C6.68642 5.60176 6.58224 5.61939 6.48277 5.61939C6.36758 5.61939 6.18139 5.54084 6.18139 5.37084C6.18139 5.21369 6.18139 4.63154 6.18139 4.53853C6.18139 4.51611 6.15927 4.51611 6.07404 4.51611" fill="#D82332"/>
<path fill-rule="evenodd" clip-rule="evenodd" d="M7.0805 3.39201C6.86045 3.36937 6.65632 3.41588 6.65632 3.72093C6.65632 4.04169 6.65632 4.43292 6.65632 4.53142C6.65632 4.66674 6.64585 4.65066 6.7587 4.6791C6.96347 4.73072 6.98669 4.73728 7.23505 4.79491V3.97029C7.02299 3.94669 6.93109 3.80556 6.93109 3.64927C6.93109 3.52491 6.98516 3.40787 7.0805 3.39201" fill="#D82332"/>
<path fill-rule="evenodd" clip-rule="evenodd" d="M7.86857 4.51611C7.85751 4.52735 7.85275 4.53853 7.85275 4.56579C7.85275 4.59305 7.85275 5.18961 7.85275 5.42375C7.85275 5.70918 7.68232 5.86794 7.50714 5.86794C7.34619 5.86794 7.24042 5.7188 7.18518 5.54563C7.25624 5.60176 7.36037 5.61939 7.45984 5.61939C7.57502 5.61939 7.76121 5.54084 7.76121 5.37084C7.76121 5.21369 7.76121 4.63154 7.76121 4.53853C7.76121 4.51611 7.78333 4.51611 7.86857 4.51611" fill="#D82332"/>
<mask id="mask1_142:6" style="mask-type:alpha" maskUnits="userSpaceOnUse" x="5" y="3" width="4" height="4">
<path fill-rule="evenodd" clip-rule="evenodd" d="M6.99998 6.66665C7.92045 6.66665 8.66665 5.92045 8.66665 4.99998C8.66665 4.0795 7.92045 3.33331 6.99998 3.33331C6.0795 3.33331 5.33331 4.0795 5.33331 4.99998C5.33331 5.92045 6.0795 6.66665 6.99998 6.66665Z" fill="white"/>
</mask>
<g mask="url(#mask1_142:6)">
<path fill-rule="evenodd" clip-rule="evenodd" d="M6.99998 9.33333C7.92045 9.33333 8.66665 8.58714 8.66665 7.66667C8.66665 6.74619 7.92045 6 6.99998 6C6.0795 6 5.33331 6.74619 5.33331 7.66667C5.33331 8.58714 6.0795 9.33333 6.99998 9.33333Z" fill="#064A89"/>
</g>
</g>
</svg>
