<svg width="14" height="10" viewBox="0 0 14 10" fill="none" xmlns="http://www.w3.org/2000/svg">
<rect width="14" height="10" rx="2" fill="white"/>
<mask id="mask0_142:196" style="mask-type:alpha" maskUnits="userSpaceOnUse" x="0" y="0" width="14" height="10">
<rect width="14" height="10" rx="2" fill="white"/>
</mask>
<g mask="url(#mask0_142:196)">
<rect width="14" height="10" fill="#262626"/>
<path fill-rule="evenodd" clip-rule="evenodd" d="M0 0H14V10L0 0Z" fill="#E8283F"/>
<path fill-rule="evenodd" clip-rule="evenodd" d="M3.33329 8.33331L2.86189 8.47138L2.99996 7.99998L2.86189 7.52858L3.33329 7.66665L3.8047 7.52858L3.66663 7.99998L3.8047 8.47138L3.33329 8.33331Z" fill="white"/>
<path fill-rule="evenodd" clip-rule="evenodd" d="M3.33329 4.33331L2.86189 4.47138L2.99996 3.99998L2.86189 3.52858L3.33329 3.66665L3.8047 3.52858L3.66663 3.99998L3.8047 4.47138L3.33329 4.33331Z" fill="white"/>
<path fill-rule="evenodd" clip-rule="evenodd" d="M1.66667 6L1.19526 6.13807L1.33333 5.66667L1.19526 5.19526L1.66667 5.33333L2.13807 5.19526L2 5.66667L2.13807 6.13807L1.66667 6Z" fill="white"/>
<path fill-rule="evenodd" clip-rule="evenodd" d="M4.66667 5.66669L4.19526 5.80476L4.33333 5.33335L4.19526 4.86195L4.66667 5.00002L5.13807 4.86195L5 5.33335L5.13807 5.80476L4.66667 5.66669Z" fill="white"/>
<path fill-rule="evenodd" clip-rule="evenodd" d="M9.43064 4.63276C9.35083 4.58488 9.28613 4.47208 9.28613 4.38183L9.28613 3.76747C9.28613 3.67678 9.22088 3.625 9.12213 3.65792L8.74303 3.78429C8.65245 3.81448 8.51377 3.8172 8.41503 3.78429L8.03592 3.65792C7.94535 3.62773 7.93528 3.56523 8.01643 3.51655L8.90592 2.98285C8.98573 2.93496 9.02868 2.83089 8.99576 2.73214L8.8694 2.35304C8.8392 2.26246 8.87998 2.21079 8.97873 2.2437L9.35783 2.37007C9.44841 2.40026 9.55985 2.36138 9.60854 2.28023L10.1422 1.39074C10.1901 1.31093 10.2507 1.31148 10.2836 1.41023L10.41 1.78933C10.4402 1.87991 10.4429 2.01859 10.41 2.11734L10.2836 2.49644C10.2534 2.58702 10.3029 2.66044 10.3932 2.66044H11.0075C11.0982 2.66044 11.2098 2.7238 11.2585 2.80495L11.7922 3.69444C11.84 3.77425 11.8015 3.85442 11.715 3.87173L10.8642 4.04188C10.7737 4.05998 10.6849 4.15198 10.6676 4.23852L10.4974 5.0893C10.4793 5.1798 10.4013 5.21515 10.3201 5.16646L9.43064 4.63276V4.63276Z" fill="#FFD84E"/>
</g>
</svg>
