<svg width="14" height="10" viewBox="0 0 14 10" fill="none" xmlns="http://www.w3.org/2000/svg">
<rect x="0.25" y="0.25" width="13.5" height="9.5" rx="1.75" fill="white" stroke="#F5F5F5" stroke-width="0.5"/>
<mask id="mask0_142:185" style="mask-type:alpha" maskUnits="userSpaceOnUse" x="0" y="0" width="14" height="10">
<rect x="0.25" y="0.25" width="13.5" height="9.5" rx="1.75" fill="white" stroke="white" stroke-width="0.5"/>
</mask>
<g mask="url(#mask0_142:185)">
<path fill-rule="evenodd" clip-rule="evenodd" d="M0 10V10H14V4.66669H6.22223L6.66667 5.00001L0 10Z" fill="#DD1C34"/>
<path fill-rule="evenodd" clip-rule="evenodd" d="M14 4.66667H6.22222L0 0H14V4.66667Z" fill="#0D4BC3"/>
<path fill-rule="evenodd" clip-rule="evenodd" d="M0.99999 1.99998C1.18408 1.99998 1.33332 1.85074 1.33332 1.66665C1.33332 1.48255 1.18408 1.33331 0.99999 1.33331C0.815895 1.33331 0.666656 1.48255 0.666656 1.66665C0.666656 1.85074 0.815895 1.99998 0.99999 1.99998ZM4.99999 5.3333C5.18408 5.3333 5.33332 5.18406 5.33332 4.99997C5.33332 4.81587 5.18408 4.66664 4.99999 4.66664C4.81589 4.66664 4.66665 4.81587 4.66665 4.99997C4.66665 5.18406 4.81589 5.3333 4.99999 5.3333ZM1.33332 8.33332C1.33332 8.51742 1.18408 8.66666 0.99999 8.66666C0.815895 8.66666 0.666656 8.51742 0.666656 8.33332C0.666656 8.14923 0.815895 7.99999 0.99999 7.99999C1.18408 7.99999 1.33332 8.14923 1.33332 8.33332ZM2.26603 5.66329L1.69552 6.53978L1.91188 5.51656C1.87707 5.48812 1.84518 5.45623 1.81674 5.42142L0.793524 5.63779L1.67002 5.06727C1.6678 5.04514 1.66666 5.02269 1.66666 4.99998C1.66666 4.97727 1.6678 4.95482 1.67002 4.93269L0.793524 4.36217L1.81674 4.57854C1.84518 4.54373 1.87707 4.51184 1.91188 4.4834L1.69552 3.46018L2.26603 4.33667C2.28816 4.33445 2.31061 4.33331 2.33333 4.33331C2.35604 4.33331 2.37849 4.33445 2.40062 4.33667L2.97113 3.46018L2.75476 4.48339C2.78958 4.51183 2.82147 4.54372 2.84991 4.57854L3.87312 4.36217L2.99664 4.93268C2.99886 4.95481 3 4.97726 3 4.99998C3 5.0227 2.99886 5.04515 2.99664 5.06728L3.87312 5.63779L2.84991 5.42142C2.82147 5.45624 2.78958 5.48813 2.75476 5.51657L2.97113 6.53978L2.40062 5.66329C2.37849 5.66551 2.35604 5.66665 2.33333 5.66665C2.31061 5.66665 2.28816 5.66551 2.26603 5.66329Z" fill="#FDD64D"/>
</g>
</svg>
