<svg width="14" height="10" viewBox="0 0 14 10" fill="none" xmlns="http://www.w3.org/2000/svg">
<rect x="0.25" y="0.25" width="13.5" height="9.5" rx="1.75" fill="white" stroke="#F5F5F5" stroke-width="0.5"/>
<mask id="mask0_142:159" style="mask-type:alpha" maskUnits="userSpaceOnUse" x="0" y="0" width="14" height="10">
<rect x="0.25" y="0.25" width="13.5" height="9.5" rx="1.75" fill="white" stroke="white" stroke-width="0.5"/>
</mask>
<g mask="url(#mask0_142:159)">
<path fill-rule="evenodd" clip-rule="evenodd" d="M0 0H14V2H0V0ZM0 4H14V6H0V4ZM0 8V10H14V8H0Z" fill="#FA2222"/>
<path fill-rule="evenodd" clip-rule="evenodd" d="M0 0L6.66667 5L0 10V0Z" fill="#1D63F9"/>
<g filter="url(#filter0_d_142:159)">
<path fill-rule="evenodd" clip-rule="evenodd" d="M2.33335 5.63702L1.35371 6.34834L1.72749 5.19684L0.748259 4.48495L1.95891 4.4846L2.33335 3.33331L2.7078 4.4846L3.91845 4.48495L2.93921 5.19684L3.313 6.34834L2.33335 5.63702Z" fill="url(#paint0_linear_142:159)"/>
</g>
</g>
<defs>
<filter id="filter0_d_142:159" x="0.74823" y="3.33331" width="3.17023" height="4.01501" filterUnits="userSpaceOnUse" color-interpolation-filters="sRGB">
<feFlood flood-opacity="0" result="BackgroundImageFix"/>
<feColorMatrix in="SourceAlpha" type="matrix" values="0 0 0 0 0 0 0 0 0 0 0 0 0 0 0 0 0 0 127 0" result="hardAlpha"/>
<feOffset dy="1"/>
<feColorMatrix type="matrix" values="0 0 0 0 0 0 0 0 0 0 0 0 0 0 0 0 0 0 0.06 0"/>
<feBlend mode="normal" in2="BackgroundImageFix" result="effect1_dropShadow_142:159"/>
<feBlend mode="normal" in="SourceGraphic" in2="effect1_dropShadow_142:159" result="shape"/>
</filter>
<linearGradient id="paint0_linear_142:159" x1="0.666687" y1="3.33331" x2="0.666687" y2="6.66665" gradientUnits="userSpaceOnUse">
<stop stop-color="white"/>
<stop offset="1" stop-color="#F0F0F0"/>
</linearGradient>
</defs>
</svg>
