<svg width="14" height="10" viewBox="0 0 14 10" fill="none" xmlns="http://www.w3.org/2000/svg">
<rect width="14" height="10" rx="2" fill="white"/>
<mask id="mask0" mask-type="alpha" maskUnits="userSpaceOnUse" x="0" y="0" width="14" height="10">
<rect width="14" height="10" rx="2" fill="white"/>
</mask>
<g mask="url(#mask0)">
<rect width="14" height="10" fill="#FF2936"/>
<path fill-rule="evenodd" clip-rule="evenodd" d="M0 10H5.33333V0H0V10Z" fill="#128415"/>
<path d="M5.33333 7.00002C6.4379 7.00002 7.33333 6.10459 7.33333 5.00002C7.33333 3.89545 6.4379 3.00002 5.33333 3.00002C4.22876 3.00002 3.33333 3.89545 3.33333 5.00002C3.33333 6.10459 4.22876 7.00002 5.33333 7.00002Z" stroke="#FAF94F" stroke-width="1.33333"/>
<path fill-rule="evenodd" clip-rule="evenodd" d="M4.66667 4.33333C4.66667 4.14924 4.81591 4 5 4H5.66667C5.85076 4 6 4.14924 6 4.33333V5.33333C6 5.70152 5.70153 6 5.33333 6V6C4.96514 6 4.66667 5.70152 4.66667 5.33333V4.33333Z" fill="white"/>
<path fill-rule="evenodd" clip-rule="evenodd" d="M5.33333 5.33331C5.51743 5.33331 5.66667 4.85074 5.66667 4.66665C5.66667 4.48255 5.51743 4.33331 5.33333 4.33331C5.14924 4.33331 5 4.48255 5 4.66665C5 4.85074 5.14924 5.33331 5.33333 5.33331Z" fill="#1D50B5"/>
</g>
</svg>
