<svg width="14" height="10" viewBox="0 0 14 10" fill="none" xmlns="http://www.w3.org/2000/svg">
<rect x="0.25" y="0.25" width="13.5" height="9.5" rx="1.75" fill="white" stroke="#F5F5F5" stroke-width="0.5"/>
<mask id="mask0_142:193" style="mask-type:alpha" maskUnits="userSpaceOnUse" x="0" y="0" width="14" height="10">
<rect x="0.25" y="0.25" width="13.5" height="9.5" rx="1.75" fill="white" stroke="white" stroke-width="0.5"/>
</mask>
<g mask="url(#mask0_142:193)">
<path fill-rule="evenodd" clip-rule="evenodd" d="M0 3.33333H14V0H0V3.33333Z" fill="#E33F39"/>
<path fill-rule="evenodd" clip-rule="evenodd" d="M0 10H14V6.66669H0V10Z" fill="#124BBA"/>
<path d="M7 6.33333C7.73638 6.33333 8.33333 5.73638 8.33333 5C8.33333 4.26362 7.73638 3.66667 7 3.66667C6.26362 3.66667 5.66667 4.26362 5.66667 5C5.66667 5.73638 6.26362 6.33333 7 6.33333Z" stroke="#398153" stroke-width="0.666667"/>
<path fill-rule="evenodd" clip-rule="evenodd" d="M6.99999 5.33335C7.18408 5.33335 7.33332 5.18412 7.33332 5.00002C7.33332 4.81593 7.18408 4.66669 6.99999 4.66669C6.81589 4.66669 6.66666 4.81593 6.66666 5.00002C6.66666 5.18412 6.81589 5.33335 6.99999 5.33335Z" fill="#E5CF58"/>
</g>
</svg>
