<svg width="14" height="10" viewBox="0 0 14 10" fill="none" xmlns="http://www.w3.org/2000/svg">
<rect width="14" height="10" rx="2" fill="white"/>
<mask id="mask0_142:168" style="mask-type:alpha" maskUnits="userSpaceOnUse" x="0" y="0" width="14" height="10">
<rect width="14" height="10" rx="2" fill="white"/>
</mask>
<g mask="url(#mask0_142:168)">
<rect width="14" height="10" fill="#128C4B"/>
<path fill-rule="evenodd" clip-rule="evenodd" d="M3.33334 5.99995H8.66668V5.74531C8.66668 5.40287 9.02705 5.18014 9.33334 5.33329V5.33329V5.99995H10.2222C10.4677 5.99995 10.6667 6.19894 10.6667 6.4444V6.4444C10.6667 6.93532 10.2687 7.33329 9.77779 7.33329H9.33334C8.96515 7.33329 8.66668 7.03481 8.66668 6.66662V6.66662H4.27615C4.09934 6.66662 3.92977 6.59638 3.80475 6.47136L3.33334 5.99995Z" fill="white"/>
<path fill-rule="evenodd" clip-rule="evenodd" d="M3.33334 4.13809C3.33334 4.04969 3.36846 3.9649 3.43097 3.90239V3.90239C3.56115 3.77221 3.56115 3.56116 3.43097 3.43098V3.43098C3.36846 3.36847 3.33334 3.28369 3.33334 3.19528V3.00002C3.33334 2.81593 3.48258 2.66669 3.66668 2.66669H3.87269C3.94301 2.66669 4.00001 2.72369 4.00001 2.79401V2.79401C4.00001 2.92836 4.18113 2.97112 4.24121 2.85095L4.2909 2.75157C4.31691 2.69955 4.37008 2.66669 4.42824 2.66669H5.16668C5.25872 2.66669 5.33334 2.74131 5.33334 2.83335V2.83335C5.33334 2.9254 5.25872 3.00002 5.16668 3.00002H4.83334C4.7413 3.00002 4.66668 3.07464 4.66668 3.16669V3.16669C4.66668 3.25873 4.7413 3.33335 4.83334 3.33335H5.00001C5.18411 3.33335 5.33334 3.48259 5.33334 3.66669V4.33335C5.33334 4.51745 5.18411 4.66669 5.00001 4.66669V4.66669C4.81592 4.66669 4.66668 4.51745 4.66668 4.33335V4.16669C4.66668 4.07464 4.7413 4.00002 4.83334 4.00002V4.00002C4.92539 4.00002 5.00001 3.9254 5.00001 3.83335V3.83335C5.00001 3.74131 4.92539 3.66669 4.83334 3.66669H4.66668C4.48258 3.66669 4.33334 3.81593 4.33334 4.00002V4.50002C4.33334 4.59207 4.25872 4.66669 4.16668 4.66669V4.66669C4.07463 4.66669 4.00001 4.59207 4.00001 4.50002V4.16669C4.00001 4.07464 3.92539 4.00002 3.83334 4.00002V4.00002C3.7413 4.00002 3.66668 4.07464 3.66668 4.16669V4.50002C3.66668 4.59207 3.59206 4.66669 3.50001 4.66669V4.66669C3.40796 4.66669 3.33334 4.59207 3.33334 4.50002V4.13809Z" fill="white"/>
<path fill-rule="evenodd" clip-rule="evenodd" d="M8.66666 4.13809C8.66666 4.04969 8.70178 3.9649 8.76429 3.90239V3.90239C8.89446 3.77221 8.89446 3.56116 8.76429 3.43098V3.43098C8.70178 3.36847 8.66666 3.28369 8.66666 3.19528V3.00002C8.66666 2.81593 8.81589 2.66669 8.99999 2.66669H9.206C9.27632 2.66669 9.33332 2.72369 9.33332 2.79401V2.79401C9.33332 2.92836 9.51444 2.97112 9.57453 2.85095L9.62422 2.75157C9.65023 2.69955 9.7034 2.66669 9.76156 2.66669H10.5C10.592 2.66669 10.6667 2.74131 10.6667 2.83335V2.83335C10.6667 2.9254 10.592 3.00002 10.5 3.00002H10.1667C10.0746 3.00002 9.99999 3.07464 9.99999 3.16669V3.16669C9.99999 3.25873 10.0746 3.33335 10.1667 3.33335H10.3333C10.5174 3.33335 10.6667 3.48259 10.6667 3.66669V4.33335C10.6667 4.51745 10.5174 4.66669 10.3333 4.66669V4.66669C10.1492 4.66669 9.99999 4.51745 9.99999 4.33335V4.16669C9.99999 4.07464 10.0746 4.00002 10.1667 4.00002V4.00002C10.2587 4.00002 10.3333 3.9254 10.3333 3.83335V3.83335C10.3333 3.74131 10.2587 3.66669 10.1667 3.66669H9.99999C9.81589 3.66669 9.66666 3.81593 9.66666 4.00002V4.50002C9.66666 4.59207 9.59204 4.66669 9.49999 4.66669V4.66669C9.40794 4.66669 9.33332 4.59207 9.33332 4.50002V4.16669C9.33332 4.07464 9.2587 4.00002 9.16666 4.00002V4.00002C9.07461 4.00002 8.99999 4.07464 8.99999 4.16669V4.50002C8.99999 4.59207 8.92537 4.66669 8.83332 4.66669V4.66669C8.74128 4.66669 8.66666 4.59207 8.66666 4.50002V4.13809Z" fill="white"/>
<path fill-rule="evenodd" clip-rule="evenodd" d="M8 3.16513C8 3.25804 7.94792 3.38544 7.87966 3.45369L7.78701 3.54635C7.72055 3.61281 7.71875 3.71877 7.78701 3.78703L7.87966 3.87968C7.94612 3.94614 8 4.07137 8 4.16825V4.49846C8 4.59137 7.92865 4.66669 7.83177 4.66669H7.50156C7.40865 4.66669 7.33333 4.59534 7.33333 4.49846V4.16825C7.33333 4.07534 7.30257 4.06154 7.25602 4.15464L7.07731 4.51206C7.03461 4.59746 6.92153 4.66669 6.83487 4.66669H6.16513C6.07393 4.66669 6 4.58938 6 4.50002V4.50002C6 4.40797 6.07135 4.33335 6.16823 4.33335H6.49844C6.59135 4.33335 6.66667 4.25604 6.66667 4.16669V4.16669C6.66667 4.07464 6.59532 4.00002 6.49844 4.00002H6.16823C6.07532 4.00002 6 3.92833 6 3.83653V2.83018C6 2.73989 6.07135 2.66669 6.16823 2.66669H6.49844C6.59135 2.66669 6.66667 2.73803 6.66667 2.83492V3.16513C6.66667 3.25804 6.58936 3.33335 6.5 3.33335V3.33335C6.40795 3.33335 6.33333 3.41066 6.33333 3.50002V3.50002C6.33333 3.59207 6.40468 3.66669 6.50156 3.66669H6.83177C6.92468 3.66669 7 3.58822 7 3.50156V2.83182C7 2.74062 7.07731 2.66669 7.16667 2.66669V2.66669C7.25871 2.66669 7.33333 2.73803 7.33333 2.83492V3.16513C7.33333 3.25804 7.41064 3.33335 7.5 3.33335V3.33335C7.59205 3.33335 7.66667 3.26201 7.66667 3.16513V2.83492C7.66667 2.74201 7.74398 2.66669 7.83333 2.66669V2.66669C7.92538 2.66669 8 2.73803 8 2.83492V3.16513V3.16513Z" fill="white"/>
</g>
</svg>
