<svg width="14" height="10" viewBox="0 0 14 10" fill="none" xmlns="http://www.w3.org/2000/svg">
<rect x="0.25" y="0.25" width="13.5" height="9.5" rx="1.75" fill="white" stroke="#F5F5F5" stroke-width="0.5"/>
<mask id="mask0_142:30" style="mask-type:alpha" maskUnits="userSpaceOnUse" x="0" y="0" width="14" height="10">
<rect x="0.25" y="0.25" width="13.5" height="9.5" rx="1.75" fill="white" stroke="white" stroke-width="0.5"/>
</mask>
<g mask="url(#mask0_142:30)">
<path fill-rule="evenodd" clip-rule="evenodd" d="M0 5.33333H14V0H0V5.33333Z" fill="#E12237"/>
<path fill-rule="evenodd" clip-rule="evenodd" d="M3.33331 4.66663C3.80584 4.66663 4.2401 4.50275 4.58235 4.22874C4.40106 4.29635 4.20484 4.33331 3.99999 4.33331C3.07951 4.33331 2.33332 3.58712 2.33332 2.66665C2.33332 1.74617 3.07951 0.99998 3.99999 0.99998C4.20488 0.99998 4.40113 1.03695 4.58244 1.10459C4.24018 0.830528 3.80589 0.666626 3.33331 0.666626C2.22874 0.666626 1.33331 1.56206 1.33331 2.66663C1.33331 3.7712 2.22874 4.66663 3.33331 4.66663ZM3.99998 2.33331C3.99998 2.51741 3.85074 2.66665 3.66664 2.66665C3.48255 2.66665 3.33331 2.51741 3.33331 2.33331C3.33331 2.14922 3.48255 1.99998 3.66664 1.99998C3.85074 1.99998 3.99998 2.14922 3.99998 2.33331ZM4.33331 3.99994C4.51741 3.99994 4.66665 3.8507 4.66665 3.66661C4.66665 3.48251 4.51741 3.33327 4.33331 3.33327C4.14922 3.33327 3.99998 3.48251 3.99998 3.66661C3.99998 3.8507 4.14922 3.99994 4.33331 3.99994ZM5.99998 3.66661C5.99998 3.8507 5.85074 3.99994 5.66664 3.99994C5.48255 3.99994 5.33331 3.8507 5.33331 3.66661C5.33331 3.48251 5.48255 3.33327 5.66664 3.33327C5.85074 3.33327 5.99998 3.48251 5.99998 3.66661ZM6.33331 2.66665C6.51741 2.66665 6.66665 2.51741 6.66665 2.33331C6.66665 2.14922 6.51741 1.99998 6.33331 1.99998C6.14922 1.99998 5.99998 2.14922 5.99998 2.33331C5.99998 2.51741 6.14922 2.66665 6.33331 2.66665ZM5.33332 1.33331C5.33332 1.51741 5.18408 1.66665 4.99999 1.66665C4.81589 1.66665 4.66665 1.51741 4.66665 1.33331C4.66665 1.14922 4.81589 0.99998 4.99999 0.99998C5.18408 0.99998 5.33332 1.14922 5.33332 1.33331Z" fill="white"/>
</g>
</svg>
