<svg width="14" height="10" viewBox="0 0 14 10" fill="none" xmlns="http://www.w3.org/2000/svg">
<rect width="14" height="10" rx="2" fill="white"/>
<mask id="mask0_142:203" style="mask-type:alpha" maskUnits="userSpaceOnUse" x="0" y="0" width="14" height="10">
<rect width="14" height="10" rx="2" fill="white"/>
</mask>
<g mask="url(#mask0_142:203)">
<rect width="14" height="10" fill="url(#paint0_linear_142:203)"/>
<path fill-rule="evenodd" clip-rule="evenodd" d="M8.66669 4.99996C8.66669 4.68242 8.66669 4.33127 8.66669 3.99988C8.66669 3.2635 9.26364 2.66663 10 2.66663H10.6667C11.4031 2.66663 12 3.2635 12 3.99988C12 4.33127 12 4.68242 12 4.99996C12 6.66663 10.3334 7.33329 10.3334 7.33329C10.3334 7.33329 8.66669 6.66663 8.66669 4.99996Z" fill="#8FC5FF"/>
<mask id="mask1_142:203" style="mask-type:alpha" maskUnits="userSpaceOnUse" x="8" y="2" width="4" height="6">
<path fill-rule="evenodd" clip-rule="evenodd" d="M8.66669 4.99996C8.66669 4.68242 8.66669 4.33127 8.66669 3.99988C8.66669 3.2635 9.26364 2.66663 10 2.66663H10.6667C11.4031 2.66663 12 3.2635 12 3.99988C12 4.33127 12 4.68242 12 4.99996C12 6.66663 10.3334 7.33329 10.3334 7.33329C10.3334 7.33329 8.66669 6.66663 8.66669 4.99996Z" fill="white"/>
</mask>
<g mask="url(#mask1_142:203)">
<path fill-rule="evenodd" clip-rule="evenodd" d="M10.045 5.94173C10.045 5.94173 10.3786 5.50968 10.5749 5.50968C10.7711 5.50968 10.8072 5.79657 11.109 5.79657C11.4107 5.79657 11.5699 5.33936 11.8606 5.33936C12.1513 5.33936 11.8606 6.83938 11.8606 6.83938L11.4667 7.24565L9.16101 7.51196L10.045 5.94173Z" fill="#366CC9"/>
<path fill-rule="evenodd" clip-rule="evenodd" d="M9.0631 5.2756L9.35735 5L9.64648 5.70785L10.0346 5L10.3684 7.01769L9.81332 6.90475L8 6.07568L9.0631 5.2756Z" fill="#CF6200"/>
<rect x="8.66669" y="2.66663" width="3.33333" height="2" fill="#FFFF00"/>
</g>
<path d="M9.00002 4.99996V4.94004V4.87941V4.81815V4.75634V4.69405V4.63136V4.56836V4.50511V4.44171V4.37822V4.37028V4.36829V4.36631V4.36432V4.36234V4.36035V4.35837V4.35639V4.3544V4.35242V4.35043V4.34845V4.34646V4.34448V4.34249V4.34051V4.33853V4.33654V4.33456V4.33257V4.33059V4.32861V4.32662V4.32464V4.32265V4.32067V4.31869V4.3167V4.31472V4.31273V4.31075V4.30877V4.30678V4.3048V4.30282V4.30084V4.29885V4.29687V4.29489V4.2929V4.29092V4.28894V4.28696V4.28497V4.28299V4.28101V4.27903V4.27705V4.27506V4.27308V4.2711V4.26912V4.26714V4.26516V4.26318V4.2612V4.25921V4.25723V4.25525V4.25327V4.25129V4.24931V4.24733V4.24535V4.24337V4.24139V4.23942V4.23744V4.23546V4.23348V4.2315V4.22952V4.22754V4.22557V4.22359V4.22161V4.21963V4.21765V4.21568V4.2137V4.21172V4.20975V4.20777V4.20579V4.20382V4.20184V4.19987V4.19789V4.19592V4.19394V4.19197V4.18999V4.18802V4.18604V4.18407V4.1821V4.18012V4.17815V4.17618V4.1742V4.17223V4.17026V4.16829V4.16632V4.16434V4.16237V4.1604V4.15843V4.15646V4.15449V4.15252V4.15055V4.14858V4.14661V4.14464V4.14268V4.14071V4.13874V4.13677V4.1348V4.13284V4.13087V4.1289V4.12694V4.12497V4.12301V4.12104V4.11908V4.11711V4.11515V4.11318V4.11122V4.10925V4.10729V4.10533V4.10337V4.1014V4.09944V4.09748V4.09552V4.09356V4.0916V4.08964V4.08768V4.08572V4.08376V4.0818V4.07984V4.07788V4.07593V4.07397V4.07201V4.07005V4.0681V4.06614V4.06419V4.06223V4.06028V4.05832V4.05637V4.05441V4.05246V4.05051V4.04856V4.0466V4.04465V4.0427V4.04075V4.0388V4.03685V4.0349V4.03295V4.031V4.02905V4.0271V4.02516V4.02321V4.02126V4.01932V4.01737V4.01542V4.01348V4.01154V4.00959V4.00765V4.0057V4.00376V4.00182V3.99988C9.00002 3.44762 9.44771 2.99996 10 2.99996H10.6667C11.219 2.99996 11.6667 3.44762 11.6667 3.99988V4.00182V4.00376V4.0057V4.00765V4.00959V4.01154V4.01348V4.01543V4.01737V4.01932V4.02126V4.02321V4.02516V4.02711V4.02905V4.031V4.03295V4.0349V4.03685V4.0388V4.04075V4.0427V4.04465V4.0466V4.04856V4.05051V4.05246V4.05442V4.05637V4.05832V4.06028V4.06223V4.06419V4.06614V4.0681V4.07006V4.07201V4.07397V4.07593V4.07788V4.07984V4.0818V4.08376V4.08572V4.08768V4.08964V4.0916V4.09356V4.09552V4.09748V4.09944V4.1014V4.10337V4.10533V4.10729V4.10926V4.11122V4.11318V4.11515V4.11711V4.11908V4.12104V4.12301V4.12497V4.12694V4.1289V4.13087V4.13284V4.13481V4.13677V4.13874V4.14071V4.14268V4.14465V4.14661V4.14858V4.15055V4.15252V4.15449V4.15646V4.15843V4.1604V4.16237V4.16435V4.16632V4.16829V4.17026V4.17223V4.17421V4.17618V4.17815V4.18012V4.1821V4.18407V4.18604V4.18802V4.18999V4.19197V4.19394V4.19592V4.19789V4.19987V4.20184V4.20382V4.2058V4.20777V4.20975V4.21172V4.2137V4.21568V4.21766V4.21963V4.22161V4.22359V4.22557V4.22754V4.22952V4.2315V4.23348V4.23546V4.23744V4.23942V4.2414V4.24337V4.24535V4.24733V4.24931V4.25129V4.25327V4.25525V4.25723V4.25922V4.2612V4.26318V4.26516V4.26714V4.26912V4.2711V4.27308V4.27506V4.27705V4.27903V4.28101V4.28299V4.28497V4.28696V4.28894V4.29092V4.2929V4.29489V4.29687V4.29885V4.30084V4.30282V4.3048V4.30679V4.30877V4.31075V4.31274V4.31472V4.3167V4.31869V4.32067V4.32265V4.32464V4.32662V4.32861V4.33059V4.33257V4.33456V4.33654V4.33853V4.34051V4.34249V4.34448V4.34646V4.34845V4.35043V4.35242V4.3544V4.35639V4.35837V4.36036V4.36234V4.36432V4.36631V4.36829V4.37028V4.37226V4.37425V4.37623V4.37822V4.3802V4.38219V4.38417V4.38615V4.38814V4.39012V4.39211V4.39409V4.39608V4.39806V4.40005V4.40203V4.40401V4.406V4.40798V4.40997V4.41195V4.41394V4.41592V4.4179V4.41989V4.42187V4.42386V4.42584V4.42782V4.42981V4.43179V4.43377V4.43576V4.43774V4.43972V4.44171V4.44369V4.44567V4.44766V4.44964V4.45162V4.45361V4.45559V4.45757V4.45955V4.46154V4.46352V4.4655V4.46748V4.46946V4.47145V4.47343V4.47541V4.47739V4.47937V4.48135V4.48333V4.48531V4.48729V4.48928V4.49126V4.49324V4.49522V4.4972V4.49918V4.50116V4.50314V4.50511V4.50709V4.50907V4.51105V4.51303V4.51501V4.51699V4.51897V4.52094V4.52292V4.5249V4.52688V4.52885V4.53083V4.53281V4.53479V4.53676V4.53874V4.54071V4.54269V4.54467V4.54664V4.54862V4.55059V4.55257V4.55454V4.55652V4.55849V4.56047V4.56244V4.56441V4.56639V4.56836V4.57033V4.57231V4.57428V4.57625V4.57822V4.58019V4.58216V4.58414V4.58611V4.58808V4.59005V4.59202V4.59399V4.59596V4.59793V4.5999V4.60187V4.60383V4.6058V4.60777V4.60974V4.61171V4.61367V4.61564V4.61761V4.61957V4.62154V4.6235V4.62547V4.62743V4.6294V4.63136V4.63333V4.63529V4.63726V4.63922V4.64118V4.64314V4.64511V4.64707V4.64903V4.65099V4.65295V4.65491V4.65687V4.65883V4.66079V4.66275V4.66471V4.66667V4.66863V4.67058V4.67254V4.6745V4.67646V4.67841V4.68037V4.68232V4.68428V4.68623V4.68819V4.69014V4.6921V4.69405V4.696V4.69795V4.69991V4.70186V4.70381V4.70576V4.70771V4.70966V4.71161V4.71356V4.71551V4.71746V4.71941V4.72135V4.7233V4.72525V4.72719V4.72914V4.73109V4.73303V4.73498V4.73692V4.73886V4.74081V4.74275V4.74469V4.74663V4.74858V4.75052V4.75246V4.7544V4.75634V4.75828V4.76022V4.76215V4.76409V4.76603V4.76797V4.7699V4.77184V4.77377V4.77571V4.77764V4.77958V4.78151V4.78344V4.78538V4.78731V4.78924V4.79117V4.7931V4.79503V4.79696V4.79889V4.80082V4.80275V4.80467V4.8066V4.80853V4.81045V4.81238V4.8143V4.81623V4.81815V4.82007V4.822V4.82392V4.82584V4.82776V4.82968V4.8316V4.83352V4.83544V4.83736V4.83928V4.84119V4.84311V4.84502V4.84694V4.84886V4.85077V4.85268V4.8546V4.85651V4.85842V4.86033V4.86224V4.86415V4.86606V4.86797V4.86988V4.87179V4.87369V4.8756V4.87751V4.87941V4.88132V4.88322V4.88512V4.88703V4.88893V4.89083V4.89273V4.89463V4.89653V4.89843V4.90033V4.90223V4.90412V4.90602V4.90791V4.90981V4.9117V4.9136V4.91549V4.91738V4.91927V4.92117V4.92306V4.92495V4.92684V4.92872V4.93061V4.9325V4.93438V4.93627V4.93816V4.94004V4.94192V4.94381V4.94569V4.94757V4.94945V4.95133V4.95321V4.95509V4.95697V4.95884V4.96072V4.9626V4.96447V4.96635V4.96822V4.97009V4.97197V4.97384V4.97571V4.97758V4.97945V4.98132V4.98318V4.98505V4.98692V4.98878V4.99065V4.99251V4.99437V4.99624V4.9981V4.99996C11.6667 5.7093 11.3155 6.20921 10.9437 6.54386C10.7575 6.71142 10.5702 6.8333 10.4294 6.91308C10.3939 6.93319 10.3616 6.95049 10.3334 6.96505C10.3051 6.95049 10.2728 6.93319 10.2373 6.91308C10.0965 6.8333 9.90918 6.71142 9.72301 6.54386C9.35117 6.20921 9.00002 5.7093 9.00002 4.99996Z" stroke="white" stroke-width="0.666667"/>
<mask id="mask2_142:203" style="mask-type:alpha" maskUnits="userSpaceOnUse" x="8" y="2" width="4" height="6">
<path d="M9.00002 4.99996V4.94004V4.87941V4.81815V4.75634V4.69405V4.63136V4.56836V4.50511V4.44171V4.37822V4.37028V4.36829V4.36631V4.36432V4.36234V4.36035V4.35837V4.35639V4.3544V4.35242V4.35043V4.34845V4.34646V4.34448V4.34249V4.34051V4.33853V4.33654V4.33456V4.33257V4.33059V4.32861V4.32662V4.32464V4.32265V4.32067V4.31869V4.3167V4.31472V4.31273V4.31075V4.30877V4.30678V4.3048V4.30282V4.30084V4.29885V4.29687V4.29489V4.2929V4.29092V4.28894V4.28696V4.28497V4.28299V4.28101V4.27903V4.27705V4.27506V4.27308V4.2711V4.26912V4.26714V4.26516V4.26318V4.2612V4.25921V4.25723V4.25525V4.25327V4.25129V4.24931V4.24733V4.24535V4.24337V4.24139V4.23942V4.23744V4.23546V4.23348V4.2315V4.22952V4.22754V4.22557V4.22359V4.22161V4.21963V4.21765V4.21568V4.2137V4.21172V4.20975V4.20777V4.20579V4.20382V4.20184V4.19987V4.19789V4.19592V4.19394V4.19197V4.18999V4.18802V4.18604V4.18407V4.1821V4.18012V4.17815V4.17618V4.1742V4.17223V4.17026V4.16829V4.16632V4.16434V4.16237V4.1604V4.15843V4.15646V4.15449V4.15252V4.15055V4.14858V4.14661V4.14464V4.14268V4.14071V4.13874V4.13677V4.1348V4.13284V4.13087V4.1289V4.12694V4.12497V4.12301V4.12104V4.11908V4.11711V4.11515V4.11318V4.11122V4.10925V4.10729V4.10533V4.10337V4.1014V4.09944V4.09748V4.09552V4.09356V4.0916V4.08964V4.08768V4.08572V4.08376V4.0818V4.07984V4.07788V4.07593V4.07397V4.07201V4.07005V4.0681V4.06614V4.06419V4.06223V4.06028V4.05832V4.05637V4.05441V4.05246V4.05051V4.04856V4.0466V4.04465V4.0427V4.04075V4.0388V4.03685V4.0349V4.03295V4.031V4.02905V4.0271V4.02516V4.02321V4.02126V4.01932V4.01737V4.01542V4.01348V4.01154V4.00959V4.00765V4.0057V4.00376V4.00182V3.99988C9.00002 3.44762 9.44771 2.99996 10 2.99996H10.6667C11.219 2.99996 11.6667 3.44762 11.6667 3.99988V4.00182V4.00376V4.0057V4.00765V4.00959V4.01154V4.01348V4.01543V4.01737V4.01932V4.02126V4.02321V4.02516V4.02711V4.02905V4.031V4.03295V4.0349V4.03685V4.0388V4.04075V4.0427V4.04465V4.0466V4.04856V4.05051V4.05246V4.05442V4.05637V4.05832V4.06028V4.06223V4.06419V4.06614V4.0681V4.07006V4.07201V4.07397V4.07593V4.07788V4.07984V4.0818V4.08376V4.08572V4.08768V4.08964V4.0916V4.09356V4.09552V4.09748V4.09944V4.1014V4.10337V4.10533V4.10729V4.10926V4.11122V4.11318V4.11515V4.11711V4.11908V4.12104V4.12301V4.12497V4.12694V4.1289V4.13087V4.13284V4.13481V4.13677V4.13874V4.14071V4.14268V4.14465V4.14661V4.14858V4.15055V4.15252V4.15449V4.15646V4.15843V4.1604V4.16237V4.16435V4.16632V4.16829V4.17026V4.17223V4.17421V4.17618V4.17815V4.18012V4.1821V4.18407V4.18604V4.18802V4.18999V4.19197V4.19394V4.19592V4.19789V4.19987V4.20184V4.20382V4.2058V4.20777V4.20975V4.21172V4.2137V4.21568V4.21766V4.21963V4.22161V4.22359V4.22557V4.22754V4.22952V4.2315V4.23348V4.23546V4.23744V4.23942V4.2414V4.24337V4.24535V4.24733V4.24931V4.25129V4.25327V4.25525V4.25723V4.25922V4.2612V4.26318V4.26516V4.26714V4.26912V4.2711V4.27308V4.27506V4.27705V4.27903V4.28101V4.28299V4.28497V4.28696V4.28894V4.29092V4.2929V4.29489V4.29687V4.29885V4.30084V4.30282V4.3048V4.30679V4.30877V4.31075V4.31274V4.31472V4.3167V4.31869V4.32067V4.32265V4.32464V4.32662V4.32861V4.33059V4.33257V4.33456V4.33654V4.33853V4.34051V4.34249V4.34448V4.34646V4.34845V4.35043V4.35242V4.3544V4.35639V4.35837V4.36036V4.36234V4.36432V4.36631V4.36829V4.37028V4.37226V4.37425V4.37623V4.37822V4.3802V4.38219V4.38417V4.38615V4.38814V4.39012V4.39211V4.39409V4.39608V4.39806V4.40005V4.40203V4.40401V4.406V4.40798V4.40997V4.41195V4.41394V4.41592V4.4179V4.41989V4.42187V4.42386V4.42584V4.42782V4.42981V4.43179V4.43377V4.43576V4.43774V4.43972V4.44171V4.44369V4.44567V4.44766V4.44964V4.45162V4.45361V4.45559V4.45757V4.45955V4.46154V4.46352V4.4655V4.46748V4.46946V4.47145V4.47343V4.47541V4.47739V4.47937V4.48135V4.48333V4.48531V4.48729V4.48928V4.49126V4.49324V4.49522V4.4972V4.49918V4.50116V4.50314V4.50511V4.50709V4.50907V4.51105V4.51303V4.51501V4.51699V4.51897V4.52094V4.52292V4.5249V4.52688V4.52885V4.53083V4.53281V4.53479V4.53676V4.53874V4.54071V4.54269V4.54467V4.54664V4.54862V4.55059V4.55257V4.55454V4.55652V4.55849V4.56047V4.56244V4.56441V4.56639V4.56836V4.57033V4.57231V4.57428V4.57625V4.57822V4.58019V4.58216V4.58414V4.58611V4.58808V4.59005V4.59202V4.59399V4.59596V4.59793V4.5999V4.60187V4.60383V4.6058V4.60777V4.60974V4.61171V4.61367V4.61564V4.61761V4.61957V4.62154V4.6235V4.62547V4.62743V4.6294V4.63136V4.63333V4.63529V4.63726V4.63922V4.64118V4.64314V4.64511V4.64707V4.64903V4.65099V4.65295V4.65491V4.65687V4.65883V4.66079V4.66275V4.66471V4.66667V4.66863V4.67058V4.67254V4.6745V4.67646V4.67841V4.68037V4.68232V4.68428V4.68623V4.68819V4.69014V4.6921V4.69405V4.696V4.69795V4.69991V4.70186V4.70381V4.70576V4.70771V4.70966V4.71161V4.71356V4.71551V4.71746V4.71941V4.72135V4.7233V4.72525V4.72719V4.72914V4.73109V4.73303V4.73498V4.73692V4.73886V4.74081V4.74275V4.74469V4.74663V4.74858V4.75052V4.75246V4.7544V4.75634V4.75828V4.76022V4.76215V4.76409V4.76603V4.76797V4.7699V4.77184V4.77377V4.77571V4.77764V4.77958V4.78151V4.78344V4.78538V4.78731V4.78924V4.79117V4.7931V4.79503V4.79696V4.79889V4.80082V4.80275V4.80467V4.8066V4.80853V4.81045V4.81238V4.8143V4.81623V4.81815V4.82007V4.822V4.82392V4.82584V4.82776V4.82968V4.8316V4.83352V4.83544V4.83736V4.83928V4.84119V4.84311V4.84502V4.84694V4.84886V4.85077V4.85268V4.8546V4.85651V4.85842V4.86033V4.86224V4.86415V4.86606V4.86797V4.86988V4.87179V4.87369V4.8756V4.87751V4.87941V4.88132V4.88322V4.88512V4.88703V4.88893V4.89083V4.89273V4.89463V4.89653V4.89843V4.90033V4.90223V4.90412V4.90602V4.90791V4.90981V4.9117V4.9136V4.91549V4.91738V4.91927V4.92117V4.92306V4.92495V4.92684V4.92872V4.93061V4.9325V4.93438V4.93627V4.93816V4.94004V4.94192V4.94381V4.94569V4.94757V4.94945V4.95133V4.95321V4.95509V4.95697V4.95884V4.96072V4.9626V4.96447V4.96635V4.96822V4.97009V4.97197V4.97384V4.97571V4.97758V4.97945V4.98132V4.98318V4.98505V4.98692V4.98878V4.99065V4.99251V4.99437V4.99624V4.9981V4.99996C11.6667 5.7093 11.3155 6.20921 10.9437 6.54386C10.7575 6.71142 10.5702 6.8333 10.4294 6.91308C10.3939 6.93319 10.3616 6.95049 10.3334 6.96505C10.3051 6.95049 10.2728 6.93319 10.2373 6.91308C10.0965 6.8333 9.90918 6.71142 9.72301 6.54386C9.35117 6.20921 9.00002 5.7093 9.00002 4.99996Z" fill="white" stroke="white" stroke-width="0.666667"/>
</mask>
<g mask="url(#mask2_142:203)">
</g>
<path d="M0 -0.333333H-0.901086L-0.21693 0.253086L2 2.15331V2.49513L-0.193746 4.06209L-0.333333 4.16179V4.33333V4.66667V5.26808L0.176666 4.94933L2.76227 3.33333H3.22651L5.44417 4.91738C5.5194 4.97111 5.60954 5 5.70199 5C6.11381 5 6.30334 4.48765 5.99067 4.21964L4 2.51336V2.17154L6.05416 0.704283C6.22936 0.579142 6.33333 0.377095 6.33333 0.161794V0V-0.601416L5.82333 -0.282666L3.23773 1.33333H2.77349L0.527079 -0.271244L0.440155 -0.333333H0.333333H0Z" fill="#DB1E36" stroke="white" stroke-width="0.666667"/>
<path fill-rule="evenodd" clip-rule="evenodd" d="M0 1.66667V3H2.33333V4.33333C2.33333 4.70152 2.63181 5 3 5V5C3.36819 5 3.66667 4.70152 3.66667 4.33333V3H5.66667C6.03486 3 6.33333 2.70152 6.33333 2.33333V2.33333C6.33333 1.96514 6.03486 1.66667 5.66667 1.66667H3.66667V0H2.33333V1.66667H0Z" fill="white"/>
<path fill-rule="evenodd" clip-rule="evenodd" d="M0 2H2.66667V1.66667V0H3.33333V1.66667V2H6V2.66667H3.33333V3V4.66667H2.66667V3V2.66667H0V2Z" fill="#DB1E36"/>
</g>
<defs>
<linearGradient id="paint0_linear_142:203" x1="0" y1="0" x2="0" y2="10" gradientUnits="userSpaceOnUse">
<stop stop-color="#07319C"/>
<stop offset="1" stop-color="#00247E"/>
</linearGradient>
</defs>
</svg>
