<svg width="14" height="10" viewBox="0 0 14 10" fill="none" xmlns="http://www.w3.org/2000/svg">
<rect x="0.25" y="0.25" width="13.5" height="9.5" rx="1.75" fill="white" stroke="#F5F5F5" stroke-width="0.5"/>
<mask id="mask0_142:34" style="mask-type:alpha" maskUnits="userSpaceOnUse" x="0" y="0" width="14" height="10">
<rect x="0.25" y="0.25" width="13.5" height="9.5" rx="1.75" fill="white" stroke="white" stroke-width="0.5"/>
</mask>
<g mask="url(#mask0_142:34)">
<path fill-rule="evenodd" clip-rule="evenodd" d="M0 6.66671H14V3.33337H0V6.66671Z" fill="#0C47B7"/>
<path fill-rule="evenodd" clip-rule="evenodd" d="M0 9.99996H14V6.66663H0V9.99996Z" fill="#E53B35"/>
<path d="M5.8836 1.33333H4.11634C3.04168 1.33333 2.15912 2.1826 2.11782 3.25647L2.02524 5.66361C2.00177 6.27392 2.25845 6.86151 2.72218 7.25899L3.26453 7.72386C4.26317 8.57984 5.73678 8.57984 6.73542 7.72386L7.27777 7.25899C7.7415 6.86151 7.99818 6.27392 7.97471 5.66361L7.88213 3.25647C7.84082 2.1826 6.95827 1.33333 5.8836 1.33333Z" fill="#F73744" stroke="white" stroke-width="1.33333"/>
<mask id="mask1_142:34" style="mask-type:alpha" maskUnits="userSpaceOnUse" x="1" y="0" width="8" height="10">
<path d="M5.8836 1.33333H4.11634C3.04168 1.33333 2.15912 2.1826 2.11782 3.25647L2.02524 5.66361C2.00177 6.27392 2.25845 6.86151 2.72218 7.25899L3.26453 7.72386C4.26317 8.57984 5.73678 8.57984 6.73542 7.72386L7.27777 7.25899C7.7415 6.86151 7.99818 6.27392 7.97471 5.66361L7.88213 3.25647C7.84082 2.1826 6.95827 1.33333 5.8836 1.33333Z" fill="white" stroke="white" stroke-width="1.33333"/>
</mask>
<g mask="url(#mask1_142:34)">
<path fill-rule="evenodd" clip-rule="evenodd" d="M4.66663 5.66663C4.66663 5.48253 4.51739 5.33329 4.33329 5.33329H3.99996C3.81586 5.33329 3.66663 5.18405 3.66663 4.99996V4.99996C3.66663 4.81586 3.81586 4.66663 3.99996 4.66663H4.33329C4.51739 4.66663 4.66663 4.51739 4.66663 4.33329V4.33329C4.66663 4.1492 4.51739 3.99996 4.33329 3.99996V3.99996C4.1492 3.99996 3.99996 3.85072 3.99996 3.66663V3.66663C3.99996 3.48253 4.1492 3.33329 4.33329 3.33329V3.33329C4.51739 3.33329 4.66663 3.18405 4.66663 2.99996V2.99996C4.66663 2.81586 4.81586 2.66663 4.99996 2.66663V2.66663C5.18405 2.66663 5.33329 2.81586 5.33329 2.99996V2.99996C5.33329 3.18405 5.48253 3.33329 5.66663 3.33329V3.33329C5.85072 3.33329 5.99996 3.48253 5.99996 3.66663V3.66663C5.99996 3.85072 5.85072 3.99996 5.66663 3.99996V3.99996C5.48253 3.99996 5.33329 4.1492 5.33329 4.33329V4.33329C5.33329 4.51739 5.48253 4.66663 5.66663 4.66663H5.99996C6.18405 4.66663 6.33329 4.81586 6.33329 4.99996V4.99996C6.33329 5.18405 6.18405 5.33329 5.99996 5.33329H5.66663C5.48253 5.33329 5.33329 5.48253 5.33329 5.66663V6.33329C5.33329 6.51739 5.18405 6.66663 4.99996 6.66663V6.66663C4.81586 6.66663 4.66663 6.51739 4.66663 6.33329V5.66663Z" fill="white"/>
<path fill-rule="evenodd" clip-rule="evenodd" d="M5.60179 6.71279C5.49448 6.48838 5.26534 6.33337 5.00001 6.33337C4.73467 6.33337 4.50554 6.48838 4.39823 6.71279C3.58772 6.84049 3 7.21929 3 7.66673C3 8.21901 3.89543 8.66673 5 8.66673C6.10457 8.66673 7 8.21901 7 7.66673C7 7.21929 6.41229 6.84049 5.60179 6.71279Z" fill="#1251A1"/>
</g>
</g>
</svg>
