<svg width="14" height="10" viewBox="0 0 14 10" fill="none" xmlns="http://www.w3.org/2000/svg">
<rect x="0.25" y="0.25" width="13.5" height="9.5" rx="1.75" fill="white" stroke="#F5F5F5" stroke-width="0.5"/>
<mask id="mask0_142:27" style="mask-type:alpha" maskUnits="userSpaceOnUse" x="0" y="0" width="14" height="10">
<rect x="0.25" y="0.25" width="13.5" height="9.5" rx="1.75" fill="white" stroke="white" stroke-width="0.5"/>
</mask>
<g mask="url(#mask0_142:27)">
<path fill-rule="evenodd" clip-rule="evenodd" d="M0 9.99996H14V4.66663H0V9.99996Z" fill="#7CCCF5"/>
<path d="M6.33335 4.66663C6.33335 4.29844 6.03488 3.99996 5.66669 3.99996C5.2985 3.99996 5.00002 4.29844 5.00002 4.66663H6.33335ZM5.99724 6.39733C6.31571 6.58211 6.72367 6.47374 6.90845 6.15528C7.09324 5.83682 6.98487 5.42885 6.66641 5.24407L5.99724 6.39733ZM7.35824 5.22907C7.04807 5.42745 6.95744 5.83971 7.15582 6.14989C7.3542 6.46006 7.76646 6.55069 8.07664 6.35231L7.35824 5.22907ZM9.00001 4.66663C9.00001 4.29844 8.70154 3.99996 8.33335 3.99996C7.96516 3.99996 7.66668 4.29844 7.66668 4.66663H9.00001ZM5.00002 4.66663C5.00002 5.4068 5.40245 6.0522 5.99724 6.39733L6.66641 5.24407C6.46582 5.12768 6.33335 4.91224 6.33335 4.66663H5.00002ZM8.07664 6.35231C8.63048 5.99809 9.00001 5.37573 9.00001 4.66663H7.66668C7.66668 4.90205 7.54515 5.10953 7.35824 5.22907L8.07664 6.35231Z" fill="#445F42"/>
<path fill-rule="evenodd" clip-rule="evenodd" d="M7.00001 5.33337C7.3682 5.33337 7.66668 4.88566 7.66668 4.33337C7.66668 3.78109 7.3682 3.33337 7.00001 3.33337C6.63182 3.33337 6.33334 3.78109 6.33334 4.33337C6.33334 4.88566 6.63182 5.33337 7.00001 5.33337Z" fill="#D89F3D"/>
</g>
</svg>
