<svg width="14" height="10" viewBox="0 0 14 10" fill="none" xmlns="http://www.w3.org/2000/svg">
<rect x="0.25" y="0.25" width="13.5" height="9.5" rx="1.75" fill="white" stroke="#F5F5F5" stroke-width="0.5"/>
<mask id="mask0_142:163" style="mask-type:alpha" maskUnits="userSpaceOnUse" x="0" y="0" width="14" height="10">
<rect x="0.25" y="0.25" width="13.5" height="9.5" rx="1.75" fill="white" stroke="white" stroke-width="0.5"/>
</mask>
<g mask="url(#mask0_142:163)">
<path fill-rule="evenodd" clip-rule="evenodd" d="M0 3.33333H14V0H0V3.33333Z" fill="#1B57C4"/>
<path fill-rule="evenodd" clip-rule="evenodd" d="M0 9.99999H14V6.66666H0V9.99999Z" fill="#1B57C4"/>
<path fill-rule="evenodd" clip-rule="evenodd" d="M6.2 3.93326C5.87616 4.17651 5.66669 4.5638 5.66669 5.00001C5.66669 5.73638 6.26364 6.33334 7.00002 6.33334C7.7364 6.33334 8.33335 5.73638 8.33335 5.00001C8.33335 4.5638 8.12388 4.17652 7.80005 3.93326L7.33336 5.33333H6.66669L6.2 3.93326Z" fill="url(#paint0_linear_142:163)"/>
<path fill-rule="evenodd" clip-rule="evenodd" d="M6.99999 3.66666L7.33332 5.33332H6.66666L6.99999 3.66666Z" fill="#F9C92E"/>
</g>
<defs>
<linearGradient id="paint0_linear_142:163" x1="5.66669" y1="3.93326" x2="5.66669" y2="6.33334" gradientUnits="userSpaceOnUse">
<stop stop-color="#3C7839"/>
<stop offset="1" stop-color="#31642E"/>
</linearGradient>
</defs>
</svg>
