<svg width="14" height="10" viewBox="0 0 14 10" fill="none" xmlns="http://www.w3.org/2000/svg">
<rect x="0.25" y="0.25" width="13.5" height="9.5" rx="1.75" fill="white" stroke="#F5F5F5" stroke-width="0.5"/>
<mask id="mask0_142:33" style="mask-type:alpha" maskUnits="userSpaceOnUse" x="0" y="0" width="14" height="10">
<rect x="0.25" y="0.25" width="13.5" height="9.5" rx="1.75" fill="white" stroke="white" stroke-width="0.5"/>
</mask>
<g mask="url(#mask0_142:33)">
<path fill-rule="evenodd" clip-rule="evenodd" d="M0 9.99996H14V6.66663H0V9.99996Z" fill="#262626"/>
<path fill-rule="evenodd" clip-rule="evenodd" d="M0 3.33333H14V0H0V3.33333Z" fill="#E32139"/>
<path fill-rule="evenodd" clip-rule="evenodd" d="M4.66665 5.54663L3.88293 6.07865L4.14674 5.16889L3.39857 4.58794L4.34532 4.5577L4.66665 3.66663L4.98797 4.5577L5.93472 4.58794L5.18656 5.16889L5.45036 6.07865L4.66665 5.54663Z" fill="#128A49"/>
<path fill-rule="evenodd" clip-rule="evenodd" d="M9.33333 5.54663L8.54962 6.07865L8.81342 5.16889L8.06526 4.58794L9.01201 4.5577L9.33333 3.66663L9.65466 4.5577L10.6014 4.58794L9.85324 5.16889L10.117 6.07865L9.33333 5.54663Z" fill="#128A49"/>
</g>
</svg>
