<svg width="14" height="10" viewBox="0 0 14 10" fill="none" xmlns="http://www.w3.org/2000/svg">
<rect width="14" height="10" rx="2" fill="white"/>
<mask id="mask0_142:38" style="mask-type:alpha" maskUnits="userSpaceOnUse" x="0" y="0" width="14" height="10">
<rect width="14" height="10" rx="2" fill="white"/>
</mask>
<g mask="url(#mask0_142:38)">
<path fill-rule="evenodd" clip-rule="evenodd" d="M0 2H14V0H0V2Z" fill="#486BCA"/>
<path fill-rule="evenodd" clip-rule="evenodd" d="M0 10H14V8H0V10Z" fill="#486BCA"/>
<path fill-rule="evenodd" clip-rule="evenodd" d="M0 8H14V2H0V8Z" fill="#FFDF20"/>
<path fill-rule="evenodd" clip-rule="evenodd" d="M0 7.33329H14V2.66663H0V7.33329Z" fill="#CF1615"/>
<path fill-rule="evenodd" clip-rule="evenodd" d="M7 6.66671C8.65685 6.66671 10 5.00004 10 5.00004C10 5.00004 8.65685 3.33337 7 3.33337C5.34315 3.33337 4 5.00004 4 5.00004C4 5.00004 5.34315 6.66671 7 6.66671Z" fill="white"/>
<mask id="mask1_142:38" style="mask-type:alpha" maskUnits="userSpaceOnUse" x="4" y="3" width="6" height="4">
<path fill-rule="evenodd" clip-rule="evenodd" d="M7 6.66671C8.65685 6.66671 10 5.00004 10 5.00004C10 5.00004 8.65685 3.33337 7 3.33337C5.34315 3.33337 4 5.00004 4 5.00004C4 5.00004 5.34315 6.66671 7 6.66671Z" fill="white"/>
</mask>
<g mask="url(#mask1_142:38)">
<path fill-rule="evenodd" clip-rule="evenodd" d="M7.33331 3.33337H3.99998V6.66671H6.66665L7.33331 3.33337Z" fill="#262626"/>
<path fill-rule="evenodd" clip-rule="evenodd" d="M7.66665 5.33342C7.85074 5.33342 7.99998 5.18418 7.99998 5.00008C7.99998 4.81599 7.85074 4.66675 7.66665 4.66675C7.48255 4.66675 7.33331 4.81599 7.33331 5.00008C7.33331 5.18418 7.48255 5.33342 7.66665 5.33342Z" fill="#1A1A1A"/>
<path fill-rule="evenodd" clip-rule="evenodd" d="M6.33333 5.33342C6.51743 5.33342 6.66667 5.18418 6.66667 5.00008C6.66667 4.81599 6.51743 4.66675 6.33333 4.66675C6.14924 4.66675 6 4.81599 6 5.00008C6 5.18418 6.14924 5.33342 6.33333 5.33342Z" fill="#F6F6F6"/>
</g>
</g>
</svg>
