<svg width="14" height="10" viewBox="0 0 14 10" fill="none" xmlns="http://www.w3.org/2000/svg">
<rect x="0.25" y="0.25" width="13.5" height="9.5" rx="1.75" fill="white" stroke="#F5F5F5" stroke-width="0.5"/>
<mask id="mask0_142:49" style="mask-type:alpha" maskUnits="userSpaceOnUse" x="0" y="0" width="14" height="10">
<rect x="0.25" y="0.25" width="13.5" height="9.5" rx="1.75" fill="white" stroke="white" stroke-width="0.5"/>
</mask>
<g mask="url(#mask0_142:49)">
<path fill-rule="evenodd" clip-rule="evenodd" d="M0 3.33333H14V0H0V3.33333Z" fill="#D9101C"/>
<path fill-rule="evenodd" clip-rule="evenodd" d="M0 9.99996H14V6.66663H0V9.99996Z" fill="#0F7811"/>
<path fill-rule="evenodd" clip-rule="evenodd" d="M6.66665 4.33333C6.66665 4.51743 6.51741 4.66667 6.33332 4.66667C6.14922 4.66667 5.99998 4.51743 5.99998 4.33333C5.99998 4.14924 6.14922 4 6.33332 4C6.51741 4 6.66665 4.14924 6.66665 4.33333ZM7.33332 4.99998C7.33332 5.06028 7.31731 5.18836 7.28931 5.33335H7.66665C7.85075 5.33335 7.99998 5.48259 7.99998 5.66669C7.99998 5.85078 7.85075 6.00002 7.66665 6.00002H6.33332C6.14922 6.00002 5.99998 5.85078 5.99998 5.66669C5.99998 5.48259 6.14922 5.33335 6.33332 5.33335H6.71067C6.68267 5.18836 6.66665 5.06028 6.66665 4.99998C6.66665 4.81588 6.81589 4.66665 6.99999 4.66665C7.18408 4.66665 7.33332 4.81588 7.33332 4.99998ZM7.99999 4.33333C7.99999 4.51743 7.85075 4.66667 7.66666 4.66667C7.48256 4.66667 7.33333 4.51743 7.33333 4.33333C7.33333 4.14924 7.48256 4 7.66666 4C7.85075 4 7.99999 4.14924 7.99999 4.33333ZM8.99999 5.33331C9.18408 5.33331 9.33332 5.18407 9.33332 4.99998C9.33332 4.81588 9.18408 4.66665 8.99999 4.66665C8.81589 4.66665 8.66665 4.81588 8.66665 4.99998C8.66665 5.18407 8.81589 5.33331 8.99999 5.33331ZM5.33332 4.99998C5.33332 5.18407 5.18408 5.33331 4.99999 5.33331C4.81589 5.33331 4.66666 5.18407 4.66666 4.99998C4.66666 4.81588 4.81589 4.66665 4.99999 4.66665C5.18408 4.66665 5.33332 4.81588 5.33332 4.99998Z" fill="#FAD14E"/>
</g>
</svg>
