<svg width="14" height="10" viewBox="0 0 14 10" fill="none" xmlns="http://www.w3.org/2000/svg">
<rect width="14" height="10" rx="2" fill="white"/>
<mask id="mask0_142:17" style="mask-type:alpha" maskUnits="userSpaceOnUse" x="0" y="0" width="14" height="10">
<rect width="14" height="10" rx="2" fill="white"/>
</mask>
<g mask="url(#mask0_142:17)">
<path fill-rule="evenodd" clip-rule="evenodd" d="M0 10H14V0H0V10Z" fill="#30C375"/>
<rect x="2" width="2" height="10" fill="#DE414F"/>
<path fill-rule="evenodd" clip-rule="evenodd" d="M3 1.99996C3.55228 1.99996 4 1.70148 4 1.33329C4 0.965103 3.55228 0.666626 3 0.666626C2.44772 0.666626 2 0.965103 2 1.33329C2 1.70148 2.44772 1.99996 3 1.99996Z" fill="white"/>
<mask id="mask1_142:17" style="mask-type:alpha" maskUnits="userSpaceOnUse" x="2" y="0" width="2" height="2">
<path fill-rule="evenodd" clip-rule="evenodd" d="M3 1.99996C3.55228 1.99996 4 1.70148 4 1.33329C4 0.965103 3.55228 0.666626 3 0.666626C2.44772 0.666626 2 0.965103 2 1.33329C2 1.70148 2.44772 1.99996 3 1.99996Z" fill="white"/>
</mask>
<g mask="url(#mask1_142:17)">
<path fill-rule="evenodd" clip-rule="evenodd" d="M3.00002 1.66667C3.18412 1.66667 3.33335 1.51743 3.33335 1.33333C3.33335 1.14924 3.18412 1 3.00002 1C2.81593 1 2.66669 1.14924 2.66669 1.33333C2.66669 1.51743 2.81593 1.66667 3.00002 1.66667Z" fill="#DD404F"/>
<rect x="2" y="0.666626" width="1" height="0.666667" fill="#FBAF29"/>
<rect x="3" y="1.33325" width="1" height="0.666667" fill="#FBAF29"/>
</g>
<path fill-rule="evenodd" clip-rule="evenodd" d="M3 9.33333C3.55228 9.33333 4 9.03486 4 8.66667C4 8.29848 3.55228 8 3 8C2.44772 8 2 8.29848 2 8.66667C2 9.03486 2.44772 9.33333 3 9.33333Z" fill="white"/>
<mask id="mask2_142:17" style="mask-type:alpha" maskUnits="userSpaceOnUse" x="2" y="8" width="2" height="2">
<path fill-rule="evenodd" clip-rule="evenodd" d="M3 9.33333C3.55228 9.33333 4 9.03486 4 8.66667C4 8.29848 3.55228 8 3 8C2.44772 8 2 8.29848 2 8.66667C2 9.03486 2.44772 9.33333 3 9.33333Z" fill="white"/>
</mask>
<g mask="url(#mask2_142:17)">
<path fill-rule="evenodd" clip-rule="evenodd" d="M3.00002 9.00004C3.18412 9.00004 3.33335 8.8508 3.33335 8.66671C3.33335 8.48261 3.18412 8.33337 3.00002 8.33337C2.81593 8.33337 2.66669 8.48261 2.66669 8.66671C2.66669 8.8508 2.81593 9.00004 3.00002 9.00004Z" fill="#DD404F"/>
<rect x="2" y="8" width="1" height="0.666667" fill="#FBAF29"/>
<rect x="3" y="8.66663" width="1" height="0.666666" fill="#FBAF29"/>
</g>
<path fill-rule="evenodd" clip-rule="evenodd" d="M3 5.99996C3.55228 5.99996 4 5.70148 4 5.33329C4 4.9651 3.55228 4.66663 3 4.66663C2.44772 4.66663 2 4.9651 2 5.33329C2 5.70148 2.44772 5.99996 3 5.99996Z" fill="#28AE67"/>
<mask id="mask3_142:17" style="mask-type:alpha" maskUnits="userSpaceOnUse" x="2" y="4" width="2" height="2">
<path fill-rule="evenodd" clip-rule="evenodd" d="M3 5.99996C3.55228 5.99996 4 5.70148 4 5.33329C4 4.9651 3.55228 4.66663 3 4.66663C2.44772 4.66663 2 4.9651 2 5.33329C2 5.70148 2.44772 5.99996 3 5.99996Z" fill="white"/>
</mask>
<g mask="url(#mask3_142:17)">
<path fill-rule="evenodd" clip-rule="evenodd" d="M2.99998 5.66667C3.36817 5.66667 3.66665 5.51743 3.66665 5.33333C3.66665 5.14924 3.36817 5 2.99998 5C2.63179 5 2.33331 5.14924 2.33331 5.33333C2.33331 5.51743 2.63179 5.66667 2.99998 5.66667Z" fill="#DD404F"/>
</g>
<path fill-rule="evenodd" clip-rule="evenodd" d="M3 7.33329C3.55228 7.33329 4 7.18405 4 6.99996C4 6.81586 3.55228 6.66663 3 6.66663C2.44772 6.66663 2 6.81586 2 6.99996C2 7.18405 2.44772 7.33329 3 7.33329Z" fill="#28AE67"/>
<mask id="mask4_142:17" style="mask-type:alpha" maskUnits="userSpaceOnUse" x="2" y="6" width="2" height="2">
<path fill-rule="evenodd" clip-rule="evenodd" d="M3 7.33329C3.55228 7.33329 4 7.18405 4 6.99996C4 6.81586 3.55228 6.66663 3 6.66663C2.44772 6.66663 2 6.81586 2 6.99996C2 7.18405 2.44772 7.33329 3 7.33329Z" fill="white"/>
</mask>
<g mask="url(#mask4_142:17)">
</g>
<path fill-rule="evenodd" clip-rule="evenodd" d="M3 3.99996C3.55228 3.99996 4 3.70148 4 3.33329C4 2.9651 3.55228 2.66663 3 2.66663C2.44772 2.66663 2 2.9651 2 3.33329C2 3.70148 2.44772 3.99996 3 3.99996Z" fill="#FBAF29"/>
<mask id="mask5_142:17" style="mask-type:alpha" maskUnits="userSpaceOnUse" x="2" y="2" width="2" height="2">
<path fill-rule="evenodd" clip-rule="evenodd" d="M3 3.99996C3.55228 3.99996 4 3.70148 4 3.33329C4 2.9651 3.55228 2.66663 3 2.66663C2.44772 2.66663 2 2.9651 2 3.33329C2 3.70148 2.44772 3.99996 3 3.99996Z" fill="white"/>
</mask>
<g mask="url(#mask5_142:17)">
<path fill-rule="evenodd" clip-rule="evenodd" d="M3.00002 3.66667C3.18412 3.66667 3.33335 3.51743 3.33335 3.33333C3.33335 3.14924 3.18412 3 3.00002 3C2.81593 3 2.66669 3.14924 2.66669 3.33333C2.66669 3.51743 2.81593 3.66667 3.00002 3.66667Z" fill="#DD404F"/>
<rect x="2" y="2.66663" width="0.666667" height="1.33333" fill="#28AE67"/>
<rect x="3.33331" y="2.66663" width="0.666667" height="1.33333" fill="#28AE67"/>
</g>
<path fill-rule="evenodd" clip-rule="evenodd" d="M7.41132 2.1191C7.29299 2.26012 7.31138 2.47038 7.4524 2.58871C7.59343 2.70704 7.80368 2.68865 7.92201 2.54762C8.04035 2.4066 8.02195 2.19635 7.88093 2.07801C7.7399 1.95968 7.52965 1.97807 7.41132 2.1191ZM6.54759 3.41137C6.40656 3.29303 6.19631 3.31143 6.07798 3.45245C5.95964 3.59348 5.97804 3.80373 6.11906 3.92206C6.26009 4.0404 6.47034 4.022 6.58867 3.88098C6.70701 3.73995 6.68861 3.5297 6.54759 3.41137V3.41137ZM5.88092 2.74472C5.73989 2.62639 5.52964 2.64478 5.41131 2.78581C5.29297 2.92683 5.31137 3.13708 5.45239 3.25542C5.59342 3.37375 5.80367 3.35536 5.922 3.21433C6.04034 3.07331 6.02194 2.86305 5.88092 2.74472V2.74472ZM7.21426 1.41137C7.07323 1.29303 6.86298 1.31143 6.74465 1.45245C6.62631 1.59348 6.64471 1.80373 6.78573 1.92206C6.92676 2.0404 7.13701 2.022 7.25534 1.88098C7.37368 1.73995 7.35528 1.5297 7.21426 1.41137V1.41137ZM6.88091 2.41137C6.73988 2.29303 6.52963 2.31143 6.4113 2.45245C6.29296 2.59348 6.31136 2.80373 6.45238 2.92206C6.59341 3.0404 6.80366 3.022 6.92199 2.88098C7.04033 2.73995 7.02193 2.5297 6.88091 2.41137V2.41137Z" fill="white"/>
<path fill-rule="evenodd" clip-rule="evenodd" d="M8.73804 4.72523C7.94402 5.51925 6.65665 5.51925 5.86263 4.72523C5.78569 4.64829 5.7162 4.56672 5.65417 4.48141C6.44924 5.05953 7.56869 4.99005 8.28578 4.27296C9.00286 3.55588 9.07235 2.43642 8.49423 1.64136C8.57953 1.70339 8.6611 1.77287 8.73804 1.84981C9.53207 2.64383 9.53207 3.9312 8.73804 4.72523Z" fill="white"/>
</g>
</svg>
