<svg width="14" height="10" viewBox="0 0 14 10" fill="none" xmlns="http://www.w3.org/2000/svg">
<rect width="14" height="10" rx="2" fill="white"/>
<mask id="mask0_142:171" style="mask-type:alpha" maskUnits="userSpaceOnUse" x="0" y="0" width="14" height="10">
<rect width="14" height="10" rx="2" fill="white"/>
</mask>
<g mask="url(#mask0_142:171)">
<rect width="14" height="10" fill="#E92434"/>
<path fill-rule="evenodd" clip-rule="evenodd" d="M10 5C10 6.65685 8.65685 8 7 8C5.34315 8 4 6.65685 4 5C4 3.34315 5.34315 2 7 2C8.65685 2 10 3.34315 10 5ZM6.00001 5.00002C6.00001 6.10824 6.83204 7.02213 7.9055 7.15111C7.62708 7.26845 7.32112 7.33331 7 7.33331C5.71134 7.33331 4.66667 6.28864 4.66667 4.99998C4.66667 3.71132 5.71134 2.66665 7 2.66665C7.32117 2.66665 7.62719 2.73153 7.90565 2.84892C6.83211 2.97782 6.00001 3.89175 6.00001 5.00002ZM7.56468 6.32757L8.17709 5.58508L9.0787 5.92189L8.5618 5.11001L9.16074 4.35661L8.22886 4.59733L7.69742 3.79489L7.63839 4.75555L6.711 5.01301L7.6064 5.36601L7.56468 6.32757Z" fill="white"/>
</g>
</svg>
