<svg width="14" height="10" viewBox="0 0 14 10" fill="none" xmlns="http://www.w3.org/2000/svg">
<rect width="14" height="10" rx="2" fill="white"/>
<mask id="mask0_142:70" style="mask-type:alpha" maskUnits="userSpaceOnUse" x="0" y="0" width="14" height="10">
<rect width="14" height="10" rx="2" fill="white"/>
</mask>
<g mask="url(#mask0_142:70)">
<path fill-rule="evenodd" clip-rule="evenodd" d="M0 1.33333H14V0H0V1.33333Z" fill="#262626"/>
<path fill-rule="evenodd" clip-rule="evenodd" d="M0 6.66671H14V5.33337H0V6.66671Z" fill="#262626"/>
<path fill-rule="evenodd" clip-rule="evenodd" d="M0 5.33337H14V3.33337H0V5.33337Z" fill="#ED1623"/>
<path fill-rule="evenodd" clip-rule="evenodd" d="M0 3.33337H14V1.33337H0V3.33337Z" fill="#FEE044"/>
<path fill-rule="evenodd" clip-rule="evenodd" d="M0 9.99996H14V8.66663H0V9.99996Z" fill="#ED1623"/>
<path fill-rule="evenodd" clip-rule="evenodd" d="M0 8.66663H14V6.66663H0V8.66663Z" fill="#FEE044"/>
<path fill-rule="evenodd" clip-rule="evenodd" d="M7.00001 7.33329C8.28867 7.33329 9.33334 6.28862 9.33334 4.99996C9.33334 3.71129 8.28867 2.66663 7.00001 2.66663C5.71134 2.66663 4.66667 3.71129 4.66667 4.99996C4.66667 6.28862 5.71134 7.33329 7.00001 7.33329Z" fill="white"/>
<path fill-rule="evenodd" clip-rule="evenodd" d="M6.5 3.83333C6.40795 3.74128 6.40795 3.59204 6.5 3.5L6.65096 3.34903C6.66142 3.33858 6.67086 3.32745 6.6799 3.31576C6.69276 3.29916 6.71412 3.27265 6.7402 3.24443C6.84337 3.13277 7.20288 3.15589 7.29442 3.27726V3.27726C7.33857 3.33579 7.3134 3.37319 7.28062 3.43876L7.03519 3.92961C7.01205 3.9759 7 4.02694 7 4.07868V4.12732C7 4.25357 7.07133 4.369 7.18426 4.42546L7.61828 4.64247C7.65033 4.65849 7.67958 4.67958 7.70492 4.70491L8.16345 5.16344C8.2649 5.2649 8.29005 5.41989 8.22589 5.54822L8.12251 5.75497C8.06224 5.87551 7.90159 5.90158 7.80629 5.80628V5.80628C7.72918 5.72917 7.60416 5.72917 7.52705 5.80628L7.43096 5.90236C7.36845 5.96488 7.33333 6.04966 7.33333 6.13807V6.26429C7.33333 6.3085 7.35089 6.35089 7.38215 6.38214V6.38214C7.48714 6.48714 7.41278 6.66666 7.2643 6.66666H7.06904C6.92055 6.66666 6.84619 6.48714 6.95118 6.38214V6.38214C6.98244 6.35089 7 6.3085 7 6.26429V6.2357C7 6.10552 6.89447 6 6.7643 6V6C6.70179 6 6.64183 6.02483 6.59763 6.06903L6.5 6.16666C6.40795 6.25871 6.25871 6.25871 6.16667 6.16666V6.16666C6.07462 6.07461 6.07462 5.92538 6.16667 5.83333L6.2643 5.7357C6.3085 5.69149 6.36845 5.66666 6.43096 5.66666V5.66666C6.64095 5.66666 6.74612 5.41278 6.59763 5.26429L6.2357 4.90236C6.10553 4.77219 6.10553 4.56113 6.2357 4.43096L6.5 4.16666C6.59205 4.07461 6.59205 3.92538 6.5 3.83333V3.83333Z" fill="#262626"/>
</g>
</svg>
