<svg width="14" height="10" viewBox="0 0 14 10" fill="none" xmlns="http://www.w3.org/2000/svg">
<rect width="14" height="10" rx="2" fill="white"/>
<mask id="mask0_142:191" style="mask-type:alpha" maskUnits="userSpaceOnUse" x="0" y="0" width="14" height="10">
<rect width="14" height="10" rx="2" fill="white"/>
</mask>
<g mask="url(#mask0_142:191)">
<path fill-rule="evenodd" clip-rule="evenodd" d="M14 0H0V0.666667H14V0ZM14 1.33335H0V2.00002H14V1.33335ZM0 2.66665H14V3.33331H0V2.66665ZM14 4H0V4.66667H14V4ZM0 5.33335H14V6.00002H0V5.33335ZM14 6.66665H0V7.33331H14V6.66665ZM0 8H14V8.66667H0V8ZM14 9.33335H0V10H14V9.33335Z" fill="#D02F44"/>
<rect width="6" height="4.66667" fill="#46467F"/>
<g filter="url(#filter0_d_142:191)">
<path fill-rule="evenodd" clip-rule="evenodd" d="M1.33332 0.999959C1.33332 1.18405 1.18408 1.33329 0.99999 1.33329C0.815895 1.33329 0.666656 1.18405 0.666656 0.999959C0.666656 0.815864 0.815895 0.666626 0.99999 0.666626C1.18408 0.666626 1.33332 0.815864 1.33332 0.999959ZM2.66665 0.999959C2.66665 1.18405 2.51741 1.33329 2.33332 1.33329C2.14922 1.33329 1.99998 1.18405 1.99998 0.999959C1.99998 0.815864 2.14922 0.666626 2.33332 0.666626C2.51741 0.666626 2.66665 0.815864 2.66665 0.999959ZM3.66666 1.33329C3.85075 1.33329 3.99999 1.18405 3.99999 0.999959C3.99999 0.815864 3.85075 0.666626 3.66666 0.666626C3.48256 0.666626 3.33333 0.815864 3.33333 0.999959C3.33333 1.18405 3.48256 1.33329 3.66666 1.33329ZM5.33332 0.999959C5.33332 1.18405 5.18408 1.33329 4.99999 1.33329C4.81589 1.33329 4.66665 1.18405 4.66665 0.999959C4.66665 0.815864 4.81589 0.666626 4.99999 0.666626C5.18408 0.666626 5.33332 0.815864 5.33332 0.999959ZM1.66666 1.99994C1.85076 1.99994 1.99999 1.8507 1.99999 1.66661C1.99999 1.48251 1.85076 1.33327 1.66666 1.33327C1.48257 1.33327 1.33333 1.48251 1.33333 1.66661C1.33333 1.8507 1.48257 1.99994 1.66666 1.99994ZM3.33332 1.66661C3.33332 1.8507 3.18408 1.99994 2.99999 1.99994C2.81589 1.99994 2.66665 1.8507 2.66665 1.66661C2.66665 1.48251 2.81589 1.33327 2.99999 1.33327C3.18408 1.33327 3.33332 1.48251 3.33332 1.66661ZM4.33333 1.99994C4.51742 1.99994 4.66666 1.8507 4.66666 1.66661C4.66666 1.48251 4.51742 1.33327 4.33333 1.33327C4.14923 1.33327 4 1.48251 4 1.66661C4 1.8507 4.14923 1.99994 4.33333 1.99994ZM5.33332 2.33331C5.33332 2.51741 5.18408 2.66665 4.99999 2.66665C4.81589 2.66665 4.66665 2.51741 4.66665 2.33331C4.66665 2.14922 4.81589 1.99998 4.99999 1.99998C5.18408 1.99998 5.33332 2.14922 5.33332 2.33331ZM3.66666 2.66665C3.85075 2.66665 3.99999 2.51741 3.99999 2.33331C3.99999 2.14922 3.85075 1.99998 3.66666 1.99998C3.48256 1.99998 3.33333 2.14922 3.33333 2.33331C3.33333 2.51741 3.48256 2.66665 3.66666 2.66665ZM2.66665 2.33331C2.66665 2.51741 2.51741 2.66665 2.33332 2.66665C2.14922 2.66665 1.99998 2.51741 1.99998 2.33331C1.99998 2.14922 2.14922 1.99998 2.33332 1.99998C2.51741 1.99998 2.66665 2.14922 2.66665 2.33331ZM0.99999 2.66665C1.18408 2.66665 1.33332 2.51741 1.33332 2.33331C1.33332 2.14922 1.18408 1.99998 0.99999 1.99998C0.815895 1.99998 0.666656 2.14922 0.666656 2.33331C0.666656 2.51741 0.815895 2.66665 0.99999 2.66665ZM1.99999 2.99996C1.99999 3.18405 1.85076 3.33329 1.66666 3.33329C1.48257 3.33329 1.33333 3.18405 1.33333 2.99996C1.33333 2.81586 1.48257 2.66663 1.66666 2.66663C1.85076 2.66663 1.99999 2.81586 1.99999 2.99996ZM2.99999 3.33329C3.18408 3.33329 3.33332 3.18405 3.33332 2.99996C3.33332 2.81586 3.18408 2.66663 2.99999 2.66663C2.81589 2.66663 2.66665 2.81586 2.66665 2.99996C2.66665 3.18405 2.81589 3.33329 2.99999 3.33329ZM4.66666 2.99996C4.66666 3.18405 4.51742 3.33329 4.33333 3.33329C4.14923 3.33329 4 3.18405 4 2.99996C4 2.81586 4.14923 2.66663 4.33333 2.66663C4.51742 2.66663 4.66666 2.81586 4.66666 2.99996ZM4.99999 3.99994C5.18408 3.99994 5.33332 3.8507 5.33332 3.66661C5.33332 3.48251 5.18408 3.33327 4.99999 3.33327C4.81589 3.33327 4.66665 3.48251 4.66665 3.66661C4.66665 3.8507 4.81589 3.99994 4.99999 3.99994ZM3.99999 3.66661C3.99999 3.8507 3.85075 3.99994 3.66666 3.99994C3.48256 3.99994 3.33333 3.8507 3.33333 3.66661C3.33333 3.48251 3.48256 3.33327 3.66666 3.33327C3.85075 3.33327 3.99999 3.48251 3.99999 3.66661ZM2.33332 3.99994C2.51741 3.99994 2.66665 3.8507 2.66665 3.66661C2.66665 3.48251 2.51741 3.33327 2.33332 3.33327C2.14922 3.33327 1.99998 3.48251 1.99998 3.66661C1.99998 3.8507 2.14922 3.99994 2.33332 3.99994ZM1.33332 3.66661C1.33332 3.8507 1.18408 3.99994 0.99999 3.99994C0.815895 3.99994 0.666656 3.8507 0.666656 3.66661C0.666656 3.48251 0.815895 3.33327 0.99999 3.33327C1.18408 3.33327 1.33332 3.48251 1.33332 3.66661Z" fill="url(#paint0_linear_142:191)"/>
</g>
</g>
<defs>
<filter id="filter0_d_142:191" x="0.666656" y="0.666626" width="4.66666" height="4.33337" filterUnits="userSpaceOnUse" color-interpolation-filters="sRGB">
<feFlood flood-opacity="0" result="BackgroundImageFix"/>
<feColorMatrix in="SourceAlpha" type="matrix" values="0 0 0 0 0 0 0 0 0 0 0 0 0 0 0 0 0 0 127 0" result="hardAlpha"/>
<feOffset dy="1"/>
<feColorMatrix type="matrix" values="0 0 0 0 0 0 0 0 0 0 0 0 0 0 0 0 0 0 0.06 0"/>
<feBlend mode="normal" in2="BackgroundImageFix" result="effect1_dropShadow_142:191"/>
<feBlend mode="normal" in="SourceGraphic" in2="effect1_dropShadow_142:191" result="shape"/>
</filter>
<linearGradient id="paint0_linear_142:191" x1="0.666656" y1="0.666626" x2="0.666656" y2="3.99996" gradientUnits="userSpaceOnUse">
<stop stop-color="white"/>
<stop offset="1" stop-color="#F0F0F0"/>
</linearGradient>
</defs>
</svg>
