<svg width="14" height="10" viewBox="0 0 14 10" fill="none" xmlns="http://www.w3.org/2000/svg">
<rect x="0.25" y="0.25" width="13.5" height="9.5" rx="1.75" fill="white" stroke="#F5F5F5" stroke-width="0.5"/>
<mask id="mask0_142:16" style="mask-type:alpha" maskUnits="userSpaceOnUse" x="0" y="0" width="14" height="10">
<rect x="0.25" y="0.25" width="13.5" height="9.5" rx="1.75" fill="white" stroke="white" stroke-width="0.5"/>
</mask>
<g mask="url(#mask0_142:16)">
<path fill-rule="evenodd" clip-rule="evenodd" d="M14 1.33333H6.66666V2.66665H14V3.99998H6.66666V5.33335H14V6.66669H6.66666L6.66667 6.66667H0V8H14V0L14 1.33333ZM0 10V9.33333H14V10H0Z" fill="#0E4DC5"/>
<path fill-rule="evenodd" clip-rule="evenodd" d="M3.33331 4.66068L2.88827 5.325L2.77554 4.53337L2.08633 4.93881L2.32824 4.17666L1.53138 4.24292L2.08001 3.66121L1.33331 3.37515L2.08001 3.08909L1.53138 2.50738L2.32824 2.57363L2.08633 1.81149L2.77554 2.21693L2.88827 1.42529L3.33331 2.08962L3.77835 1.42529L3.89108 2.21693L4.58029 1.81149L4.33838 2.57363L5.13525 2.50738L4.58661 3.08909L5.33331 3.37515L4.58661 3.66121L5.13525 4.24292L4.33838 4.17666L4.58029 4.93881L3.89108 4.53337L3.77835 5.325L3.33331 4.66068ZM3.33332 4.64785C4.03623 4.64785 4.60604 4.07803 4.60604 3.37513C4.60604 2.67222 4.03623 2.1024 3.33332 2.1024C2.63041 2.1024 2.06059 2.67222 2.06059 3.37513C2.06059 4.07803 2.63041 4.64785 3.33332 4.64785ZM4.33332 3.33335C4.33332 3.88563 3.8856 4.33335 3.33332 4.33335C2.78103 4.33335 2.33332 3.88563 2.33332 3.33335C2.33332 2.78107 2.78103 2.33335 3.33332 2.33335C3.8856 2.33335 4.33332 2.78107 4.33332 3.33335Z" fill="#FED443"/>
</g>
</svg>
