<svg width="14" height="10" viewBox="0 0 14 10" fill="none" xmlns="http://www.w3.org/2000/svg">
<rect x="0.25" y="0.25" width="13.5" height="9.5" rx="1.75" fill="white" stroke="#F5F5F5" stroke-width="0.5"/>
<mask id="mask0_142:86" style="mask-type:alpha" maskUnits="userSpaceOnUse" x="0" y="0" width="14" height="10">
<rect x="0.25" y="0.25" width="13.5" height="9.5" rx="1.75" fill="white" stroke="white" stroke-width="0.5"/>
</mask>
<g mask="url(#mask0_142:86)">
<path fill-rule="evenodd" clip-rule="evenodd" d="M0 3.33333H14V0H0V3.33333Z" fill="#04AAC8"/>
<path fill-rule="evenodd" clip-rule="evenodd" d="M0 9.99996H14V6.66663H0V9.99996Z" fill="#23C840"/>
<path fill-rule="evenodd" clip-rule="evenodd" d="M2.33331 2.66663C2.53897 2.66663 2.73012 2.60455 2.88906 2.4981C2.87064 2.49932 2.85205 2.49994 2.83332 2.49994C2.37308 2.49994 1.99998 2.12684 1.99998 1.66661C1.99998 1.20637 2.37308 0.833272 2.83332 0.833272C2.85203 0.833272 2.87059 0.833889 2.88899 0.835103C2.73007 0.728688 2.53894 0.666626 2.33331 0.666626C1.78103 0.666626 1.33331 1.11434 1.33331 1.66663C1.33331 2.21891 1.78103 2.66663 2.33331 2.66663ZM3.99998 2.33331C3.99998 2.51741 3.85074 2.66665 3.66664 2.66665C3.48255 2.66665 3.33331 2.51741 3.33331 2.33331C3.33331 2.14922 3.48255 1.99998 3.66664 1.99998C3.85074 1.99998 3.99998 2.14922 3.99998 2.33331ZM4.99999 1.33329C5.18408 1.33329 5.33332 1.18405 5.33332 0.999959C5.33332 0.815864 5.18408 0.666626 4.99999 0.666626C4.81589 0.666626 4.66665 0.815864 4.66665 0.999959C4.66665 1.18405 4.81589 1.33329 4.99999 1.33329ZM6.66665 0.999959C6.66665 1.18405 6.51741 1.33329 6.33331 1.33329C6.14922 1.33329 5.99998 1.18405 5.99998 0.999959C5.99998 0.815864 6.14922 0.666626 6.33331 0.666626C6.51741 0.666626 6.66665 0.815864 6.66665 0.999959ZM6.33331 2.66665C6.51741 2.66665 6.66665 2.51741 6.66665 2.33331C6.66665 2.14922 6.51741 1.99998 6.33331 1.99998C6.14922 1.99998 5.99998 2.14922 5.99998 2.33331C5.99998 2.51741 6.14922 2.66665 6.33331 2.66665ZM5.33332 2.33331C5.33332 2.51741 5.18408 2.66665 4.99999 2.66665C4.81589 2.66665 4.66665 2.51741 4.66665 2.33331C4.66665 2.14922 4.81589 1.99998 4.99999 1.99998C5.18408 1.99998 5.33332 2.14922 5.33332 2.33331Z" fill="white"/>
</g>
</svg>
