<svg width="14" height="10" viewBox="0 0 14 10" fill="none" xmlns="http://www.w3.org/2000/svg">
<rect width="14" height="10" rx="2" fill="white"/>
<mask id="mask0_142:154" style="mask-type:alpha" maskUnits="userSpaceOnUse" x="0" y="0" width="14" height="10">
<rect width="14" height="10" rx="2" fill="white"/>
</mask>
<g mask="url(#mask0_142:154)">
<path fill-rule="evenodd" clip-rule="evenodd" d="M0 6.66671H14V3.33337H0V6.66671Z" fill="#063191"/>
<path fill-rule="evenodd" clip-rule="evenodd" d="M0 9.99996H14V6.66663H0V9.99996Z" fill="#E2213B"/>
<path fill-rule="evenodd" clip-rule="evenodd" d="M7 4.66667C7.1841 4.66667 7.33334 4.51743 7.33334 4.33333C7.33334 4.14924 7.1841 4 7 4C6.81591 4 6.66667 4.14924 6.66667 4.33333C6.66667 4.51743 6.81591 4.66667 7 4.66667ZM5.66667 5.00002C5.85076 5.00002 6 4.85078 6 4.66669C6 4.48259 5.85076 4.33335 5.66667 4.33335C5.48257 4.33335 5.33333 4.48259 5.33333 4.66669C5.33333 4.85078 5.48257 5.00002 5.66667 5.00002ZM8.66667 4.66669C8.66667 4.85078 8.51743 5.00002 8.33334 5.00002C8.14924 5.00002 8 4.85078 8 4.66669C8 4.48259 8.14924 4.33335 8.33334 4.33335C8.51743 4.33335 8.66667 4.48259 8.66667 4.66669ZM5 6.00002C5.1841 6.00002 5.33334 5.85078 5.33334 5.66669C5.33334 5.48259 5.1841 5.33335 5 5.33335C4.81591 5.33335 4.66667 5.48259 4.66667 5.66669C4.66667 5.85078 4.81591 6.00002 5 6.00002ZM9.33333 5.66669C9.33333 5.85078 9.1841 6.00002 9 6.00002C8.81591 6.00002 8.66667 5.85078 8.66667 5.66669C8.66667 5.48259 8.81591 5.33335 9 5.33335C9.1841 5.33335 9.33333 5.48259 9.33333 5.66669Z" fill="white"/>
<path fill-rule="evenodd" clip-rule="evenodd" d="M0 3.33333H14V0H0V3.33333Z" fill="#FFD044"/>
</g>
</svg>
