<svg width="14" height="10" viewBox="0 0 14 10" fill="none" xmlns="http://www.w3.org/2000/svg">
<rect width="14" height="10" rx="2" fill="white"/>
<mask id="mask0_142:15" style="mask-type:alpha" maskUnits="userSpaceOnUse" x="0" y="0" width="14" height="10">
<rect width="14" height="10" rx="2" fill="white"/>
</mask>
<g mask="url(#mask0_142:15)">
<rect width="14" height="10" fill="#07319C"/>
<path fill-rule="evenodd" clip-rule="evenodd" d="M8.66666 4.99996C8.66666 4.68242 8.66666 4.33127 8.66666 3.99988C8.66666 3.2635 9.26361 2.66663 9.99999 2.66663H10.6667C11.403 2.66663 12 3.2635 12 3.99988C12 4.33127 12 4.68242 12 4.99996C12 6.66663 10.3333 7.33329 10.3333 7.33329C10.3333 7.33329 8.66666 6.66663 8.66666 4.99996Z" fill="#008339"/>
<mask id="mask1_142:15" style="mask-type:alpha" maskUnits="userSpaceOnUse" x="8" y="2" width="4" height="6">
<path fill-rule="evenodd" clip-rule="evenodd" d="M8.66666 4.99996C8.66666 4.68242 8.66666 4.33127 8.66666 3.99988C8.66666 3.2635 9.26361 2.66663 9.99999 2.66663H10.6667C11.403 2.66663 12 3.2635 12 3.99988C12 4.33127 12 4.68242 12 4.99996C12 6.66663 10.3333 7.33329 10.3333 7.33329C10.3333 7.33329 8.66666 6.66663 8.66666 4.99996Z" fill="white"/>
</mask>
<g mask="url(#mask1_142:15)">
<path fill-rule="evenodd" clip-rule="evenodd" d="M9.99998 3.66659C9.99998 3.84981 9.85215 3.99851 9.66926 3.99991C9.85215 4.00131 9.99998 4.15001 9.99998 4.33323C9.99998 4.51733 9.85074 4.66657 9.66665 4.66657C9.48255 4.66657 9.33331 4.51733 9.33331 4.33323C9.33331 4.15001 9.48114 4.00131 9.66403 3.99991C9.48114 3.99851 9.33331 3.84981 9.33331 3.66659C9.33331 3.48249 9.48255 3.33325 9.66665 3.33325C9.85074 3.33325 9.99998 3.48249 9.99998 3.66659ZM9.99998 4.99994C9.99998 5.18403 9.85074 5.33327 9.66665 5.33327C9.48255 5.33327 9.33331 5.18403 9.33331 4.99994C9.33331 4.81584 9.48255 4.66661 9.66665 4.66661C9.85074 4.66661 9.99998 4.81584 9.99998 4.99994ZM9.66665 5.99992C9.85074 5.99992 9.99998 5.85068 9.99998 5.66658C9.99998 5.48249 9.85074 5.33325 9.66665 5.33325C9.48255 5.33325 9.33331 5.48249 9.33331 5.66658C9.33331 5.85068 9.48255 5.99992 9.66665 5.99992ZM11.3333 5.66658C11.3333 5.85068 11.1841 5.99992 11 5.99992C10.8159 5.99992 10.6666 5.85068 10.6666 5.66658C10.6666 5.48249 10.8159 5.33325 11 5.33325C11.1841 5.33325 11.3333 5.48249 11.3333 5.66658ZM11 5.33327C11.1841 5.33327 11.3333 5.18403 11.3333 4.99994C11.3333 4.81584 11.1841 4.66661 11 4.66661C10.8159 4.66661 10.6666 4.81584 10.6666 4.99994C10.6666 5.18403 10.8159 5.33327 11 5.33327ZM11.3333 4.33323C11.3333 4.51733 11.1841 4.66656 11 4.66656C10.8159 4.66656 10.6666 4.51733 10.6666 4.33323C10.6666 4.15002 10.8145 4.00133 10.9973 3.99991C10.8145 3.99849 10.6666 3.8498 10.6666 3.66659C10.6666 3.48249 10.8159 3.33325 11 3.33325C11.1841 3.33325 11.3333 3.48249 11.3333 3.66659C11.3333 3.8498 11.1855 3.99849 11.0026 3.99991C11.1855 4.00133 11.3333 4.15002 11.3333 4.33323Z" fill="#FFD033"/>
<path fill-rule="evenodd" clip-rule="evenodd" d="M10.3333 5.66663C10.5174 5.66663 10.6666 5.21891 10.6666 4.66663C10.6666 4.11434 10.5174 3.66663 10.3333 3.66663C10.1492 3.66663 9.99997 4.11434 9.99997 4.66663C9.99997 5.21891 10.1492 5.66663 10.3333 5.66663Z" fill="white"/>
</g>
<path d="M8.33331 6.66671C8.33331 7.30247 9.24391 7.66671 10.3333 7.66671C11.4227 7.66671 12.3333 7.30247 12.3333 6.66671C12.3333 6.48261 12.1841 6.33337 12 6.33337C11.8159 6.33337 11.6666 6.48261 11.6666 6.66671C11.6666 6.67308 11.5858 6.74949 11.388 6.82862C11.1195 6.93604 10.7412 7.00004 10.3333 7.00004C9.92545 7.00004 9.54714 6.93604 9.2786 6.82862C9.08078 6.74949 8.99998 6.67308 8.99998 6.66671C8.99998 6.48261 8.85074 6.33337 8.66665 6.33337C8.48255 6.33337 8.33331 6.48261 8.33331 6.66671V6.66671Z" fill="#FFD033"/>
<path d="M0 -0.333333H-0.901086L-0.21693 0.253086L2 2.15331V2.49513L-0.193746 4.06209L-0.333333 4.16179V4.33333V4.66667V5.26808L0.176666 4.94933L2.76227 3.33333H3.22651L5.44417 4.91738C5.5194 4.97111 5.60954 5 5.70199 5C6.11381 5 6.30334 4.48765 5.99067 4.21964L4 2.51336V2.17154L6.05416 0.704283C6.22936 0.579142 6.33333 0.377095 6.33333 0.161794V0V-0.601416L5.82333 -0.282666L3.23773 1.33333H2.77349L0.527079 -0.271244L0.440155 -0.333333H0.333333H0Z" fill="#DB1E36" stroke="white" stroke-width="0.666667"/>
<path fill-rule="evenodd" clip-rule="evenodd" d="M0 1.66667V3H2.33333V4.33333C2.33333 4.70152 2.63181 5 3 5V5C3.36819 5 3.66667 4.70152 3.66667 4.33333V3H5.66667C6.03486 3 6.33333 2.70152 6.33333 2.33333V2.33333C6.33333 1.96514 6.03486 1.66667 5.66667 1.66667H3.66667V0H2.33333V1.66667H0Z" fill="white"/>
<path fill-rule="evenodd" clip-rule="evenodd" d="M0 2H2.66667V1.66667V0H3.33333V1.66667V2H6V2.66667H3.33333V3V4.66667H2.66667V3V2.66667H0V2Z" fill="#DB1E36"/>
</g>
</svg>
