<svg width="14" height="10" viewBox="0 0 14 10" fill="none" xmlns="http://www.w3.org/2000/svg">
<rect width="14" height="10" rx="2" fill="white"/>
<mask id="mask0_142:59" style="mask-type:alpha" maskUnits="userSpaceOnUse" x="0" y="0" width="14" height="10">
<rect width="14" height="10" rx="2" fill="white"/>
</mask>
<g mask="url(#mask0_142:59)">
<g filter="url(#filter0_d_142:59)">
<path fill-rule="evenodd" clip-rule="evenodd" d="M0 10H14V6H0V10Z" fill="#009543"/>
</g>
<g filter="url(#filter1_d_142:59)">
<path fill-rule="evenodd" clip-rule="evenodd" d="M0 4H14V0H0V4Z" fill="#D21034"/>
</g>
<path fill-rule="evenodd" clip-rule="evenodd" d="M0 6H14V4H0V6Z" fill="#262626"/>
<path fill-rule="evenodd" clip-rule="evenodd" d="M0 0L6.66667 5L0 10V0Z" fill="#262626"/>
<path d="M1.01924e-05 8.02946V1.97046L4.1947 4.99996L1.01924e-05 8.02946Z" stroke="#FDCE12" stroke-width="1.33333"/>
<path fill-rule="evenodd" clip-rule="evenodd" d="M4.66666 5.33329H14V4.66663H4.66666V5.33329Z" fill="#FDCE12"/>
</g>
<defs>
<filter id="filter0_d_142:59" x="0" y="6" width="14" height="4" filterUnits="userSpaceOnUse" color-interpolation-filters="sRGB">
<feFlood flood-opacity="0" result="BackgroundImageFix"/>
<feColorMatrix in="SourceAlpha" type="matrix" values="0 0 0 0 0 0 0 0 0 0 0 0 0 0 0 0 0 0 127 0" result="hardAlpha"/>
<feOffset/>
<feColorMatrix type="matrix" values="0 0 0 0 0 0 0 0 0 0 0 0 0 0 0 0 0 0 0.06 0"/>
<feBlend mode="normal" in2="BackgroundImageFix" result="effect1_dropShadow_142:59"/>
<feBlend mode="normal" in="SourceGraphic" in2="effect1_dropShadow_142:59" result="shape"/>
</filter>
<filter id="filter1_d_142:59" x="0" y="0" width="14" height="4" filterUnits="userSpaceOnUse" color-interpolation-filters="sRGB">
<feFlood flood-opacity="0" result="BackgroundImageFix"/>
<feColorMatrix in="SourceAlpha" type="matrix" values="0 0 0 0 0 0 0 0 0 0 0 0 0 0 0 0 0 0 127 0" result="hardAlpha"/>
<feOffset/>
<feColorMatrix type="matrix" values="0 0 0 0 0 0 0 0 0 0 0 0 0 0 0 0 0 0 0.06 0"/>
<feBlend mode="normal" in2="BackgroundImageFix" result="effect1_dropShadow_142:59"/>
<feBlend mode="normal" in="SourceGraphic" in2="effect1_dropShadow_142:59" result="shape"/>
</filter>
</defs>
</svg>
