<svg width="14" height="10" viewBox="0 0 14 10" fill="none" xmlns="http://www.w3.org/2000/svg">
<rect width="14" height="10" rx="2" fill="white"/>
<mask id="mask0_142:118" style="mask-type:alpha" maskUnits="userSpaceOnUse" x="0" y="0" width="14" height="10">
<rect width="14" height="10" rx="2" fill="white"/>
</mask>
<g mask="url(#mask0_142:118)">
<rect width="14" height="10" fill="#E31F37"/>
<path fill-rule="evenodd" clip-rule="evenodd" d="M-0.666656 5.33337H7.33334V-0.666626H-0.666656V5.33337Z" fill="#083B9A"/>
<path fill-rule="evenodd" clip-rule="evenodd" d="M3.33333 1.3333L2.86192 1.47137L2.99999 0.999969L2.86192 0.528564L3.33333 0.666636L3.80473 0.528564L3.66666 0.999969L3.80473 1.47137L3.33333 1.3333ZM3.33333 4.66666L2.86192 4.80473L2.99999 4.33332L2.86192 3.86192L3.33333 3.99999L3.80473 3.86192L3.66666 4.33332L3.80473 4.80473L3.33333 4.66666ZM1.52859 3.13808L2 3.00001L2.4714 3.13808L2.33333 2.66668L2.4714 2.19527L2 2.33334L1.52859 2.19527L1.66667 2.66668L1.52859 3.13808ZM4.99999 2.66666L4.52859 2.80473L4.66666 2.33332L4.52859 1.86192L4.99999 1.99999L5.47139 1.86192L5.33332 2.33332L5.47139 2.80473L4.99999 2.66666ZM4.33333 3.49997C4.33333 3.59202 4.25872 3.66664 4.16667 3.66664C4.07462 3.66664 4 3.59202 4 3.49997C4 3.40792 4.07462 3.3333 4.16667 3.3333C4.25872 3.3333 4.33333 3.40792 4.33333 3.49997Z" fill="white"/>
</g>
</svg>
