<svg width="14" height="10" viewBox="0 0 14 10" fill="none" xmlns="http://www.w3.org/2000/svg">
<rect width="14" height="10" rx="2" fill="#009F60"/>
<mask id="mask0_142:54" style="mask-type:alpha" maskUnits="userSpaceOnUse" x="0" y="0" width="14" height="10">
<rect width="14" height="10" rx="2" fill="white"/>
</mask>
<g mask="url(#mask0_142:54)">
<rect x="12" y="5.33337" width="2" height="4.66667" fill="#EA8B42"/>
<path fill-rule="evenodd" clip-rule="evenodd" d="M10 10H12V5.33337H10V10Z" fill="#1A1919"/>
<path fill-rule="evenodd" clip-rule="evenodd" d="M8 10H10V5.33337H8V10Z" fill="#DB3C36"/>
<path fill-rule="evenodd" clip-rule="evenodd" d="M10.5071 1.74208C10.4611 1.74337 10.4274 1.72745 10.4153 1.7007C10.4902 1.65675 10.5409 1.66655 10.6037 1.72255C10.6158 1.67877 10.6037 1.62999 10.5771 1.60075C10.5505 1.5715 10.5288 1.5715 10.4926 1.569C10.4563 1.56659 10.4201 1.55687 10.3959 1.55687C10.3605 1.47885 10.2718 1.51188 10.1866 1.54388C10.0481 1.59584 9.92363 1.69021 9.86774 1.7844C9.8422 1.8275 9.83911 1.84444 9.82343 1.86887C9.83637 1.86724 9.83551 1.86724 9.84357 1.86234C9.83388 1.96961 9.82103 2.0687 9.84031 2.1321C9.81623 2.22475 9.83551 2.28324 9.86448 2.31249C9.89354 2.34173 9.90554 2.35395 9.91043 2.3881C9.91523 2.42216 9.92971 2.45382 9.95388 2.47335C9.97805 2.49287 9.99254 2.52212 9.99494 2.53924C9.99734 2.55627 10.0721 2.62973 10.1036 2.64892C10.1157 2.65614 10.1181 2.67085 10.1327 2.69029C10.1012 2.87558 10.2269 3.06087 10.1978 3.24367C10.2196 3.24608 10.2486 3.24367 10.2776 3.23636C10.3017 3.39231 10.3162 3.46793 10.1809 3.51421C10.0457 3.56057 9.97171 3.60616 10.0094 3.65804C10.036 3.69459 10.091 3.66277 10.1254 3.6312C10.152 3.60685 10.1833 3.58492 10.2075 3.57761C10.2317 3.57029 10.2366 3.57761 10.2244 3.60926C10.2123 3.641 10.1472 3.70922 10.1447 3.74337C10.1423 3.77752 10.1713 3.80186 10.2172 3.77502C10.2631 3.74819 10.3034 3.67799 10.3138 3.6361C10.321 3.60685 10.3332 3.58733 10.3307 3.6361C10.3283 3.68487 10.2993 3.77262 10.3645 3.78724C10.4298 3.80186 10.4491 3.72384 10.4274 3.65313C10.4056 3.58251 10.3984 3.54345 10.408 3.51911C10.4177 3.49468 10.4274 3.48014 10.4515 3.48737C10.4756 3.49468 10.524 3.48496 10.5216 3.44599C10.5191 3.40702 10.4853 3.37528 10.4467 3.39722C10.408 3.41915 10.379 3.41588 10.3959 3.36797C10.408 3.33382 10.4298 3.29236 10.4322 3.26561C10.4587 3.30457 10.6085 3.30948 10.6689 3.27292C10.6834 3.34604 10.7221 3.41184 10.6375 3.48014C10.5529 3.54836 10.4853 3.61416 10.4877 3.66294C10.4902 3.71171 10.5095 3.74087 10.5529 3.71653C10.5964 3.69219 10.623 3.65804 10.6327 3.62638C10.6423 3.59464 10.6617 3.59464 10.652 3.63369C10.6423 3.67266 10.6255 3.72874 10.6327 3.7629C10.6399 3.79696 10.6931 3.79945 10.7148 3.76771C10.7365 3.73606 10.7317 3.69459 10.7269 3.65313C10.7221 3.61167 10.7293 3.56788 10.7389 3.55077C10.7486 3.53373 10.7679 3.5093 10.7873 3.55567C10.8067 3.60195 10.8163 3.63851 10.8549 3.65072C10.8936 3.66294 10.9225 3.64582 10.9153 3.59954C10.9081 3.55326 10.8573 3.50199 10.8067 3.46302C10.7559 3.42406 10.7728 3.40453 10.7752 3.36797C10.7776 3.33141 10.7704 3.26561 10.7679 3.23636C10.8139 3.27051 10.8646 3.26561 10.8887 3.26561C10.9129 3.26561 10.9525 3.25812 10.9129 3.22173C10.8331 3.14862 10.8597 3.10466 10.8042 3.05107C10.7486 2.99748 10.6979 2.91455 10.681 2.84393C10.664 2.77322 10.6268 2.64401 10.5529 2.57821C10.5119 2.54165 10.4998 2.44169 10.5095 2.32711C10.5191 2.21253 10.5216 2.08582 10.4177 2.02733C10.3138 1.96883 10.3162 1.92006 10.3501 1.86887C10.3838 1.81769 10.4273 1.76763 10.4829 1.76401C10.4954 1.76324 10.5243 1.76083 10.5361 1.75223C10.5308 1.74819 10.5223 1.74173 10.5071 1.74208" fill="#EA8B42"/>
<path fill-rule="evenodd" clip-rule="evenodd" d="M9.83167 2.00533C9.8291 2.05488 9.8303 2.09849 9.8405 2.13204C9.81641 2.22469 9.8357 2.28318 9.86467 2.31243C9.89373 2.34168 9.90573 2.35389 9.91061 2.38804C9.91541 2.42211 9.9299 2.45376 9.95407 2.47329C9.97824 2.49281 9.99273 2.52206 9.99513 2.53918C9.99753 2.55621 10.0723 2.62968 10.1038 2.64886C10.1159 2.65608 10.1183 2.67079 10.1329 2.69023C10.1198 2.76722 10.1336 2.84421 10.1524 2.92103C9.98167 3.064 9.81315 2.99656 9.88404 2.85032C9.74227 2.96404 9.49755 2.96086 9.55233 2.85032C9.33007 2.92834 9.26244 2.86331 9.29141 2.79183C9.10464 2.86658 9.00795 2.79509 9.03375 2.74305C8.87913 2.78529 8.77927 2.75931 8.76315 2.73333C8.74713 2.70735 8.7857 2.64886 8.82118 2.61961C8.7503 2.64559 8.68267 2.64559 8.61821 2.63587C8.55384 2.62606 8.56995 2.60654 8.58281 2.57729C8.59575 2.54804 8.61264 2.50176 8.66415 2.45626C8.54098 2.4806 8.38635 2.49772 8.27767 2.46107C8.25718 2.45419 8.22213 2.44645 8.24381 2.4246C8.26558 2.40266 8.33081 2.34899 8.41053 2.31484C8.22933 2.34167 7.8863 2.3612 7.7897 2.25152C7.8839 2.27097 8.00467 2.232 8.08198 2.20034C7.77761 2.16619 7.36216 1.95656 7.35727 1.75183C7.44427 1.89316 7.5941 1.94193 7.74384 1.9858C7.54087 1.86632 7.45635 1.72249 7.44915 1.62744C7.56504 1.73961 7.74136 1.86632 7.91535 1.89565C7.7921 1.82985 7.63267 1.63724 7.58921 1.50314C7.67861 1.58357 7.90807 1.71277 8.0651 1.75423C7.95641 1.6689 7.7801 1.46658 7.7897 1.35449C7.83075 1.39595 7.93224 1.47389 8.13993 1.59578C8.3477 1.71767 8.46041 1.70873 8.63193 1.74529C8.60055 1.70305 8.57235 1.64697 8.56995 1.63234C8.6207 1.63965 8.66895 1.65918 8.8139 1.74933C8.95884 1.83957 9.27555 1.86718 9.4565 1.94684C9.58927 2.00533 9.77853 1.96877 9.83167 2.00533" fill="#EA8B42"/>
<path fill-rule="evenodd" clip-rule="evenodd" d="M10.9248 3.25714C10.9327 3.25078 10.9327 3.23977 10.9128 3.22161C10.8331 3.1485 10.8597 3.10454 10.8042 3.05095C10.7486 2.99736 10.6979 2.91443 10.681 2.84381C10.664 2.7731 10.6268 2.64389 10.5529 2.57809C10.5119 2.54153 10.4998 2.44157 10.5095 2.32699C10.5177 2.22893 10.5207 2.122 10.4562 2.05654C10.577 2.02239 10.6883 2.01499 10.7268 2.05396C10.9273 2.00278 11.1013 1.98729 11.272 1.97602C11.4684 1.96295 11.8388 1.87847 12.103 1.69972C12.0869 1.76475 11.9967 1.86222 11.9161 1.91099C12.1835 1.84596 12.5056 1.7257 12.7794 1.52097C12.7761 1.66402 12.6602 1.77121 12.5925 1.82979C12.7794 1.7257 13.053 1.59572 13.1465 1.43323C13.1875 1.59977 12.9082 1.81757 12.7567 1.93783C12.9114 1.86308 13.1111 1.794 13.1884 1.68346C13.1868 1.81835 13.0112 1.98574 12.8437 2.08321C13.0145 2.01826 13.2045 1.94996 13.314 1.84923C13.3268 1.98497 12.8034 2.29697 12.5442 2.38222C12.7697 2.32699 13.0627 2.25224 13.1916 2.17422C13.1851 2.20183 13.1326 2.24054 13.0944 2.26875C12.9368 2.38523 12.6952 2.44777 12.5474 2.4765C12.5668 2.55779 12.541 2.60329 12.4508 2.60974C12.3606 2.61628 12.1424 2.58136 12.033 2.52604C12.0168 2.53577 11.9975 2.53912 11.9757 2.54153C12.082 2.62196 12.1182 2.68045 12.0965 2.7146C12.0748 2.74875 11.9987 2.74256 11.9407 2.73043C11.9866 2.85964 11.8332 2.85112 11.7052 2.77792C11.7559 2.84381 11.7632 2.89981 11.6931 2.91443C11.6231 2.92906 11.5674 2.92424 11.4998 2.88028C11.495 2.92906 11.4483 2.96157 11.3863 2.94531C11.5989 3.07452 11.5868 3.12166 11.5506 3.17035C11.5144 3.21912 11.3875 3.2094 11.3199 3.16553C11.2909 3.26549 11.1754 3.26583 11.0892 3.18626C11.0884 3.22609 11.0061 3.30514 10.9248 3.25714" fill="#EA8B42"/>
<path fill-rule="evenodd" clip-rule="evenodd" d="M9.9386 3.74733C9.94212 3.71653 9.94503 3.68074 9.97075 3.65795C9.99655 3.63515 10.0127 3.61571 10.0352 3.63842C10.0577 3.66122 10.0433 3.68238 10.0127 3.6921C9.98206 3.70182 9.96115 3.72943 9.95626 3.74733C9.95146 3.76522 9.93535 3.77494 9.9386 3.74733" fill="black"/>
<path fill-rule="evenodd" clip-rule="evenodd" d="M10.1141 3.89684C10.0981 3.84575 10.1061 3.77985 10.1238 3.76033C10.1415 3.7408 10.164 3.72781 10.185 3.74734C10.2059 3.76687 10.2139 3.79448 10.1753 3.81074C10.1411 3.8251 10.1382 3.86106 10.1367 3.88712C10.1351 3.9131 10.1238 3.92773 10.1141 3.89684" fill="black"/>
<path fill-rule="evenodd" clip-rule="evenodd" d="M10.3396 3.76528C10.3272 3.78618 10.3428 3.87091 10.3847 3.89199C10.4143 3.90696 10.4281 3.90343 10.4104 3.87573C10.3927 3.84812 10.3992 3.82214 10.4089 3.80751C10.4185 3.79289 10.4169 3.76691 10.3959 3.75392C10.375 3.74085 10.3492 3.74902 10.3396 3.76528" fill="black"/>
<path fill-rule="evenodd" clip-rule="evenodd" d="M10.5216 3.6889C10.495 3.66877 10.47 3.69295 10.4604 3.70998C10.441 3.74413 10.4556 3.7929 10.4862 3.82052C10.5168 3.84813 10.5119 3.8108 10.5022 3.79454C10.4926 3.77828 10.491 3.74576 10.5119 3.74249C10.5328 3.73931 10.5474 3.70834 10.5216 3.6889" fill="black"/>
<path fill-rule="evenodd" clip-rule="evenodd" d="M10.6729 3.7441C10.647 3.73645 10.6214 3.76363 10.6246 3.79614C10.627 3.8204 10.6295 3.85137 10.6535 3.86763C10.6697 3.87847 10.681 3.88552 10.6729 3.85627C10.6648 3.82703 10.6778 3.8026 10.6922 3.79451C10.7067 3.78642 10.7002 3.75227 10.6729 3.7441" fill="black"/>
<path fill-rule="evenodd" clip-rule="evenodd" d="M10.8871 3.60599C10.8684 3.61924 10.8694 3.64995 10.8871 3.6613C10.9048 3.67266 10.9306 3.68892 10.9258 3.71653C10.9209 3.74414 10.9354 3.75395 10.9483 3.72307C10.9612 3.69219 10.9628 3.64668 10.9483 3.62552C10.9338 3.60436 10.9032 3.59464 10.8871 3.60599" fill="black"/>
<path fill-rule="evenodd" clip-rule="evenodd" d="M10.4201 1.69842C10.4314 1.72322 10.4634 1.73787 10.5069 1.73664L10.5069 1.73664C10.5208 1.73633 10.5291 1.74004 10.5392 1.75651C10.5286 1.76429 10.5086 1.76775 10.4832 1.76932C10.4371 1.77232 10.3968 1.80775 10.3545 1.87179C10.3165 1.9293 10.3298 1.97161 10.4203 2.02258C10.5102 2.07323 10.5287 2.16145 10.5148 2.32751C10.5046 2.44816 10.5193 2.54102 10.5565 2.57413C10.618 2.62892 10.6576 2.72361 10.6862 2.84261C10.7025 2.91078 10.7518 2.99306 10.8079 3.04713C10.821 3.05984 10.8305 3.07265 10.838 3.08728C10.8423 3.09569 10.8455 3.10328 10.8506 3.11691C10.8683 3.16394 10.8802 3.18445 10.9165 3.21771C10.9366 3.23614 10.9405 3.25147 10.9281 3.26145C10.9199 3.26803 10.9051 3.27092 10.8887 3.27092L10.8798 3.27104C10.8408 3.27176 10.8156 3.26856 10.7868 3.25418C10.7825 3.25205 10.7783 3.24971 10.7743 3.24715L10.7767 3.27427C10.7778 3.28634 10.7786 3.29706 10.7793 3.30725C10.781 3.33283 10.7815 3.35326 10.7805 3.36826C10.7802 3.37395 10.7795 3.3789 10.7783 3.3867C10.776 3.40111 10.7756 3.40506 10.776 3.41133C10.7771 3.4267 10.7862 3.44049 10.8099 3.4587C10.872 3.50645 10.9139 3.5558 10.9206 3.59865C10.9281 3.64681 10.8979 3.66989 10.8533 3.65579C10.826 3.64716 10.8119 3.62929 10.7957 3.59055L10.7823 3.55769C10.7744 3.53879 10.7673 3.53273 10.7609 3.53455C10.7555 3.53612 10.7495 3.54302 10.7436 3.55334C10.7336 3.57108 10.7278 3.61501 10.7322 3.65245L10.7322 3.65285C10.7395 3.71618 10.7383 3.74292 10.7192 3.77069C10.6949 3.80616 10.6357 3.80296 10.6274 3.76395C10.6236 3.74588 10.6257 3.722 10.6325 3.69032C10.6344 3.6816 10.6366 3.67256 10.6394 3.66145L10.6468 3.63233C10.6505 3.61731 10.6495 3.60888 10.6486 3.60871C10.6471 3.60843 10.6415 3.61549 10.6378 3.6279C10.6269 3.66333 10.5976 3.69758 10.5555 3.72116C10.5111 3.74604 10.4853 3.72073 10.4823 3.66314C10.4801 3.61726 10.5309 3.55914 10.6342 3.4759C10.6542 3.4597 10.6677 3.44324 10.6757 3.42601C10.6901 3.39482 10.6881 3.37086 10.6721 3.30965C10.6689 3.29706 10.6668 3.28884 10.6651 3.28109C10.6041 3.31235 10.4764 3.30967 10.4358 3.27708C10.433 3.28991 10.4271 3.30557 10.4151 3.33422L10.415 3.33436C10.4075 3.35235 10.4042 3.36038 10.4009 3.3697C10.3938 3.39007 10.3953 3.40082 10.4025 3.40375C10.4102 3.40692 10.4255 3.40299 10.444 3.39248C10.4839 3.36983 10.524 3.39949 10.5269 3.4456C10.5293 3.48378 10.4847 3.50299 10.4499 3.49246C10.4318 3.48704 10.4236 3.49421 10.413 3.52103C10.4044 3.54267 10.4099 3.57821 10.4325 3.65149C10.4577 3.73326 10.429 3.80715 10.3634 3.79243C10.3232 3.78342 10.3127 3.75155 10.3183 3.69579C10.319 3.68888 10.3198 3.68228 10.3212 3.67197C10.3243 3.64943 10.3249 3.6443 10.3253 3.63577C10.3257 3.62791 10.3257 3.62172 10.3254 3.61724C10.3234 3.62206 10.321 3.62928 10.319 3.63734C10.3066 3.68742 10.2626 3.75463 10.2199 3.77961C10.174 3.80639 10.1363 3.78559 10.1393 3.74292C10.1405 3.72723 10.1517 3.70721 10.1747 3.67482L10.1811 3.66591C10.2103 3.62551 10.2151 3.6184 10.2194 3.60727C10.23 3.57964 10.2284 3.57683 10.209 3.58269C10.1872 3.58929 10.1571 3.60933 10.129 3.6351C10.0813 3.67896 10.0306 3.69632 10.0051 3.66114C9.98484 3.6333 9.99321 3.60584 10.027 3.57974C10.0568 3.55676 10.107 3.53383 10.1792 3.50906C10.2937 3.46989 10.3024 3.4322 10.2789 3.24151C10.2498 3.24883 10.2201 3.25149 10.1925 3.24276C10.2044 3.1682 10.1951 3.10827 10.1597 2.97134C10.1235 2.83127 10.114 2.76816 10.1284 2.69347C10.1246 2.68845 10.1215 2.68354 10.1182 2.67783L10.1113 2.66536C10.1076 2.65918 10.1048 2.65581 10.1008 2.65346C10.0665 2.63258 9.99223 2.55841 9.98962 2.53993C9.98701 2.52127 9.97119 2.49418 9.95051 2.47748C9.92619 2.45783 9.91032 2.42582 9.90511 2.3888C9.90097 2.3599 9.89485 2.35062 9.86067 2.31622C9.82493 2.28014 9.81313 2.21525 9.83517 2.13361C9.82028 2.08466 9.82167 2.03752 9.83556 1.89045L9.83729 1.87177C9.83572 1.87233 9.83402 1.87273 9.83175 1.8731L9.82408 1.87415L9.81891 1.8659C9.8221 1.86093 9.82489 1.85608 9.82765 1.85076L9.83218 1.84161L9.83224 1.84149C9.83217 1.84162 9.83216 1.84166 9.83218 1.84161C9.83251 1.84087 9.84108 1.82261 9.84414 1.81642C9.84968 1.80524 9.85566 1.79418 9.86312 1.78159C9.91988 1.68594 10.0456 1.59097 10.1847 1.53879C10.3165 1.48927 10.3695 1.48571 10.3959 1.55144C10.4075 1.55144 10.4134 1.55225 10.4477 1.55784C10.4673 1.56104 10.4799 1.56271 10.4929 1.56358L10.5012 1.56414C10.5321 1.56622 10.545 1.56898 10.5607 1.57923C10.5676 1.58374 10.5742 1.58957 10.5811 1.59706C10.6096 1.62845 10.6211 1.67941 10.6088 1.72393L10.6001 1.72651C10.5369 1.67019 10.4887 1.6638 10.4201 1.69842ZM10.5329 1.7564C10.5245 1.74988 10.5183 1.74712 10.5073 1.74736L10.5074 1.74736C10.46 1.74869 10.4238 1.73218 10.4127 1.69597C10.485 1.65355 10.5372 1.6587 10.6007 1.7126C10.6001 1.71543 10.5994 1.71824 10.5987 1.72103L10.6074 1.71844C10.6051 1.71643 10.6029 1.71449 10.6007 1.7126C10.6084 1.67371 10.5975 1.63096 10.5733 1.60428C10.5671 1.59743 10.5611 1.59219 10.555 1.58821C10.5413 1.57927 10.5298 1.5768 10.5006 1.57484L10.4924 1.57428C10.4789 1.57338 10.466 1.57167 10.4461 1.56842C10.4399 1.56741 10.4347 1.56656 10.4301 1.56582C10.4102 1.56259 10.4039 1.56158 10.3912 1.55901C10.3635 1.49811 10.315 1.50138 10.1886 1.54883C10.0516 1.60022 9.92787 1.6937 9.87248 1.78706C9.86516 1.79941 9.8593 1.81024 9.85388 1.82117C9.85087 1.82727 9.84231 1.8455 9.84199 1.84621M9.83418 1.86149C9.83438 1.86142 9.83457 1.86133 9.83476 1.86125C9.83586 1.86075 9.83683 1.86017 9.84092 1.85765L9.84904 1.86273L9.84637 1.89144C9.83266 2.03666 9.83128 2.08348 9.84563 2.13337C9.82453 2.21453 9.83562 2.2755 9.86841 2.3086C9.90408 2.34451 9.91131 2.35547 9.91586 2.38726C9.92072 2.42176 9.93536 2.45129 9.95737 2.46907C9.98014 2.48746 9.99737 2.51699 10.0004 2.5384C10.0024 2.55263 10.0748 2.62493 10.1065 2.64421C10.1122 2.64764 10.1162 2.65228 10.1206 2.65988L10.1276 2.67245C10.1285 2.67386 10.1293 2.67521 10.1301 2.6766C10.1324 2.68049 10.1348 2.68466 10.1381 2.69111C10.1251 2.76792 10.1344 2.83001 10.1702 2.96861C10.206 3.107 10.2154 3.16788 10.1985 3.23824C10.2184 3.24043 10.2441 3.23845 10.275 3.23607C10.2776 3.23586 10.2803 3.23565 10.2831 3.23545C10.3139 3.43515 10.304 3.47774 10.1828 3.51921C10.1116 3.54362 10.0623 3.56616 10.0337 3.58823C10.004 3.61114 9.99757 3.63234 10.0139 3.65478C10.0339 3.68236 10.0784 3.6671 10.1219 3.62714C10.1511 3.60037 10.1825 3.57952 10.2061 3.57237C10.2357 3.56341 10.2429 3.57627 10.2295 3.61109C10.2248 3.62357 10.2202 3.63036 10.1899 3.6722L10.1836 3.68104C10.1618 3.7116 10.1511 3.73079 10.1502 3.74366C10.1478 3.77735 10.1759 3.79289 10.2146 3.77029C10.2546 3.74691 10.297 3.68217 10.3087 3.63472C10.3128 3.61822 10.3179 3.60574 10.323 3.60229C10.3293 3.59805 10.334 3.60275 10.3355 3.61028C10.3365 3.61563 10.3368 3.62422 10.3362 3.63628C10.3357 3.64525 10.3351 3.65046 10.332 3.6734C10.3306 3.68359 10.3298 3.69009 10.3291 3.69684C10.3239 3.74781 10.3327 3.77448 10.3658 3.7819C10.4206 3.79419 10.4456 3.72989 10.4224 3.65463C10.399 3.57888 10.3933 3.54189 10.4032 3.51703C10.4156 3.48568 10.4282 3.47466 10.4531 3.48213C10.4818 3.49081 10.5181 3.47515 10.5164 3.44625C10.5139 3.40736 10.4817 3.38351 10.4494 3.40181C10.4283 3.41381 10.4103 3.41845 10.3986 3.41368C10.3845 3.40795 10.3822 3.39117 10.391 3.36608C10.3944 3.35649 10.3977 3.34835 10.4053 3.33017L10.4053 3.33003C10.4204 3.29404 10.4257 3.2791 10.427 3.26503L10.4367 3.26248C10.4615 3.29876 10.6081 3.3034 10.6663 3.26822L10.6743 3.27178C10.6763 3.28178 10.6784 3.29061 10.6827 3.30691C10.6992 3.37053 10.7014 3.39623 10.6855 3.43052C10.6768 3.44933 10.6623 3.46706 10.641 3.48425C10.5409 3.56497 10.4912 3.62182 10.4932 3.66258C10.4958 3.71336 10.5146 3.73182 10.5505 3.71175C10.5902 3.68947 10.6177 3.65738 10.6277 3.62472C10.6329 3.60753 10.6416 3.5964 10.6507 3.59811C10.6608 3.60001 10.6625 3.61423 10.6574 3.6349L10.6499 3.66407C10.6471 3.67507 10.645 3.68398 10.6431 3.69256C10.6366 3.72286 10.6346 3.74551 10.638 3.76168C10.6442 3.79043 10.6911 3.79296 10.7105 3.76457C10.7275 3.73977 10.7287 3.71472 10.7217 3.65406L10.7217 3.65366C10.7171 3.61415 10.7232 3.56801 10.7344 3.54801C10.7416 3.53534 10.7491 3.52679 10.7581 3.52419C10.7711 3.52045 10.7826 3.53021 10.7924 3.5535L10.8057 3.58636C10.8208 3.62246 10.8331 3.63807 10.8567 3.64551C10.894 3.65731 10.9164 3.6402 10.9102 3.60029C10.904 3.56101 10.8636 3.51338 10.8035 3.46721C10.7776 3.44729 10.7668 3.4309 10.7655 3.41204C10.765 3.40464 10.7655 3.40032 10.7679 3.38501C10.769 3.3775 10.7696 3.37282 10.77 3.36753C10.7709 3.35311 10.7704 3.33308 10.7688 3.30794C10.7681 3.29783 10.7672 3.28719 10.7662 3.27518L10.7627 3.23673L10.7712 3.23195C10.7778 3.23681 10.7846 3.24098 10.7917 3.24451C10.8186 3.25793 10.8423 3.26095 10.8797 3.26026L10.8888 3.26014C10.903 3.26014 10.9158 3.25764 10.9215 3.25303C10.9274 3.24831 10.9253 3.24023 10.9094 3.22561C10.8716 3.19101 10.8589 3.16914 10.8407 3.12067C10.8357 3.10741 10.8327 3.10013 10.8286 3.09219C10.8216 3.07859 10.8129 3.06673 10.8006 3.05485C10.7431 2.9994 10.6927 2.91534 10.6759 2.8451C10.6479 2.72816 10.6089 2.63501 10.5495 2.58214C10.5089 2.546 10.4938 2.45044 10.5043 2.32657C10.5179 2.16448 10.5001 2.07974 10.4152 2.03193C10.3195 1.97805 10.304 1.92884 10.3457 1.86582C10.3897 1.79921 10.4322 1.76184 10.4827 1.75856C10.49 1.75811 10.4968 1.75747 10.5031 1.75689C10.5167 1.75563 10.5274 1.75464 10.5329 1.7564M9.83418 1.86149C9.83319 1.86187 9.83205 1.86215 9.83017 1.86246L9.82289 1.86345L9.82806 1.8717C9.83024 1.8683 9.83225 1.86495 9.83418 1.86149Z" fill="black"/>
<path fill-rule="evenodd" clip-rule="evenodd" d="M9.70098 1.97992C9.78357 1.98284 9.81362 1.98654 9.8345 2.0009L9.83682 2.00562C9.83396 2.06076 9.8363 2.10046 9.84548 2.1334C9.82438 2.21456 9.83548 2.27554 9.86826 2.30864C9.90393 2.34454 9.91117 2.35551 9.91572 2.38729C9.92058 2.42179 9.93521 2.45132 9.95723 2.46911C9.97999 2.48749 9.99723 2.51702 10.0002 2.53843C10.0022 2.55266 10.0747 2.62496 10.1064 2.64424C10.1121 2.64768 10.116 2.65232 10.1205 2.65992L10.1275 2.67248C10.1283 2.67389 10.1291 2.67524 10.1299 2.67663C10.1322 2.68052 10.1347 2.68469 10.138 2.69115C10.1267 2.75745 10.1338 2.82369 10.1556 2.92516C10.0748 2.99283 9.98751 3.01877 9.92581 2.99926C9.86988 2.98158 9.84788 2.93039 9.87109 2.86663C9.80532 2.9131 9.71794 2.94021 9.64425 2.9398C9.56836 2.93938 9.52552 2.90904 9.54255 2.8593C9.35919 2.92086 9.25718 2.88599 9.2823 2.80104C9.13054 2.85764 9.0048 2.81838 9.02467 2.75097C8.89439 2.7844 8.781 2.77259 8.7584 2.73617C8.74433 2.71336 8.76622 2.66728 8.79947 2.63237C8.74189 2.64927 8.6832 2.65114 8.61721 2.64119C8.58613 2.63646 8.57073 2.62915 8.5666 2.6167C8.56344 2.6072 8.56443 2.60433 8.57623 2.57843L8.57772 2.57511C8.57768 2.5752 8.58545 2.55726 8.58812 2.5514C8.5928 2.54113 8.5974 2.532 8.6026 2.52291C8.61446 2.5022 8.62873 2.48313 8.64679 2.46504C8.49609 2.49324 8.36753 2.49712 8.27577 2.46618L8.26201 2.46174C8.24921 2.45749 8.24134 2.45378 8.23632 2.44854C8.22877 2.44066 8.22991 2.43079 8.23982 2.42081C8.26913 2.39128 8.32094 2.35333 8.37605 2.32507C8.11452 2.35954 7.86423 2.3445 7.78549 2.25509L7.79058 2.24626C7.86396 2.26141 7.95835 2.24266 8.06031 2.20312C7.72638 2.15853 7.35623 1.94105 7.35172 1.75196L7.36163 1.74901C7.42937 1.85905 7.51977 1.91141 7.706 1.96889C7.54478 1.86462 7.45174 1.73508 7.44361 1.62785L7.45268 1.62357C7.58437 1.75105 7.74125 1.85058 7.8853 1.88417C7.76598 1.80655 7.62476 1.63085 7.58392 1.50481L7.59259 1.49914C7.6836 1.58102 7.89473 1.69668 8.0411 1.74182C7.90785 1.62989 7.77603 1.44903 7.78416 1.35404L7.7933 1.35071C7.84421 1.40212 7.96106 1.4847 8.14243 1.59115C8.25481 1.65708 8.34044 1.68735 8.45323 1.70819C8.46918 1.71113 8.48462 1.71376 8.50892 1.71775C8.56885 1.72757 8.59097 1.73135 8.61934 1.7372C8.59307 1.69919 8.56715 1.64955 8.56447 1.63322L8.57052 1.62703C8.62687 1.63515 8.68074 1.66032 8.81652 1.74477C8.88195 1.7855 8.96193 1.80943 9.15599 1.85459L9.16494 1.85667C9.32158 1.89312 9.39118 1.9123 9.45845 1.94192C9.49355 1.95738 9.53455 1.96705 9.58344 1.97268C9.61653 1.97649 9.64044 1.97778 9.70098 1.97992ZM7.74097 1.99037C7.74085 1.99034 7.74074 1.9903 7.74063 1.99027C7.53821 1.93081 7.43817 1.88034 7.36539 1.77332C7.36413 1.76606 7.3634 1.75885 7.36322 1.75168L7.35331 1.75463C7.35726 1.76105 7.36128 1.76727 7.36539 1.77332C7.39698 1.95419 7.76162 2.1589 8.08318 2.19498L8.08461 2.2053C7.98106 2.2477 7.88419 2.27021 7.8062 2.25966C7.80186 2.25591 7.79789 2.25201 7.79431 2.24795L7.78922 2.25677C7.79477 2.25792 7.80043 2.25888 7.8062 2.25966C7.89735 2.33833 8.15272 2.34766 8.41034 2.3095L8.41323 2.31976C8.34814 2.34765 8.28225 2.39408 8.24821 2.42838C8.2421 2.43453 8.24172 2.43781 8.24485 2.44107C8.24823 2.44461 8.25503 2.44781 8.26618 2.45151L8.27998 2.45596C8.37318 2.48738 8.50687 2.48196 8.66372 2.45096L8.66829 2.46027L8.66189 2.46611C8.62579 2.49996 8.61565 2.51768 8.58831 2.57944L8.58677 2.58288C8.57678 2.60481 8.57575 2.60782 8.57756 2.61328C8.57997 2.62054 8.59225 2.62637 8.61961 2.63054C8.69287 2.64158 8.75661 2.63775 8.81995 2.61454L8.82518 2.62375C8.78623 2.65585 8.75577 2.71016 8.7683 2.73047C8.78814 2.76245 8.90251 2.77348 9.03295 2.73785L9.03915 2.74543C9.00843 2.8074 9.13299 2.84967 9.29003 2.78681L9.29697 2.79383C9.26354 2.87634 9.35963 2.91246 9.55116 2.84523L9.55772 2.8527C9.53441 2.89975 9.57022 2.92861 9.64511 2.92902C9.72259 2.92945 9.81616 2.89835 9.8813 2.8461L9.88946 2.85266C9.85712 2.91936 9.87516 2.9717 9.92983 2.98898C9.98764 3.00726 10.0713 2.9824 10.1478 2.9223C10.1239 2.82492 10.1166 2.7574 10.1292 2.69345C10.1254 2.68844 10.1223 2.68352 10.119 2.67781L10.1121 2.66534C10.1084 2.65916 10.1056 2.65579 10.1016 2.65344C10.0673 2.63256 9.99303 2.5584 9.99042 2.53991C9.98781 2.52126 9.97199 2.49417 9.95131 2.47746C9.92699 2.45781 9.91113 2.4258 9.90591 2.38879C9.90178 2.35989 9.89565 2.35061 9.86147 2.3162C9.82573 2.28012 9.81393 2.21524 9.83597 2.13359C9.82658 2.10268 9.82409 2.06284 9.82676 2.00814C9.82761 2.00866 9.82844 2.0092 9.82924 2.00975L9.82692 2.00503C9.82687 2.00608 9.82681 2.00711 9.82676 2.00814C9.80819 1.99681 9.77765 1.99334 9.7014 1.99065C9.64057 1.9885 9.61648 1.9872 9.58302 1.98334C9.53315 1.9776 9.49115 1.96769 9.45495 1.95174C9.38852 1.9225 9.31926 1.90341 9.16332 1.86712L9.15437 1.86504C8.95895 1.81957 8.87853 1.7955 8.81168 1.75388C8.68381 1.67436 8.62976 1.64811 8.57797 1.63896C8.57689 1.63592 8.57616 1.63338 8.57584 1.63145L8.56979 1.63765C8.57252 1.63804 8.57524 1.63847 8.57797 1.63896C8.58582 1.66095 8.61235 1.70911 8.63682 1.74206L8.63141 1.75053C8.59561 1.7429 8.57684 1.73962 8.50799 1.72834C8.48363 1.72434 8.46813 1.7217 8.45209 1.71874C8.33813 1.69769 8.25133 1.667 8.13782 1.60041C7.96548 1.49926 7.851 1.41946 7.79539 1.36693C7.79523 1.36278 7.79531 1.35878 7.79563 1.35494L7.7865 1.35827C7.78927 1.36107 7.79223 1.36396 7.79539 1.36693C7.79917 1.46535 7.93738 1.64664 8.069 1.74998L8.06433 1.75942C7.92376 1.7223 7.70664 1.60715 7.60166 1.5204C7.59917 1.51397 7.59691 1.50765 7.59491 1.50146L7.58624 1.50712C7.59106 1.51146 7.59621 1.51589 7.60166 1.5204C7.65275 1.65217 7.80247 1.82896 7.91847 1.89089L7.91507 1.90094C7.76421 1.87551 7.59711 1.77447 7.45672 1.64152C7.456 1.63664 7.45546 1.6318 7.4551 1.62701L7.44604 1.63129C7.44958 1.63472 7.45314 1.63813 7.45672 1.64152C7.4726 1.74964 7.57502 1.87982 7.74715 1.98115L7.74294 1.99095C7.74228 1.99076 7.74162 1.99056 7.74097 1.99037Z" fill="black"/>
<path fill-rule="evenodd" clip-rule="evenodd" d="M10.922 3.2619L10.9214 3.25306C10.9273 3.24839 10.9252 3.24028 10.9092 3.22571C10.8715 3.1911 10.8588 3.16924 10.8406 3.12076C10.8356 3.1075 10.8326 3.10022 10.8285 3.09228C10.8215 3.07868 10.8127 3.06683 10.8004 3.05495C10.743 2.9995 10.6926 2.91543 10.6758 2.84519C10.6477 2.72825 10.6087 2.6351 10.5494 2.58223C10.5088 2.54609 10.4936 2.45053 10.5041 2.32666C10.5054 2.31144 10.5064 2.29697 10.5071 2.2832L10.5106 2.28501L10.5105 2.28546L10.5112 2.28533L10.5175 2.28867C10.5169 2.30109 10.5159 2.31405 10.5148 2.32758C10.5046 2.44824 10.5193 2.54109 10.5565 2.5742C10.618 2.629 10.6576 2.72369 10.6862 2.84269C10.7025 2.91085 10.7518 2.99313 10.8079 3.04721C10.821 3.05992 10.8304 3.07273 10.838 3.08735C10.8423 3.09576 10.8455 3.10335 10.8506 3.11698C10.8683 3.16401 10.8802 3.18452 10.9164 3.21777C10.933 3.23291 10.9386 3.24603 10.9331 3.25573L10.9275 3.25264L10.9281 3.26148C10.9303 3.25973 10.932 3.25781 10.9331 3.25573C10.9981 3.28824 11.0828 3.23536 11.0838 3.18629L11.0928 3.18244C11.1798 3.26278 11.2881 3.25619 11.3147 3.16416L11.3228 3.16115C11.3921 3.20611 11.5138 3.21105 11.5462 3.16726C11.591 3.1072 11.5647 3.06014 11.3835 2.95005L11.3877 2.94025C11.4443 2.95509 11.4898 2.92737 11.4945 2.87989L11.5027 2.8759C11.5652 2.91649 11.618 2.92476 11.692 2.9093C11.7527 2.89664 11.7539 2.85006 11.7009 2.78134L11.7078 2.77338C11.7714 2.80975 11.8406 2.82957 11.8876 2.82486C11.9372 2.81989 11.9559 2.78936 11.9357 2.73237L11.9418 2.7253C12.0161 2.74086 12.0751 2.73841 12.0919 2.71184C12.1123 2.67993 12.0731 2.6221 11.9725 2.54596L11.9751 2.53632C12.0014 2.53341 12.0169 2.5296 12.0353 2.52138C12.1349 2.57167 12.35 2.61179 12.4504 2.60452C12.5344 2.59851 12.5615 2.55892 12.5464 2.47135C12.7618 2.42947 12.96 2.36154 13.0912 2.26456C13.1054 2.25406 13.1118 2.24932 13.1199 2.24309C13.1314 2.23423 13.1412 2.22628 13.1498 2.21875C13.163 2.20711 13.1729 2.19674 13.1791 2.18779C13.1844 2.18486 13.1894 2.18191 13.1943 2.17895L13.1863 2.17313C13.1853 2.17747 13.1829 2.18237 13.1791 2.18779C13.0687 2.24951 12.8757 2.3067 12.5454 2.38757L12.5425 2.37724C12.8357 2.28082 13.2897 1.98722 13.3082 1.86171L13.3176 1.85332L13.3086 1.84987C13.309 1.85362 13.3088 1.85757 13.3082 1.86171C13.2322 1.92818 13.125 1.98107 12.946 2.05014L12.8955 2.06943L12.8456 2.08837L12.841 2.07869C13.0214 1.97372 13.1668 1.81964 13.1818 1.70134C13.1856 1.69655 13.1893 1.69167 13.1928 1.68669L13.183 1.68353C13.1829 1.68937 13.1825 1.69531 13.1818 1.70134C13.1318 1.76343 13.0492 1.81124 12.8903 1.88282L12.8165 1.91602C12.7944 1.92602 12.7761 1.93457 12.759 1.94281L12.7534 1.93375C12.8328 1.8707 12.8604 1.84828 12.9036 1.81062C12.985 1.73973 13.047 1.67537 13.0887 1.6146C13.1313 1.55258 13.1507 1.49688 13.1438 1.44809L13.1511 1.43605L13.1413 1.43465C13.1423 1.43907 13.1432 1.44355 13.1438 1.44809C13.0861 1.53965 12.9745 1.62357 12.7957 1.72465C12.7674 1.74068 12.6963 1.77937 12.6464 1.80658L12.5951 1.83462L12.589 1.82585C12.7029 1.7273 12.7671 1.64098 12.7735 1.53211L12.7825 1.52542L12.774 1.52098L12.7735 1.53211C12.5298 1.7121 12.2307 1.84014 11.9174 1.91635L11.9133 1.90652C11.9897 1.86033 12.0697 1.77403 12.0932 1.71281L12.106 1.70431L12.0978 1.69856C12.0966 1.70312 12.0951 1.70788 12.0932 1.71281C11.8637 1.86342 11.5222 1.96489 11.2723 1.98152C11.0462 1.99645 10.8999 2.01547 10.723 2.05788C10.6893 2.02383 10.5899 2.02564 10.4662 2.05947L10.46 2.05289L10.4577 2.06185L10.4662 2.05947C10.5092 2.10739 10.5223 2.1708 10.5184 2.27111L10.5084 2.27308L10.5072 2.28074C10.5126 2.1727 10.4991 2.10789 10.4524 2.06044L10.4548 2.05149C10.5861 2.01434 10.6923 2.01157 10.7255 2.04887C10.898 2.00484 11.0449 1.98575 11.2716 1.97078C11.5244 1.95396 11.8722 1.84952 12.1 1.69539L12.1082 1.70114C12.0938 1.75898 12.0212 1.84433 11.9453 1.89831C12.25 1.82066 12.5399 1.69347 12.7761 1.51678L12.7847 1.52122C12.7823 1.62749 12.7286 1.71163 12.6306 1.80294L12.6414 1.79705C12.6914 1.76984 12.7622 1.73124 12.7905 1.71528C12.9754 1.6107 13.0877 1.52475 13.1418 1.43066L13.1517 1.43206C13.1653 1.48753 13.1457 1.55061 13.0976 1.62069C13.0552 1.68235 12.9926 1.74729 12.9107 1.81873C12.8746 1.85018 12.8493 1.87103 12.7961 1.91351L12.812 1.90621L12.8859 1.87299C13.0552 1.79675 13.1369 1.74778 13.184 1.6805L13.1937 1.68365C13.1923 1.79821 13.0639 1.94783 12.8946 2.05828L12.9422 2.0401C13.1274 1.96862 13.2351 1.91465 13.3103 1.84539L13.3193 1.84884C13.3301 1.96266 12.9381 2.23 12.6352 2.3542C12.923 2.28177 13.0924 2.2281 13.1888 2.16974L13.1968 2.17556C13.1934 2.18997 13.1797 2.2067 13.1568 2.22682C13.1481 2.23453 13.1381 2.24262 13.1264 2.25162C13.1182 2.2579 13.1118 2.26267 13.0975 2.27321C12.9647 2.37137 12.7653 2.43973 12.5526 2.47537C12.5734 2.56272 12.5419 2.60874 12.4512 2.61523C12.3489 2.62264 12.1318 2.58216 12.0357 2.53078C12.0232 2.5383 12.0095 2.54241 11.9893 2.54535C12.0866 2.62094 12.125 2.67996 12.101 2.71762C12.0814 2.74851 12.0232 2.75208 11.9487 2.73764C11.966 2.79577 11.9426 2.83015 11.8887 2.83555C11.8443 2.84 11.7824 2.82406 11.7231 2.79381C11.7656 2.8583 11.7588 2.90635 11.6942 2.91982C11.6203 2.93525 11.5659 2.92771 11.5039 2.88936C11.4957 2.93091 11.4589 2.9571 11.4118 2.95485C11.5773 3.05828 11.6025 3.10971 11.5548 3.17368C11.5192 3.22171 11.3971 3.21806 11.3229 3.17386C11.2913 3.26582 11.1821 3.27314 11.0932 3.1972C11.0814 3.25194 10.9904 3.30226 10.922 3.2619ZM10.7554 2.25317C10.758 2.24618 10.7599 2.23861 10.7612 2.23047L10.7548 2.22439L10.5184 2.27111L10.518 2.27846L10.512 2.27514L10.5106 2.28501L10.5112 2.28533L10.5178 2.28398L10.5175 2.28867C10.6095 2.3348 10.711 2.33212 10.7482 2.26856C10.8286 2.31228 10.9558 2.29086 10.9968 2.22958C11.1122 2.27137 11.2201 2.24628 11.2393 2.14037L11.2323 2.13432L11.0057 2.21203C11.009 2.20299 11.0105 2.19329 11.01 2.18299L10.7554 2.25317ZM10.753 2.25903L10.7554 2.25317L10.7446 2.25613L10.7435 2.26592L10.7482 2.26856L10.7497 2.2659L10.7602 2.26271C10.836 2.29898 10.9501 2.27837 10.991 2.2274L10.9968 2.22958C10.9977 2.22828 10.9985 2.22697 10.9993 2.22564L11.0088 2.22239C11.112 2.25695 11.2053 2.23504 11.2269 2.1476L11.2358 2.14453L11.2288 2.13848C11.2282 2.14159 11.2276 2.14463 11.2269 2.1476L11.0088 2.22239C11.0066 2.22167 11.0045 2.22092 11.0023 2.22015C11.0036 2.21751 11.0047 2.2148 11.0057 2.21203L10.9995 2.21416C11.0035 2.20615 11.0059 2.19755 11.0062 2.18845L10.7602 2.26271L10.753 2.25903ZM10.9973 2.21832C10.9989 2.21894 11.0006 2.21955 11.0023 2.22015C11.0014 2.22201 11.0004 2.22384 10.9993 2.22564L10.9943 2.22737L10.9944 2.22286C10.9954 2.22137 10.9964 2.21985 10.9973 2.21832ZM10.9973 2.21832C10.9963 2.21797 10.9954 2.21761 10.9944 2.21725L10.9944 2.22286C10.9933 2.2244 10.9922 2.22591 10.991 2.2274L10.9906 2.22727L10.9908 2.21716L10.9995 2.21416C10.9988 2.21557 10.9981 2.21695 10.9973 2.21832ZM10.753 2.25903C10.752 2.26139 10.7509 2.26368 10.7497 2.2659L10.7477 2.26648L10.7489 2.25669L10.753 2.25903ZM10.5256 2.28239L10.5178 2.28398L10.518 2.27846L10.5256 2.28239ZM10.7492 2.23674C10.7307 2.32104 10.6239 2.33192 10.5256 2.28239L10.7492 2.23674ZM10.7492 2.23674L10.7506 2.22887L10.7569 2.23515L10.7492 2.23674ZM10.5072 2.28074L10.5071 2.2832L10.5069 2.28307L10.5072 2.28074ZM8.62489 1.74677C8.65904 1.79655 8.74865 1.86954 8.80504 1.88729C8.80912 1.92681 8.82582 1.96511 8.85391 1.99597L8.59871 1.9141L8.59191 1.92061C8.59785 1.94288 8.6079 1.9625 8.62092 1.97925L8.44535 1.90806C8.45986 1.90833 8.47578 1.90734 8.49313 1.90502L8.49602 1.89571L8.36983 1.78126C8.39209 1.7863 8.4145 1.79021 8.43702 1.79292L8.44011 1.7828L7.95214 1.53093L7.94601 1.53961C8.06273 1.65052 8.19829 1.73525 8.34098 1.77406C8.3319 1.79465 8.32954 1.82084 8.33629 1.84377L8.06428 1.74682L8.05908 1.75604C8.11883 1.8054 8.21217 1.8346 8.34141 1.85699L8.34364 1.86119C8.35523 1.88145 8.37495 1.89569 8.40307 1.90283C8.39812 1.91495 8.39574 1.92661 8.3958 1.93754C8.2659 1.91284 8.18373 1.90493 8.14964 1.91995C8.13198 1.92779 8.12025 1.9389 8.11508 1.95171C8.09215 1.94277 8.07046 1.93529 8.04662 1.92795C8.03717 1.92504 8.02731 1.92213 8.01597 1.91887C8.02265 1.92079 7.94329 1.89847 7.91662 1.89053L7.91361 1.9012L7.91366 1.90121L7.91366 1.90123L7.91497 1.90162L8.1123 1.96283C8.11032 1.98152 8.12105 2.00257 8.14614 2.02187C8.15498 2.02866 8.16552 2.03516 8.17754 2.04136C8.15215 2.05354 8.14256 2.07345 8.14792 2.09477L7.74508 1.98067L7.74075 1.99039C7.84455 2.05646 7.97442 2.09173 8.15305 2.10791C8.15789 2.11708 8.16539 2.12628 8.17549 2.13501C8.16337 2.14911 8.15867 2.16498 8.16048 2.18113C8.13648 2.18037 8.10219 2.18648 8.07975 2.19589L8.08258 2.20653L8.16311 2.1935C8.16796 2.209 8.17857 2.22442 8.19416 2.23847C8.3239 2.35587 8.64419 2.3536 8.94709 2.24815C8.95394 2.26346 8.97161 2.27399 8.99987 2.2819C9.01132 2.28512 9.02294 2.28786 9.03469 2.29014L8.66182 2.45139L8.66471 2.46164C8.77795 2.445 8.93696 2.37113 9.05445 2.29352C9.08561 2.29814 9.11757 2.2996 9.14974 2.2981C9.13601 2.32376 9.1336 2.35662 9.14357 2.38449L8.74915 2.52435L8.75245 2.53457L8.75271 2.5345L8.75272 2.53452L8.75309 2.53438C8.88289 2.4961 9.05223 2.43687 9.14789 2.39468C9.15968 2.41851 9.18166 2.43704 9.21458 2.4413L8.81882 2.61476L8.82231 2.62489C8.91478 2.60091 9.09813 2.52077 9.23847 2.44344C9.27866 2.44562 9.32307 2.44128 9.36883 2.43183C9.36026 2.4496 9.3552 2.46713 9.3535 2.48379L8.97564 2.66109L8.97924 2.67117C9.09372 2.64181 9.1971 2.59007 9.35285 2.49685C9.35297 2.52194 9.36113 2.54454 9.37682 2.56229L9.03113 2.73668L9.03463 2.74675C9.07221 2.73886 9.11702 2.72186 9.1679 2.69716C9.19579 2.68362 9.22505 2.66799 9.25557 2.65052C9.29913 2.62557 9.3334 2.60419 9.38516 2.57065C9.40267 2.58619 9.42712 2.59687 9.45804 2.60059C9.46156 2.60102 9.46515 2.60133 9.46879 2.60154L9.18589 2.73418L9.18927 2.74431C9.2521 2.73096 9.31213 2.70636 9.37678 2.67076C9.39137 2.66273 9.42111 2.64501 9.44763 2.62921L9.44764 2.62921L9.44767 2.62919C9.46823 2.61694 9.48684 2.60585 9.49496 2.60133C9.52724 2.59908 9.56322 2.58981 9.60122 2.5742C9.5843 2.6008 9.57522 2.62209 9.57381 2.64082L9.28478 2.78543L9.28893 2.79532C9.33972 2.77756 9.48656 2.70259 9.57404 2.65325C9.5755 2.66572 9.58074 2.67724 9.58971 2.68877C9.5987 2.7003 9.60935 2.70655 9.6234 2.70763L9.42547 2.79984L9.42531 2.7999L9.42532 2.79991L9.42505 2.80003L9.42931 2.80989C9.49754 2.78234 9.59056 2.73917 9.66918 2.69876C9.69027 2.69102 9.71618 2.67835 9.74861 2.66086C9.7743 2.64706 9.80451 2.62748 9.83917 2.60263C9.84827 2.5961 9.85764 2.58924 9.86732 2.58202C9.85994 2.60887 9.85959 2.63202 9.86541 2.65133L9.54771 2.84418L9.5524 2.8538C9.63751 2.82109 9.79511 2.7224 9.86963 2.66242C9.87777 2.67994 9.89176 2.69369 9.91077 2.70353L9.69006 2.84419L9.69502 2.85368C9.77907 2.81803 9.87632 2.75516 9.9233 2.70915L9.92542 2.70997C9.9745 2.72829 10.0239 2.72883 10.0702 2.70441L9.88062 2.84696L9.88656 2.85589C9.97897 2.801 10.0887 2.71986 10.1247 2.67674L10.1174 2.66898L10.1169 2.66931L10.1154 2.66103L9.89197 2.56339C9.90431 2.55394 9.91713 2.54397 9.93114 2.53294L9.97645 2.49708L9.97216 2.48757L9.82586 2.51469L9.92814 2.43627L9.92191 2.42753C9.88919 2.44954 9.8397 2.48552 9.79338 2.52071L9.6612 2.54521C9.73964 2.50181 9.8227 2.43502 9.89752 2.35022L9.89276 2.34133L9.69952 2.36892L9.72535 2.3518L9.78388 2.31256C9.8059 2.29788 9.82352 2.28638 9.84025 2.27586L9.8406 2.27565L9.8406 2.27564L9.84072 2.27556L9.83516 2.26638L9.64988 2.376L9.47894 2.40041C9.58416 2.36242 9.68456 2.30374 9.74605 2.24133C9.77221 2.23771 9.79922 2.23263 9.82671 2.22597L9.82804 2.22623L9.82802 2.22565L9.83034 2.22508L9.83006 2.21458L9.5092 2.15292C9.52969 2.1514 9.55076 2.14894 9.57225 2.14547L9.5729 2.135L9.20493 2.02705L9.19807 2.03194C9.1979 2.03565 9.19804 2.03932 9.19851 2.04293L8.812 1.85423L8.8043 1.85878C8.80409 1.86293 8.80402 1.86707 8.80408 1.87121L8.63256 1.73945L8.62489 1.74677ZM8.80421 1.87569L8.80408 1.87121L8.81453 1.87924L8.80991 1.88871L8.80504 1.88729L8.80485 1.88534L8.80802 1.88778L8.81265 1.87831C8.80993 1.87759 8.80711 1.87671 8.80421 1.87569ZM8.77449 1.86202L8.66665 1.77918C8.65323 1.76569 8.64181 1.75247 8.63372 1.74067L8.62605 1.74799L8.66665 1.77918C8.69741 1.81009 8.73868 1.84238 8.77449 1.86202ZM8.77449 1.86202C8.785 1.86778 8.79504 1.87246 8.80421 1.87569L8.80485 1.88534L8.77449 1.86202ZM9.21056 2.04882L9.19851 2.04293C9.19882 2.04541 9.19929 2.04786 9.1999 2.05029L9.19269 2.05203L8.81478 1.86752L8.81501 1.85932L8.80731 1.86388L8.81478 1.86752C8.81448 1.94284 8.86309 2.0175 8.95134 2.04409C9.02973 2.06771 9.1066 2.0706 9.17153 2.05791C9.15489 2.06289 9.13827 2.06869 9.12204 2.07513C9.06794 2.07873 9.0085 2.07256 8.94825 2.0544C8.91833 2.04539 8.89271 2.0311 8.87172 2.01321L8.87422 2.01123L8.87248 2.00192L8.85391 1.99597C8.85701 1.99937 8.86024 2.00268 8.86362 2.0059L8.85936 2.00901L8.60515 1.92746C8.6041 1.92431 8.60313 1.9211 8.60225 1.91783L8.59545 1.92434L8.60515 1.92746C8.61615 1.96013 8.63696 1.98615 8.66294 2.00466L8.63841 1.99845L8.63819 1.99824L8.64056 1.99752L8.641 1.98739L8.62092 1.97925C8.62369 1.98281 8.62659 1.98624 8.62961 1.98954L8.62269 1.99157L8.41312 1.90659L8.41373 1.90513C8.4234 1.90686 8.43394 1.90785 8.44535 1.90806L8.41231 1.89466L8.40546 1.89737L8.40307 1.90283L8.40925 1.90426L8.4083 1.90464L8.41312 1.90659C8.40835 1.91823 8.40628 1.92941 8.40679 1.93981L8.40434 1.93919L8.40404 1.93912L8.3958 1.93754C8.39582 1.94134 8.39613 1.94506 8.39674 1.94867C8.26817 1.92412 8.1853 1.91599 8.15396 1.92979C8.11459 1.94727 8.11061 1.98099 8.15265 2.01334C8.16351 2.02167 8.17703 2.02956 8.19284 2.037L8.19175 2.03673L8.18875 2.03685C8.18473 2.0382 8.18099 2.03971 8.17754 2.04136L8.18939 2.04715L8.18915 2.04716L8.1897 2.0473L8.19043 2.04764C8.14824 2.06272 8.14649 2.09857 8.18499 2.12943L8.18391 2.12927L8.17937 2.13081L8.17549 2.13501C8.17811 2.13728 8.18091 2.13952 8.18389 2.14172C8.16116 2.16795 8.16908 2.20143 8.20132 2.2305C8.3249 2.34232 8.63169 2.34235 8.926 2.24401L8.94655 2.24689L8.94709 2.24815L8.95079 2.24686L8.94976 2.23646L8.94961 2.23644L8.95032 2.22684L8.9443 2.22533C8.94569 2.21466 8.95022 2.20234 8.95794 2.18805C8.9698 2.1661 8.99643 2.14253 9.031 2.12075C9.04078 2.1191 9.05008 2.11732 9.05885 2.11542L9.05902 2.10495L9.05835 2.10478C9.07821 2.09402 9.09976 2.08397 9.12204 2.07513C9.13992 2.07394 9.15722 2.07168 9.17377 2.06844C9.08218 2.09604 8.99116 2.14912 8.96736 2.19314C8.94262 2.23897 8.95316 2.25763 9.00275 2.27151C9.14697 2.31208 9.3187 2.27523 9.44988 2.18327L9.45523 2.18598L9.45806 2.19068C9.40464 2.22847 9.34452 2.25726 9.28214 2.27557L9.15859 2.28759L9.15467 2.28992C9.15289 2.29255 9.15125 2.29528 9.14974 2.2981L9.16107 2.29744L9.15963 2.2983L9.16218 2.29805C9.13321 2.34385 9.14861 2.42209 9.21618 2.43067C9.22226 2.43144 9.22845 2.43203 9.23477 2.43245L9.21458 2.4413L9.21483 2.44133L9.21897 2.44182C9.17229 2.46709 9.12149 2.49245 9.07127 2.51582L8.95541 2.56661C8.90194 2.58846 8.85425 2.60548 8.81962 2.61446L8.82311 2.62459L8.95541 2.56661C8.99209 2.55161 9.0315 2.53434 9.07127 2.51582L9.23665 2.44334L9.23847 2.44344L9.24631 2.4391L9.24326 2.43291C9.28396 2.43465 9.32901 2.42966 9.37534 2.41947C9.37298 2.4236 9.37082 2.42772 9.36883 2.43183L9.38237 2.4289C9.34024 2.50687 9.36997 2.57915 9.45932 2.5899C9.46958 2.59114 9.48043 2.59141 9.49179 2.59076L9.46879 2.60154L9.47293 2.60174L9.44159 2.62035L9.39421 2.64843L9.24721 2.71735C9.22726 2.72404 9.2073 2.72954 9.18705 2.73384L9.19043 2.74397L9.24721 2.71735C9.28803 2.70366 9.32877 2.68498 9.37163 2.66138C9.37722 2.6583 9.3851 2.65376 9.39421 2.64843L9.49462 2.60135L9.49496 2.60133L9.49671 2.60037L9.4972 2.60014L9.49719 2.60011L9.49742 2.59999L9.49283 2.5907C9.52845 2.58847 9.56905 2.57719 9.61214 2.55784C9.6082 2.56351 9.60456 2.56896 9.60122 2.5742C9.6072 2.57174 9.61323 2.56913 9.6193 2.56637C9.58053 2.6227 9.57503 2.65246 9.59815 2.68217C9.6106 2.69814 9.62872 2.70103 9.66059 2.69031L9.6234 2.70763L9.62743 2.7078C9.5582 2.74223 9.48296 2.77661 9.42547 2.79984L9.42532 2.79991L9.42957 2.80976L9.66372 2.70069L9.66918 2.69876L9.68092 2.69269L9.67677 2.68421C9.69495 2.67671 9.71687 2.6658 9.74355 2.65141C9.76876 2.63786 9.79863 2.61851 9.83293 2.59391C9.84492 2.58531 9.85738 2.57613 9.87041 2.56631L9.87302 2.56434C9.8708 2.5704 9.8689 2.57629 9.86732 2.58202L9.87684 2.57488L9.88204 2.57094C9.85814 2.63867 9.87824 2.68102 9.92914 2.69989C9.98945 2.7224 10.0496 2.71663 10.1037 2.66763L10.1111 2.67089L10.1095 2.6621L10.1037 2.66763L9.88217 2.57084L9.89197 2.56339L9.88116 2.55866L9.87968 2.55929C9.89376 2.54857 9.90834 2.53725 9.92453 2.52451L9.95282 2.50212L9.97411 2.49817L9.96982 2.48866L9.95282 2.50212L9.80701 2.52914L9.82586 2.51469L9.817 2.51633C9.85789 2.48561 9.89937 2.45565 9.92786 2.43647L9.92163 2.42773L9.80259 2.519L9.79338 2.52071L9.77447 2.53517L9.62797 2.56233C9.63892 2.55711 9.65001 2.5514 9.6612 2.54521L9.6248 2.55196C9.70736 2.51232 9.79799 2.44406 9.87969 2.35404L9.89427 2.35196L9.8895 2.34308L9.87969 2.35404L9.67818 2.38281L9.69952 2.36892L9.67772 2.37203L9.84025 2.27586L9.8406 2.27564L9.83504 2.26646C9.81808 2.27712 9.80026 2.28875 9.77796 2.30362L9.71941 2.34286C9.70352 2.35348 9.68856 2.36334 9.67436 2.37251L9.64988 2.376L9.62571 2.3903L9.41753 2.42003C9.43801 2.41434 9.45857 2.40776 9.47894 2.40041L9.41534 2.40949C9.53398 2.37645 9.65512 2.31285 9.72844 2.24356L9.74605 2.24133L9.74751 2.23984L9.74375 2.23196C9.76305 2.22927 9.78288 2.22575 9.80306 2.22136L9.82671 2.22597L9.82802 2.22565L9.82777 2.21557C9.81948 2.21765 9.81124 2.21957 9.80306 2.22136L9.46194 2.15484C9.47729 2.15475 9.49307 2.15412 9.5092 2.15292L9.46347 2.14414C9.48985 2.14391 9.51755 2.14208 9.5462 2.13842L9.56989 2.14537L9.57054 2.1349C9.56236 2.13622 9.55424 2.1374 9.5462 2.13842L9.2089 2.03946C9.2087 2.03717 9.20866 2.03485 9.20877 2.03252L9.20192 2.03742L9.2089 2.03946C9.20917 2.04262 9.20973 2.04574 9.21056 2.04882ZM9.21135 2.05026L9.21142 2.04924L9.21056 2.04882L9.21091 2.05004L9.20944 2.0493L9.2075 2.04906L9.20751 2.04892L9.20717 2.04901L9.20583 2.04885L9.1999 2.05029L9.20009 2.05103L9.19414 2.05274L9.19269 2.05203C9.18565 2.05383 9.17859 2.0558 9.17153 2.05791C9.17924 2.0564 9.18678 2.05467 9.19414 2.05274L9.20179 2.05647L9.20336 2.06044C9.19354 2.06278 9.18365 2.06546 9.17377 2.06844C9.18405 2.06642 9.19405 2.06403 9.20372 2.06127C9.21982 2.09732 9.26891 2.12668 9.33823 2.14239L9.12046 2.21401L9.12273 2.22482C9.2212 2.21233 9.2774 2.19132 9.35967 2.1469L9.35958 2.14667C9.36792 2.14814 9.37649 2.14943 9.3853 2.15052L9.44988 2.18327L9.45292 2.1811L9.45523 2.18598L9.45781 2.18729L9.45709 2.17814L9.45292 2.1811C9.45163 2.17795 9.45068 2.1747 9.45009 2.17136L9.46264 2.17773L9.46336 2.18688L9.45806 2.19068C9.47136 2.21047 9.49932 2.22595 9.53761 2.23586L9.49586 2.25479L9.28214 2.27557C9.24284 2.28711 9.20263 2.29449 9.16264 2.29734L9.16354 2.29597L9.16107 2.29744L9.16264 2.29734L9.16218 2.29805L9.4655 2.26855L9.28256 2.35148L9.28637 2.36151C9.35974 2.33835 9.44056 2.30238 9.51191 2.26403L9.68339 2.24735C9.69802 2.24659 9.71306 2.24533 9.72844 2.24356L9.72913 2.2429L9.7442 2.24144L9.73993 2.23248L9.74375 2.23196L9.74316 2.23073L9.66128 2.2387C9.53701 2.24126 9.4511 2.20625 9.46095 2.15484L9.46194 2.15484L9.46098 2.15465L9.46216 2.14994L9.45604 2.15368L9.46098 2.15465L9.46095 2.15484L9.45005 2.15479C9.45048 2.15217 9.4511 2.1495 9.45194 2.14679L9.45631 2.14416L9.46347 2.14414L9.45807 2.1431L9.45631 2.14416C9.43254 2.14409 9.4099 2.14272 9.38866 2.1402L9.21135 2.05026ZM9.21127 2.05121L9.21135 2.05026L9.21091 2.05004L9.21127 2.05121ZM9.21816 2.06574C9.21517 2.06102 9.21286 2.05617 9.21127 2.05121L9.21065 2.05921L9.2073 2.06023L9.20633 2.05974L9.20821 2.05931L9.20461 2.05886L9.20633 2.05974L9.20336 2.06044L9.20372 2.06127L9.2073 2.06023L9.21816 2.06574ZM9.35469 2.13499C9.36555 2.13706 9.37689 2.1388 9.38866 2.1402L9.41456 2.15334C9.40456 2.15263 9.3948 2.15169 9.3853 2.15052L9.35469 2.13499ZM9.21816 2.06574L9.35469 2.13499C9.2871 2.12212 9.23785 2.09675 9.21816 2.06574ZM9.41456 2.15334L9.45009 2.17136C9.44915 2.16606 9.44912 2.16053 9.45005 2.15479C9.43792 2.15464 9.42608 2.15415 9.41456 2.15334ZM9.73967 2.23252L9.73986 2.23233L9.73993 2.23248L9.73967 2.23252ZM9.73967 2.23252C9.71232 2.23618 9.68604 2.23818 9.66128 2.2387L9.59215 2.24542C9.5791 2.24404 9.56672 2.24218 9.55511 2.23986L9.55635 2.23913L9.55145 2.22959L9.53761 2.23586L9.53965 2.23638C9.52961 2.24213 9.5193 2.24785 9.50877 2.25353L9.49586 2.25479L9.4655 2.26855L9.48363 2.26678C9.41883 2.30017 9.34798 2.3308 9.28316 2.35126L9.28697 2.36129L9.49867 2.26532L9.51191 2.26403L9.53582 2.2509L9.59215 2.24542C9.61984 2.24834 9.65056 2.24908 9.68339 2.24735L9.72913 2.2429L9.73967 2.23252ZM9.52902 2.25156L9.53582 2.2509L9.55511 2.23986L9.55492 2.23982L9.55586 2.2394L9.55095 2.22985L9.53965 2.23638C9.54458 2.23762 9.54967 2.23877 9.55492 2.23982L9.52902 2.25156ZM9.52902 2.25156L9.50877 2.25353L9.48363 2.26678L9.49867 2.26532L9.52902 2.25156ZM9.35851 2.14649L9.35958 2.14667L9.35558 2.13668L9.33823 2.14239L9.3428 2.1434C9.322 2.15437 9.3028 2.16377 9.28392 2.17188L9.19578 2.20088C9.17336 2.20608 9.1491 2.21026 9.12144 2.21377L9.12371 2.22458L9.19578 2.20088C9.22732 2.19356 9.25523 2.18421 9.28392 2.17188L9.35882 2.14725L9.35851 2.14649ZM9.35851 2.14649L9.3428 2.1434L9.35473 2.13703L9.35851 2.14649ZM9.20179 2.05647L9.20009 2.05103L9.20717 2.04901L9.2075 2.04906L9.20674 2.05889L9.20179 2.05647ZM9.38469 2.42471L9.38237 2.4289C9.39403 2.42625 9.40577 2.42329 9.41753 2.42003L9.38469 2.42471ZM9.38469 2.42471L9.38598 2.42249L9.38213 2.42508L9.38469 2.42471ZM9.65247 2.38648L9.62571 2.3903L9.48493 2.4736L9.48953 2.48327C9.54764 2.46144 9.60209 2.43188 9.67818 2.38281L9.65355 2.38633L9.67772 2.37203L9.67436 2.37251L9.65247 2.38648ZM9.63763 2.39575L9.65247 2.38648L9.65355 2.38633L9.63763 2.39575ZM9.63763 2.39575C9.62078 2.40615 9.60498 2.41552 9.58986 2.42401L9.63763 2.39575ZM9.58986 2.42401C9.55284 2.44481 9.5199 2.46039 9.48578 2.47321L9.49038 2.48288L9.58986 2.42401ZM9.62123 2.56358L9.6193 2.56637L9.62797 2.56233L9.62123 2.56358ZM9.62123 2.56358L9.62248 2.56179L9.61908 2.56398L9.62123 2.56358ZM9.78374 2.53345L9.77447 2.53517C9.73194 2.56791 9.69471 2.59812 9.67955 2.6134L9.6866 2.62147L9.80701 2.52914L9.7978 2.53085L9.817 2.51633L9.80259 2.519L9.78374 2.53345ZM9.78374 2.53345L9.68008 2.61294L9.68713 2.621C9.70391 2.60409 9.74885 2.56808 9.7978 2.53085L9.78374 2.53345ZM9.88209 2.5708L9.88204 2.57094L9.88217 2.57084L9.88209 2.5708ZM9.88209 2.5708L9.88403 2.56551L9.87688 2.56853L9.88209 2.5708ZM9.87968 2.55929L9.87302 2.56434L9.87401 2.56168L9.87968 2.55929ZM9.67656 2.68429L9.67677 2.68421L9.6762 2.68304L9.67599 2.68314L9.67599 2.68313L9.67575 2.68325L9.66059 2.69031L9.66523 2.68869L9.62743 2.7078C9.63761 2.70789 9.64952 2.70551 9.66372 2.70069L9.68071 2.69278L9.67656 2.68429ZM9.67656 2.68429L9.66523 2.68869L9.67575 2.68325L9.67599 2.68314L9.67656 2.68429ZM9.6248 2.55196L9.61214 2.55784L9.61373 2.55557L9.61713 2.55338L9.6248 2.55196ZM9.49255 2.59071L9.49719 2.60011L9.49671 2.60037L9.49462 2.60135C9.48719 2.60185 9.47995 2.60199 9.47293 2.60174C9.48175 2.59654 9.48858 2.59257 9.49199 2.59075L9.49255 2.59071ZM9.49255 2.59071L9.49283 2.5907L9.49266 2.59035L9.49179 2.59076L9.49199 2.59075L9.49245 2.59051L9.49255 2.59071ZM9.41534 2.40949C9.40195 2.41322 9.38859 2.41656 9.37534 2.41947L9.37675 2.41703L9.38061 2.41445L9.41534 2.40949ZM9.24269 2.43288L9.24585 2.4393L9.23665 2.44334C9.23066 2.44298 9.22476 2.44248 9.21897 2.44182L9.23599 2.43252L9.24269 2.43288ZM9.24269 2.43288L9.24326 2.43291L9.24156 2.42947L9.23477 2.43245L9.23599 2.43252L9.24111 2.42968L9.24269 2.43288ZM9.05656 2.10576L9.05835 2.10478L8.81194 2.04239C8.83335 2.03684 8.85374 2.0272 8.87172 2.01321L8.86897 2.01081L8.86748 2.00287L8.86362 2.0059L8.86897 2.01081L8.86922 2.01217L8.85936 2.00901C8.83778 2.02417 8.8129 2.03305 8.78723 2.03613L8.66294 2.00466C8.67537 2.01352 8.68898 2.02065 8.70327 2.02597L8.65835 2.0146C8.65134 2.00972 8.64466 2.00433 8.63841 1.99845L8.63792 1.99833L8.63819 1.99824L8.637 1.99711L8.63742 1.98724L8.62961 1.98954C8.632 1.99214 8.63446 1.99467 8.637 1.99711L8.63699 1.99737L8.62269 1.99157L8.61717 1.99308L8.40679 1.93981C8.40699 1.94377 8.40756 1.94762 8.4085 1.95134L8.40186 1.94966L8.40201 1.94968L8.40171 1.94962L8.40186 1.94966L8.39674 1.94867C8.40621 2.00547 8.48689 2.03811 8.61718 2.00417L8.65835 2.0146C8.69537 2.04034 8.7419 2.05187 8.78646 2.04703L9.0331 2.10948C8.89448 2.13363 8.65303 2.13039 8.45354 2.10234L8.19284 2.037C8.25344 2.06553 8.34757 2.08743 8.45354 2.10234L8.53682 2.12321C8.50772 2.12024 8.47903 2.11677 8.45115 2.11282L8.19069 2.04755L8.19215 2.04705L8.18939 2.04715L8.1897 2.0473L8.19069 2.04755L8.19043 2.04764C8.25217 2.07608 8.34596 2.09792 8.45115 2.11282L8.91565 2.22923L8.90298 2.22991L8.18499 2.12943C8.1909 2.13416 8.19775 2.13878 8.20555 2.14318L8.18514 2.14033L8.18696 2.13841L8.18242 2.13995L8.18514 2.14033L8.18389 2.14172C8.19617 2.15081 8.21142 2.15921 8.22955 2.16635C8.35455 2.21553 8.70047 2.25018 8.90237 2.2407L8.926 2.24401L8.94378 2.23794L8.94421 2.2379C8.94463 2.24107 8.94541 2.24406 8.94655 2.24689L8.94828 2.24713L8.94734 2.23761L8.94954 2.23741L8.94961 2.23644L8.9478 2.23618L8.9485 2.2267L8.94409 2.22712L8.9443 2.22533L8.53682 2.12321C8.71556 2.14146 8.91001 2.14111 9.031 2.12075L9.04474 2.11243L9.0564 2.11538L9.05656 2.10576ZM9.05656 2.10576L9.04474 2.11243L9.0331 2.10948C9.0413 2.10806 9.04913 2.10653 9.05658 2.10491L9.05656 2.10576ZM8.94397 2.23565C8.94376 2.23293 8.9438 2.23009 8.94409 2.22712C8.93504 2.22794 8.92555 2.22865 8.91565 2.22923L8.93779 2.23478L8.90298 2.22991C8.88229 2.2309 8.86004 2.23142 8.83664 2.2315L8.20555 2.14318C8.2138 2.14784 8.2231 2.15226 8.23346 2.15634C8.34432 2.19996 8.63365 2.23222 8.83664 2.2315L8.90237 2.2407C8.91697 2.24002 8.93082 2.2391 8.94378 2.23794L8.9442 2.2378L8.94421 2.2379L8.94734 2.23761L8.94729 2.23716L8.94772 2.23727L8.9478 2.23618L8.94397 2.23565ZM8.94403 2.23635L8.94397 2.23565L8.93779 2.23478L8.94403 2.23635ZM8.94655 2.23698L8.9442 2.2378L8.94403 2.23635L8.94655 2.23698ZM8.94655 2.23698L8.94729 2.23716L8.94725 2.23673L8.94655 2.23698ZM8.74131 2.0356L8.70327 2.02597C8.71556 2.03054 8.72835 2.03377 8.74131 2.0356ZM8.74131 2.0356L8.78646 2.04703C8.79505 2.0461 8.80357 2.04456 8.81194 2.04239L8.78723 2.03613C8.77203 2.03796 8.75655 2.03775 8.74131 2.0356ZM8.59487 1.99852C8.60211 1.99693 8.60955 1.99512 8.61717 1.99308L8.63792 1.99833C8.63087 2.00046 8.62396 2.00241 8.61718 2.00417L8.59487 1.99852ZM8.59487 1.99852L8.4085 1.95134C8.41993 1.99649 8.48576 2.0225 8.59487 1.99852ZM8.40925 1.90426L8.41373 1.90513L8.41516 1.90193L8.40925 1.90426ZM10.1167 2.6701L10.117 2.66982L10.1169 2.66931L10.0702 2.70441C10.0852 2.69653 10.0998 2.68604 10.114 2.6727C10.0765 2.71537 9.97048 2.79353 9.88109 2.84663L9.88703 2.85556L10.1238 2.67758L10.1167 2.6701ZM10.1167 2.6701L10.114 2.6727L10.1165 2.66982L10.1167 2.6701ZM9.92246 2.70883L9.9233 2.70915L9.92619 2.70628L9.91952 2.69795L9.91077 2.70353L9.91269 2.7045C9.89409 2.72217 9.86821 2.74225 9.83871 2.76221L9.79554 2.78972C9.76135 2.81027 9.72498 2.82932 9.69086 2.84379L9.69581 2.85328L9.79554 2.78972C9.81047 2.78075 9.82499 2.77149 9.83871 2.76221L9.92246 2.70883ZM9.92246 2.70883L9.92527 2.70704L9.9186 2.69871L9.91269 2.7045C9.91582 2.70605 9.91908 2.70749 9.92246 2.70883ZM9.86922 2.66154L9.86963 2.66242L9.87514 2.65792L9.86897 2.64917L9.86541 2.65133L9.86557 2.65185C9.83556 2.67629 9.79065 2.70777 9.74229 2.73859L9.66731 2.7841C9.62292 2.80966 9.58049 2.83145 9.54857 2.84372L9.55326 2.85334L9.66731 2.7841C9.6922 2.76978 9.71769 2.75427 9.74229 2.73859L9.86922 2.66154ZM9.86922 2.66154C9.86782 2.65843 9.8666 2.6552 9.86557 2.65185L9.86834 2.64957L9.87452 2.65833L9.86922 2.66154ZM9.57398 2.65276L9.57404 2.65325L9.58179 2.64885L9.58184 2.64883L9.58184 2.64883L9.5821 2.64868L9.57706 2.63919L9.57381 2.64082L9.57379 2.64105C9.48758 2.68999 9.33637 2.76736 9.2854 2.78518L9.28955 2.79507L9.57398 2.65276ZM9.57398 2.65276C9.57357 2.64896 9.5735 2.64506 9.57379 2.64105L9.5768 2.63934L9.58184 2.64883L9.58179 2.64885L9.57398 2.65276ZM9.38477 2.5703L9.38516 2.57065L9.38907 2.56811L9.38376 2.55879L9.37682 2.56229L9.37735 2.56289C9.34211 2.58571 9.315 2.60286 9.2873 2.61947L9.08925 2.71938C9.06873 2.72692 9.04974 2.73257 9.03243 2.73621L9.03594 2.74627L9.08925 2.71938C9.11208 2.711 9.13681 2.70029 9.16323 2.68746C9.19088 2.67404 9.21994 2.65852 9.25025 2.64116C9.26318 2.63376 9.2753 2.62666 9.2873 2.61947L9.38477 2.5703ZM9.38477 2.5703C9.38213 2.56794 9.37966 2.56547 9.37735 2.56289L9.38325 2.55906L9.38857 2.56838L9.38477 2.5703ZM9.35285 2.49597L9.35285 2.49685L9.35995 2.4926L9.35493 2.48312L9.3535 2.48379L9.35348 2.48396C9.31593 2.5065 9.28145 2.52663 9.24915 2.54463L9.04802 2.63901C9.02428 2.6474 9.00066 2.65459 8.97658 2.66077L8.98017 2.67085L9.04802 2.63901C9.11049 2.61694 9.17387 2.58659 9.24915 2.54463L9.35285 2.49597ZM9.35285 2.49597L9.35946 2.49287L9.35444 2.48338L9.35348 2.48396C9.35307 2.48802 9.35286 2.49203 9.35285 2.49597ZM9.14776 2.39443L9.14789 2.39468L9.15116 2.39323L9.15129 2.39318L9.15128 2.39317L9.15169 2.393L9.14773 2.38301L9.14357 2.38449L9.14368 2.38482C9.04838 2.42686 8.87895 2.48612 8.74942 2.52429L8.75271 2.5345L8.75309 2.53438L9.14776 2.39443ZM9.14776 2.39443C9.14623 2.39131 9.14487 2.3881 9.14368 2.38482L9.14733 2.3832L9.15128 2.39317L9.15116 2.39323L9.14776 2.39443ZM9.05412 2.29347L9.05445 2.29352L9.05578 2.29264L9.0507 2.28322L9.03469 2.29014L9.03882 2.29092C9.02253 2.30145 9.0055 2.31188 8.98797 2.32208L8.71402 2.44054C8.69628 2.44512 8.67924 2.44867 8.66316 2.45103L8.66606 2.46129L8.71402 2.44054C8.79891 2.41866 8.89986 2.37332 8.98797 2.32208L9.05412 2.29347ZM9.05412 2.29347L9.03882 2.29092L9.04987 2.28369L9.05494 2.29311L9.05412 2.29347ZM8.16275 2.19232L8.16311 2.1935L8.1683 2.19266L8.16803 2.18165L8.16048 2.18113L8.16066 2.18262L8.08094 2.19551L8.08378 2.20615C8.1057 2.19696 8.14037 2.19102 8.16275 2.19232ZM8.16275 2.19232C8.1618 2.18908 8.1611 2.18584 8.16066 2.18262L8.16666 2.18165L8.16693 2.19266L8.16275 2.19232ZM8.15274 2.10732L8.15305 2.10791L8.15621 2.10819L8.15813 2.09766L8.14792 2.09477L8.14845 2.09671C8.13007 2.09499 8.11221 2.09307 8.09486 2.09092L7.78275 2.00253C7.77031 1.99585 7.75825 1.98879 7.74654 1.98133L7.74222 1.99105L7.78275 2.00253C7.86627 2.04738 7.96687 2.07512 8.09486 2.09092L8.15274 2.10732ZM8.15274 2.10732C8.15091 2.10377 8.14948 2.10022 8.14845 2.09671L8.1572 2.09751L8.15527 2.10803L8.15274 2.10732ZM8.11233 1.96253L8.1123 1.96283L8.11608 1.964L8.11611 1.96401L8.11611 1.96401L8.11649 1.96413L8.11994 1.95362L8.11508 1.95171L8.11494 1.95207L7.91667 1.89057L7.91366 1.90121L7.91497 1.90162C7.94293 1.9099 8.01975 1.9315 8.01311 1.9296C8.02439 1.93283 8.03419 1.93573 8.04357 1.93862C8.06752 1.946 8.08926 1.95351 8.11233 1.96253ZM8.11233 1.96253C8.11274 1.95894 8.11361 1.95545 8.11494 1.95207L8.11956 1.9535L8.11611 1.96401L8.11608 1.964L8.11233 1.96253ZM8.34105 1.85623L8.34141 1.85699L8.34178 1.85705L8.34448 1.84669L8.33629 1.84377L8.33674 1.84526C8.31456 1.84134 8.29347 1.8372 8.27347 1.83279L8.09779 1.77017C8.08619 1.76319 8.07556 1.75573 8.06589 1.74773L8.06069 1.75695L8.09779 1.77017C8.14215 1.79691 8.20061 1.81671 8.27347 1.83279L8.34089 1.85682L8.34105 1.85623ZM8.34105 1.85623C8.33935 1.8527 8.33792 1.84902 8.33674 1.84526L8.3436 1.84646L8.34105 1.85623ZM8.35191 1.76586L8.34443 1.7671C8.34319 1.76934 8.34204 1.77166 8.34098 1.77406L8.34796 1.77592L8.35076 1.77847C8.34059 1.80158 8.33989 1.83304 8.35293 1.85584C8.37088 1.88723 8.41216 1.90269 8.48008 1.89575L8.48884 1.90369L8.49172 1.89437L8.48008 1.89575L8.35076 1.77847L8.3515 1.77684L8.36983 1.78126L8.35323 1.7662C8.37095 1.77076 8.38877 1.77459 8.40667 1.77765L8.43521 1.79238L8.43829 1.78226C8.42773 1.781 8.41719 1.77946 8.40667 1.77765L7.9828 1.55887C7.97287 1.55004 7.96305 1.54103 7.95337 1.53183L7.94724 1.54051L7.9828 1.55887C8.09369 1.65734 8.21996 1.73166 8.35191 1.76586ZM8.35191 1.76586L8.35271 1.76573L8.35323 1.7662L8.35191 1.76586ZM8.3515 1.77684L8.34796 1.77592L8.34552 1.77371L8.3538 1.77234L8.3515 1.77684ZM10.0083 2.88368L10.0079 2.88413L10.0079 2.88415L10.0077 2.88435L10.0157 2.8915C10.0514 2.85307 10.1073 2.78698 10.1297 2.75694L10.1213 2.75024L10.1211 2.75048L10.1211 2.75047L10.1208 2.75076L10.0083 2.88368ZM10.0083 2.88368C10.0436 2.84558 10.0987 2.78048 10.1208 2.75076L10.1211 2.75048L10.1294 2.75717L10.0159 2.89127L10.0079 2.88415L10.0083 2.88368ZM11.9143 1.90935C11.9195 1.90749 11.7679 1.96237 11.7148 1.98096L11.669 1.99676C11.5626 2.03303 11.4825 2.05662 11.4321 2.06507L11.4347 2.07549L11.9177 1.91953L11.9143 1.90935Z" fill="black"/>
<path fill-rule="evenodd" clip-rule="evenodd" d="M10.0794 1.75952C10.058 1.8134 10.0461 1.92741 10.0525 1.97191C10.0537 1.98043 10.0535 1.98259 10.0497 2.01838C10.0429 2.08366 10.0456 2.13317 10.0672 2.19713L10.0773 2.19368C10.0563 2.13143 10.0537 2.08338 10.0604 2.01951C10.0643 1.98209 10.0645 1.98028 10.0631 1.97039C10.057 1.92769 10.0687 1.81558 10.0893 1.7635L10.0794 1.75952ZM9.91477 2.0471C9.91182 2.00662 9.91599 1.95393 9.92697 1.91608L9.93726 1.91909C9.92667 1.9556 9.92259 2.00704 9.92546 2.04631L9.91477 2.0471ZM9.92226 2.11377C9.91347 2.15129 9.91996 2.2386 9.93196 2.28689L9.94236 2.28428C9.93073 2.23751 9.92436 2.15179 9.93269 2.11623L9.92226 2.11377ZM9.96001 2.40255C9.95503 2.39464 9.95127 2.38718 9.94885 2.38017L9.95893 2.37642C9.96105 2.38253 9.96443 2.38924 9.96899 2.39649C9.97469 2.40556 9.98205 2.41523 9.99091 2.42556C9.99823 2.4341 10.0042 2.44052 10.0156 2.45242L10.008 2.46026C9.99648 2.44821 9.9904 2.44168 9.9829 2.43294C9.97371 2.42223 9.96604 2.41215 9.96001 2.40255ZM10.0017 2.17797C9.99677 2.24035 10.031 2.35873 10.0658 2.39887C10.0734 2.46527 10.1195 2.5603 10.1844 2.6258L10.192 2.61822C10.1287 2.5544 10.0838 2.46156 10.0752 2.39465C10.0411 2.35397 10.0077 2.23844 10.0124 2.17882L10.0017 2.17797ZM9.98724 2.10842C9.9817 2.069 9.98038 2.02947 9.98487 2.00435L9.99542 2.00625C9.99117 2.03002 9.99245 2.06853 9.99785 2.10692L9.98724 2.10842ZM10.1541 2.17261C10.1313 2.09583 10.1304 1.91148 10.154 1.81393L10.1645 1.81647C10.1413 1.91223 10.1421 2.09466 10.1644 2.16953L10.1541 2.17261ZM10.125 2.20151C10.1121 2.25878 10.1134 2.32508 10.13 2.37498L10.1402 2.37158C10.1242 2.32366 10.1229 2.25933 10.1354 2.20389L10.125 2.20151ZM10.3195 2.11365C10.2553 2.04192 10.2164 1.93497 10.219 1.85147L10.2298 1.85182C10.2272 1.93255 10.2651 2.0368 10.3275 2.10646L10.3195 2.11365ZM10.2022 2.11944C10.1948 2.21209 10.2001 2.29719 10.2169 2.34581C10.2213 2.35836 10.2243 2.37361 10.2286 2.40155L10.2328 2.42875C10.2345 2.43947 10.236 2.44849 10.2377 2.45714C10.2458 2.49933 10.2564 2.53037 10.2732 2.55437L10.282 2.54817C10.2662 2.52569 10.256 2.49593 10.2482 2.45511C10.2466 2.44659 10.2451 2.43768 10.2434 2.42707L10.2392 2.3999C10.2348 2.37132 10.2317 2.35565 10.2271 2.34228C10.2108 2.29534 10.2056 2.21159 10.2128 2.1203L10.2022 2.11944ZM10.2885 2.27052L10.2845 2.25529L10.2948 2.25253L10.2988 2.26782C10.3044 2.28937 10.3077 2.30562 10.3092 2.32185C10.3114 2.34527 10.3093 2.36548 10.3018 2.38276L10.292 2.37847C10.2987 2.36307 10.3006 2.34461 10.2986 2.32285C10.2971 2.30732 10.2939 2.29156 10.2885 2.27052ZM10.3473 2.18479C10.3651 2.24335 10.3762 2.315 10.3737 2.34614L10.3844 2.34702C10.3871 2.31432 10.3758 2.2414 10.3576 2.18165L10.3473 2.18479ZM10.4227 2.65873C10.4006 2.61992 10.3806 2.55793 10.3761 2.50791L10.3868 2.50693C10.3912 2.55539 10.4107 2.6159 10.432 2.6534L10.4227 2.65873ZM10.2966 2.65536C10.3169 2.71634 10.3516 2.7793 10.383 2.80412L10.3896 2.79567C10.3603 2.77247 10.3264 2.71112 10.3068 2.65196L10.2966 2.65536ZM10.5938 2.82598C10.5723 2.761 10.5583 2.72943 10.5244 2.68115L10.5332 2.67496C10.5678 2.72427 10.5822 2.75671 10.604 2.8226L10.5938 2.82598Z" fill="black"/>
<path fill-rule="evenodd" clip-rule="evenodd" d="M10.1321 2.69563C10.1388 2.69634 10.143 2.69661 10.1544 2.69718C10.1811 2.69852 10.1905 2.70124 10.2025 2.71397C10.2105 2.72237 10.2183 2.73505 10.2268 2.75352C10.2565 2.81801 10.3375 2.91661 10.3849 2.9473L10.3848 2.94734C10.4475 3.05772 10.4754 3.20342 10.4559 3.28163C10.4504 3.2472 10.4309 3.22071 10.4008 3.19901C10.3891 3.19059 10.3817 3.1863 10.3614 3.17549C10.3345 3.19896 10.2954 3.22598 10.2756 3.2302L10.2779 3.24072C10.3002 3.23596 10.3411 3.20773 10.3628 3.18387C10.3727 3.19251 10.3792 3.19702 10.3864 3.20203L10.3945 3.20775C10.4225 3.22794 10.4403 3.25216 10.4454 3.28346L10.4559 3.28175L10.4552 3.28452L10.4655 3.28733C10.4864 3.21017 10.4612 3.0683 10.4019 2.95619C10.4749 2.98983 10.5216 3.02774 10.5308 3.08121L10.5409 3.0825L10.5462 3.07073C10.5705 3.01585 10.5798 2.97814 10.5705 2.9392L10.5714 2.94033L10.58 2.95066C10.6069 2.98303 10.6267 3.00685 10.6413 3.02485L10.6403 3.025C10.6417 3.03524 10.6431 3.05084 10.6447 3.07462L10.6499 3.1554C10.6537 3.21188 10.6576 3.24952 10.6628 3.27406L10.6733 3.2718C10.6682 3.24794 10.6644 3.21063 10.6605 3.15467L10.6554 3.07389C10.6544 3.05949 10.6535 3.04805 10.6526 3.03892C10.6755 3.06757 10.6815 3.0776 10.6845 3.08845C10.6855 3.09171 10.6861 3.09503 10.6869 3.09896L10.6878 3.10334C10.6968 3.1461 10.7311 3.20473 10.7656 3.24239L10.7735 3.23512C10.7402 3.19876 10.7068 3.14176 10.6983 3.10114L10.6972 3.0955C10.6963 3.09125 10.6956 3.08767 10.6946 3.08417C10.6893 3.06547 10.6757 3.04912 10.5896 2.94541L10.5797 2.93345L10.5595 2.90877L10.5505 2.91438C10.5718 2.96085 10.5658 2.99947 10.5376 3.0637C10.5217 3.01248 10.4729 2.97626 10.4006 2.94378C10.3588 2.92506 10.2677 2.81685 10.2365 2.74902C10.2276 2.72957 10.2191 2.71594 10.2103 2.70657C10.1959 2.6913 10.1842 2.68791 10.155 2.68644C10.1437 2.68588 10.1397 2.68562 10.1332 2.68494L10.1321 2.69563ZM10.6526 3.03892C10.6521 3.03281 10.6515 3.02773 10.6509 3.02349L10.6413 3.02485C10.6455 3.02999 10.6493 3.03466 10.6526 3.03892ZM10.4559 3.28175L10.456 3.28174L10.4559 3.28163L10.4559 3.28175ZM10.4019 2.95619L10.3962 2.9536C10.3927 2.95203 10.3889 2.94991 10.3849 2.9473L10.3941 2.94201L10.4019 2.95619ZM10.2072 2.85859C10.226 2.91532 10.2409 2.98344 10.2424 3.02286L10.2531 3.02245C10.2516 2.98185 10.2365 2.91281 10.2174 2.8552L10.2072 2.85859ZM10.3696 3.13831C10.368 3.10649 10.348 3.02315 10.3281 2.96763L10.3382 2.96399C10.3584 3.02042 10.3786 3.10471 10.3803 3.13774L10.3696 3.13831ZM10.5568 3.11892C10.5724 3.15652 10.5822 3.21589 10.5791 3.25126L10.5897 3.25222C10.593 3.21506 10.5829 3.15397 10.5667 3.1148L10.5568 3.11892Z" fill="black"/>
</g>
</svg>
