<svg width="24" height="24" viewBox="0 0 24 24" fill="none" xmlns="http://www.w3.org/2000/svg">
<path d="M12.0244 0.999877C11.831 0.993842 11.6428 1.06277 11.499 1.19226C11.499 1.19226 7.74508 4.49988 3.25 4.49988C3.05109 4.4999 2.86034 4.57892 2.71969 4.71957C2.57904 4.86022 2.50002 5.05097 2.5 5.24988V11.3798C2.5 14.7188 4.04471 20.2131 11.709 23.4413C11.8011 23.4801 11.9 23.5 12 23.5C12.1 23.5 12.1989 23.4801 12.291 23.4413C19.9553 20.2131 21.5 14.7188 21.5 11.3798V5.24988C21.5 5.05097 21.421 4.86022 21.2803 4.71957C21.1397 4.57892 20.9489 4.4999 20.75 4.49988C16.2549 4.49988 12.501 1.19226 12.501 1.19226C12.3697 1.07401 12.201 1.00588 12.0244 0.999877ZM12 5.49988C12.415 5.49988 12.75 5.83488 12.75 6.24988V7.00476C13.805 7.11976 14.7005 7.88019 14.9805 8.94519C15.0855 9.34519 14.8453 9.75523 14.4453 9.86023C14.0453 9.96523 13.6353 9.72507 13.5303 9.32507C13.4003 8.83007 12.9705 8.48523 12.4805 8.48523H11.6748C11.0098 8.48523 10.4746 9.04988 10.4746 9.74988C10.4746 10.4449 11.0098 11.0145 11.6748 11.0145H12.5947C14.2097 11.0145 15.5254 12.3595 15.5254 14.0145C15.5254 15.6145 14.295 16.9246 12.75 17.0096V17.7499C12.75 18.1649 12.415 18.4999 12 18.4999C11.585 18.4999 11.25 18.1649 11.25 17.7499V16.9901C10.205 16.8601 9.32469 16.095 9.05469 15.035C8.95469 14.63 9.19461 14.225 9.59961 14.12C9.99961 14.02 10.4098 14.2649 10.5098 14.6649C10.6348 15.1649 11.0696 15.5145 11.5596 15.5145H12.5947C13.3847 15.5145 14.0254 14.8445 14.0254 14.0145C14.0254 13.1845 13.3847 12.5145 12.5947 12.5145H11.6748C10.1848 12.5145 8.97461 11.2749 8.97461 9.74988C8.97461 8.36988 9.96 7.22941 11.25 7.01941V6.24988C11.25 5.83488 11.585 5.49988 12 5.49988Z" fill="#F2994A"/>
</svg>
