<svg width="24" height="24" viewBox="0 0 24 24" fill="none" xmlns="http://www.w3.org/2000/svg">
<path fill-rule="evenodd" clip-rule="evenodd" d="M2 12C2 6.486 6.486 2 12 2C17.4313 2 21.8652 6.35244 21.997 11.7526C21.3671 11.3137 20.6617 10.9758 19.9042 10.7621C19.7344 9.67511 19.3422 8.64425 18.7545 7.7205L17.662 8.813C17.9618 9.34388 18.1858 9.9131 18.3264 10.5075C18.2182 10.5025 18.1094 10.5 18 10.5C16.2833 10.5 14.7109 11.118 13.4932 12.1436C13.4977 12.0963 13.5 12.0484 13.5 12C13.5 11.8665 13.477 11.7395 13.444 11.6165L17.78 7.2805C18.073 6.9875 18.073 6.513 17.78 6.22C17.487 5.927 17.0125 5.927 16.7195 6.22L12.3835 10.556C12.2605 10.523 12.1335 10.5 12 10.5C11.1715 10.5 10.5 11.1715 10.5 12C10.5 12.8285 11.1715 13.5 12 13.5C12.0928 13.5 12.1837 13.4916 12.2719 13.4754C11.4706 14.6139 11 16.002 11 17.5C11 19.2046 11.6093 20.7668 12.6219 21.9809C12.4162 21.9936 12.2088 22 12 22C6.486 22 2 17.514 2 12ZM6.3435 17.6565C6.6365 17.9495 7.111 17.9495 7.404 17.6565C7.697 17.364 7.697 16.889 7.404 16.596C6.1765 15.3685 5.5 13.7365 5.5 12C5.5 10.2635 6.1765 8.6315 7.404 7.404C8.6315 6.1765 10.2635 5.5 12 5.5C13.136 5.5 14.2245 5.7945 15.187 6.338L16.2795 5.2455C15.011 4.4385 13.5405 4 12 4C9.863 4 7.854 4.832 6.3435 6.3435C4.832 7.854 4 9.863 4 12C4 14.137 4.832 16.146 6.3435 17.6565Z" fill="#9B51E0"/>
<path fill-rule="evenodd" clip-rule="evenodd" d="M18 12C17.7065 12 17.4192 12.0248 17.1387 12.0723L16.9658 12.7881C16.6973 13.9006 15.5526 14.5618 14.4551 14.2373L13.8525 14.0586C13.4905 14.5251 13.2005 15.0554 13 15.6289L13.4473 16.0586C14.2648 16.8456 14.2648 18.1544 13.4473 18.9414L13 19.3711C13.2005 19.9446 13.49 20.4744 13.8525 20.9414L14.4551 20.7627C15.5526 20.4382 16.6973 21.0994 16.9658 22.2119L17.1387 22.9277C17.4192 22.9752 17.707 23 18 23C18.2935 23 18.5808 22.9752 18.8613 22.9277L19.0342 22.2119C19.3027 21.0994 20.4474 20.4382 21.5449 20.7627L22.1475 20.9414C22.5095 20.4749 22.7995 19.9446 23 19.3711L22.5527 18.9414C21.7352 18.1549 21.7352 16.8451 22.5527 16.0586L23 15.6289C22.7995 15.0554 22.51 14.5256 22.1475 14.0586L21.5449 14.2373C20.4474 14.5618 19.3027 13.9006 19.0342 12.7881L18.8613 12.0723C18.5808 12.0248 18.2935 12 18 12ZM19.5 17.5C19.5 16.6715 18.8285 16 18 16C17.1715 16 16.5 16.6715 16.5 17.5C16.5 18.3285 17.1715 19 18 19C18.8285 19 19.5 18.3285 19.5 17.5Z" fill="#9B51E0"/>
</svg>
