<svg width="24" height="24" viewBox="0 0 24 24" fill="none" xmlns="http://www.w3.org/2000/svg">
<path d="M12 2C6.486 2 2 6.486 2 12C2 17.514 6.486 22 12 22C17.514 22 22 17.514 22 12C22 6.486 17.514 2 12 2ZM7.404 17.6565C7.111 17.9495 6.6365 17.9495 6.3435 17.6565C4.832 16.146 4 14.137 4 12C4 9.863 4.832 7.854 6.3435 6.3435C7.854 4.832 9.863 4 12 4C13.5405 4 15.011 4.4385 16.2795 5.2455L15.187 6.338C14.2245 5.7945 13.136 5.5 12 5.5C10.2635 5.5 8.6315 6.1765 7.404 7.404C6.1765 8.6315 5.5 10.2635 5.5 12C5.5 13.7365 6.1765 15.3685 7.404 16.596C7.697 16.889 7.697 17.364 7.404 17.6565ZM12 13.5C11.1715 13.5 10.5 12.8285 10.5 12C10.5 11.1715 11.1715 10.5 12 10.5C12.1335 10.5 12.2605 10.523 12.3835 10.556L16.7195 6.22C17.0125 5.927 17.487 5.927 17.78 6.22C18.073 6.513 18.073 6.9875 17.78 7.2805L13.444 11.6165C13.477 11.7395 13.5 11.8665 13.5 12C13.5 12.8285 12.8285 13.5 12 13.5ZM17.6565 17.6565C17.51 17.803 17.318 17.876 17.126 17.876C16.934 17.876 16.742 17.803 16.5955 17.6565C16.3025 17.3635 16.3025 16.889 16.5955 16.596C17.8235 15.3685 18.5 13.7365 18.5 12C18.5 10.864 18.2055 9.7755 17.662 8.813L18.7545 7.7205C19.5615 8.989 20 10.4595 20 12C20 14.137 19.168 16.146 17.6565 17.6565Z" fill="#9B51E0"/>
</svg>
