<svg width="24" height="24" viewBox="0 0 24 24" fill="none" xmlns="http://www.w3.org/2000/svg">
<path fill-rule="evenodd" clip-rule="evenodd" d="M12.0681 8.462C12.0239 8.46743 11.9793 8.46743 11.9351 8.462C10.0265 8.4963 8.4983 10.0234 8.46232 11.9317C8.46775 11.9758 8.46775 12.0205 8.46232 12.0647C8.49664 13.9742 10.0251 15.5029 11.9346 15.5375C11.9536 15.5351 11.9728 15.5337 11.992 15.5332C12.0157 15.5331 12.0393 15.5346 12.0628 15.5375C13.9724 15.5043 15.5017 13.9768 15.5377 12.0678C15.5322 12.0237 15.5322 11.979 15.5377 11.9348C15.5034 10.0262 13.9763 8.49797 12.0681 8.462ZM10.9105 11.9998C10.9105 11.3992 11.3994 10.9102 12 10.9102C12.6006 10.9102 13.0895 11.3992 13.0895 11.9998C13.0895 12.6004 12.6006 13.0893 12 13.0893C11.3994 13.0893 10.9105 12.6004 10.9105 11.9998Z" fill="#2F80ED"/>
<path fill-rule="evenodd" clip-rule="evenodd" d="M11.499 1.19226C11.6428 1.06277 11.831 0.993842 12.0244 0.999877C12.201 1.00588 12.3697 1.07401 12.501 1.19226C12.501 1.19226 16.2549 4.49988 20.75 4.49988C20.9489 4.4999 21.1397 4.57892 21.2803 4.71957C21.421 4.86022 21.5 5.05097 21.5 5.24988V11.3798C21.5 14.7188 19.9553 20.2131 12.291 23.4413C12.1989 23.4801 12.1 23.5 12 23.5C11.9 23.5 11.8011 23.4801 11.709 23.4413C4.04471 20.2131 2.5 14.7188 2.5 11.3798V5.24988C2.50002 5.05097 2.57904 4.86022 2.71969 4.71957C2.86034 4.57892 3.05109 4.4999 3.25 4.49988C7.74508 4.49988 11.499 1.19226 11.499 1.19226ZM11.6094 6.16495C11.71 6.0614 11.8476 6.00205 11.992 5.99994C12.0649 5.99887 12.1372 6.01242 12.2047 6.03979C12.2722 6.06715 12.3335 6.10778 12.385 6.15927C12.4366 6.21075 12.4773 6.27205 12.5047 6.33953C12.5321 6.40701 12.5457 6.47931 12.5447 6.55215V7.4044C14.6609 7.65457 16.3451 9.33876 16.5953 11.455H17.4475C17.5197 11.454 17.5913 11.4673 17.6583 11.4942C17.7253 11.5211 17.7863 11.5611 17.8377 11.6118C17.8891 11.6625 17.9299 11.7229 17.9578 11.7895C17.9857 11.8561 18 11.9276 18 11.9998C18 12.0719 17.9857 12.1434 17.9578 12.21C17.9299 12.2766 17.8891 12.337 17.8377 12.3877C17.7863 12.4384 17.7253 12.4784 17.6583 12.5053C17.5913 12.5322 17.5197 12.5455 17.4475 12.5445H16.5953C16.3451 14.6607 14.6609 16.3449 12.5447 16.5951V17.4474C12.5458 17.5195 12.5324 17.5912 12.5055 17.6582C12.4786 17.7252 12.4386 17.7862 12.3879 17.8376C12.3373 17.889 12.2769 17.9298 12.2103 17.9577C12.1437 17.9855 12.0722 17.9999 12 17.9999C11.9278 17.9999 11.8563 17.9855 11.7897 17.9577C11.7231 17.9298 11.6627 17.889 11.6121 17.8376C11.5614 17.7862 11.5214 17.7252 11.4945 17.6582C11.4676 17.5912 11.4542 17.5195 11.4553 17.4474V16.5951C9.33906 16.3449 7.65491 14.6607 7.40474 12.5445H6.55251C6.48032 12.5455 6.40865 12.5322 6.34167 12.5053C6.27468 12.4784 6.21371 12.4384 6.1623 12.3877C6.1109 12.337 6.07007 12.2766 6.04221 12.21C6.01435 12.1434 6 12.0719 6 11.9998C6 11.9276 6.01435 11.8561 6.04221 11.7895C6.07007 11.7229 6.1109 11.6625 6.1623 11.6118C6.21371 11.5611 6.27468 11.5211 6.34167 11.4942C6.40865 11.4673 6.48032 11.454 6.55251 11.455H7.40474C7.65491 9.33876 9.33906 7.65457 11.4553 7.4044V6.55215C11.4533 6.40776 11.5087 6.26849 11.6094 6.16495Z" fill="#2F80ED"/>
</svg>
