<svg width="16" height="16" viewBox="0 0 16 16" fill="none" xmlns="http://www.w3.org/2000/svg">
<path d="M8.00004 1.3335C4.31804 1.3335 1.33337 4.31816 1.33337 8.00016C1.33337 11.6822 4.31804 14.6668 8.00004 14.6668C11.682 14.6668 14.6667 11.6822 14.6667 8.00016C14.6667 4.31816 11.682 1.3335 8.00004 1.3335ZM10.5204 9.81316C10.7157 10.0085 10.7157 10.3248 10.5204 10.5202C10.4227 10.6182 10.2947 10.6668 10.1667 10.6668C10.0387 10.6668 9.91071 10.6182 9.81304 10.5205L8.00004 8.70716L6.18704 10.5202C6.08937 10.6182 5.96137 10.6668 5.83337 10.6668C5.70537 10.6668 5.57737 10.6182 5.47971 10.5205C5.28437 10.3252 5.28437 10.0088 5.47971 9.8135L7.29304 8.00016L5.48004 6.18716C5.28471 5.99183 5.28471 5.6755 5.48004 5.48016C5.67537 5.28483 5.99171 5.28483 6.18704 5.48016L8.00004 7.29316L9.81304 5.48016C10.0084 5.28483 10.3247 5.28483 10.52 5.48016C10.7154 5.6755 10.7154 5.99183 10.52 6.18716L8.70704 8.00016L10.5204 9.81316Z" fill="#EF0000"/>
</svg>
