<svg width="17" height="16" viewBox="0 0 17 16" fill="none" xmlns="http://www.w3.org/2000/svg">
<path d="M8.50004 1.3335C4.82404 1.3335 1.83337 4.32416 1.83337 8.00016C1.83337 11.6762 4.82404 14.6668 8.50004 14.6668C12.176 14.6668 15.1667 11.6762 15.1667 8.00016C15.1667 4.32416 12.176 1.3335 8.50004 1.3335ZM11.3537 6.85383L8.02037 10.1872C7.92271 10.2848 7.79471 10.3335 7.66671 10.3335C7.53871 10.3335 7.41071 10.2848 7.31304 10.1872L5.64637 8.5205C5.45104 8.32516 5.45104 8.00883 5.64637 7.8135C5.84171 7.61816 6.15804 7.61816 6.35337 7.8135L7.66637 9.1265L10.646 6.14683C10.8414 5.9515 11.1577 5.9515 11.353 6.14683C11.5484 6.34216 11.5487 6.6585 11.3537 6.85383Z" fill="#39B300"/>
</svg>
