<svg width="16" height="16" viewBox="0 0 16 16" fill="none" xmlns="http://www.w3.org/2000/svg">
<path d="M8.00001 2C4.8121 2 2.20379 4.5023 2.01824 7.64453L1.35353 6.97982C1.30692 6.93182 1.25116 6.89367 1.18954 6.86761C1.12792 6.84156 1.0617 6.82813 0.994801 6.82812C0.895294 6.82815 0.798057 6.85786 0.71553 6.91346C0.633004 6.96906 0.568942 7.04801 0.53154 7.14022C0.494139 7.23243 0.485099 7.33371 0.505577 7.43108C0.526055 7.52846 0.57512 7.61751 0.646494 7.68685L2.14649 9.18685C2.24027 9.28058 2.36742 9.33324 2.50001 9.33324C2.6326 9.33324 2.75975 9.28058 2.85353 9.18685L4.35353 7.68685C4.40151 7.64078 4.43982 7.58559 4.46621 7.52453C4.4926 7.46346 4.50655 7.39775 4.50722 7.33123C4.5079 7.26471 4.4953 7.19872 4.47015 7.13713C4.44501 7.07555 4.40783 7.01959 4.36079 6.97256C4.31375 6.92552 4.2578 6.88834 4.19621 6.86319C4.13462 6.83805 4.06863 6.82544 4.00211 6.82612C3.9356 6.8268 3.86988 6.84074 3.80882 6.86713C3.74775 6.89352 3.69257 6.93183 3.64649 6.97982L3.02019 7.60612C3.22069 5.02429 5.36551 3 8.00001 3C9.692 3 11.1781 3.83893 12.084 5.12174C12.1219 5.1754 12.1699 5.22107 12.2255 5.25615C12.281 5.29123 12.3429 5.31503 12.4076 5.32619C12.4723 5.33735 12.5386 5.33565 12.6027 5.32119C12.6667 5.30673 12.7273 5.27979 12.781 5.24191C12.8346 5.20404 12.8803 5.15596 12.9154 5.10043C12.9504 5.0449 12.9742 4.98301 12.9854 4.91829C12.9965 4.85357 12.9948 4.78728 12.9804 4.72322C12.9659 4.65916 12.9389 4.59857 12.9011 4.54492C11.8156 3.00774 10.0234 2 8.00001 2ZM13.4928 6.66667C13.3627 6.66857 13.2385 6.72112 13.1465 6.81315L11.6465 8.31315C11.5985 8.35922 11.5602 8.41441 11.5338 8.47547C11.5074 8.53654 11.4935 8.60225 11.4928 8.66877C11.4921 8.73529 11.5047 8.80128 11.5299 8.86287C11.555 8.92445 11.5922 8.98041 11.6392 9.02744C11.6863 9.07448 11.7422 9.11166 11.8038 9.13681C11.8654 9.16195 11.9314 9.17456 11.9979 9.17388C12.0644 9.1732 12.1301 9.15926 12.1912 9.13287C12.2523 9.10648 12.3075 9.06817 12.3535 9.02018L12.9798 8.39388C12.7793 10.9757 10.6345 13 8.00001 13C6.30802 13 4.82188 12.1611 3.91603 10.8783C3.87815 10.8246 3.83008 10.7789 3.77456 10.7438C3.71904 10.7088 3.65715 10.685 3.59243 10.6738C3.52771 10.6627 3.46142 10.6644 3.39736 10.6788C3.33329 10.6933 3.2727 10.7202 3.21905 10.7581C3.1654 10.796 3.11973 10.844 3.08466 10.8996C3.04959 10.9551 3.0258 11.017 3.01464 11.0817C3.00349 11.1464 3.0052 11.2127 3.01967 11.2768C3.03414 11.3408 3.06108 11.4014 3.09897 11.4551C4.18444 12.9923 5.97666 14 8.00001 14C11.1879 14 13.7962 11.4977 13.9818 8.35547L14.6465 9.02018C14.6926 9.06817 14.7478 9.10648 14.8088 9.13287C14.8699 9.15926 14.9356 9.1732 15.0021 9.17388C15.0686 9.17456 15.1346 9.16195 15.1962 9.13681C15.2578 9.11166 15.3137 9.07448 15.3608 9.02744C15.4078 8.98041 15.445 8.92445 15.4702 8.86287C15.4953 8.80128 15.5079 8.73529 15.5072 8.66877C15.5065 8.60225 15.4926 8.53654 15.4662 8.47547C15.4398 8.41441 15.4015 8.35922 15.3535 8.31315L13.8535 6.81315C13.8063 6.76586 13.75 6.72853 13.688 6.70337C13.6261 6.67821 13.5597 6.66573 13.4928 6.66667Z" fill="#5B678A"/>
</svg>
