<svg width="16" height="16" viewBox="0 0 16 16" fill="none" xmlns="http://www.w3.org/2000/svg">
<path d="M11.5725 4.27893C11.7232 4.10726 11.9283 4.00736 12.1443 4.00038C12.3117 3.99504 12.4767 4.04585 12.6176 4.14617C12.7585 4.24649 12.8689 4.39165 12.9342 4.56265C12.9995 4.73364 13.0167 4.92251 12.9836 5.10454C12.9505 5.28656 12.8685 5.45326 12.7486 5.58281L7.20402 11.73C7.04804 11.9029 6.83653 12 6.61599 12C6.39545 12 6.18394 11.9029 6.02797 11.73L3.2557 8.65642C3.17588 8.57146 3.11216 8.46969 3.06826 8.35708C3.02436 8.24446 3.00117 8.12327 3.00004 8.0006C2.99892 7.87793 3.01988 7.75624 3.06171 7.64266C3.10353 7.52908 3.16538 7.4259 3.24362 7.33915C3.32186 7.2524 3.41493 7.18383 3.51737 7.13746C3.61981 7.09109 3.72957 7.06785 3.84022 7.0691C3.95087 7.07034 4.06018 7.09606 4.16175 7.14473C4.26332 7.1934 4.35511 7.26405 4.43175 7.35254L6.61599 9.77421L11.5725 4.27893Z" fill="#5b678a"/>
</svg>
