<svg width="81" height="80" viewBox="0 0 81 80" fill="none" xmlns="http://www.w3.org/2000/svg">
<g clip-path="url(#clip0)">
<path d="M15.5 43.3333L75.5 19.5V63.3333C75.5 65.1667 74 66.6667 72.1667 66.6667H15.5V43.3333Z" fill="url(#paint0_linear)"/>
<path d="M5.5 19.5V63.3333C5.5 65.1667 7 66.6667 8.83333 66.6667H72.1667C73 66.6667 73.6667 66.3333 74.3333 65.8333L5.5 19.5Z" fill="url(#paint1_linear)"/>
<path opacity="0.05" d="M5.5 18.3333H75.5V21.1666L46.6667 43.5C43 46.3333 38 46.3333 34.3333 43.5L5.5 21.1666V18.3333Z" fill="black"/>
<path opacity="0.07" d="M5.5 17.5H75.5V20.3333L45.5 42.1667C42.5 44.3333 38.5 44.3333 35.6667 42.1667L5.5 20.3333V17.5Z" fill="black"/>
<path d="M8.83333 13.3333H72.1667C74 13.3333 75.5 14.8333 75.5 16.6666V19.5L44.3333 40.8333C42 42.3333 39.1667 42.3333 36.8333 40.8333L5.5 19.5V16.6666C5.5 14.8333 7 13.3333 8.83333 13.3333Z" fill="#FABB62"/>
<path opacity="0.05" d="M45.1667 66.6667H72.1667C74.0001 66.6667 75.5001 65.1667 75.5001 63.3334V62.5C74.8334 62.1667 74.3334 62 73.6667 61.8334C74.3334 61.5 75.0001 61 75.5001 60.5V49.6667C74.1667 48.5 72.5001 47.6667 70.5001 47.6667C68.5001 47.6667 66.6667 48.5 65.3334 49.8334C64.5001 46 61.1667 43.1667 57.1667 43.1667C52.5001 43.1667 48.8334 46.8334 48.8334 51.5C48.8334 55.1667 51.1667 58.1667 54.3334 59.3334C50.3334 60.3334 47.0001 63 45.1667 66.6667ZM63.3334 57.1667C63.8334 59.1667 65.3334 61 67.3334 61.8334C66.8334 62 66.3334 62.1667 65.8334 62.3334C64.1667 60.8334 62.1667 59.8334 60.0001 59.5C61.3334 59 62.5001 58.1667 63.3334 57.1667Z" fill="black"/>
<path opacity="0.07" d="M75.5001 59.3334V51C74.3334 49.5 72.5001 48.6667 70.5001 48.6667C67.8334 48.6667 65.6667 50.1667 64.6667 52.5C64.6667 52.1667 64.6667 52 64.6667 51.6667C64.6667 47.5 61.3334 44.1667 57.1667 44.1667C53.0001 44.1667 49.6667 47.5 49.6667 51.6667C49.6667 55.8334 53.0001 59.1667 57.1667 59.1667C60.1667 59.1667 62.8334 57.3334 64.0001 54.6667C64.0001 54.8334 64.0001 55 64.0001 55.1667C64.0001 58.8334 67.0001 61.6667 70.5001 61.6667C72.5001 61.8334 74.3334 60.8334 75.5001 59.3334Z" fill="black"/>
<path d="M57.1667 58.3333C60.8486 58.3333 63.8333 55.3486 63.8333 51.6667C63.8333 47.9848 60.8486 45 57.1667 45C53.4848 45 50.5 47.9848 50.5 51.6667C50.5 55.3486 53.4848 58.3333 57.1667 58.3333Z" fill="url(#paint2_linear)"/>
<path opacity="0.07" d="M72.1665 66.6667C73.9998 66.6667 75.3332 65.3334 75.4998 63.5C73.9998 62.6667 72.3332 62.3334 70.4998 62.3334C68.8332 62.3334 67.1665 62.6667 65.6665 63.5C63.3332 61.3334 60.3332 60.1667 57.1665 60.1667C52.3332 60.1667 48.1665 62.8334 46.1665 66.8334H72.1665V66.6667Z" fill="black"/>
<path d="M70.5002 60.8333C73.6298 60.8333 76.1668 58.2963 76.1668 55.1667C76.1668 52.037 73.6298 49.5 70.5002 49.5C67.3706 49.5 64.8335 52.037 64.8335 55.1667C64.8335 58.2963 67.3706 60.8333 70.5002 60.8333Z" fill="#0078D4"/>
<path d="M70.5 63.1667C65 63.1667 60.5 67.6667 60.5 73.1667V75.3334C60.5 76.1667 61.1667 76.8334 62 76.8334H79.1667C80 76.8334 80.6667 76.1667 80.6667 75.3334V73.1667C80.5 67.5 76 63.1667 70.5 63.1667Z" fill="#0078D4"/>
<path d="M57.1667 60.8333C50.6667 60.8333 45.5 66 45.5 72.5V75C45.5 76 46.1667 76.6666 47.1667 76.6666H67.1667C68.1667 76.6666 68.8333 76 68.8333 75V72.5C68.8333 66 63.6667 60.8333 57.1667 60.8333Z" fill="url(#paint3_linear)"/>
</g>
<defs>
<linearGradient id="paint0_linear" x1="15.9167" y1="43.0767" x2="75.3817" y2="43.0767" gradientUnits="userSpaceOnUse">
<stop stop-color="#F7AB40"/>
<stop offset="0.32" stop-color="#F4A73C"/>
<stop offset="0.671" stop-color="#ED992F"/>
<stop offset="1" stop-color="#E2861D"/>
</linearGradient>
<linearGradient id="paint1_linear" x1="10.48" y1="11.58" x2="44.8" y2="73.9267" gradientUnits="userSpaceOnUse">
<stop stop-color="#EBA84B"/>
<stop offset="1" stop-color="#D97218"/>
</linearGradient>
<linearGradient id="paint2_linear" x1="50.5" y1="51.6667" x2="63.8333" y2="51.6667" gradientUnits="userSpaceOnUse">
<stop stop-color="#32BDEF"/>
<stop offset="1" stop-color="#1EA2E4"/>
</linearGradient>
<linearGradient id="paint3_linear" x1="45.5" y1="68.75" x2="68.8333" y2="68.75" gradientUnits="userSpaceOnUse">
<stop stop-color="#32BDEF"/>
<stop offset="1" stop-color="#1EA2E4"/>
</linearGradient>
<clipPath id="clip0">
<rect width="80" height="80" fill="white" transform="translate(0.5)"/>
</clipPath>
</defs>
</svg>
