<svg width="186" height="186" viewBox="0 0 186 186" fill="none" xmlns="http://www.w3.org/2000/svg">
<rect opacity="0.2" x="124" y="-1" width="62" height="30" fill="#3970FA"/>
<rect opacity="0.2" width="62" height="69" fill="#4066C8"/>
<path opacity="0.3" d="M123.275 58.4763C109.114 43.9176 82 46 74.3002 34.8184C73.3924 33.5 72 31 75.7774 26.0191C75.7774 26.0191 79.5 19.5 99 18.5C115.985 17.629 80 0 80 0C80 0 105.5 14.5 100 15.5C81.5 17 77.5 21.4549 75.7774 22.7694C68.2821 28.4889 63.6044 42.0977 66.3399 51.9369C70.3793 66.4656 88.8348 64.7057 92.4457 75.1048C95.3271 83.4141 88.2148 100.093 44 134.99H63.1485L50.3828 147.988C64.0056 148.028 77.3772 147.96 91 148L101 132.99H116.035L111.313 143.989L120.5 144C137.688 90.2247 132.886 68.3754 123.266 58.4763H123.275Z" fill="#70CAF2"/>
<g style="mix-blend-mode:multiply" opacity="0.7">
<path d="M120.5 144H111.312V175H120.5V144Z" fill="#FF8D9B"/>
</g>
<g style="mix-blend-mode:multiply" opacity="0.7">
<path d="M91 148L101 133V154L91 175V148Z" fill="#E16474"/>
</g>
<g style="mix-blend-mode:multiply" opacity="0.7">
<path d="M116 133H101V154H111.312V144L116 133Z" fill="#E16474"/>
</g>
<g style="mix-blend-mode:multiply" opacity="0.7">
<path d="M50.332 148H91V175H50.332V148Z" fill="#FF8D9B"/>
</g>
<g style="mix-blend-mode:multiply" opacity="0.7">
<path d="M63 135H44V156H50.3333V148L63 135Z" fill="#E16474"/>
</g>
<path d="M54 118C54 118 50.0909 117.98 48.2774 115.474C46.4942 113.009 47.0987 111 47.0987 111C47.7737 112.472 48.7308 113.804 49.8995 114.928C51.1589 116.081 52.5291 117.115 54 118Z" fill="white"/>
<g clip-path="url(#clip0_1179_4769)">
<g style="mix-blend-mode:multiply" opacity="0.2" filter="url(#filter0_f_1179_4769)">
<ellipse cx="79" cy="139.5" rx="15" ry="3.5" fill="#3857A7"/>
</g>
<path d="M123.432 88.1662C121.892 82.8883 117.793 82.5297 117.793 82.5297L117.639 82.1128C116.885 82.3889 116.106 82.5886 115.313 82.709C107.986 83.8296 94.0803 84.7126 79.7653 84.744C77.6743 84.744 75.5783 84.7305 73.4933 84.7059L64.2607 84.4638L63.6358 84.4459C54.5121 84.0918 46.4241 83.462 41.5007 82.7112C41.1882 82.6664 40.8802 82.6014 40.5812 82.5319C40.3959 82.5566 36.671 83.0945 34.9682 88.1169C33.4394 92.6195 33.3166 98.5586 33.6291 102.044C34.0085 106.335 35.8163 115.107 40.5923 117.803C42.3488 118.791 44.8685 119.596 47.8346 120.268C56.9337 122.303 70.2953 122.958 79.2653 123.023C79.2973 123.026 79.3293 123.026 79.3613 123.023C88.2033 122.94 101.201 122.31 110.209 120.347C113.333 119.674 115.976 118.825 117.797 117.796C121.102 115.929 122.982 112.194 123.955 107.936C124.411 106.004 124.681 104.032 124.76 102.048C124.892 97.7742 124.553 92.0099 123.432 88.1662Z" fill="#3970FA"/>
<path d="M78.9978 131.209C78.9978 131.209 86.0258 131.157 92.7948 130.76C90.0408 133.528 83.7358 139.21 78.5108 139.102C73.5498 138.999 67.6177 133.723 64.6494 130.729C71.5818 131.15 78.9978 131.209 78.9978 131.209Z" fill="#2E497F"/>
<path d="M79.3506 123.027C88.1926 122.944 101.191 122.315 110.199 120.351L110.25 120.575C110.25 120.575 108.703 128.78 101.472 129.937C99.1506 130.309 95.9976 130.571 92.7946 130.757C86.0256 131.156 78.9976 131.205 78.9976 131.205C78.9976 131.205 71.5816 131.147 64.6381 130.723C61.6341 130.537 58.7193 130.275 56.5321 129.935C49.3011 128.778 47.7544 120.573 47.7544 120.573L47.8236 120.273C56.9227 122.308 70.2846 122.949 79.2546 123.025C79.2856 123.029 79.3186 123.03 79.3506 123.027Z" fill="#3857A7"/>
<path d="M123.433 88.1662C121.894 82.8883 117.794 82.5297 117.794 82.5297L117.64 82.1128C116.886 82.3889 116.107 82.5886 115.314 82.709C114.008 82.9062 112.484 83.0967 110.797 83.2782C110.853 83.4306 110.915 83.5718 110.967 83.7265C112.196 87.5701 112.569 93.3344 112.419 97.6217C112.328 99.6103 112.029 101.584 111.527 103.509C110.458 107.767 108.402 111.501 104.767 113.37C102.758 114.397 99.8568 115.237 96.4288 115.918C86.5388 117.882 72.2708 118.511 62.565 118.594C62.5301 118.598 62.495 118.598 62.4601 118.594C56.1731 118.545 47.9221 118.265 40.1777 117.539C40.3094 117.626 40.4344 117.725 40.5728 117.801C42.3292 118.789 44.8489 119.594 47.815 120.266C56.9141 122.301 70.2758 122.956 79.2458 123.021C79.2778 123.024 79.3098 123.024 79.3418 123.021C88.1838 122.938 101.182 122.308 110.19 120.345C113.314 119.672 115.957 118.823 117.778 117.794C121.083 115.927 122.963 112.192 123.936 107.933C124.392 106.001 124.662 104.03 124.741 102.046C124.893 97.7719 124.554 92.0098 123.433 88.1662Z" fill="#4066C8"/>
<path d="M78.7846 90.3335C84.0366 90.3335 88.2966 94.4842 88.2966 99.5985C88.2966 104.713 84.0366 108.866 78.7846 108.866C73.5336 108.866 69.2646 104.715 69.2646 99.5985C69.2646 94.482 73.5246 90.3335 78.7846 90.3335Z" fill="#3A58C2"/>
<path d="M79.458 93C81.13 93.0013 82.763 93.5002 84.152 94.4336C85.541 95.367 86.623 96.693 87.262 98.244C87.901 99.795 88.067 101.501 87.74 103.147C87.413 104.793 86.608 106.305 85.426 107.491C84.243 108.677 82.737 109.485 81.098 109.812C79.459 110.139 77.76 109.97 76.216 109.328C74.672 108.685 73.352 107.597 72.424 106.202C71.495 104.806 71 103.166 71 101.487C71 100.372 71.218 99.268 71.644 98.2378C72.069 97.2076 72.692 96.2717 73.477 95.4835C74.263 94.6953 75.196 94.0703 76.222 93.6441C77.248 93.218 78.348 92.9991 79.458 93Z" fill="#FFEEEE"/>
<path d="M84 96L83.2857 98.75L80.2122 99.3353V107H78.4896L77.9286 99.9286L74 100.714L75.0714 98.75L84 96Z" fill="#FF8D9B"/>
<path d="M108.762 118.753C108.762 118.753 116.127 118.135 119.16 114.009C122.193 109.883 122.38 105.827 122.38 105.827C122.38 105.827 120.191 110.233 117.008 113.171C113.609 116.313 108.762 118.753 108.762 118.753Z" fill="#70CAF2"/>
<path d="M45.3932 117.896C45.3932 117.896 41.5099 117.878 39.711 115.357C37.939 112.878 38.5416 110.852 38.5416 110.852C39.2139 112.333 40.1581 113.675 41.3246 114.805C42.5763 115.968 43.9391 117.003 45.3932 117.896Z" fill="white"/>
<path d="M116.248 96.5411C117.646 97.6395 118.924 98.8817 120.061 100.248C124.051 104.985 126.139 110.401 127.742 111.907C127.797 111.959 127.854 112.013 127.914 112.05C127.947 112.081 127.983 112.107 128.023 112.129C128.061 112.157 128.102 112.183 128.144 112.205C128.144 112.205 128.144 112.205 128.153 112.195C128.209 112.225 128.269 112.246 128.331 112.258C130.457 112.749 132.764 110.399 131.794 100.676C131.612 98.8322 131.285 97.006 130.816 95.2146C129.753 91.1611 124.9 86.6593 121.305 88.8349C119.53 89.9193 117.859 94.0571 116.248 96.5411Z" fill="#4066C8"/>
<path d="M115.403 97.4393L115.354 97.4919C116.71 98.6352 117.996 99.8688 119.192 101.173C123.375 105.704 126.139 110.401 127.741 111.906C127.796 111.959 127.853 112.012 127.91 112.054C127.943 112.085 127.978 112.113 128.015 112.138C128.051 112.168 128.089 112.196 128.128 112.222C128.128 112.222 128.128 112.222 128.134 112.216C129.487 112.064 127.55 107.01 124.692 103.103C122.357 99.9071 117.239 95.4862 115.403 97.4393Z" fill="#3857A7"/>
<path d="M98.1396 128.839C98.1396 128.839 102.664 129.258 105.088 126.954C107.474 124.69 107.036 122.608 107.036 122.608C106.024 124.046 104.747 125.274 103.274 126.228C101.042 127.718 98.1396 128.839 98.1396 128.839Z" fill="#70CAF2"/>
<path d="M59.1076 128.707C59.1076 128.707 54.6953 129.124 52.3296 126.823C50.0018 124.557 50.4281 122.477 50.4281 122.477C51.4088 123.906 52.6536 125.134 54.095 126.092C56.2777 127.576 59.1076 128.707 59.1076 128.707Z" fill="#70CAF2"/>
<path d="M84.8875 135.405C84.8875 135.405 81.3855 138.16 77.5225 137.604C73.7125 137.059 72.4385 135.139 72.4385 135.139C74.3945 135.744 76.4305 136.047 78.4775 136.035C80.6275 135.997 82.7705 135.786 84.8875 135.405Z" fill="#70CAF2"/>
<path fill-rule="evenodd" clip-rule="evenodd" d="M109.423 82.4628C109.268 82.4286 109.179 82.42 109.179 82.42L109.044 82C108.366 82.28 107.661 82.48 106.938 82.6C100.394 83.7065 88.0541 84.5788 75.2788 84.6382C75.7258 84.6394 76.1727 84.64 76.6191 84.64C89.56 84.6 102.121 83.72 108.745 82.6C108.973 82.5622 109.199 82.5164 109.423 82.4628ZM40.4535 82.646C40.3804 82.6341 40.3081 82.622 40.2366 82.61C39.9564 82.57 39.6763 82.5 39.4052 82.43C39.2335 82.45 35.8718 82.99 34.3355 88.01C32.9528 92.51 32.8444 98.45 33.1245 101.94C33.4679 106.23 35.1036 115 39.4142 117.7C41.0047 118.69 43.282 119.49 45.9569 120.17C54.1805 122.2 66.2538 122.86 74.3599 122.92H74.4503C74.7066 122.917 74.9669 122.914 75.2307 122.911C67.1532 122.808 55.6768 122.123 47.7643 120.17C45.0894 119.49 42.8121 118.69 41.2216 117.7C36.911 115 35.2753 106.23 34.9319 101.94C34.6518 98.45 34.7602 92.51 36.1429 88.01C37.2573 84.3683 39.3324 83.0843 40.4535 82.646Z" fill="#70CAF2"/>
<path d="M42.4398 92.2747C41.3587 93.6873 40.4297 95.2097 39.6678 96.817C36.9792 102.396 36.3029 108.161 35.1268 110.016C35.0849 110.082 35.0443 110.146 34.9977 110.198C34.9733 110.237 34.9434 110.271 34.909 110.301C34.879 110.338 34.847 110.373 34.8128 110.406C34.8128 110.406 34.8128 110.406 34.8015 110.399C34.7536 110.44 34.7003 110.475 34.6432 110.502C32.7077 111.508 29.8873 109.804 28.4092 100.145C28.1288 98.3141 27.9921 96.4646 28.0004 94.6135C28.0239 90.421 32.0324 87.3182 36.0542 88.5341C38.4391 89.2789 40.6235 90.5584 42.4398 92.2747Z" fill="#3970FA"/>
<path d="M43.2537 93.3921L43.3088 93.427C42.3061 94.8347 41.3913 96.3113 40.5794 97.8326C37.7306 103.12 36.2637 108.223 35.1182 110.029C35.0775 110.093 35.0379 110.156 34.9962 110.209C34.9724 110.247 34.9455 110.281 34.9162 110.313C34.8888 110.35 34.8601 110.386 34.8305 110.421C34.8305 110.421 34.8305 110.421 34.8237 110.416C33.5018 110.608 34.1049 105.358 35.852 100.979C37.2821 97.3991 41.0421 91.9896 43.2537 93.3921Z" fill="#3857A7"/>
<path fill-rule="evenodd" clip-rule="evenodd" d="M33.7773 110.759C32.1839 110.529 30.338 107.85 29.2743 99.9943C29.0213 98.1356 28.9038 96.2566 28.9038 94.3777C28.9135 92.1044 29.952 90.1441 31.4713 89C29.4869 89.918 28.0112 92.01 28 94.6441C28 96.5231 28.1175 98.402 28.3705 100.261C29.5306 108.829 32.0021 111.023 33.7773 110.759Z" fill="#70CAF2"/>
<path opacity="0.46" d="M82.5101 93.4794C72.3 93.3853 65.2171 92.8411 57.1283 91.7441C48.7166 90.6033 41 88.5 34.5 83.5C45.5 95.5 63.2166 96.3533 79.7013 96.6405C81.6966 96.6278 83.7107 96.6112 85.9051 96.5401C100.217 96.3533 117 95.5 124 81.5C122.831 83.0585 121.089 85.1705 118.128 87.1488C114.408 89.6348 110.924 90.4643 105.68 91.6621C103.196 92.2296 99.7253 92.8889 95.489 93.2636C92.3474 93.3977 87.8772 93.5288 82.5101 93.4794Z" fill="#3857A7"/>
<path d="M122.69 52.1465C121.754 50.2556 120.611 48.4855 119.284 46.8716C118.54 45.9661 117.725 45.1269 116.847 44.3629C106.804 35.6291 90.5515 34.7493 81.4725 34.6626C80.3796 34.6626 76.3955 34.6626 75.2775 34.6626C66.1869 34.7493 49.9728 35.6408 39.9676 44.3559C27.59 55.1374 26.1125 83.8028 40.5746 87.2757C40.8737 87.3483 41.1817 87.4162 41.4941 87.4629C46.4175 88.2469 54.5056 88.9045 63.6293 89.2742L64.2542 89.293L73.4875 89.5481C75.5715 89.5738 77.6675 89.5949 79.7585 89.5879C94.0735 89.5551 107.98 88.6237 115.307 87.4629C116.1 87.3372 116.879 87.1287 117.633 86.8404C121.204 85.4855 123.659 82.4408 125.076 78.5326C127.404 70.5244 125.772 60.005 122.69 52.1465Z" fill="#3970FA"/>
<path d="M122.69 52.1467C121.754 50.2554 120.61 48.4852 119.282 46.8719C118.539 45.9658 117.724 45.1267 116.847 44.3632C111.536 39.7388 104.476 37.3167 97.6536 36.0483C100.526 37.5701 103.122 39.6091 105.322 42.0721C106.39 43.2683 107.027 44.2376 107.434 44.9108C108.309 46.3597 109.312 48.021 109.549 50.2717C109.774 52.408 109.433 54.6691 109.433 54.6692C96.3271 51.7348 85.4289 51.0717 77.7639 51.0628C71.2588 51.0552 66.5018 51.518 59.9553 52.155C56.6018 52.4812 52.1809 52.9807 46.6751 54.4317C38.8467 56.4947 36.6007 58.4322 35.2827 60.2865C34.0637 62.0017 33.1936 64.2719 32.6022 65.8151C31.7727 67.9794 31.0632 69.8307 30.8661 72.0591C30.5181 75.9926 31.9773 79.5432 33.3213 81.7881C36.0962 86.423 41.4552 87.7856 45.6377 88.7833C53.7824 90.726 66.3182 92.9683 83.1507 93.2675C88.4302 93.2185 99.5102 92.8627 109.422 90.3659C111.836 89.7579 114.626 88.9107 117.624 86.8478C118.829 86.0178 123.558 83.7154 125.067 78.5399C127.404 70.5247 125.772 60.0053 122.69 52.1467Z" fill="#4066C8"/>
<path d="M81.4725 34.6558C80.3796 34.6558 76.3955 34.6558 75.2775 34.6558C66.1847 34.7447 49.9728 35.6364 39.9676 44.3514C27.59 55.1305 26.1125 83.796 40.5746 87.2689C40.6773 87.2935 41.4478 87.5649 41.4941 87.4561C41.573 87.2711 36.8178 86.3046 33.9385 82.7048C32.8232 81.3103 32.3685 79.9962 31.9065 78.6612C30.1661 73.6316 30.9569 68.9962 31.7439 64.3837C32.255 61.3881 32.8886 59.4353 33.1333 58.7124C34.092 55.8804 35.1986 53.8506 35.6594 53.0412C35.9697 52.4962 37.8904 49.1707 40.838 46.3149C41.9438 45.2435 45.7472 41.7647 54.7317 39.1929C56.7448 38.6166 60.4464 37.677 72.0357 36.9507C72.0358 36.9507 93.7129 35.5923 101.439 40.079C103.167 41.0824 104.623 42.3581 104.623 42.3582C106.918 44.37 108.337 46.5396 109.163 48.0327C108.446 45.9152 107.04 42.708 104.244 39.7204C103.031 38.4247 101.807 37.4381 100.72 36.6918C93.6225 35.0021 86.4625 34.7049 81.4725 34.6558Z" fill="#70CAF2"/>
<path d="M82.5101 91.3752C78.4875 91.431 76.2632 91.4619 72.9709 91.3791C70.5357 91.3179 59.417 90.991 47.1441 88.4088C44.218 87.7932 39.8574 86.7613 35.2786 83.7022C34.4252 83.1321 33.5 82 33.5 82C33.5 82.5 35.385 85.1027 37.3183 86.5823C38.0073 87.1097 39.6505 88.284 42.2205 89.2127C56.0597 94.2136 79.5759 93.8971 79.5759 93.8971C84.0562 93.8369 88.0461 93.7768 93.5185 93.3901C113.907 91.9496 118.55 88.5424 120.897 86.0977C123.314 83.5809 124.5 81 124.5 80C124.097 80.751 124.01 81.0324 122.983 82.2312C119.576 86.2103 115.072 87.7249 110.648 88.8107C106.272 89.8851 99.5331 91.1391 82.5101 91.3752Z" fill="#195CAA"/>
<path d="M116.095 72.2895C118.024 75.9923 118.392 80.3596 118.392 80.3597C118.622 82.4105 118.425 82.9525 118.423 83.2705C118.418 84.6449 116.188 85.9076 115.524 86.2587C115.524 86.2588 115.446 86.3001 115.382 86.3324C106.265 90.9425 79.9326 90.3032 79.9325 90.3032C77.1216 90.2349 75.7161 90.2008 73.619 90.1214C73.6189 90.1214 59.4096 89.5519 43.7943 85.1412C42.7617 84.8496 40.5108 84.1788 39.6415 82.2945C39.5118 82.0134 39.4069 81.4938 39.4082 79.4656C39.4111 75.0433 40.9916 71.5362 41.8449 70.0271C42.454 68.9499 44.8607 64.8537 54.1985 61.6981C56.3244 60.9797 64.5844 58.3393 79.1267 59.1082C84.1759 59.3751 92.6221 60.1802 102.395 63.5299C111.369 66.6056 114.632 69.4818 116.095 72.2895Z" fill="#FFEEEE"/>
<path opacity="0.06" d="M42.8986 74.9302C43.5077 73.8529 45.9144 69.7568 55.2523 66.6012C57.3782 65.8828 65.6382 63.2424 80.1804 64.0112C85.2296 64.2781 93.6758 65.0832 103.449 68.4329C112.423 71.5086 115.686 74.3848 117.149 77.1926C117.71 78.271 118.137 79.4038 118.463 80.4706C118.371 79.614 117.883 75.8428 116.184 72.583C114.721 69.7752 111.459 66.899 102.485 63.8233C92.7114 60.4736 84.2652 59.6685 79.216 59.4016C64.6738 58.6328 56.4138 61.2731 54.2879 61.9916C44.95 65.1471 42.5434 69.2433 41.9342 70.3205C41.0809 71.8297 39.5005 75.3368 39.4976 79.759C39.4963 81.7872 39.6012 82.3068 39.7309 82.5879C39.9239 83.0063 40.192 83.3563 40.4927 83.6642C40.6518 79.5808 42.0919 76.3569 42.8986 74.9302Z" fill="#4066C8"/>
<path d="M39.6644 76.0912C39.8585 75.0814 40.0616 74.3083 40.1561 73.9609C40.8642 71.3586 41.6535 69.9551 41.8355 69.6255C41.8356 69.6255 41.9682 69.3883 42.1133 69.1583C43.0672 67.6469 45.892 64.1004 54.1892 61.2965C56.3151 60.5781 64.575 57.9378 79.1173 58.7066C84.1665 58.9735 92.6127 59.7786 102.386 63.1283C102.386 63.1284 113.307 66.4715 116.086 71.888C116.855 73.3879 117.4 75.0144 117.4 75.0145C117.48 75.2532 117.732 76.017 118.009 77.1785C118.058 77.3865 118.627 79.8439 118.623 81.8747C118.796 79.7593 118.092 76.7189 118.037 76.4863C117.76 75.3249 117.509 74.561 117.429 74.3223C117.429 74.3223 116.883 72.6957 116.114 71.1958C113.335 65.7793 102.415 62.4362 102.414 62.4362C92.6411 59.0864 84.1949 58.2813 79.1457 58.0144C64.6034 57.2456 56.3435 59.886 54.2175 60.6043C45.9204 63.4083 43.0956 66.9547 42.1417 68.4661C41.9965 68.6962 41.864 68.9333 41.8639 68.9334C41.6819 69.2629 40.8926 70.6664 40.1845 73.2687C40.09 73.6162 39.8868 74.3892 39.6928 75.399C39.6186 75.7854 39.3484 77.2538 39.2969 79.1636C39.3847 77.5988 39.5995 76.4292 39.6644 76.0912Z" fill="#70CAF2"/>
<path d="M41.8031 71.1239C41.8031 71.1238 41.937 70.8846 42.081 70.6565C43.035 69.1451 45.8599 65.5987 54.1567 62.795C56.2826 62.0765 64.5426 59.4361 79.0849 60.205C84.134 60.4719 92.5802 61.277 102.354 64.6267C111.327 67.7024 114.59 70.5786 116.053 73.3863C117.982 77.0891 118.35 81.4564 118.35 81.4565C118.399 81.9523 118.442 83.1224 117.766 84.3113C117.446 84.8731 117.062 85.2702 116.758 85.5319C117.003 85.3675 117.342 85.1087 117.68 84.7286C117.68 84.7285 118.013 84.3536 118.266 83.9115C119.237 82.2136 118.112 77.3723 118.042 77.0766C117.765 75.9152 117.514 75.1513 117.434 74.9127C117.434 74.9126 116.888 73.286 116.119 71.7861C113.34 66.3697 102.419 63.0265 102.419 63.0265C92.6459 59.6767 84.1997 58.8717 79.1506 58.6047C64.6083 57.8359 56.3483 60.4763 54.2224 61.1947C45.9253 63.9986 43.1005 67.545 42.1465 69.0565C42.0014 69.2865 41.8688 69.5236 41.8688 69.5237C41.6867 69.8532 40.8975 71.2567 40.1894 73.859C40.0948 74.2065 39.8917 74.9795 39.6977 75.9894C39.6166 76.4113 39.2983 78.1182 39.2907 80.2884C39.2883 80.9608 39.3161 81.5961 39.6415 82.2942C39.6922 82.4029 39.8927 82.8189 40.303 83.28C41.0725 84.1446 42.0038 84.5203 42.0158 84.501C42.0227 84.4898 41.7271 84.3387 41.2983 83.9952C41.2982 83.9952 40.5974 83.4339 40.0797 82.7367C39.2874 81.6696 39.5606 79.3068 39.7394 77.8609C40.2083 74.0674 41.368 71.8859 41.8031 71.1239Z" fill="#3A58C2"/>
<path d="M39.0177 55.0801C39.0177 55.0801 37.6331 49.8323 40.3474 46.3123C43.0618 42.7923 46.4548 41.2407 46.4548 41.2407C46.4548 41.2407 43.2841 44.2825 41.6164 47.488C39.8314 50.9128 39.0177 55.0801 39.0177 55.0801Z" fill="white"/>
<path d="M79.8648 46.2771C81.7161 46.2771 83.2168 45.4559 83.2168 44.443C83.2168 43.43 81.7161 42.6089 79.8648 42.6089C78.0135 42.6089 76.5127 43.43 76.5127 44.443C76.5127 45.4559 78.0135 46.2771 79.8648 46.2771Z" fill="#4066C8"/>
<path d="M79.8646 44.932C81.4461 44.932 82.7282 44.2862 82.7282 43.4895C82.7282 42.6927 81.4461 42.0469 79.8646 42.0469C78.2831 42.0469 77.001 42.6927 77.001 43.4895C77.001 44.2862 78.2831 44.932 79.8646 44.932Z" fill="#4066C8"/>
<path d="M92.908 38.8721C92.9083 38.2199 92.6853 37.5868 92.2758 37.0771C91.8664 36.5675 91.2948 36.212 90.6554 36.0695C90.016 35.927 89.3469 36.0048 88.7584 36.292C88.17 36.5793 87.6972 37.0571 87.4181 37.6469C86.901 37.3424 85.1902 36.4242 83.1768 36.8949C80.7049 37.4728 78.7864 39.9082 78.5562 42.9495C78.7125 43.4944 79.1875 43.8857 79.7391 43.9285C80.3336 43.9746 80.8986 43.6066 81.1055 43.0292C80.7974 40.7116 82.0576 38.6771 83.8141 38.1696C85.453 37.6961 86.9208 38.7263 87.1384 38.884C87.1476 39.1219 87.1923 39.5146 87.3893 39.9521C87.5396 40.2858 87.7538 40.591 88.0234 40.8488C88.5628 41.3644 89.2821 41.6524 90.0299 41.6511C90.7777 41.6488 91.4956 41.3584 92.0325 40.8405C92.5693 40.3215 92.8832 39.6167 92.908 38.8721ZM88.8933 40.0188C88.7038 39.834 88.5629 39.6066 88.4834 39.3551C88.4038 39.1035 88.3881 38.8359 88.4373 38.5773C88.4865 38.3187 88.5993 38.075 88.7657 37.871C88.9321 37.6659 89.1468 37.5044 89.3907 37.4027C89.6347 37.3001 89.9003 37.2591 90.1638 37.2841C90.4274 37.3091 90.6808 37.3979 90.9013 37.5436C91.1219 37.6894 91.3028 37.888 91.428 38.1199C91.5531 38.3518 91.6186 38.6119 91.6186 38.875L91.6168 38.936C91.6059 39.2448 91.5049 39.5449 91.3262 39.7976C91.1474 40.0513 90.8985 40.2468 90.6098 40.3611C90.3212 40.4764 90.0052 40.5048 89.7003 40.4445C89.3957 40.3832 89.1152 40.2357 88.8933 40.0188Z" fill="#3B5EBA"/>
<path d="M79.149 43.4587C79.0828 43.0229 78.8345 41.0692 80.1182 39.2443C80.3864 38.8631 81.3779 37.499 83.2649 37.0398C85.5511 36.4834 87.3553 37.6923 87.6449 37.8934C87.7238 37.7161 88.1728 36.7542 89.2755 36.3615C90.1288 36.0576 90.8853 36.2682 91.1974 36.3803C91.6541 36.5443 91.9751 36.7904 92.1616 36.9573C91.7623 36.5154 91.2405 36.1999 90.6554 36.0695C90.016 35.927 89.3469 36.0047 88.7584 36.292C88.17 36.5793 87.6972 37.0572 87.4181 37.6469C86.901 37.3424 85.1902 36.4243 83.1768 36.8949C80.7049 37.4729 78.7864 39.9082 78.5562 42.9496C78.6699 43.3462 78.9551 43.6573 79.3133 43.816C79.2436 43.7066 79.1861 43.5879 79.149 43.4587Z" fill="white"/>
<path d="M80.2252 44.7437C78.6437 44.7437 77.3616 44.0978 77.3616 43.3011C77.3616 43.0297 77.5193 42.7788 77.778 42.562C77.2001 42.826 76.8306 43.2033 76.8306 43.6272C76.8306 44.424 78.1126 45.0698 79.6942 45.0698C80.7371 45.0698 81.6407 44.7861 82.1414 44.3663C81.6331 44.5985 80.9653 44.7437 80.2252 44.7437Z" fill="#70CAF2"/>
<path d="M91.9004 75.9126L98.4449 81.2745" stroke="#FF8D9B" stroke-width="2" stroke-miterlimit="10" stroke-linecap="round" stroke-linejoin="round"/>
<path d="M71.9131 85.2567C71.9193 85.3047 74.8715 84.6056 78.5487 84.7773C82.0757 84.9421 85.0037 85.8488 85.0146 85.7981C85.0196 85.7746 84.3851 85.6126 83.8024 85.4809C81.4678 84.9535 79.5533 84.8204 78.5487 84.7773C76.6215 84.6947 75.0757 84.8163 74.1451 84.917C73.0066 85.0402 71.9094 85.2275 71.9131 85.2567Z" fill="#FFEEEE" stroke="#FF8D9B" stroke-width="2" stroke-miterlimit="10" stroke-linejoin="round"/>
<path d="M96.7305 77.564L92.1816 81.2824" stroke="#FF8D9B" stroke-width="2" stroke-miterlimit="10" stroke-linecap="round" stroke-linejoin="round"/>
<path d="M98.6916 75.8042L98.4165 76.0233" stroke="#FF8D9B" stroke-width="2" stroke-miterlimit="10" stroke-linecap="round" stroke-linejoin="round"/>
<path d="M65.8873 80.1466L59.3428 74.7847" stroke="#FF8D9B" stroke-width="2" stroke-miterlimit="10" stroke-linecap="round" stroke-linejoin="round"/>
<path d="M60.8755 78.6588L65.6055 74.7769" stroke="#FF8D9B" stroke-width="2" stroke-miterlimit="10" stroke-linecap="round" stroke-linejoin="round"/>
<path d="M58.7441 80.5757L59.1618 80.2246" stroke="#FF8D9B" stroke-width="2" stroke-miterlimit="10" stroke-linecap="round" stroke-linejoin="round"/>
</g>
<defs>
<filter id="filter0_f_1179_4769" x="60" y="132" width="38" height="15" filterUnits="userSpaceOnUse" color-interpolation-filters="sRGB">
<feFlood flood-opacity="0" result="BackgroundImageFix"/>
<feBlend mode="normal" in="SourceGraphic" in2="BackgroundImageFix" result="shape"/>
<feGaussianBlur stdDeviation="2" result="effect1_foregroundBlur_1179_4769"/>
</filter>
<clipPath id="clip0_1179_4769">
<rect width="104" height="148" fill="white" transform="translate(28)"/>
</clipPath>
</defs>
</svg>
