<svg width="226" height="161" viewBox="0 0 226 161" fill="none" xmlns="http://www.w3.org/2000/svg">
<path d="M138.981 111.988C136.961 110.584 134.869 109.279 132.786 108.085C132.339 107.833 131.979 107.451 131.753 106.989C131.527 106.528 131.446 106.008 131.52 105.499C131.7 103.622 131.735 101.732 131.846 99.8471C131.732 97.949 131.703 96.0402 131.512 94.1501C131.44 93.6518 131.516 93.1431 131.731 92.688C131.946 92.2329 132.29 91.8518 132.72 91.5927C134.819 90.3087 136.974 88.8865 138.962 87.3738C139.785 86.7464 140.127 85.5289 139.82 84.3299C139.476 83.0911 139.235 81.8231 138.761 80.6294C138.335 79.4358 137.329 78.6011 136.264 78.5612C133.854 78.4531 131.439 78.4673 129.029 78.6037C128.512 78.6366 127.997 78.5153 127.548 78.2552C127.099 77.9951 126.737 77.6077 126.506 77.1416C125.763 75.403 124.693 73.8399 123.737 72.2182C123.254 71.3983 122.714 70.6131 122.122 69.8682L120.42 67.582C120.098 67.1986 119.893 66.7304 119.829 66.2331C119.765 65.7359 119.844 65.2306 120.058 64.7773C121.132 62.5514 122.123 60.2368 123.031 57.8336C123.406 56.8393 123.03 55.6537 122.112 54.8189C121.156 53.9709 120.259 53.0617 119.237 52.2802C118.215 51.4986 116.936 51.363 116.018 51.908C113.9 53.1628 111.925 54.4255 109.958 55.8557C109.54 56.1637 109.042 56.3417 108.524 56.3677C108.006 56.3937 107.492 56.2665 107.046 56.0019C105.476 54.9572 103.761 54.1756 102.066 53.3621L100.785 52.7427L99.4615 52.2483L96.7904 51.2647C95.8427 50.8712 95.0987 50.1348 94.9796 49.0848C94.6831 46.6372 94.2657 44.1605 93.7274 41.6545C93.513 40.5911 92.552 39.767 91.3316 39.5916L87.5381 39.02C86.2885 38.8765 85.1132 39.5198 84.6393 40.4715C83.5433 42.6727 82.5549 44.88 81.6742 47.0936C81.4725 47.5673 81.1447 47.976 80.7267 48.2748C80.3087 48.5735 79.8167 48.7508 79.3049 48.787C77.4306 48.888 75.5458 48.9173 73.6953 49.2815L70.8838 49.7121C69.9573 49.9062 69.0466 50.1747 68.1254 50.4007C67.631 50.5204 67.1129 50.4965 66.6315 50.3318C66.1501 50.167 65.7252 49.8682 65.4066 49.4702C63.8447 47.5828 62.1742 45.7485 60.3767 43.97C59.6354 43.223 58.37 43.0209 57.2185 43.4569L53.7558 45.1184C52.6174 45.666 51.9186 46.7427 52.0562 47.8486C52.3298 50.3121 52.6977 52.7232 53.1601 55.0821C53.2491 55.5857 53.1915 56.1043 52.9943 56.5759C52.7971 57.0474 52.4686 57.4518 52.0483 57.7405L49.7901 59.4366L48.6624 60.2846C48.2944 60.5771 47.9608 60.912 47.6034 61.2231C46.203 62.5097 44.755 63.7432 43.5319 65.2107C43.1858 65.5827 42.7406 65.8471 42.2493 65.9724C41.758 66.0978 41.2411 66.0788 40.7602 65.9178C38.3942 65.1543 35.9907 64.5127 33.5595 63.9958C32.5376 63.7725 31.3728 64.2909 30.6475 65.2851C29.9194 66.3485 29.2894 67.4597 28.617 68.5496C27.9445 69.6396 27.9366 70.9076 28.6408 71.761C30.1974 73.691 31.8061 75.5253 33.4668 77.2639C33.8195 77.6352 34.0536 78.104 34.1389 78.6099C34.2243 79.1158 34.1571 79.6358 33.946 80.1031C33.3318 81.8842 32.5747 83.6228 32.0929 85.4438L31.3834 88.2112L31.0366 89.5963L30.8195 91.0079C30.7386 91.5078 30.5145 91.9734 30.1746 92.3477C29.8348 92.722 29.3938 92.989 28.9055 93.116C27.7036 93.435 26.4885 93.7859 25.2867 94.1794C24.0848 94.5728 22.9544 94.9769 21.7843 95.4262C20.8127 95.793 20.127 96.8643 20.0715 98.0846C20.0476 98.7252 20 99.3633 20 100.004L20.0847 101.923C20.1456 103.183 20.8604 104.268 21.8663 104.606C23.0153 104.996 24.1457 105.361 25.3078 105.698C26.47 106.036 27.6692 106.336 28.8473 106.615C29.3505 106.732 29.8077 106.997 30.1604 107.375C30.5132 107.754 30.7454 108.23 30.8275 108.742L31.0419 110.14L31.3913 111.512L32.0929 114.253C32.588 116.09 33.3503 117.845 33.9698 119.644C34.179 120.1 34.2501 120.607 34.1743 121.103C34.0985 121.599 33.8792 122.061 33.5436 122.433C31.8829 124.267 30.2812 126.211 28.7387 128.265C28.1246 129.1 28.1457 130.36 28.7864 131.416C29.4694 132.5 30.0703 133.641 30.8407 134.664C31.6111 135.688 32.7891 136.196 33.8215 135.93C36.2041 135.316 38.4385 134.678 40.7443 133.84C41.2318 133.663 41.7604 133.634 42.2644 133.756C42.7684 133.878 43.2257 134.145 43.5795 134.526C44.7894 135.978 46.2268 137.184 47.6167 138.468C47.9714 138.785 48.3076 139.122 48.6756 139.417L49.814 140.274L52.0933 141.983C52.5055 142.265 52.8302 142.658 53.0297 143.117C53.2292 143.576 53.2955 144.082 53.221 144.577C52.8116 147.016 52.5089 149.515 52.313 152.074C52.2177 153.159 52.9378 154.166 54.039 154.717C55.1959 155.267 56.3369 155.854 57.5123 156.352C58.6956 156.798 59.9849 156.572 60.7155 155.785C62.3834 153.994 63.9453 152.178 65.4145 150.296C65.7294 149.88 66.1579 149.566 66.6477 149.391C67.1376 149.216 67.6675 149.187 68.173 149.309C69.0863 149.535 69.9891 149.804 70.9103 149.99L73.6953 150.418C75.5484 150.785 77.4624 150.811 79.3552 150.915C79.855 150.951 80.3361 151.12 80.7485 151.406C81.161 151.692 81.4898 152.083 81.7007 152.539C82.6697 154.792 83.7604 157.037 84.9728 159.273C85.2616 159.762 85.6895 160.153 86.2014 160.395C86.7133 160.638 87.2858 160.721 87.8451 160.634L91.6387 160.06C92.2259 159.974 92.7768 159.722 93.2271 159.334C93.6363 158.954 93.9144 158.453 94.0213 157.904C94.4572 155.469 94.7864 153.057 95.0088 150.668C95.1041 149.591 95.8533 148.82 96.8222 148.416L99.4695 147.443L100.793 146.951L102.064 146.337L104.626 145.099C105.495 144.71 106.262 144.141 107.086 143.671C107.523 143.411 108.025 143.283 108.532 143.302C109.04 143.321 109.531 143.486 109.947 143.777C112.004 145.171 114.129 146.46 116.314 147.64C117.233 148.145 118.501 147.978 119.478 147.231C120.457 146.409 121.387 145.527 122.334 144.671C123.282 143.815 123.658 142.6 123.203 141.576C122.25 139.286 121.221 137.071 120.116 134.93C119.885 134.473 119.794 133.957 119.852 133.448C119.91 132.938 120.116 132.457 120.444 132.064L122.138 129.799C122.72 129.061 123.251 128.282 123.727 127.471C124.693 125.836 125.765 124.254 126.517 122.502C126.744 122.047 127.095 121.668 127.53 121.407C127.965 121.147 128.465 121.018 128.971 121.035C131.458 121.106 133.946 121.04 136.426 120.838C137.469 120.763 138.44 119.931 138.856 118.767C139.272 117.603 139.547 116.295 139.891 115.045C140.235 113.796 139.844 112.597 138.981 111.988ZM93.5156 127.561C90.8842 128.728 88.1178 129.656 85.2428 129.988L84.1839 130.161C83.8265 130.209 83.4612 130.198 83.0985 130.222L80.9278 130.342L78.7569 130.222C78.3969 130.198 78.0289 130.222 77.6716 130.161L76.6126 129.988C73.7377 129.656 70.9712 128.728 68.3425 127.561C65.6766 126.434 63.2941 124.719 61.0783 122.872C56.6822 119.047 53.4673 114.039 51.8127 108.439C50.9656 105.664 50.6743 102.758 50.5658 99.8471C50.6743 96.9388 50.9656 94.0331 51.8127 91.2578C53.4673 85.658 56.6822 80.6502 61.0783 76.8253C63.2941 74.9777 65.6766 73.263 68.3425 72.1358C70.9712 70.9688 73.7377 70.041 76.6126 69.7087L77.6716 69.5359C78.0289 69.488 78.3969 69.4987 78.7569 69.4748L80.9278 69.3551L83.0985 69.4748C83.4612 69.4987 83.8265 69.4748 84.1839 69.5359L85.2428 69.7087C88.1178 70.041 90.8842 70.9688 93.5156 72.1358C98.8066 74.5684 103.293 78.4714 106.445 83.3836L107.573 85.2444L108.515 87.201C108.843 87.8465 109.117 88.5178 109.336 89.2081C109.556 89.8967 109.895 90.5373 110.035 91.2604C110.882 94.0358 111.173 96.9414 111.282 99.8497C111.173 102.761 110.882 105.666 110.035 108.442C109.895 109.154 109.556 109.805 109.336 110.494C109.117 111.184 108.843 111.856 108.515 112.501L107.573 114.458L106.445 116.319C103.292 121.228 98.8053 125.129 93.5156 127.561Z" fill="#D9FBFF"/>
<path d="M202.851 36.723C200.269 36.1492 197.646 35.7873 195.007 35.641C194.442 35.6147 193.898 35.425 193.438 35.0948C192.979 34.7647 192.624 34.3081 192.418 33.7801L191.036 30.9861L189.381 28.349L187.454 25.8714L185.283 23.6037C184.867 23.2375 184.563 22.7607 184.405 22.2283C184.247 21.6958 184.242 21.1295 184.391 20.5944C185.097 17.9419 185.57 15.2324 185.805 12.4969C185.94 11.298 185.063 10.0698 183.724 9.30682C183.034 8.90677 182.32 8.55158 181.585 8.24345L179.393 7.28908C177.924 6.73348 176.359 7.0073 175.581 7.86596C173.797 9.82989 172.175 11.9361 170.731 14.1637C170.419 14.6293 169.983 14.9978 169.473 15.2271C168.964 15.48 168.393 15.5779 167.829 15.5089C166.803 15.3725 165.768 15.305 164.732 15.3068C163.697 15.2324 162.667 15.3653 161.632 15.4212C159.551 15.6048 157.494 16.0011 155.493 16.6041C154.968 16.7695 154.408 16.789 153.872 16.6608C153.337 16.5326 152.846 16.2613 152.451 15.8757C150.527 13.9295 148.428 12.1665 146.18 10.6094C145.655 10.2625 145.034 10.0921 144.406 10.1229C143.692 10.187 143.004 10.4252 142.402 10.8168C141.735 11.2448 141.055 11.6568 140.406 12.1141L138.524 13.5762C137.264 14.5146 136.742 16.0432 137.105 17.1677C137.889 19.7026 138.888 22.1653 140.091 24.5289C140.336 25.038 140.437 25.6052 140.382 26.168C140.327 26.7309 140.118 27.2676 139.779 27.719C138.549 29.3922 137.491 31.186 136.62 33.073C136.213 34.038 135.736 34.9764 135.453 35.9972C135.097 36.983 134.809 37.992 134.59 39.0172C134.467 39.5611 134.191 40.0583 133.796 40.4501C133.419 40.8477 132.941 41.1337 132.414 41.2768C129.776 41.9788 127.207 42.9175 124.737 44.0814C123.715 44.5653 122.928 45.9423 123.005 47.4736C123.116 49.0686 123.156 50.6637 123.461 52.2428C123.701 53.8059 124.649 55.0474 125.843 55.284C128.424 55.8578 131.048 56.2196 133.687 56.366C134.251 56.3922 134.796 56.5819 135.255 56.9121C135.715 57.2423 136.069 57.6989 136.276 58.2268L137.661 61.0208L139.313 63.658L141.24 66.1356L143.411 68.4032C143.827 68.7691 144.132 69.2459 144.29 69.7784C144.448 70.311 144.452 70.8775 144.303 71.4125C143.597 74.0651 143.124 76.7746 142.889 79.5101C142.757 80.709 143.63 81.9372 144.97 82.7001C145.661 83.0996 146.376 83.4548 147.112 83.7635L149.301 84.7152C150.77 85.2708 152.335 84.997 153.113 84.1383C154.897 82.1744 156.519 80.0682 157.963 77.8406C158.275 77.3755 158.711 77.0073 159.22 76.7772C159.73 76.5247 160.302 76.4268 160.867 76.4954C161.893 76.6319 162.927 76.6994 163.962 76.6975C164.997 76.7719 166.029 76.639 167.062 76.5831C169.143 76.3995 171.2 76.0032 173.201 75.4002C173.726 75.2348 174.286 75.2153 174.822 75.3435C175.357 75.4717 175.848 75.743 176.243 76.1286C178.165 78.0824 180.264 79.8534 182.511 81.4188C183.037 81.7661 183.659 81.9365 184.288 81.9053C185.001 81.8408 185.688 81.6027 186.289 81.2114C186.959 80.7834 187.637 80.3714 188.285 79.9141L190.167 78.452C191.427 77.5136 191.949 75.985 191.589 74.8605C190.803 72.3251 189.803 69.8615 188.6 67.4967C188.355 66.9876 188.254 66.4204 188.309 65.8575C188.364 65.2947 188.573 64.758 188.913 64.3066C190.142 62.6328 191.201 60.8391 192.073 58.9526C192.478 57.9876 192.955 57.0492 193.238 56.0283C193.595 55.0427 193.884 54.0337 194.104 53.0084C194.227 52.4645 194.503 51.9673 194.898 51.5755C195.269 51.1733 195.744 50.8825 196.269 50.7354C198.907 50.0323 201.476 49.0927 203.947 47.9282C204.968 47.4443 205.755 46.0673 205.678 44.536C205.567 42.941 205.527 41.346 205.223 39.7669C204.992 38.2011 204.044 36.9622 202.851 36.723ZM178.429 40.8435C178.71 41.439 178.792 42.0956 178.998 42.7177C179.072 43.0367 179.096 43.3663 179.16 43.688C179.234 44.0082 179.274 44.3351 179.282 44.6636C179.3 44.9906 179.324 45.3203 179.356 45.6473L179.324 46.6362V47.1306C179.308 47.2928 179.276 47.4576 179.255 47.6198C179.21 47.9468 179.173 48.2738 179.141 48.6034C179.059 48.9251 178.985 49.2467 178.916 49.5684C178.882 49.7306 178.855 49.8927 178.816 50.0522L178.652 50.5201L178.347 51.4612C178.209 51.7589 178.082 52.0593 177.947 52.3624C177.828 52.6681 177.679 52.9611 177.503 53.237C177.336 53.5188 177.201 53.8192 177.023 54.093C176.621 54.6087 176.319 55.1989 175.853 55.6641C175.059 56.7115 174 57.525 172.981 58.3491C171.853 59.0377 170.741 59.7607 169.492 60.1515C168.899 60.4333 168.242 60.5184 167.623 60.7231C167.308 60.8002 166.98 60.8241 166.659 60.8853C166.34 60.9587 166.015 61.0005 165.688 61.0102C165.359 61.0261 165.034 61.0501 164.708 61.082L163.723 61.0501H163.231C163.067 61.0341 162.905 61.0022 162.741 60.9836C162.416 60.9384 162.09 60.9012 161.762 60.8693C161.444 60.7869 161.124 60.7125 160.803 60.6433C160.642 60.6061 160.478 60.5795 160.319 60.5397L159.856 60.3775L158.919 60.0718C158.622 59.9309 158.323 59.8059 158.021 59.6704C157.717 59.5505 157.425 59.4009 157.15 59.2237C156.87 59.0536 156.568 58.9207 156.295 58.7399C155.784 58.3358 155.194 58.0354 154.733 57.5649C153.674 56.7674 152.88 55.704 152.059 54.6805C151.371 53.5507 150.651 52.4342 150.265 51.1767C149.981 50.5813 149.899 49.9246 149.693 49.3026C149.619 48.9836 149.595 48.6539 149.531 48.3322C149.46 48.0116 149.419 47.6849 149.409 47.3566C149.391 47.0296 149.367 46.7026 149.335 46.373L149.37 45.3867V44.8896C149.386 44.7274 149.417 44.5626 149.439 44.4005C149.484 44.0735 149.521 43.7465 149.552 43.4168C149.634 43.0952 149.709 42.7735 149.777 42.4519C149.814 42.2923 149.838 42.1275 149.881 41.968L150.042 41.5001L150.347 40.5591C150.487 40.2613 150.611 39.9636 150.746 39.6605C150.866 39.3543 151.015 39.0604 151.191 38.7832C151.358 38.5015 151.493 38.2011 151.67 37.9272C152.073 37.4115 152.374 36.8213 152.84 36.3561C153.635 35.3087 154.693 34.4952 155.713 33.6711C156.84 32.9826 157.952 32.2595 159.202 31.8687C159.795 31.5869 160.451 31.5019 161.071 31.2972C161.388 31.2201 161.717 31.1962 162.034 31.135C162.353 31.0617 162.679 31.0199 163.006 31.0101C163.334 30.9941 163.66 30.9702 163.985 30.9383L164.97 30.9702H165.463C165.627 30.9861 165.788 31.018 165.952 31.0366C166.278 31.0818 166.604 31.1191 166.932 31.151C167.25 31.2334 167.57 31.3105 167.893 31.3769C168.052 31.4141 168.216 31.4407 168.375 31.4806L168.841 31.6428L169.775 31.9485C170.072 32.0894 170.371 32.2143 170.673 32.3526C170.978 32.4709 171.271 32.6205 171.546 32.7992C171.811 32.9666 172.126 33.0996 172.399 33.2803C172.912 33.6844 173.5 33.9875 173.963 34.4554C175.006 35.2529 175.816 36.3162 176.634 37.3397C177.32 38.4696 178.04 39.5887 178.429 40.8435Z" fill="#C1F9FF"/>
<path d="M2 153.027C14.7083 150.898 29.5347 161.967 38.0069 147.067C46.4792 132.168 4.11806 101.092 16.8264 83.2131C29.5347 65.334 48.0706 76.8857 55.5353 89.1538C63 101.422 63 108.028 63 108.028" stroke="#8892B0" stroke-width="3" stroke-linecap="round"/>
<rect x="56.7849" y="98.0564" width="5.46769" height="3.70976" rx="1" transform="rotate(-20.6596 56.7849 98.0564)" fill="#4D5565"/>
<path d="M152.083 72.6792C153.854 72.8362 155.636 72.8062 157.401 72.5895C163.552 71.8701 168.783 69.3533 170.982 69.3533C171.058 69.3533 171.136 69.3533 171.205 69.3667C171.25 69.3672 171.295 69.3732 171.339 69.3846C171.386 69.3897 171.433 69.3987 171.479 69.4115C171.479 69.4115 171.479 69.4115 171.479 69.425C171.54 69.4422 171.598 69.4678 171.651 69.5012C173.537 70.5994 173.609 73.8916 166.244 80.3126C164.848 81.5313 163.359 82.6381 161.791 83.6228C158.24 85.8483 151.621 85.8057 150.491 81.7582C149.94 79.7523 151.556 75.5927 152.083 72.6792Z" fill="#2E67F7"/>
<path d="M152.083 72.7979V72.6792C153.854 72.8362 155.636 72.8062 157.401 72.5895C163.552 71.8701 168.783 69.3533 170.981 69.3533C171.057 69.3533 171.135 69.3533 171.205 69.3667C171.25 69.3672 171.295 69.3732 171.339 69.3846C171.386 69.3897 171.433 69.3987 171.479 69.4115C171.479 69.4115 171.479 69.4115 171.479 69.425C172.361 71.1328 167.489 75.01 162.73 76.4735C158.84 77.6747 152.083 77.2086 152.083 72.7979Z" fill="#70CAF2"/>
<path d="M121.451 6.99048C120.799 7.00997 120.173 7.25206 119.676 7.67682C119.179 8.10158 118.841 8.68366 118.718 9.32711C118.595 9.97056 118.693 10.637 118.998 11.2165C119.303 11.796 119.795 12.254 120.393 12.515L119.5 19.2542C119.479 19.4229 119.525 19.5934 119.628 19.7282C119.731 19.863 119.884 19.9513 120.052 19.9736C120.08 19.9758 120.108 19.9758 120.136 19.9736C120.291 19.9733 120.441 19.9166 120.558 19.814C120.674 19.7114 120.75 19.5698 120.77 19.4155L121.638 12.757C122.381 12.7061 123.076 12.3675 123.575 11.8128C124.074 11.258 124.34 10.5303 124.316 9.78291C124.291 9.0355 123.979 8.32672 123.445 7.80585C122.91 7.28498 122.196 6.99267 121.451 6.99048V6.99048ZM122.719 10.9686C122.54 11.1635 122.317 11.3112 122.068 11.3983C121.819 11.4855 121.552 11.5094 121.292 11.4681C121.032 11.4267 120.785 11.3213 120.576 11.1612C120.366 11.0012 120.198 10.7914 120.089 10.5507C119.979 10.31 119.93 10.0457 119.947 9.78154C119.964 9.51735 120.045 9.26141 120.184 9.03653C120.323 8.81164 120.516 8.6248 120.744 8.49266C120.972 8.36051 121.23 8.28716 121.493 8.27915H121.554C121.863 8.28061 122.166 8.37244 122.424 8.54347C122.683 8.71449 122.886 8.95732 123.009 9.24237C123.133 9.52742 123.171 9.84238 123.12 10.1489C123.068 10.4554 122.929 10.7402 122.719 10.9686V10.9686Z" fill="#3B5EBA"/>
<path d="M129.055 5.28722C128.9 5.21797 128.724 5.21331 128.566 5.27425C128.408 5.33519 128.28 5.45675 128.211 5.61219C128.142 5.76762 128.138 5.9442 128.198 6.10307C128.259 6.26195 128.38 6.3901 128.535 6.45935C128.828 6.60296 129.086 6.80887 129.291 7.06277C129.497 7.31667 129.644 7.61245 129.724 7.92956C129.835 8.34584 129.851 8.7817 129.771 9.20491C129.691 9.62813 129.517 10.0279 129.262 10.3747C129.214 10.4441 129.18 10.5224 129.162 10.605C129.144 10.6877 129.143 10.7731 129.158 10.8564C129.173 10.9397 129.204 11.0192 129.249 11.0903C129.295 11.1615 129.354 11.223 129.423 11.2711C129.53 11.3451 129.657 11.3849 129.787 11.3854C129.891 11.3856 129.993 11.3603 130.085 11.3119C130.176 11.2635 130.255 11.1933 130.314 11.1075C130.677 10.6076 130.924 10.0321 131.037 9.4235C131.149 8.81489 131.124 8.18871 130.963 7.59114C130.832 7.09032 130.594 6.62443 130.264 6.22634C129.934 5.82826 129.521 5.50768 129.055 5.28722V5.28722Z" fill="#3B5EBA"/>
<path d="M135.784 6.13441C135.585 5.38156 135.226 4.68125 134.73 4.08241C134.234 3.48357 133.615 3.00062 132.914 2.66732C132.759 2.59867 132.583 2.59469 132.425 2.65626C132.267 2.71784 132.14 2.83992 132.071 2.99565C132.003 3.15138 131.999 3.32801 132.06 3.48667C132.121 3.64534 132.243 3.77304 132.398 3.84169C132.926 4.09859 133.392 4.46778 133.764 4.92367C134.136 5.37955 134.405 5.91122 134.552 6.48179C134.949 7.90718 134.659 9.43117 133.731 10.7714C133.683 10.8406 133.649 10.9185 133.631 11.0008C133.613 11.0832 133.611 11.1682 133.626 11.2511C133.641 11.3341 133.672 11.4133 133.717 11.4842C133.762 11.5551 133.821 11.6164 133.89 11.6645C133.959 11.7126 134.037 11.7467 134.119 11.7646C134.201 11.7826 134.285 11.7842 134.368 11.7694C134.45 11.7545 134.529 11.7234 134.6 11.6779C134.671 11.6324 134.732 11.5734 134.779 11.5043C135.929 9.84355 136.286 7.93631 135.784 6.13441Z" fill="#3B5EBA"/>
<path d="M113.747 3.28582C113.251 3.42018 112.79 3.66168 112.397 3.99344C112.004 4.3252 111.688 4.7392 111.471 5.2065C111.206 5.76768 111.071 6.38146 111.075 7.00225C111.08 7.62305 111.223 8.2349 111.495 8.79238C111.566 8.94722 111.694 9.06762 111.853 9.12709C112.012 9.18656 112.188 9.18024 112.342 9.1095C112.496 9.03877 112.616 8.90942 112.675 8.74992C112.735 8.59042 112.728 8.41382 112.658 8.25898C112.467 7.87328 112.365 7.44966 112.359 7.01919C112.353 6.58872 112.443 6.16233 112.622 5.77128C112.756 5.47369 112.954 5.20917 113.2 4.99625C113.447 4.78332 113.737 4.62714 114.05 4.53863C114.215 4.49821 114.357 4.39381 114.445 4.24838C114.533 4.10296 114.559 3.92843 114.519 3.76319C114.479 3.59794 114.375 3.45553 114.23 3.36726C114.085 3.279 113.911 3.25212 113.747 3.29254V3.28582Z" fill="#3B5EBA"/>
<path d="M111.169 0.486581C111.127 0.321837 111.023 0.180245 110.878 0.0925473C110.733 0.00484956 110.559 -0.0218748 110.395 0.0181761C109.647 0.225414 108.953 0.593276 108.361 1.09632C107.768 1.59937 107.292 2.2256 106.964 2.9317C106.159 4.61482 106.174 6.55343 107.013 8.3912C107.064 8.50284 107.146 8.59746 107.249 8.66381C107.352 8.73016 107.471 8.76544 107.594 8.76547C107.685 8.76495 107.776 8.74509 107.859 8.7072C108.013 8.63594 108.133 8.50644 108.192 8.34692C108.252 8.1874 108.246 8.01078 108.176 7.85556C107.507 6.3719 107.478 4.82101 108.116 3.48751C108.361 2.95055 108.719 2.47335 109.166 2.08877C109.613 1.70419 110.137 1.42137 110.703 1.25979C110.866 1.21843 111.007 1.11408 111.094 0.969348C111.181 0.824617 111.208 0.651165 111.169 0.486581V0.486581Z" fill="#3B5EBA"/>
<path d="M108.781 117.855C108.781 117.855 115.809 117.803 122.578 117.406C119.824 120.174 113.519 125.856 108.294 125.748C103.333 125.645 97.4009 120.369 94.4326 117.375C101.365 117.796 108.781 117.855 108.781 117.855Z" fill="#235FF5"/>
<path d="M109.134 109.674C117.976 109.591 130.974 108.962 139.982 106.998L140.033 107.222C140.033 107.222 138.486 115.427 131.255 116.584C128.934 116.956 125.781 117.218 122.578 117.404C115.809 117.803 108.781 117.852 108.781 117.852C108.781 117.852 101.365 117.794 94.4215 117.37C91.4175 117.184 88.5027 116.922 86.3155 116.582C79.0845 115.425 77.5378 107.22 77.5378 107.22L77.607 106.92C86.7061 108.955 100.068 109.596 109.038 109.672C109.069 109.676 109.102 109.677 109.134 109.674Z" fill="#3857A7"/>
<path d="M152.473 35.5341C151.537 33.7233 150.394 32.028 149.068 30.4825C148.323 29.6153 147.508 28.8117 146.631 28.0799C136.587 19.7159 120.335 18.8732 111.256 18.7903C110.163 18.7903 106.179 18.7903 105.061 18.7903C95.9707 18.8732 79.7566 19.7271 69.7513 28.0732C57.3737 38.3983 55.8962 65.8504 70.3584 69.1763C70.6574 69.2458 70.9654 69.3108 71.2779 69.3556C76.2013 70.1064 84.2894 70.7362 93.413 71.0903L94.0379 71.1082L103.271 71.3525C105.355 71.3772 107.451 71.3973 109.542 71.3906C123.857 71.3592 137.764 70.4672 145.091 69.3556C145.884 69.2353 146.663 69.0355 147.416 68.7595C150.987 67.4618 153.442 64.5461 154.859 60.8033C157.187 53.134 155.556 43.0599 152.473 35.5341Z" fill="#3970FA"/>
<path d="M60.2346 47.6318C60.0703 49.0144 59.9906 50.4058 59.9958 51.7982C60.0159 50.4221 60.0985 49.0281 60.2346 47.6318Z" fill="#2081D1"/>
<path d="M152.473 35.534C151.537 33.7227 150.393 32.0273 149.065 30.4824C148.322 29.6147 147.507 28.811 146.63 28.0798C141.319 23.6513 134.259 21.3317 127.437 20.1169C130.309 21.5744 132.905 23.5269 135.105 25.8857C135.881 26.7333 136.587 27.6425 137.217 28.6043C138.393 30.3991 139.383 32.3104 140.171 34.3081C142.85 42.8043 144.258 54.1783 142.245 62.8382C141.352 65.8795 140.013 68.4299 138.163 70.1713C140.841 69.9225 143.189 69.6514 145.081 69.3622C145.874 69.2419 146.654 69.0422 147.407 68.7661C150.978 67.4685 153.433 64.5527 154.85 60.8099C157.187 53.1339 155.555 43.0598 152.473 35.534Z" fill="#4066C8"/>
<path d="M153.216 74.8129C151.676 69.535 147.577 69.1764 147.577 69.1764L147.423 68.7595C146.669 69.0356 145.89 69.2353 145.097 69.3557C137.77 70.4763 123.864 71.3593 109.549 71.3907C107.458 71.3907 105.362 71.3772 103.277 71.3526L94.0444 71.1105L93.4195 71.0926C84.2958 70.7385 76.2078 70.1087 71.2844 69.3579C70.9719 69.3131 70.6639 69.2481 70.3649 69.1786C70.1796 69.2033 66.4547 69.7412 64.7519 74.7636C63.2231 79.2661 63.1003 85.2052 63.4128 88.6903C63.7922 92.9821 65.6 101.754 70.376 104.45C72.1325 105.439 74.6522 106.243 77.6183 106.915C86.7174 108.95 100.079 109.605 109.049 109.67C109.081 109.673 109.113 109.673 109.145 109.67C117.987 109.587 130.985 108.957 139.993 106.994C143.117 106.322 145.76 105.472 147.581 104.443C150.886 102.577 152.766 98.8405 153.739 94.5823C154.195 92.6504 154.465 90.6787 154.544 88.6948C154.676 84.4208 154.337 78.6565 153.216 74.8129Z" fill="#3970FA"/>
<path d="M153.216 74.8129C151.677 69.535 147.577 69.1764 147.577 69.1764L147.423 68.7595C146.669 69.0356 145.89 69.2353 145.097 69.3557C143.791 69.5529 142.267 69.7434 140.58 69.9249C140.636 70.0773 140.698 70.2185 140.75 70.3732C141.979 74.2168 142.352 79.9811 142.202 84.2684C142.111 86.257 141.812 88.2304 141.31 90.156C140.241 94.4142 138.185 98.148 134.55 100.017C132.541 101.044 129.64 101.884 126.212 102.565C116.322 104.529 102.054 105.158 92.3482 105.241C92.3133 105.245 92.2782 105.245 92.2433 105.241C85.9563 105.192 77.7053 104.912 69.9609 104.186C70.0926 104.273 70.2176 104.372 70.356 104.448C72.1124 105.436 74.6321 106.241 77.5982 106.913C86.6973 108.948 100.059 109.603 109.029 109.668C109.061 109.671 109.093 109.671 109.125 109.668C117.967 109.585 130.965 108.955 139.973 106.992C143.097 106.319 145.74 105.47 147.561 104.441C150.866 102.574 152.746 98.8383 153.719 94.5801C154.175 92.6481 154.445 90.6765 154.524 88.6925C154.676 84.4186 154.337 78.6565 153.216 74.8129Z" fill="#4066C8"/>
<path d="M74.7325 102.693C73.864 101.58 73.1541 100.352 72.6235 99.0422C71.0986 95.8106 70.2328 92.3054 70.077 88.7328C70.0427 87.9544 70.0531 87.1747 70.1082 86.3975C70.0301 82.9416 70.3314 78.3875 71.4629 74.7613C72.3557 71.9307 73.8331 70.5255 74.9892 69.8307C73.6166 69.6783 72.369 69.5192 71.2844 69.3534C70.9719 69.3085 70.6639 69.2435 70.3649 69.1741C70.1796 69.1987 66.4547 69.7366 64.7519 74.7591C63.2231 79.2616 63.1003 85.2007 63.4128 88.6857C63.7922 92.9776 65.6 101.75 70.376 104.446C72.1325 105.434 74.6522 106.239 77.6183 106.911C77.9642 106.989 78.3168 107.063 78.6717 107.135C77.1871 105.817 75.8647 104.326 74.7325 102.693V102.693Z" fill="#70CAF2"/>
<path d="M111.256 18.7834C110.163 18.7834 106.179 18.7834 105.061 18.7834C95.9685 18.8686 79.7566 19.7225 69.7513 28.0686C57.3737 38.3915 55.8962 65.8436 70.3584 69.1695C70.6574 69.2412 70.9654 69.3039 71.2779 69.3488C73.5409 69.6939 76.4758 70.0211 79.8682 70.2923C79.0903 69.587 78.3583 68.8324 77.6765 68.0332C73.387 65.6598 71.0726 60.7673 70.5035 55.1218C70.2044 46.1863 72.6773 39.9961 74.6703 36.101C76.0361 33.4295 78.0515 31.204 80.2833 29.429C90.4559 21.3451 106.94 20.5181 116.184 20.4374C117.32 20.4262 121.371 20.4262 122.482 20.4374C124.774 20.4554 127.517 20.5226 130.504 20.7333C123.406 19.1151 116.247 18.8305 111.256 18.7834Z" fill="#70CAF2"/>
<path d="M137.098 123.191C137.386 123.191 137.668 123.277 137.908 123.437C138.148 123.598 138.334 123.827 138.445 124.094C138.555 124.362 138.584 124.656 138.528 124.94C138.471 125.224 138.333 125.484 138.129 125.689C137.925 125.894 137.665 126.033 137.383 126.09C137.1 126.146 136.807 126.117 136.541 126.006C136.274 125.895 136.047 125.708 135.886 125.467C135.726 125.227 135.641 124.944 135.641 124.654C135.641 124.462 135.679 124.272 135.752 124.094C135.825 123.917 135.932 123.755 136.068 123.619C136.203 123.483 136.364 123.376 136.541 123.302C136.717 123.229 136.907 123.191 137.098 123.191V123.191Z" fill="#70CAF2"/>
<path d="M137.098 132.588C137.387 132.587 137.67 132.672 137.911 132.833C138.152 132.994 138.34 133.222 138.452 133.49C138.563 133.759 138.593 134.054 138.537 134.339C138.481 134.624 138.343 134.886 138.139 135.092C137.935 135.297 137.674 135.438 137.391 135.495C137.107 135.552 136.813 135.524 136.546 135.413C136.278 135.303 136.05 135.115 135.889 134.874C135.728 134.632 135.641 134.349 135.641 134.058C135.64 133.669 135.793 133.296 136.067 133.02C136.34 132.745 136.711 132.589 137.098 132.588V132.588Z" fill="#70CAF2"/>
<path d="M125.676 128.921C125.775 128.119 125.207 127.388 124.408 127.289C123.609 127.191 122.882 127.761 122.784 128.563C122.685 129.365 123.253 130.096 124.052 130.194C124.851 130.293 125.578 129.723 125.676 128.921Z" fill="#70CAF2"/>
<path d="M124.216 136.671C124.505 136.671 124.787 136.757 125.028 136.919C125.268 137.08 125.455 137.309 125.565 137.577C125.676 137.845 125.704 138.14 125.648 138.424C125.591 138.708 125.452 138.969 125.248 139.174C125.043 139.379 124.783 139.519 124.5 139.575C124.217 139.631 123.923 139.602 123.656 139.491C123.39 139.379 123.162 139.191 123.002 138.95C122.842 138.708 122.756 138.425 122.757 138.135C122.757 137.943 122.795 137.752 122.868 137.574C122.941 137.397 123.049 137.235 123.184 137.099C123.32 136.963 123.481 136.856 123.658 136.782C123.835 136.709 124.025 136.671 124.216 136.671V136.671Z" fill="#70CAF2"/>
<path d="M124.216 146.071C124.506 146.07 124.789 146.156 125.03 146.317C125.27 146.479 125.458 146.708 125.569 146.976C125.68 147.245 125.709 147.54 125.652 147.825C125.596 148.11 125.456 148.372 125.252 148.578C125.047 148.783 124.786 148.923 124.502 148.979C124.218 149.035 123.924 149.006 123.657 148.894C123.39 148.782 123.161 148.593 123.001 148.351C122.841 148.109 122.756 147.825 122.757 147.534C122.757 147.342 122.795 147.151 122.868 146.974C122.941 146.796 123.049 146.635 123.184 146.499C123.32 146.363 123.481 146.255 123.658 146.182C123.835 146.108 124.025 146.071 124.216 146.071V146.071Z" fill="#70CAF2"/>
<path d="M109.623 131.703C109.912 131.703 110.194 131.79 110.435 131.951C110.675 132.113 110.862 132.343 110.972 132.611C111.082 132.88 111.11 133.175 111.053 133.46C110.996 133.745 110.857 134.006 110.652 134.211C110.447 134.416 110.186 134.555 109.902 134.611C109.618 134.667 109.324 134.637 109.057 134.525C108.79 134.414 108.562 134.225 108.403 133.983C108.243 133.741 108.158 133.457 108.158 133.166C108.158 132.973 108.196 132.783 108.27 132.605C108.344 132.427 108.452 132.265 108.588 132.129C108.724 131.993 108.885 131.885 109.063 131.812C109.24 131.739 109.431 131.702 109.623 131.703V131.703Z" fill="#70CAF2"/>
<path d="M109.623 141.102C109.911 141.103 110.194 141.189 110.434 141.351C110.674 141.512 110.861 141.741 110.971 142.01C111.082 142.278 111.11 142.573 111.054 142.857C110.997 143.142 110.858 143.403 110.654 143.608C110.45 143.813 110.189 143.953 109.906 144.01C109.623 144.067 109.329 144.038 109.062 143.927C108.795 143.816 108.567 143.628 108.406 143.387C108.245 143.146 108.159 142.863 108.158 142.572C108.158 142.379 108.196 142.188 108.269 142.01C108.343 141.831 108.451 141.669 108.587 141.532C108.723 141.396 108.884 141.287 109.062 141.214C109.24 141.14 109.43 141.102 109.623 141.102V141.102Z" fill="#70CAF2"/>
<path d="M109.623 150.508C109.91 150.51 110.192 150.597 110.43 150.758C110.669 150.92 110.855 151.149 110.964 151.416C111.073 151.684 111.101 151.978 111.044 152.261C110.987 152.545 110.848 152.805 110.644 153.009C110.44 153.213 110.18 153.352 109.898 153.408C109.615 153.464 109.323 153.434 109.057 153.323C108.791 153.212 108.563 153.025 108.404 152.784C108.244 152.544 108.158 152.261 108.158 151.972C108.158 151.779 108.196 151.588 108.27 151.41C108.344 151.232 108.452 151.071 108.588 150.935C108.724 150.799 108.885 150.691 109.063 150.618C109.24 150.545 109.431 150.507 109.623 150.508V150.508Z" fill="#70CAF2"/>
<path d="M93.7117 127.272C94.0005 127.272 94.2829 127.357 94.5233 127.518C94.7636 127.679 94.951 127.907 95.0618 128.175C95.1726 128.443 95.2019 128.738 95.1458 129.022C95.0897 129.307 94.9509 129.568 94.7469 129.773C94.5428 129.979 94.2828 130.118 93.9996 130.175C93.7164 130.232 93.4228 130.203 93.1559 130.092C92.8891 129.981 92.661 129.793 92.5005 129.552C92.34 129.311 92.2544 129.028 92.2544 128.738C92.2556 128.35 92.4094 127.978 92.6824 127.703C92.9554 127.429 93.3254 127.274 93.7117 127.272V127.272Z" fill="#70CAF2"/>
<path d="M93.7117 136.671C94.0006 136.671 94.2831 136.757 94.5235 136.917C94.7639 137.078 94.9513 137.307 95.062 137.575C95.1728 137.843 95.2019 138.138 95.1456 138.423C95.0894 138.707 94.9503 138.968 94.7461 139.174C94.5418 139.379 94.2815 139.518 93.9982 139.575C93.7148 139.631 93.4212 139.602 93.1544 139.491C92.8876 139.38 92.6597 139.191 92.4995 138.95C92.3392 138.709 92.254 138.425 92.2544 138.135C92.2562 137.747 92.4103 137.376 92.6832 137.102C92.9561 136.828 93.3258 136.673 93.7117 136.671Z" fill="#70CAF2"/>
<path d="M93.7118 146.071C94.0013 146.07 94.2845 146.155 94.5256 146.316C94.7667 146.477 94.9547 146.707 95.0659 146.975C95.1771 147.243 95.2064 147.539 95.1502 147.824C95.0939 148.109 94.9546 148.371 94.7499 148.577C94.5452 148.782 94.2843 148.922 94.0003 148.979C93.7163 149.035 93.422 149.006 93.1547 148.894C92.8874 148.782 92.6592 148.594 92.4989 148.352C92.3386 148.109 92.2535 147.825 92.2544 147.534C92.2556 147.147 92.4095 146.775 92.6825 146.501C92.9556 146.227 93.3256 146.072 93.7118 146.071Z" fill="#70CAF2"/>
<path d="M81.5909 123.191C81.8792 123.191 82.1609 123.277 82.4006 123.437C82.6402 123.598 82.8271 123.827 82.9374 124.094C83.0477 124.362 83.0765 124.656 83.0203 124.94C82.9641 125.224 82.8253 125.484 82.6215 125.689C82.4176 125.894 82.1579 126.033 81.8752 126.09C81.5925 126.146 81.2995 126.117 81.0332 126.006C80.7669 125.895 80.5393 125.708 80.3791 125.467C80.219 125.227 80.1335 124.944 80.1335 124.654C80.1335 124.266 80.2871 123.894 80.5604 123.619C80.8337 123.345 81.2044 123.191 81.5909 123.191V123.191Z" fill="#70CAF2"/>
<path d="M81.5909 132.588C81.8801 132.587 82.1631 132.672 82.404 132.833C82.645 132.994 82.8331 133.222 82.9444 133.49C83.0558 133.759 83.0856 134.054 83.0298 134.339C82.9741 134.624 82.8355 134.886 82.6314 135.092C82.4274 135.297 82.1671 135.438 81.8836 135.495C81.6 135.552 81.306 135.524 81.0386 135.413C80.7711 135.303 80.5424 135.115 80.3813 134.874C80.2202 134.632 80.134 134.349 80.1335 134.058C80.133 133.669 80.2861 133.296 80.5593 133.02C80.8326 132.745 81.2036 132.589 81.5909 132.588V132.588Z" fill="#70CAF2"/>
<path d="M147.423 66.0722C146.67 66.3309 145.895 66.517 145.108 66.628C137.781 67.6791 123.875 68.524 109.56 68.5532C107.469 68.5532 105.373 68.542 103.289 68.5173L94.0555 68.2932L93.4284 68.2753C84.3069 67.9413 76.2189 67.3452 71.2955 66.6347C70.983 66.5922 70.6751 66.5316 70.376 66.4644C70.0412 66.3905 69.7221 66.2963 69.4029 66.2C67.1915 65.7989 65.0626 65.0284 63.1047 63.9207C64.7942 66.5451 67.1979 68.4434 70.376 69.174C70.6751 69.2457 70.983 69.3085 71.2955 69.3533C76.2189 70.1063 84.3069 70.7338 93.4284 71.0879L94.0555 71.1081L103.289 71.3502C105.373 71.3771 107.469 71.395 109.56 71.3883C123.875 71.3569 137.781 70.4649 145.108 69.3533C145.901 69.2329 146.68 69.0332 147.434 68.7571C151.005 67.4572 153.442 64.546 154.868 60.8032C153.272 62.6679 150.188 65.1175 147.423 66.0722Z" fill="#195CAA"/>
<path d="M82.8562 24.4739C82.8562 24.4739 71.1883 30.7492 67.6598 40.4983C67.6643 40.4983 66.8541 26.9773 82.8562 24.4739Z" fill="white"/>
<path d="M66.6622 77.2312C66.6622 77.2312 67.9299 74.1809 68.9721 72.946C69.9682 71.8635 71.2536 71.0916 72.6747 70.7228C72.6747 70.7228 69.3716 69.9362 67.6866 72.1347C66.9189 73.1276 66.3922 75.1671 66.6622 77.2312Z" fill="white"/>
<path d="M138.545 105.4C138.545 105.4 145.91 104.782 148.943 100.656C151.976 96.5297 152.163 92.4731 152.163 92.4731C152.163 92.4731 149.974 96.8793 146.791 99.8175C143.392 102.96 138.545 105.4 138.545 105.4Z" fill="#70CAF2"/>
<path d="M75.1767 104.542C75.1767 104.542 71.2934 104.524 69.4945 102.003C67.7225 99.5241 68.3251 97.498 68.3251 97.498C68.9974 98.9796 69.9416 100.321 71.1081 101.451C72.3598 102.614 73.7226 103.649 75.1767 104.542V104.542Z" fill="white"/>
<path d="M127.923 115.486C127.923 115.486 132.447 115.905 134.871 113.601C137.257 111.337 136.819 109.255 136.819 109.255C135.807 110.692 134.53 111.921 133.057 112.875C130.825 114.365 127.923 115.486 127.923 115.486Z" fill="#70CAF2"/>
<path d="M88.8913 115.354C88.8913 115.354 84.479 115.77 82.1133 113.469C79.7855 111.203 80.2118 109.123 80.2118 109.123C81.1925 110.553 82.4373 111.78 83.8787 112.738C86.0614 114.222 88.8913 115.354 88.8913 115.354Z" fill="#70CAF2"/>
<path d="M114.671 122.052C114.671 122.052 111.169 124.807 107.306 124.251C103.496 123.706 102.222 121.786 102.222 121.786C104.178 122.391 106.214 122.694 108.261 122.682C110.411 122.644 112.554 122.433 114.671 122.052V122.052Z" fill="#70CAF2"/>
<path d="M111.568 76.98C116.82 76.98 121.08 81.1306 121.08 86.245C121.08 91.3593 116.82 95.5122 111.568 95.5122C106.317 95.5122 102.048 91.3616 102.048 86.245C102.048 81.1284 106.308 76.98 111.568 76.98Z" fill="#3A58C2"/>
<path d="M111.901 79.9385C113.573 79.9398 115.206 80.4387 116.595 81.3721C117.984 82.3055 119.066 83.6315 119.705 85.1825C120.344 86.7335 120.51 88.4398 120.183 90.0857C119.856 91.7316 119.051 93.2433 117.869 94.4296C116.686 95.6159 115.18 96.4236 113.541 96.7505C111.902 97.0775 110.203 96.909 108.659 96.2664C107.115 95.6238 105.795 94.536 104.867 93.1404C103.938 91.7448 103.443 90.1041 103.443 88.4258C103.443 87.3107 103.661 86.2065 104.087 85.1763C104.512 84.1461 105.135 83.2102 105.92 82.422C106.706 81.6338 107.639 81.0087 108.665 80.5826C109.691 80.1565 110.791 79.9376 111.901 79.9385V79.9385Z" fill="white"/>
<path d="M143.992 37.1746C148.525 40.1688 149.126 47.1142 148.855 52.3743C148.652 56.2201 145.338 59.4071 140.991 59.9158C125.395 61.7424 111.919 61.8365 101.07 61.2157C92.8059 60.8261 84.5839 59.7959 76.4778 58.1341C72.9069 57.3878 70.2644 54.7387 69.9475 51.5271C69.4275 46.2872 70.2198 40.0433 74.3018 37.0245C76.0872 35.6999 80.2563 33.8129 85.1127 31.8541C100.454 25.655 118.157 25.711 133.431 32.0356C137.839 33.8622 141.761 35.682 143.992 37.1746Z" fill="#ECFFFF"/>
<path d="M144.251 36.6121C141.982 35.0836 138.042 33.2212 133.612 31.3521C118.231 24.8818 100.398 24.8236 84.9454 31.1661C80.0555 33.1697 75.8619 35.1016 74.0586 36.4575C69.9476 39.5458 69.1487 45.9332 69.6731 51.294C69.8963 53.589 71.2622 55.5993 73.2887 56.8656C72.1842 55.8155 71.4847 54.4074 71.3135 52.8898C70.8113 47.9726 71.5746 42.112 75.5049 39.2791C77.23 38.0375 81.2384 36.2647 85.914 34.427C100.686 28.5999 117.733 28.6627 132.438 34.5973C136.679 36.3118 140.439 38.0196 142.609 39.4226C146.972 42.2307 147.559 48.7503 147.296 53.6854C147.18 55.8122 146.021 57.7195 144.236 59.0283C147.059 57.715 148.998 55.1309 149.146 52.1614C149.429 46.7803 148.815 39.6736 144.251 36.6121Z" fill="#3A58C2"/>
<path d="M72.3824 88.5914C70.6105 88.4351 68.8272 88.4659 67.0618 88.6833C60.9109 89.4005 55.6795 91.9173 53.4834 91.9173C53.4053 91.9173 53.3294 91.9173 53.2602 91.9061C53.2148 91.906 53.1697 91.8992 53.1263 91.886C53.079 91.8805 53.0321 91.8723 52.9857 91.8613C52.9857 91.8613 52.9857 91.8613 52.9857 91.8478C52.9252 91.8295 52.8674 91.8031 52.8139 91.7694C50.928 90.6735 50.8566 87.379 58.2215 80.958C59.6176 79.7405 61.1063 78.6345 62.674 77.65C66.2271 75.4245 70.9942 77.148 72.1213 81.1956C72.7697 83.6085 72.859 86.1385 72.3824 88.5914Z" fill="#3970FA"/>
<path d="M72.3825 88.4817V88.5916C70.6106 88.4352 68.8273 88.466 67.0618 88.6835C60.911 89.4006 55.6796 91.9175 53.4835 91.9175C53.4054 91.9175 53.3295 91.9175 53.2603 91.9063C53.2149 91.9062 53.1698 91.8994 53.1264 91.8861C53.0791 91.8806 53.0321 91.8724 52.9858 91.8614C52.9858 91.8614 52.9858 91.8614 52.9858 91.848C52.0931 90.1402 56.9763 86.263 61.7345 84.7972C65.6245 83.6027 72.3825 84.0711 72.3825 88.4817Z" fill="#195CAA"/>
<path d="M123.513 48.4903C123.424 48.4908 123.335 48.478 123.25 48.4522C123.128 48.419 123.014 48.362 122.915 48.2844C122.815 48.2069 122.732 48.1104 122.67 48.0004C122.608 47.8904 122.568 47.7691 122.552 47.6436C122.537 47.518 122.546 47.3907 122.58 47.2688C122.957 46.1053 123.576 45.0357 124.397 44.1312C124.568 43.9419 124.807 43.8285 125.061 43.8161C125.316 43.8037 125.564 43.8933 125.753 44.0651C125.941 44.2368 126.054 44.4768 126.067 44.7321C126.079 44.9875 125.99 45.2373 125.819 45.4266C125.196 46.1127 124.722 46.9208 124.426 47.8C124.367 47.9977 124.247 48.1714 124.082 48.2955C123.918 48.4197 123.719 48.488 123.513 48.4903V48.4903ZM136.199 46.5942C136.05 46.5943 135.904 46.5597 135.771 46.4932C135.638 46.4267 135.523 46.3301 135.433 46.211C134.871 45.4431 134.17 44.7878 133.367 44.2791C133.255 44.2151 133.157 44.1293 133.079 44.0267C133.001 43.9241 132.945 43.8068 132.913 43.6817C132.881 43.5567 132.874 43.4265 132.893 43.2989C132.912 43.1713 132.957 43.0488 133.024 42.9387C133.091 42.8287 133.18 42.7333 133.284 42.6582C133.389 42.5831 133.507 42.5299 133.633 42.5017C133.758 42.4735 133.888 42.4709 134.014 42.494C134.141 42.5171 134.261 42.5655 134.369 42.6363C135.377 43.2706 136.257 44.0894 136.964 45.0501C137.072 45.1931 137.137 45.3633 137.154 45.5417C137.17 45.7201 137.137 45.8996 137.057 46.06C136.978 46.2204 136.855 46.3553 136.704 46.4497C136.552 46.5441 136.377 46.5941 136.199 46.5942V46.5942ZM127.718 43.9295C127.494 43.9293 127.277 43.8506 127.105 43.7069C126.933 43.5632 126.816 43.3635 126.775 43.1425C126.734 42.9214 126.771 42.693 126.88 42.4966C126.989 42.3002 127.163 42.1482 127.372 42.0671C128.501 41.6356 129.708 41.4507 130.914 41.5247C131.164 41.5462 131.396 41.6653 131.56 41.8566C131.724 42.0479 131.806 42.296 131.79 42.5477C131.773 42.7993 131.659 43.0346 131.472 43.2028C131.285 43.3711 131.04 43.459 130.789 43.4476C130.465 43.4265 130.139 43.431 129.816 43.4611C129.216 43.5124 128.626 43.6482 128.064 43.8645C127.955 43.9062 127.839 43.9282 127.722 43.9295H127.718Z" fill="#256199"/>
<path d="M83.8161 48.4902C83.727 48.4908 83.6382 48.4779 83.5528 48.4521C83.4314 48.4186 83.3177 48.3615 83.2184 48.2839C83.119 48.2063 83.0358 48.1098 82.9736 47.9999C82.9114 47.89 82.8714 47.7688 82.8559 47.6433C82.8404 47.5179 82.8497 47.3906 82.8832 47.2688C83.2615 46.1054 83.8815 45.0359 84.7022 44.1311C84.8759 43.9529 85.1117 43.8493 85.3599 43.842C85.6082 43.8347 85.8496 43.9244 86.0333 44.0921C86.2171 44.2598 86.329 44.4926 86.3455 44.7414C86.3619 44.9903 86.2817 45.2358 86.1216 45.4265C85.5031 46.1148 85.0322 46.9234 84.7379 47.8022C84.678 48.0009 84.5561 48.1751 84.3902 48.299C84.2242 48.4229 84.0229 48.4899 83.8161 48.4902V48.4902ZM96.5018 46.5919C96.3535 46.5921 96.2073 46.5578 96.0745 46.4917C95.9416 46.4256 95.8259 46.3295 95.7363 46.2109C95.1735 45.443 94.4725 44.7878 93.6696 44.279C93.4832 44.1332 93.3569 43.9235 93.3149 43.69C93.2728 43.4565 93.3181 43.2157 93.4419 43.0136C93.5658 42.8115 93.7595 42.6624 93.986 42.5949C94.2125 42.5273 94.4558 42.546 94.6694 42.6475C95.677 43.2815 96.5573 44.0995 97.265 45.059C97.4174 45.2624 97.4832 45.5182 97.4481 45.7702C97.413 46.0223 97.2797 46.2501 97.0776 46.4037C96.9114 46.5282 96.7091 46.5944 96.5018 46.5919V46.5919ZM88.0209 43.9294C87.797 43.9293 87.5801 43.8505 87.408 43.7068C87.2358 43.5631 87.119 43.3634 87.078 43.1424C87.0369 42.9214 87.0741 42.6929 87.1831 42.4965C87.2922 42.3001 87.4661 42.1482 87.675 42.067C88.8046 41.6357 90.0128 41.4508 91.2191 41.5246C91.4701 41.5454 91.7029 41.6645 91.8673 41.8561C92.0317 42.0477 92.1145 42.2966 92.0978 42.549C92.0811 42.8013 91.9663 43.037 91.7781 43.2051C91.5899 43.3732 91.3434 43.4603 91.0918 43.4476C90.7676 43.4265 90.4423 43.4309 90.1188 43.461C89.5189 43.5128 88.9292 43.6486 88.3668 43.8644C88.2577 43.9062 88.1421 43.9282 88.0253 43.9294H88.0209Z" fill="#256199"/>
<path d="M108.913 56.0094C108.716 56.0094 108.52 56.0094 108.321 55.9915C106.125 55.8615 104.259 55.0211 103.188 53.6853C103.11 53.5864 103.051 53.473 103.017 53.3515C102.982 53.23 102.971 53.1029 102.986 52.9773C103 52.8517 103.039 52.7301 103.099 52.6195C103.16 52.509 103.243 52.4115 103.341 52.3328C103.439 52.2541 103.552 52.1956 103.673 52.1607C103.794 52.1258 103.921 52.1152 104.046 52.1294C104.171 52.1437 104.292 52.1825 104.402 52.2438C104.512 52.305 104.61 52.3874 104.688 52.4863C105.398 53.3828 106.795 53.9722 108.424 54.0686C110.433 54.1896 112.345 53.58 113.448 52.4841C113.633 52.3323 113.868 52.2555 114.107 52.2687C114.346 52.282 114.571 52.3843 114.739 52.5557C114.907 52.7271 115.004 52.9552 115.013 53.1953C115.022 53.4353 114.941 53.67 114.787 53.8534C113.446 55.1981 111.227 56.0094 108.913 56.0094Z" fill="#256199"/>
<path d="M224.144 153.857C224.144 153.857 218.12 155.331 214.87 155.121C201.803 154.278 206.907 135.301 196.323 140.789C184.942 146.691 203.489 156.858 179.884 156.858C156.278 156.858 140.26 153.857 159.229 131.937C178.198 110.018 168.502 62.8071 168.502 62.8071" stroke="#8892B0" stroke-width="3" stroke-linecap="round"/>
<path d="M171.502 68.5017C171.502 68.5017 168.172 70.9513 168.509 73.8066C168.752 75.8729 170.261 76.5094 171.307 76.5587C172.682 75.6376 174.758 71.7088 171.502 68.5017Z" fill="#235FF5"/>
<path d="M166.101 64.8303C166.016 64.2846 166.389 63.773 166.935 63.6876L170.406 63.1442C170.951 63.0588 171.463 63.4319 171.548 63.9776L171.875 66.062C171.96 66.6076 171.587 67.1192 171.041 67.2046L167.57 67.748C167.025 67.8334 166.513 67.4603 166.428 66.9147L166.101 64.8303Z" fill="#4D5565"/>
<rect x="60.7104" y="111.389" width="2.06289" height="7.80259" rx="1" transform="rotate(-20.6596 60.7104 111.389)" fill="#EAB098"/>
<rect x="66.0718" y="109.481" width="2.06289" height="7.80259" rx="1" transform="rotate(-20.6596 66.0718 109.481)" fill="#EAB098"/>
<path d="M117 83L116.214 85.75L112.833 86.3353V94H110.939L110.321 86.9286L106 87.7143L107.179 85.75L117 83Z" fill="#3970FA"/>
<rect x="55.1289" y="101.576" width="11.1629" height="16.0136" rx="1" transform="rotate(-20.6596 55.1289 101.576)" fill="#647493"/>
<rect x="161.368" y="53.0994" width="11.0812" height="12.7578" rx="2" transform="rotate(-7.96945 161.368 53.0994)" fill="#647493"/>
<path d="M161.593 54.5003C161.502 53.8702 161.938 53.2854 162.568 53.1941L171.304 51.9288C171.934 51.8375 172.519 52.2743 172.61 52.9044V52.9044C172.701 53.5345 172.265 54.1193 171.634 54.2106L162.899 55.476C162.269 55.5672 161.684 55.1304 161.593 54.5003V54.5003Z" fill="white"/>
<rect x="161.34" y="53.0857" width="11.1324" height="2.30567" rx="1.15283" transform="rotate(-8.24206 161.34 53.0857)" fill="#8892B0"/>
<path d="M171.798 53.9989C171.739 54.0201 171.703 54.0803 171.713 54.1425L173.122 63.2694C173.134 63.3509 173.218 63.4007 173.296 63.3729V63.3729C173.355 63.3517 173.391 63.2915 173.381 63.2293L171.972 54.1025C171.96 54.021 171.876 53.9711 171.798 53.9989V53.9989Z" fill="white"/>
<path d="M171.248 54.1892C171.219 54.1994 171.201 54.2291 171.206 54.2598L171.863 58.5156C171.869 58.5553 171.91 58.5798 171.948 58.5665V58.5665C171.977 58.5563 171.995 58.5266 171.99 58.4959L171.333 54.2402C171.327 54.2004 171.286 54.176 171.248 54.1892V54.1892Z" fill="white"/>
<rect x="163.023" y="53.4666" width="2.67104" height="0.553209" rx="0.276605" transform="rotate(-7.62458 163.023 53.4666)" fill="#2D3038"/>
<rect x="168.081" y="52.6235" width="2.67104" height="0.553209" rx="0.276605" transform="rotate(-7.62458 168.081 52.6235)" fill="#2D3038"/>
<path d="M57.9197 106.01L61.4334 114.794" stroke="white" stroke-width="0.5" stroke-linecap="round"/>
<path d="M59.78 107.87L62.3635 114.382" stroke="white" stroke-width="0.3" stroke-linecap="round"/>
</svg>
