<svg width="86" height="86" viewBox="0 0 86 86" fill="none" xmlns="http://www.w3.org/2000/svg">
<path d="M42.8926 84.6562C65.8987 84.6562 84.5488 66.0061 84.5488 43C84.5488 19.9939 65.8987 1.34375 42.8926 1.34375C19.8865 1.34375 1.23633 19.9939 1.23633 43C1.23633 66.0061 19.8865 84.6562 42.8926 84.6562Z" fill="#235FF5" fill-opacity="0.2"/>
<path d="M13.5449 72.5625C19.2136 78.2297 26.3969 82.141 34.2331 83.8273C42.0694 85.5136 50.2257 84.9032 57.7237 82.0694C65.2217 79.2355 71.7428 74.2986 76.5048 67.8508C81.2668 61.403 84.0674 53.7183 84.5706 45.7185C85.0738 37.7187 83.2583 29.7435 79.3418 22.7499C75.4254 15.7562 69.5743 10.041 62.4905 6.28988C55.4068 2.53879 47.3912 0.911111 39.4054 1.60213C31.4196 2.29314 23.8028 5.27349 17.4687 10.1856" stroke="#232E3C" stroke-width="2" stroke-linecap="round" stroke-linejoin="round"/>
<path d="M12.0938 1.34375V14.7812H25.5312" stroke="#232E3C" stroke-width="2" stroke-linecap="round" stroke-linejoin="round"/>
<path d="M1.34375 43H9.40625" stroke="#232E3C" stroke-width="2" stroke-linecap="round" stroke-linejoin="round"/>
<path d="M1.98877 50.2293L9.91689 48.8318" stroke="#232E3C" stroke-width="2" stroke-linecap="round" stroke-linejoin="round"/>
<path d="M3.84326 57.2437L11.422 54.5024" stroke="#232E3C" stroke-width="2" stroke-linecap="round" stroke-linejoin="round"/>
<path d="M6.93359 63.8281L13.8942 59.7969" stroke="#232E3C" stroke-width="2" stroke-linecap="round" stroke-linejoin="round"/>
<path d="M6.93359 22.1719L13.8942 26.2031" stroke="#232E3C" stroke-width="2" stroke-linecap="round" stroke-linejoin="round"/>
<path d="M3.84326 28.7563L11.422 31.4976" stroke="#232E3C" stroke-width="2" stroke-linecap="round" stroke-linejoin="round"/>
<path d="M1.98877 35.7705L9.91689 37.168" stroke="#232E3C" stroke-width="2" stroke-linecap="round" stroke-linejoin="round"/>
<path d="M42.8926 68.5312C56.9931 68.5312 68.4238 57.1005 68.4238 43C68.4238 28.8995 56.9931 17.4688 42.8926 17.4688C28.7921 17.4688 17.3613 28.8995 17.3613 43C17.3613 57.1005 28.7921 68.5312 42.8926 68.5312Z" fill="#235FF5" fill-opacity="0.8" stroke="#232E3C" stroke-width="2" stroke-linecap="round" stroke-linejoin="round"/>
<path d="M42.8926 17.4688V20.1562" stroke="#232E3C" stroke-width="2" stroke-linecap="round" stroke-linejoin="round"/>
<path d="M42.8926 68.5312V65.8438" stroke="#232E3C" stroke-width="2" stroke-linecap="round" stroke-linejoin="round"/>
<path d="M68.4238 43H65.7363" stroke="#232E3C" stroke-width="2" stroke-linecap="round" stroke-linejoin="round"/>
<path d="M17.3613 43H20.0488" stroke="#232E3C" stroke-width="2" stroke-linecap="round" stroke-linejoin="round"/>
<path d="M42.8926 26.875V43L49.6113 49.7188" stroke="#232E3C" stroke-width="2" stroke-linecap="round" stroke-linejoin="round"/>
</svg>
