<svg width="81" height="80" viewBox="0 0 81 80" fill="none" xmlns="http://www.w3.org/2000/svg">
<g clip-path="url(#clip0)">
<path d="M80.5 43.3334C80.5 54.3834 71.55 63.3334 60.5 63.3334C57.5 63.3334 19.4 63.3334 16.3333 63.3334C7.58333 63.3334 0.5 56.25 0.5 47.5C0.5 39.9334 5.8 33.6 12.9167 32.0334C15.75 20.35 26.2667 11.6667 38.8333 11.6667C48.0167 11.6667 56.1 16.3 60.9 23.35C71.7667 23.55 80.5 32.4167 80.5 43.3334Z" fill="url(#paint0_linear)"/>
<path d="M28 50.4167C28 49.16 33 44.1667 40.5 44.1667C48 44.1667 53 49.165 53 50.4167C53 51.1067 52.44 51.6667 51.75 51.6667C50.5017 51.6667 46.07 48.75 40.5 48.75C34.9367 48.75 30.4933 51.6667 29.25 51.6667C28.56 51.6667 28 51.1067 28 50.4167Z" fill="#0D62AB"/>
<path d="M48.5967 36.9033C50.5033 38.81 53.5933 38.81 55.5 36.9033L48.5967 30C46.69 31.9067 46.69 34.9967 48.5967 36.9033ZM32.4033 36.9033C34.31 34.9967 34.31 31.9067 32.4033 30L25.5 36.9033C27.4067 38.81 30.4967 38.81 32.4033 36.9033Z" fill="#0D62AB"/>
</g>
<defs>
<linearGradient id="paint0_linear" x1="26.4083" y1="18.065" x2="57.825" y2="77.895" gradientUnits="userSpaceOnUse">
<stop stop-color="#2AA4F4"/>
<stop offset="1" stop-color="#007AD9"/>
</linearGradient>
<clipPath id="clip0">
<rect width="80" height="80" fill="white" transform="translate(0.5)"/>
</clipPath>
</defs>
</svg>
