<svg width="157" height="24" viewBox="0 0 157 24" fill="none" xmlns="http://www.w3.org/2000/svg">
<path d="M2.69531 7.77329H6.6807V18.4894H9.40118V7.77329H13.3866V5.51094H2.69531V7.77329Z" fill="#235FF5"/>
<path d="M15.1473 18.4894H17.8995V13.8886H19.9081L22.3743 18.4894H25.4126L22.6477 13.445C24.1287 12.8113 24.9486 11.5249 24.9486 9.75048C24.9486 7.17127 23.2388 5.51094 20.2831 5.51094H15.1473V18.4894ZM17.8995 11.6833V7.75428H19.7556C21.3446 7.75428 22.1137 8.4577 22.1137 9.75048C22.1137 11.0369 21.3446 11.6833 19.7683 11.6833H17.8995Z" fill="#235FF5"/>
<path d="M38.8562 12.0002C38.8562 7.75428 36.212 5.3335 32.7605 5.3335C29.29 5.3335 26.6648 7.75428 26.6648 12.0002C26.6648 16.227 29.29 18.6668 32.7605 18.6668C36.212 18.6668 38.8562 16.246 38.8562 12.0002ZM36.0658 12.0002C36.0658 14.7505 34.7564 16.2397 32.7605 16.2397C30.7583 16.2397 29.4552 14.7505 29.4552 12.0002C29.4552 9.24985 30.7583 7.76062 32.7605 7.76062C34.7564 7.76062 36.0658 9.24985 36.0658 12.0002Z" fill="#235FF5"/>
<path d="M39.3456 5.51094L44.0937 13.9013V18.4894H46.8269V13.9013L51.5751 5.51094H48.4923L45.5239 11.1003H45.3968L42.4284 5.51094H39.3456Z" fill="#235FF5"/>
<path d="M56.0086 18.4894H58.6909L61.1635 10.004H61.2652L63.7442 18.4894H66.4265L70.1513 5.51094H67.1448L64.99 14.5477H64.8756L62.5047 5.51094H59.9304L57.5532 14.5287H57.4451L55.2903 5.51094H52.2838L56.0086 18.4894Z" fill="#235FF5"/>
<path d="M71.6244 18.4894H80.4214V16.227H74.3766V13.1282H79.9447V10.8658H74.3766V7.77329H80.396V5.51094H71.6244V18.4894Z" fill="#235FF5"/>
<path d="M82.5842 18.4894H90.9172V16.227H85.3364V5.51094H82.5842V18.4894Z" fill="#235FF5"/>
<path d="M92.7399 18.4894H101.073V16.227H95.4922V5.51094H92.7399V18.4894Z" fill="#235FF5"/>
</svg>
